<svg width="23" height="23" viewBox="0 0 23 23" fill="none" xmlns="http://www.w3.org/2000/svg">
<path d="M13.2894 17.3321C13.1144 17.3321 12.9394 17.2677 12.8013 17.1295C12.5342 16.8624 12.5342 16.4204 12.8013 16.1533L17.9033 11.0513L12.8013 5.94921C12.5342 5.68214 12.5342 5.24009 12.8013 4.97301C13.0683 4.70594 13.5104 4.70594 13.7775 4.97301L19.3676 10.5632C19.6347 10.8302 19.6347 11.2723 19.3676 11.5394L13.7775 17.1295C13.6393 17.2677 13.4643 17.3321 13.2894 17.3321Z" fill="white"/>
<path d="M18.7228 11.742H3.2233C2.84571 11.742 2.53259 11.4289 2.53259 11.0513C2.53259 10.6737 2.84571 10.3606 3.2233 10.3606H18.7228C19.1004 10.3606 19.4136 10.6737 19.4136 11.0513C19.4136 11.4289 19.1004 11.742 18.7228 11.742Z" fill="white"/>
</svg>
