<svg width="501" height="347" viewBox="0 0 501 347" fill="none" xmlns="http://www.w3.org/2000/svg">
<g clip-path="url(#clip0_1038_5311)">
<path d="M15.4437 155.17C8.06826 141.6 5.94935 125.749 9.57595 110.754C19.8853 68.2535 49.061 -6.35662 126.279 4.19718C233.447 18.8666 264.619 22.5339 308.587 8.76099C352.554 -5.01193 428.59 -4.97118 452.387 26.1605C466.812 45.0269 515.588 129.661 484.456 159C453.325 188.339 499.533 246.364 500.959 277.17C502.385 307.976 457.929 311.969 402.023 312.906C346.116 313.843 21.3522 303.167 21.3522 303.167C21.3522 303.167 -20.2925 231.369 12.7136 205.738C33.1284 189.846 23.9601 170.858 15.4437 155.17Z" fill="#EBF4DE"/>
<path d="M47.9199 269.59C40.789 269.346 14.0174 273.013 12.4282 274.399C12.0207 274.766 6.15294 292.206 31.9466 314.699C73.1838 350.72 184.101 351.943 220.041 338.251C272.198 318.366 329.368 355.651 447.823 341.389C485.679 336.825 510.983 278.84 493.788 271.302C483.478 266.82 471.132 278.718 460.781 273.502C448.842 267.472 424.678 263.723 409.724 268.327C409.113 268.49 408.746 269.142 408.909 269.753C409.072 270.324 409.642 270.691 410.254 270.568L402.389 273.095C393.628 279.615 395.584 270.935 375.047 269.835L314.495 268.327C292.858 268.979 209.528 272.647 176.929 271.343H159C147.02 269.835 116.01 269.142 114.869 269.102L47.9199 269.59Z" fill="#F5F5FC"/>
<path d="M72.5726 180.881H90.9094C90.9094 180.881 96.6141 181.696 97.0216 185.771C97.4291 189.846 96.8993 242.859 96.8993 242.859L133.695 242.411C133.695 242.411 137.362 243.634 137.362 247.709C137.362 251.783 134.51 253.413 134.51 253.413L78.6034 253.169L72.5726 180.881Z" fill="#8FC045"/>
<path d="M72.5728 180.881C72.5728 180.881 67.2755 181.696 66.868 189.846C66.4605 197.996 66.868 253.006 66.868 253.006L122.734 253.413C123.549 253.413 124.323 253.087 124.853 252.476C125.668 251.58 126.768 250.194 126.768 248.931C126.768 246.731 125.953 243.226 121.471 243.226C116.988 243.226 79.0925 242.819 79.0925 242.819L78.2775 185.771C78.2775 185.812 78.2775 181.696 72.5728 180.881Z" fill="#262F39"/>
<path d="M95.9622 253.292C95.9622 253.292 94.9843 257.896 98.2441 257.896H103.541C103.949 257.896 105.701 255.451 104.601 253.414C103.501 251.377 95.9622 253.292 95.9622 253.292Z" fill="#8FC045"/>
<path d="M98.2441 257.937L98.6516 303.941H102.319L102.523 257.651L98.2441 257.937Z" fill="#262F39"/>
<path d="M83.1671 303.126L118.211 303.534V306.794L83.1671 306.386V303.126Z" fill="#262F39"/>
<path d="M152.439 307.201L150.809 222.038H159.366L158.959 307.201H152.439ZM338.659 222.445H348.031L344.771 307.609L338.659 308.016V222.445Z" fill="white"/>
<path d="M144.29 207.368L144.697 221.223L352.106 222.445L352.35 206.961L144.29 207.368Z" fill="#262F39"/>
<path d="M131.658 199.626L364.738 200.441V208.183L132.065 207.776L131.658 199.626Z" fill="#8FC045"/>
<path d="M416.773 272.077L417.181 306.713L463.634 305.898V272.077H416.773Z" fill="#262F39"/>
<path d="M453.447 306.061L453.487 272.077H450.513" fill="white"/>
<path d="M428.835 271.995C428.835 271.995 427.735 251.458 437.433 245.631C447.131 239.804 438.818 226.194 440.774 218.981C442.73 211.769 451.858 206.472 451.858 200.93C451.858 195.388 451.043 179.822 461.556 175.136C472.069 170.45 480.422 176.522 477.121 185.69C473.821 194.858 471.294 205.412 467.668 208.713C464.041 212.013 465.467 217.311 465.997 223.708C466.527 230.106 461.556 240.619 458.785 244.531C456.014 248.442 458.785 255.084 457.97 262.012C457.97 262.012 456.462 271.71 454.914 272.036C453.365 272.362 428.835 271.995 428.835 271.995Z" fill="#8FC045"/>
<path d="M450.513 272.647C450.513 272.647 451.735 262.867 440.896 260.096C430.057 257.326 439.348 250.847 437.188 247.424C435.028 244.001 424.801 241.475 424.801 238.867C424.801 236.259 425.738 228.843 413.962 226.601C402.185 224.36 392.895 227.253 396.603 231.613C400.311 235.973 403.123 240.986 407.116 242.575C411.109 244.164 409.602 246.65 408.99 249.706C408.379 252.762 413.962 257.774 417.058 259.607C420.155 261.441 417.059 264.62 417.996 267.92C417.996 267.92 419.707 272.525 421.378 272.688C423.048 272.851 450.513 272.647 450.513 272.647Z" fill="#8FC045"/>
<path d="M441.467 272.606C441.467 272.606 440.611 262.378 448.15 259.485C455.688 256.592 449.25 249.828 450.717 246.242C452.184 242.656 459.355 240.048 459.355 237.278C459.355 234.507 458.703 226.805 466.894 224.442C475.084 222.078 481.563 225.135 478.955 229.698C476.347 234.262 474.432 239.478 471.621 241.149C468.809 242.819 469.909 245.427 470.317 248.606C470.724 251.784 466.853 257.04 464.693 258.956C462.534 260.871 464.693 264.212 464.041 267.635C464.041 267.635 462.86 272.443 461.678 272.606C460.496 272.769 441.467 272.606 441.467 272.606Z" fill="#8FC045"/>
<path d="M180.067 75.6699L180.352 153.825L397.744 153.499V76.2811L180.067 75.6699Z" fill="white"/>
<path d="M218.94 100.119V109.735L307.975 109.328V100.119H218.94ZM218.94 126.89V136.507L307.975 136.099V126.89H218.94Z" fill="#8FC045"/>
<path d="M203.904 113.077C207.595 113.077 210.587 110.085 210.587 106.394C210.587 102.703 207.595 99.7114 203.904 99.7114C200.214 99.7114 197.222 102.703 197.222 106.394C197.222 110.085 200.214 113.077 203.904 113.077Z" fill="#8FC045"/>
<path d="M203.904 138.055C207.595 138.055 210.587 135.063 210.587 131.373C210.587 127.682 207.595 124.69 203.904 124.69C200.214 124.69 197.222 127.682 197.222 131.373C197.222 135.063 200.214 138.055 203.904 138.055Z" fill="#8FC045"/>
<path d="M332.302 110.632H385.153V136.425H332.302V110.632Z" fill="#262F39"/>
<path d="M331.447 135.203C331.447 135.203 335.562 126.198 339.474 127.176C343.386 128.154 344.364 132.269 347.298 130.517C350.231 128.765 352.147 121.675 354.999 120.534C359.074 118.944 360.419 120.697 365.92 123.834C371.421 126.972 373.743 126.279 375.984 123.956C378.063 121.838 381.893 116.092 386.131 113.525" stroke="#8FC045" stroke-width="1.22245" stroke-linecap="round" stroke-linejoin="round"/>
<path d="M84.4712 76.689H163.115V151.462H84.4712V76.689Z" fill="white"/>
<path d="M122.775 142.293C134.004 142.293 143.108 133.19 143.108 121.96C143.108 110.73 134.004 101.626 122.775 101.626C111.545 101.626 102.441 110.73 102.441 121.96C102.441 133.19 111.545 142.293 122.775 142.293Z" stroke="#8FC045" stroke-width="2.4449" stroke-linecap="round" stroke-linejoin="round"/>
<path d="M89.6461 83.1675H109.654V87.8943H89.6461V83.1675ZM89.6461 90.5837H109.654V95.3105H89.6461V90.5837Z" fill="#8FC045"/>
<path d="M148.12 187.483H210.18C210.18 187.483 212.502 187.36 212.502 184.671V179.333H145.675V185.812C146.001 186.831 146.979 187.523 148.12 187.483Z" fill="#262F39"/>
<path d="M145.675 138.993L145.634 181.371L212.502 180.76V137.77C212.502 137.77 212.91 135.325 210.302 135.325H148.202C148.202 135.325 145.39 135.325 145.675 138.993ZM173.791 198.852V187.076L183.571 187.483V197.833L173.791 198.852Z" fill="#262F39"/>
<path d="M158.266 197.67H198.892L198.933 199.708H158.266V197.67Z" fill="#262F39"/>
<path d="M178.478 182.227C179.578 182.227 180.433 183.082 180.433 184.182C180.433 185.283 179.578 186.138 178.478 186.138C177.377 186.138 176.522 185.283 176.522 184.182C176.522 183.082 177.418 182.227 178.478 182.227Z" fill="white"/>
<path d="M147.713 137.362H210.465V178.518H147.713V137.362Z" fill="#F8F8FF"/>
<path d="M150.85 139.482C151.38 139.482 151.828 139.93 151.828 140.46C151.828 140.99 151.38 141.438 150.85 141.438C150.32 141.438 149.872 140.99 149.872 140.46C149.872 139.93 150.32 139.482 150.85 139.482Z" fill="#FA5F5D"/>
<path d="M154.191 139.482C154.721 139.482 155.169 139.93 155.169 140.46C155.169 140.99 154.721 141.438 154.191 141.438C153.662 141.438 153.214 140.99 153.214 140.46C153.214 139.93 153.662 139.482 154.191 139.482Z" fill="#FDBC4E"/>
<path d="M157.696 139.482C158.226 139.482 158.674 139.93 158.674 140.46C158.674 140.99 158.226 141.438 157.696 141.438C157.166 141.438 156.718 140.99 156.718 140.46C156.718 139.93 157.166 139.482 157.696 139.482Z" fill="#37CD58"/>
<path d="M171.346 146.653C171.306 147.183 170.858 147.59 170.328 147.55H158.307C157.696 147.55 157.085 147.142 157.085 146.653V144.819C157.085 144.33 157.655 143.882 158.307 143.882H170.287C170.817 143.841 171.306 144.249 171.346 144.779V146.653Z" fill="url(#paint0_linear_1038_5311)"/>
<path d="M200.278 158.796C200.237 159.367 199.748 159.815 199.178 159.774H158.307C157.696 159.774 157.085 159.326 157.085 158.796V149.75C157.085 149.22 157.696 148.772 158.307 148.772H199.178C199.748 148.731 200.237 149.18 200.278 149.75V158.796Z" fill="#8FC045"/>
<path d="M170.532 166.538C170.532 167.068 170.083 167.516 169.554 167.516H158.307C157.655 167.516 157.085 167.068 157.085 166.538V161.567C157.085 161.037 157.696 160.589 158.307 160.589H169.472C170.002 160.548 170.491 160.956 170.532 161.526V166.538Z" fill="#262F39"/>
<path d="M185.201 166.538C185.201 167.068 184.753 167.516 184.223 167.516H172.976C172.324 167.516 171.754 167.068 171.754 166.538V161.567C171.754 161.037 172.365 160.589 172.976 160.589H184.141C184.671 160.548 185.16 160.956 185.201 161.526V166.538Z" fill="#262F39"/>
<path d="M200.278 166.538C200.237 167.109 199.748 167.557 199.178 167.516H188.013C187.401 167.557 186.912 167.109 186.831 166.538V161.567C186.872 160.956 187.401 160.548 188.013 160.589H199.178C199.748 160.548 200.278 160.997 200.319 161.567L200.278 166.538Z" fill="#262F39"/>
<path d="M185.201 169.35C185.119 169.554 184.956 169.676 184.753 169.717C184.712 169.717 184.712 169.717 184.671 169.554H172.365C172.121 169.717 171.754 169.554 171.754 169.35V169.187C171.754 168.984 172.121 168.78 172.365 168.739H184.671C184.875 168.78 184.997 168.943 185.038 169.106C185.038 169.147 185.038 169.147 185.16 169.187L185.201 169.35ZM185.201 170.94C185.119 171.143 184.956 171.306 184.753 171.347C184.753 171.347 184.712 171.347 184.712 171.184H172.365C172.121 171.347 171.754 171.184 171.754 170.94V170.777C171.754 170.573 172.121 170.41 172.365 170.369H184.671C184.875 170.41 185.079 170.573 185.16 170.777L185.201 170.94ZM185.201 172.57C185.119 172.814 184.916 172.977 184.712 173.018V172.814H172.365C172.161 172.936 171.917 172.896 171.795 172.692C171.754 172.651 171.754 172.61 171.754 172.57V172.407C171.754 172.203 172.121 172.081 172.365 171.999H184.671C184.875 172.04 185.079 172.203 185.16 172.407L185.201 172.57ZM185.201 174.159C185.079 174.403 184.916 174.648 184.712 174.851H172.365C172.121 174.648 171.754 174.403 171.754 174.159V173.996C171.754 173.792 172.121 173.548 172.365 173.629H184.671C184.834 173.588 184.997 173.711 185.038 173.874V173.996L185.16 174.037L185.201 174.159ZM178.355 175.789C178.355 175.992 178.233 176.074 177.988 176.074H172.324C172.08 176.074 171.754 175.992 171.754 175.789V175.626C171.754 175.422 172.08 175.259 172.324 175.259H177.988C178.192 175.259 178.355 175.422 178.355 175.626V175.789ZM200.278 169.35C200.033 169.554 200.074 169.717 199.83 169.554H187.524C187.32 169.717 187.116 169.595 187.116 169.391L187.238 169.35V169.187C187.116 168.984 187.279 168.78 187.524 168.739H199.83C200.074 168.821 200.033 168.984 200.278 169.187V169.35ZM200.278 170.94C200.033 171.143 200.074 171.347 199.83 171.184H187.524C187.279 171.347 187.116 171.184 187.238 170.94V170.777C187.116 170.573 187.279 170.41 187.524 170.369H199.83C200.074 170.451 200.033 170.573 200.278 170.777V170.94ZM200.278 172.57C200.033 172.773 200.074 173.018 199.83 172.814H187.524C187.279 172.977 187.116 172.814 187.238 172.57V172.407C187.116 172.203 187.279 172.081 187.524 171.999H199.83C200.074 172.081 200.033 172.203 200.278 172.407V172.57ZM200.278 174.159C200.033 174.363 200.074 174.648 199.83 174.851H187.524C187.279 174.607 187.116 174.403 187.238 174.159V173.996C187.157 173.914 187.157 173.751 187.238 173.67C187.32 173.629 187.401 173.588 187.483 173.629H199.83C200.074 173.548 200.033 173.792 200.278 173.996V174.159ZM193.514 175.789C193.514 175.992 193.514 176.074 193.31 176.074H187.605C187.361 176.074 187.238 175.992 187.238 175.789V175.626C187.238 175.422 187.401 175.259 187.605 175.259H193.269C193.514 175.259 193.473 175.422 193.473 175.626L193.514 175.789ZM170.124 169.35C170.287 169.554 170.206 169.717 169.961 169.554H157.614C157.451 169.676 157.248 169.636 157.166 169.513C157.125 169.473 157.125 169.432 157.085 169.35V169.187C157.166 168.943 157.37 168.78 157.614 168.739H169.92C170.165 168.821 170.246 168.984 170.083 169.187L170.124 169.35ZM170.124 170.94C170.287 171.143 170.206 171.347 169.961 171.184H157.614C157.37 171.388 157.166 171.184 157.085 170.94V170.777C157.125 170.573 157.37 170.41 157.614 170.369H169.92C170.165 170.451 170.246 170.573 170.083 170.777L170.124 170.94ZM170.124 172.57C170.287 172.773 170.206 173.018 169.961 172.814H157.614C157.37 173.018 157.166 172.814 157.085 172.57V172.407C157.125 172.203 157.37 172.081 157.614 171.999H169.92C170.165 172.081 170.246 172.203 170.083 172.407L170.124 172.57ZM166.457 173.629H169.961C170.206 173.548 170.287 173.792 170.124 173.996V174.159C170.287 174.363 170.206 174.648 169.961 174.851H157.614C157.37 174.689 157.207 174.444 157.085 174.159V173.996C157.125 173.751 157.37 173.588 157.614 173.629H166.457ZM164.012 175.789C164.012 175.992 163.89 176.074 163.645 176.074H157.533C157.288 176.074 157.085 175.992 157.085 175.789V175.626C157.125 175.422 157.329 175.259 157.533 175.259H163.645C163.849 175.259 164.012 175.422 164.012 175.585V175.789Z" fill="#E9EDFB"/>
<path d="M33.9433 305.816C33.9433 305.816 37.5292 286.338 18.622 275.907C-0.244489 265.475 -1.14095 265.598 -4.88979 264.416C-7.04945 263.682 -9.24986 265.231 -6.76421 268.328C-4.27857 271.465 -5.70476 272.239 -0.733468 273.625C4.23782 275.01 4.97129 281.041 7.45693 282.549C9.94258 284.056 12.1022 284.464 19.6814 287.724C26.5679 290.698 32.4356 299.093 32.4356 302.026C32.4356 304.96 39.1591 305.979 39.1591 305.979L33.9433 305.816Z" fill="#8FC045"/>
<path d="M33.2913 303.086C33.2913 303.086 38.0996 285.157 21.5558 275.458C5.01198 265.76 -0.733525 265.883 -4.03414 264.701C-5.90856 264.008 -0.774273 266.372 1.38539 269.224C3.54504 272.117 3.01532 271.465 6.8864 273.584C11.3687 276.07 13.2431 278.474 15.8918 278.963C19.7221 279.696 18.5812 283.69 25.2231 286.664C31.2131 289.394 31.9873 296.688 31.9873 299.418C31.9873 302.189 37.8551 303.086 37.8551 303.086H33.2913Z" fill="#8FC045"/>
<path d="M49.9166 300.437L51.791 298.644C52.6875 297.829 53.7877 297.218 54.9694 296.892C60.7964 295.344 79.1739 289.598 86.7938 275.703C86.8753 275.581 86.7938 275.418 86.6715 275.377H86.6308C86.5901 275.377 86.5493 275.336 86.5493 275.336C84.0229 275.133 70.9427 274.929 53.4617 289.843C53.1357 290.087 52.8505 290.413 52.606 290.698C52.1578 291.31 51.4243 292.369 51.0983 292.899C50.6501 293.714 51.5465 295.059 50.3241 296.24C49.1016 297.422 46.453 300.397 46.453 300.397L48.6127 301.986L49.9166 300.437Z" fill="#8FC045"/>
<path d="M39.974 299.296C39.974 299.296 44.986 254.432 31.2946 240.333C18.7034 227.375 18.4997 239.274 18.5404 241.311C18.5404 241.515 18.6219 241.637 18.6627 241.8C21.6373 247.342 22.656 253.739 21.5965 259.933C20.2926 266.412 29.5832 265.556 30.3982 271.954C31.2131 278.351 34.4322 288.213 34.1063 292.736C33.7803 297.259 33.7395 301.659 33.7395 301.659L38.7923 301.822L39.974 299.296Z" fill="#8FC045"/>
<path d="M39.9333 299.419C39.9741 299.337 40.0148 299.215 40.0148 299.093C40.3408 296.159 44.5379 253.903 31.3354 240.293C18.8257 227.376 18.622 239.071 18.7035 241.189C18.7442 241.434 18.8665 241.678 18.9887 241.882C19.9259 243.227 24.0415 249.095 27.7088 248.443C37.8551 246.65 28.8905 258.833 34.3915 265.353C38.7924 270.487 37.3254 288.254 36.9994 292.817C36.7957 295.385 36.3475 297.911 35.6955 300.397C35.5732 301.049 36.0215 301.66 36.6327 301.782H36.7142C36.7957 301.782 36.8772 301.823 36.9587 301.823H37.8959C38.4664 301.864 38.9554 301.578 39.1998 301.089L39.9333 299.419Z" fill="#8FC045"/>
<path d="M44.8638 302.027C44.8638 302.027 45.7603 289.598 53.0134 282.019C55.0509 279.941 57.618 278.515 60.4296 277.863C62.5893 277.374 66.1344 275.622 69.2312 269.795C69.2312 269.795 75.0583 261.523 80.926 259.037C86.753 256.511 80.926 256.226 80.926 256.226C80.926 256.226 64.2192 259.404 53.5024 269.184C52.8097 269.795 52.117 270.365 51.3428 270.854C48.5719 272.769 40.8705 279.9 41.1964 300.804L44.8638 302.027Z" fill="#8FC045"/>
<path d="M59.3701 301.048C59.3701 301.048 59.6146 299.541 57.618 299.581C55.8658 299.663 26.364 299.418 26.364 299.418C26.364 299.418 24.9786 299.418 25.0601 300.478C25.1416 301.537 29.6239 326.109 30.0314 326.598C30.2351 326.924 30.5204 327.168 30.8871 327.25C31.4576 327.413 52.1577 327.29 52.1577 327.29C52.6467 327.209 53.0134 326.842 53.0542 326.353C53.0542 326.353 59.4109 301.334 59.3701 301.048Z" fill="url(#paint1_linear_1038_5311)"/>
<path d="M360.704 323.827C359.603 319.182 359.237 313.233 358.503 313.11H357.688L349.905 313.192C349.905 313.192 348.275 320.608 347.46 323.705C347.379 323.909 347.257 324.438 347.094 324.805C346.931 325.335 346.931 325.905 346.931 326.435C347.094 329.247 348.194 331.651 350.68 332.914C353.491 334.299 355.61 335.644 358.462 332.914C361.356 330.143 361.804 328.472 360.704 323.827ZM336.051 313.844L326.19 314.374C326.19 314.374 322.278 321.138 316.573 322.768C311.194 324.316 302.311 328.065 306.264 330.184C309.198 331.895 328.186 330.347 332.791 330.714C336.255 330.999 337.192 328.88 336.825 324.235C336.581 320.73 336.051 313.844 336.051 313.844Z" fill="#262F39"/>
<path d="M324.234 190.743C324.234 190.743 317.633 245.142 317.184 248.687C316.736 252.232 319.466 270.365 319.466 273.828C319.466 277.292 325.945 314.414 325.945 314.414L336.255 313.965C336.255 313.965 334.177 259.322 334.421 256.673C334.625 254.025 345.912 222.323 345.912 222.323C345.912 222.323 346.727 230.717 346.727 233.365C346.727 236.014 349.824 313.313 349.824 313.313H358.788L371.502 199.463L371.298 197.262L324.234 190.743Z" fill="url(#paint2_linear_1038_5311)"/>
<path d="M354.51 85.6533C354.51 85.6533 344.649 89.4837 342.448 90.3394C340.248 91.2358 338.985 93.9252 338.985 93.9252C338.985 93.9252 337.885 93.2732 337.885 95.1069C337.885 96.9406 338.781 101.138 339.515 102.238C340.696 104.072 341.715 105.905 342.693 107.82C343.589 109.736 343.263 113.688 342.326 114.299C341.389 114.87 324.764 129.906 324.764 129.906L310.909 172.488L312.743 185.935L315.555 199.178C315.555 199.178 314.984 200.115 316.125 201.256C317.307 202.356 322.319 210.588 322.319 210.588L324.03 198.445L318.366 180.434L316.37 165.275L329.613 138.219L375.495 146.368L380.507 175.87L371.217 201.012L369.587 213.277L377.37 206.431C377.818 206.064 378.674 204.149 379.122 203.131L383.767 190.05L387.231 169.147C387.231 169.147 358.259 116.948 356.792 113.851C356.14 112.466 356.873 109.084 357.24 107.372C357.607 105.824 358.34 103.827 359.074 103.257C360.174 102.075 360.704 100.404 360.989 98.8558C360.989 97.7556 361.437 93.477 360.337 94.5364C360.133 94.8217 359.318 93.5177 358.952 91.8063C358.259 89.3207 356.507 87.2425 354.51 85.6533Z" fill="url(#paint3_linear_1038_5311)"/>
<path d="M350.761 128.235C350.028 128.887 348.927 128.806 348.275 128.154C347.746 127.339 347.257 126.524 346.89 125.709C346.157 124.242 340.493 115.929 340.493 115.929C340.493 115.929 327.046 119.393 324.886 120.778C322.686 122.245 320.689 124.242 319.955 126.809C319.222 129.376 308.831 159.611 308.342 161.445C307.812 163.279 305.164 166.213 306.427 173.67C307.69 181.126 314.658 200.156 315.392 200.36C316.125 200.563 323.541 196.896 323.541 196.896C323.541 196.896 317.673 173.221 317.673 170.858C317.673 168.494 322.971 161.812 325.09 157.248C327.209 152.684 328.757 148.732 329.49 146.735C330.224 144.738 323.175 186.098 323.175 186.098C323.175 186.098 323.012 193.595 324.438 194.329C325.742 194.981 341.552 201.012 345.26 202.438C345.627 202.601 346.075 202.356 346.279 201.99L348.642 195.307C348.642 195.225 348.724 195.144 348.805 195.225C348.887 195.225 348.887 195.307 348.887 195.307L351.087 202.601C351.169 202.968 351.617 203.171 351.984 203.131L371.461 198.933C371.461 198.933 371.176 162.993 371.543 156.963C371.828 151.095 371.094 147.754 372.195 149.384C373.376 151.136 378.307 167.313 378.307 170.043C378.307 172.773 372.806 196.652 372.806 196.652L380.1 200.686C380.1 200.686 389.961 174.444 390.45 170.98C390.98 167.517 391.183 165.683 389.553 162.219C387.924 158.756 378.959 127.379 378.959 127.379C378.959 127.379 378.062 123.549 371.461 121.552C364.86 119.556 359.929 116.622 358.748 116.703C357.566 116.785 353.899 123.671 352.269 125.75C351.495 126.524 351.658 126.89 350.761 128.235Z" fill="#262F39"/>
<path d="M354.428 85.6937C354.428 85.6937 343.304 89.7278 341.063 91.4392C339.352 92.7024 338.985 93.8841 338.985 93.8841C338.985 93.8841 337.803 93.3544 337.885 95.0658C337.966 96.7773 336.581 92.4172 336.173 91.0318C335.888 89.6463 335.807 85.7345 338.822 82.8821C341.837 80.0297 345.138 77.8701 347.95 78.0331C350.761 78.1961 353.043 78.9703 355.243 81.1299C357.444 83.2488 357.974 83.1266 358.422 83.3303C358.87 83.5341 361.152 85.979 361.437 88.6276C361.722 91.2763 360.907 95.1881 360.907 95.1881C360.907 95.1881 360.378 94.6176 359.807 95.0251C359.237 95.4326 359.074 92.5394 357.159 88.9129C355.773 86.2235 354.428 85.6937 354.428 85.6937Z" fill="url(#paint4_linear_1038_5311)"/>
<path opacity="0.07" d="M347.379 216.74C346.116 220.407 341.185 227.62 337.966 231.98C334.747 236.299 324.804 245.427 325.456 256.551C326.108 267.675 332.791 296.281 332.791 298.848C332.791 301.415 330.305 313.558 328.39 317.307C326.475 321.056 325.579 327.738 326.557 327.738C328.309 327.657 330.142 327.453 331.935 327.005C333.565 326.638 335.155 326.271 336.703 325.742C337.355 325.457 337.518 323.297 337.518 323.297C337.599 322.4 337.436 321.463 337.233 320.648C336.784 319.263 336.418 317.837 336.214 316.451C335.847 306.02 334.91 281.815 335.114 280.104C335.481 276.925 332.913 260.993 335.277 253.128C337.599 245.305 347.379 216.74 347.379 216.74ZM323.541 196.896L321.83 209.976C321.83 209.976 323.541 212.706 324.03 210.424C324.56 208.142 328.064 203.864 325.864 200.808C323.664 197.751 323.541 196.896 323.541 196.896ZM371.339 200.522L370.769 206.757L370.035 212.788C370.035 212.788 367.549 214.621 367.59 212.258C367.672 209.894 363.393 206.39 366.653 204.027C369.913 201.663 371.339 200.522 371.339 200.522ZM340.411 116.01C340.859 115.929 338.292 116.581 340.574 115.847C344.486 114.584 342.856 107.25 342.856 107.25C342.856 107.25 343.223 109.98 346.89 111.08C350.557 112.18 351.535 111.365 345.994 113.932C340.493 116.499 343.345 117.396 343.712 120.778M329.368 149.261L323.175 186.749C323.175 186.749 323.256 193.432 324.438 194.41C325.619 195.347 329.572 196.04 330.468 196.692C331.365 197.344 340.9 200.522 338.414 195.144C337.844 193.962 324.967 186.749 330.713 179.17C336.458 171.591 335.399 161.159 332.71 153.866C331.08 149.587 330.265 145.023 330.509 140.5L329.368 149.261Z" fill="black"/>
</g>
<defs>
<linearGradient id="paint0_linear_1038_5311" x1="157.075" y1="145.709" x2="171.337" y2="145.709" gradientUnits="userSpaceOnUse">
<stop stop-color="#F71D69"/>
<stop offset="1" stop-color="#F8C648"/>
</linearGradient>
<linearGradient id="paint1_linear_1038_5311" x1="25.1188" y1="313.354" x2="59.4076" y2="313.354" gradientUnits="userSpaceOnUse">
<stop stop-color="#F8C547"/>
<stop offset="1" stop-color="#F71D69"/>
</linearGradient>
<linearGradient id="paint2_linear_1038_5311" x1="317.113" y1="252.57" x2="371.432" y2="252.57" gradientUnits="userSpaceOnUse">
<stop stop-color="#2C3C7A"/>
<stop offset="1" stop-color="#256171"/>
</linearGradient>
<linearGradient id="paint3_linear_1038_5311" x1="310.91" y1="149.471" x2="387.242" y2="149.471" gradientUnits="userSpaceOnUse">
<stop stop-color="#F87B58"/>
<stop offset="0.41" stop-color="#F89453"/>
<stop offset="0.71" stop-color="#F8C548"/>
<stop offset="1" stop-color="#F89C51"/>
</linearGradient>
<linearGradient id="paint4_linear_1038_5311" x1="336.073" y1="86.7112" x2="361.578" y2="86.7112" gradientUnits="userSpaceOnUse">
<stop stop-color="#2F3C6B"/>
<stop offset="1" stop-color="#296170"/>
</linearGradient>
<clipPath id="clip0_1038_5311">
<rect width="501" height="346.32" fill="white"/>
</clipPath>
</defs>
</svg>
