<svg width="50" height="50" viewBox="0 0 50 50" fill="none" xmlns="http://www.w3.org/2000/svg">
<path d="M47.8571 27.4675H41.4286V11.973C41.4286 11.8804 41.41 11.7886 41.374 11.7031C41.3379 11.6175 41.2851 11.5398 41.2186 11.4744L32.6486 3.02425C32.5822 2.95863 32.5034 2.90657 32.4166 2.87103C32.3299 2.8355 32.2368 2.8172 32.1429 2.81718H30V0.704296C30 0.517505 29.9247 0.338365 29.7908 0.206284C29.6568 0.0742025 29.4752 0 29.2857 0H5.71429C5.52485 0 5.34316 0.0742025 5.20921 0.206284C5.07525 0.338365 5 0.517505 5 0.704296V27.4675H2.14286C0.961429 27.4675 0 28.4155 0 29.5804V45.7792C0 47.721 1.60214 49.3007 3.57143 49.3007H46.4286C48.3979 49.3007 50 47.721 50 45.7792V29.5804C50 28.4155 49.0386 27.4675 47.8571 27.4675ZM34.2857 27.4675C34.2471 27.4675 34.2143 27.483 34.1764 27.4887C34.1286 27.4964 34.0814 27.5006 34.0364 27.5168C33.9914 27.5337 33.9536 27.5605 33.9136 27.5851C33.8757 27.6084 33.8371 27.6274 33.8043 27.6577C33.7664 27.6929 33.74 27.7352 33.71 27.7774C33.69 27.8056 33.6629 27.8253 33.6464 27.857L31.7014 31.6933H18.2986L16.3536 27.857C16.3371 27.8253 16.31 27.8049 16.2893 27.7767C16.2607 27.7345 16.2336 27.6922 16.1964 27.6584C16.1629 27.6281 16.1236 27.6084 16.0857 27.5851C16.0457 27.5605 16.0086 27.5337 15.9643 27.5175C15.9186 27.5006 15.8714 27.4964 15.8229 27.4894C15.7857 27.483 15.7529 27.4675 15.7143 27.4675H10V4.22577H31.4286V10.5644C31.4286 11.7293 32.39 12.6773 33.5714 12.6773H40V27.4675H34.2857ZM32.8571 5.22165L38.99 11.2687H33.5714C33.1779 11.2687 32.8571 10.9532 32.8571 10.5644V5.22165ZM6.42857 1.40859H28.5714V2.81718H9.28571C9.09627 2.81718 8.91459 2.89139 8.78064 3.02347C8.64668 3.15555 8.57143 3.33469 8.57143 3.52148V27.4675H6.42857V1.40859ZM48.5714 45.7792C48.5714 46.9441 47.61 47.8921 46.4286 47.8921H3.57143C2.39 47.8921 1.42857 46.9441 1.42857 45.7792V29.5804C1.42857 29.1916 1.74929 28.8761 2.14286 28.8761H15.2729L17.0207 32.3237C17.1389 32.5583 17.3214 32.7556 17.5475 32.8932C17.7736 33.0307 18.0343 33.103 18.3 33.1019H31.7021C31.9676 33.1028 32.228 33.0303 32.4538 32.8928C32.6797 32.7552 32.8619 32.5581 32.98 32.3237L34.7271 28.8761H47.8571C48.2507 28.8761 48.5714 29.1916 48.5714 29.5804V45.7792Z" fill="#8FC045"/>
<path d="M12.8571 9.15591H27.1428C27.3323 9.15591 27.5139 9.0817 27.6479 8.94962C27.7819 8.81754 27.8571 8.6384 27.8571 8.45161C27.8571 8.26482 27.7819 8.08568 27.6479 7.9536C27.5139 7.82152 27.3323 7.74731 27.1428 7.74731H12.8571C12.6677 7.74731 12.486 7.82152 12.352 7.9536C12.2181 8.08568 12.1428 8.26482 12.1428 8.45161C12.1428 8.6384 12.2181 8.81754 12.352 8.94962C12.486 9.0817 12.6677 9.15591 12.8571 9.15591ZM12.8571 14.086H29.2857C29.4751 14.086 29.6568 14.0118 29.7908 13.8797C29.9247 13.7476 30 13.5685 30 13.3817C30 13.1949 29.9247 13.0157 29.7908 12.8837C29.6568 12.7516 29.4751 12.6774 29.2857 12.6774H12.8571C12.6677 12.6774 12.486 12.7516 12.352 12.8837C12.2181 13.0157 12.1428 13.1949 12.1428 13.3817C12.1428 13.5685 12.2181 13.7476 12.352 13.8797C12.486 14.0118 12.6677 14.086 12.8571 14.086ZM12.8571 19.016H37.1428C37.3323 19.016 37.5139 18.9418 37.6479 18.8098C37.7819 18.6777 37.8571 18.4985 37.8571 18.3117C37.8571 18.125 37.7819 17.9458 37.6479 17.8137C37.5139 17.6817 37.3323 17.6075 37.1428 17.6075H12.8571C12.6677 17.6075 12.486 17.6817 12.352 17.8137C12.2181 17.9458 12.1428 18.125 12.1428 18.3117C12.1428 18.4985 12.2181 18.6777 12.352 18.8098C12.486 18.9418 12.6677 19.016 12.8571 19.016ZM37.1428 22.5375H12.8571C12.6677 22.5375 12.486 22.6117 12.352 22.7438C12.2181 22.8759 12.1428 23.055 12.1428 23.2418C12.1428 23.4286 12.2181 23.6078 12.352 23.7398C12.486 23.8719 12.6677 23.9461 12.8571 23.9461H37.1428C37.3323 23.9461 37.5139 23.8719 37.6479 23.7398C37.7819 23.6078 37.8571 23.4286 37.8571 23.2418C37.8571 23.055 37.7819 22.8759 37.6479 22.7438C37.5139 22.6117 37.3323 22.5375 37.1428 22.5375Z" fill="#8FC045"/>
<path d="M21.0536 39.104H19.7042C19.6657 38.8827 19.5947 38.6867 19.4913 38.5159C19.3879 38.3427 19.2592 38.196 19.1053 38.0757C18.9513 37.9555 18.7757 37.8653 18.5785 37.8051C18.3837 37.7426 18.1732 37.7113 17.9471 37.7113C17.5454 37.7113 17.1894 37.8124 16.8791 38.0144C16.5689 38.214 16.3259 38.5075 16.1503 38.8947C15.9748 39.2796 15.887 39.7498 15.887 40.3055C15.887 40.8707 15.9748 41.347 16.1503 41.7342C16.3283 42.1191 16.5713 42.4101 16.8791 42.6073C17.1894 42.8022 17.5442 42.8996 17.9435 42.8996C18.1648 42.8996 18.3716 42.8707 18.5641 42.813C18.7589 42.7529 18.9333 42.6651 19.0872 42.5496C19.2436 42.4341 19.3746 42.2922 19.4805 42.1239C19.5887 41.9555 19.6633 41.7631 19.7042 41.5466L21.0536 41.5538C21.003 41.905 20.8936 42.2345 20.7252 42.5424C20.5593 42.8503 20.3416 43.1221 20.0722 43.3578C19.8028 43.5911 19.4877 43.7739 19.1269 43.9062C18.7661 44.0361 18.3656 44.101 17.9255 44.101C17.276 44.101 16.6963 43.9507 16.1864 43.65C15.6765 43.3494 15.2748 42.9152 14.9814 42.3476C14.6879 41.7799 14.5412 41.0992 14.5412 40.3055C14.5412 39.5093 14.6891 38.8286 14.985 38.2634C15.2808 37.6957 15.6837 37.2615 16.1936 36.9609C16.7036 36.6602 17.2808 36.5099 17.9255 36.5099C18.3368 36.5099 18.7192 36.5676 19.0728 36.6831C19.4264 36.7985 19.7415 36.9681 20.0181 37.1918C20.2947 37.4131 20.522 37.6849 20.7 38.0072C20.8804 38.3271 20.9982 38.6927 21.0536 39.104ZM23.1389 44H21.7102L24.3115 36.6109H25.964L28.5689 44H27.1402L25.1666 38.1263H25.1089L23.1389 44ZM23.1859 41.1028H27.0824V42.178H23.1859V41.1028ZM29.5422 44V36.6109H34.2758V37.733H30.8807V39.739H33.9511V40.8611H30.8807V44H29.5422Z" fill="#8FC045"/>
</svg>
