<svg width="27" height="27" viewBox="0 0 27 27" fill="none" xmlns="http://www.w3.org/2000/svg">
<path d="M10.9243 12.7015C10.7125 12.4897 10.4251 12.3707 10.1255 12.3707C9.82596 12.3707 9.53864 12.4897 9.32679 12.7015C9.11495 12.9134 8.99594 13.2007 8.99594 13.5003C8.99594 13.7999 9.11495 14.0872 9.32679 14.299L12.7018 17.674C12.8069 17.7783 12.9316 17.8608 13.0687 17.9168C13.2057 17.9728 13.3525 18.0012 13.5005 18.0003C13.6546 17.9954 13.8059 17.9589 13.9453 17.8931C14.0846 17.8273 14.2089 17.7336 14.3105 17.6178L22.1855 8.6178C22.3674 8.39204 22.4551 8.10481 22.4303 7.81599C22.4055 7.52717 22.2702 7.25906 22.0526 7.06756C21.835 6.87606 21.5519 6.77595 21.2622 6.7881C20.9726 6.80025 20.6988 6.92374 20.498 7.1328L13.5005 15.2328L10.9243 12.7015Z" fill="#8FC045"/>
<path d="M23.625 12.375C23.3266 12.375 23.0405 12.4935 22.8295 12.7045C22.6185 12.9155 22.5 13.2016 22.5 13.5C22.5 15.8869 21.5518 18.1761 19.864 19.864C18.1761 21.5518 15.887 22.5 13.5 22.5C11.7226 22.4992 9.98524 21.9721 8.50699 20.9852C7.02874 19.9984 5.87579 18.5959 5.19354 16.9546C4.5113 15.3134 4.33029 13.5069 4.67335 11.7629C5.01642 10.0189 5.86819 8.41555 7.12125 7.155C7.95454 6.31056 8.94789 5.6408 10.0432 5.18492C11.1384 4.72903 12.3136 4.49619 13.5 4.5C14.2194 4.5045 14.9361 4.5875 15.6375 4.7475C15.7843 4.7929 15.9388 4.80775 16.0915 4.79115C16.2443 4.77454 16.392 4.72683 16.5256 4.65095C16.6592 4.57507 16.7758 4.47263 16.8683 4.34995C16.9608 4.22727 17.0271 4.08694 17.0633 3.93763C17.0995 3.78831 17.1047 3.63317 17.0786 3.48176C17.0525 3.33036 16.9957 3.1859 16.9117 3.05729C16.8276 2.92868 16.7181 2.81865 16.5899 2.73399C16.4617 2.64932 16.3175 2.59181 16.1663 2.565C15.2923 2.3594 14.3978 2.25372 13.5 2.25C11.2774 2.26155 9.10799 2.93121 7.26559 4.17448C5.42319 5.41776 3.99035 7.17892 3.14789 9.23572C2.30543 11.2925 2.09111 13.5528 2.53197 15.7313C2.97283 17.9098 4.04911 19.9088 5.625 21.4762C7.71378 23.566 10.5454 24.7431 13.5 24.75C16.4837 24.75 19.3452 23.5647 21.455 21.455C23.5647 19.3452 24.75 16.4837 24.75 13.5C24.75 13.2016 24.6315 12.9155 24.4205 12.7045C24.2095 12.4935 23.9234 12.375 23.625 12.375Z" fill="#8FC045"/>
</svg>
