<svg width="55" height="55" viewBox="0 0 55 55" fill="none" xmlns="http://www.w3.org/2000/svg">
<path d="M27.5 0C22.061 0 16.7442 1.61285 12.2218 4.63458C7.69948 7.65632 4.17473 11.9512 2.09332 16.9762C0.0119156 22.0012 -0.532676 27.5305 0.528417 32.865C1.58951 38.1995 4.20863 43.0995 8.05457 46.9454C11.9005 50.7914 16.8005 53.4105 22.135 54.4716C27.4695 55.5327 32.9988 54.9881 38.0238 52.9067C43.0488 50.8253 47.3437 47.3005 50.3654 42.7782C53.3872 38.2558 55 32.939 55 27.5C55 20.2065 52.1027 13.2118 46.9454 8.05456C41.7882 2.89731 34.7935 0 27.5 0ZM27.5 51.9383C22.6666 51.9383 17.9417 50.505 13.9228 47.8197C9.90394 45.1344 6.77161 41.3177 4.92194 36.8521C3.07226 32.3866 2.5883 27.4729 3.53125 22.7323C4.47421 17.9917 6.80174 13.6372 10.2195 10.2195C13.6373 6.80172 17.9918 4.4742 22.7323 3.53124C27.4729 2.58828 32.3866 3.07224 36.8521 4.92192C41.3177 6.7716 45.1344 9.90392 47.8197 13.9228C50.5051 17.9417 51.9383 22.6665 51.9383 27.5C51.9286 33.9785 49.3508 40.1888 44.7698 44.7698C40.1888 49.3508 33.9785 51.9286 27.5 51.9383Z" fill="#8FC045"/>
<path d="M23.6682 32.2484L17.8016 26.3817L15.1982 28.9667L23.6682 37.4184L41.4516 19.6351L38.8666 17.0317L23.6682 32.2484Z" fill="#8FC045"/>
</svg>
