<svg width="456" height="286" viewBox="0 0 456 286" fill="none" xmlns="http://www.w3.org/2000/svg">
<g clip-path="url(#clip0_1038_4964)">
<path opacity="0.18" d="M455.9 202.629C455.449 211.471 453.189 220.125 449.258 228.058C442.848 240.789 432.874 251.189 421.068 259.232C414.481 263.686 407.447 267.439 400.079 270.429C396.023 272.089 391.885 273.537 387.68 274.769C362.218 282.219 335.351 282.584 308.849 282.894L122.315 285.075L97.7834 285.357C89.9789 285.451 82.0249 285.507 74.154 285.075C59.1372 284.267 44.3972 281.704 31.4727 274.326C24.8172 270.501 19.0064 265.366 14.3913 259.232C5.62919 247.669 0.891125 232.923 0.664185 218.227V216.683C0.758282 202.342 5.18638 188.166 14.3968 177.157C14.9835 176.459 15.5813 175.768 16.2068 175.098C17.5076 173.692 18.9301 172.33 20.4246 170.969C29.9394 162.384 42.5042 154.69 48.1998 143.631C58.2184 124.169 45.7256 116.226 44.0817 97.1356C41.3141 65.0318 73.8164 28.1403 100.219 13.4113C128.603 -2.46344 164.36 -4.36752 194.283 8.36879C225.944 21.8524 255.49 51.2162 288.889 42.9356C299.627 40.2732 309.491 33.7197 320.555 33.5259C341.002 33.1329 355.194 53.9284 361.56 73.3788C367.925 92.8292 371.379 114.782 386.512 128.547C397.372 138.422 412.344 142.136 425.496 148.695C429.489 150.634 433.272 152.98 436.782 155.697C444.531 161.819 449.856 170.127 452.922 179.36C455.356 186.863 456.366 194.755 455.9 202.629Z" fill="#8FC045"/>
<path opacity="0.18" d="M421.184 259.415C410.928 266.293 399.664 271.533 387.796 274.946C363.995 281.915 338.971 282.695 314.179 283.005L308.982 283.072L240.501 283.874L205.718 284.284L128.299 285.186L122.426 285.252L97.8886 285.54C90.0841 285.634 82.1357 285.684 74.2592 285.252C59.2258 284.466 44.4858 281.904 31.5502 274.52C24.9162 270.686 19.128 265.548 14.5352 259.415H421.184Z" fill="#8FC045"/>
<path opacity="0.05" d="M345.707 271.846C345.868 274.154 344.229 276.385 344.694 278.649C345.381 281.97 349.172 281.417 352.571 281.167C360.829 280.492 371.39 279.23 379.433 277.154C386.877 275.228 392.296 273.368 399.392 271.066C399.946 270.883 399.774 269.311 399.802 268.73C399.846 267.961 398.828 267.673 398.058 267.623C391.04 267.396 383.944 267.623 377.058 266.239C373.964 265.608 370.931 264.645 367.792 264.285C363.918 263.848 360.043 264.324 356.169 264.031C353.362 263.815 346.526 260.743 343.919 262.005C340.012 263.937 345.513 269.057 345.707 271.846ZM183.091 273.928C191.2 276.202 197.759 281.018 204.899 284.749C179.091 285.04 153.284 285.339 127.479 285.645C129.644 283.581 132.062 281.799 134.675 280.343C143.16 275.594 153.129 274.498 162.794 273.49C169.546 272.782 176.526 272.09 183.091 273.928ZM314.711 280.747C314.593 281.486 314.275 282.179 313.792 282.75C313.62 282.973 313.475 283.214 313.36 283.47L308.162 283.536L239.671 284.322C240.913 283.358 242.038 282.253 243.025 281.029C244.453 279.258 245.593 277.249 247.254 275.71C252.158 271.16 259.924 272.007 266.278 274.049C268.21 274.68 270.153 275.4 272.19 275.372C275.799 275.328 278.898 272.981 282.153 271.365C292.376 266.261 305.91 268.996 313.349 277.669C314.08 278.566 314.805 279.607 314.711 280.747Z" fill="#000405"/>
<path d="M278.179 203.167L265.52 265.42L257.012 264.446L256.033 264.33C256.033 264.33 258.468 245.876 259.52 219.556C260.212 202.121 263.195 187.885 264.623 176.05C265.065 172.79 265.806 169.577 266.837 166.453C268.564 161.216 271.193 156.318 274.537 156.821C281.92 157.928 291.646 164.31 292.93 168.307C295.166 175.281 278.179 203.167 278.179 203.167Z" fill="#25233A"/>
<path opacity="0.24" d="M269.328 166.63C269.328 166.63 263.654 210.567 263.472 224.278C263.289 237.988 257.649 264.33 257.649 264.33L256.996 264.446L256.016 264.33C256.016 264.33 258.451 245.876 259.503 219.556C260.195 202.121 263.178 187.884 264.606 176.05C265.049 172.79 265.79 169.577 266.821 166.452C267.66 166.415 268.502 166.474 269.328 166.63Z" fill="white"/>
<path d="M307.199 265.321H297.817C297.816 265.302 297.816 265.284 297.817 265.265C297.563 263.998 292.836 240.584 286.155 223.625C281.173 210.977 278.765 185.216 277.852 172.032C277.487 167.05 277.343 163.862 277.343 163.862C277.343 163.862 296.45 158.222 298.93 160.724C301.409 163.225 304.227 174.561 304.227 174.561C304.227 174.561 297.684 219.451 301.847 222.495C306.009 225.54 307.199 265.321 307.199 265.321Z" fill="#262F39"/>
<path d="M158.304 85.9048C158.304 85.9048 144.389 90.1945 138.754 130.357C136.718 144.837 149.67 170.415 149.67 170.415L158.304 85.9048Z" fill="#8FC045"/>
<path opacity="0.61" d="M158.304 85.9048C158.304 85.9048 144.389 90.1945 138.754 130.357C136.718 144.837 149.67 170.415 149.67 170.415L158.304 85.9048Z" fill="url(#paint0_linear_1038_4964)"/>
<path d="M148.142 165.401C147.289 165.26 146.414 165.325 145.591 165.59C144.767 165.856 144.02 166.314 143.409 166.927C142.799 167.54 142.344 168.29 142.082 169.114C141.82 169.939 141.759 170.814 141.904 171.666C142.967 177.943 144.993 186.656 148.546 191.593C154.541 199.857 162.733 211.259 162.733 211.259L171.201 269.378L181.646 267.966L181.552 212.272L169.762 168.971L148.142 165.401Z" fill="#25233A"/>
<path d="M169.735 168.971L168.378 217.348L145.989 269.417L138.489 266.223L136.308 265.287L148.707 216.468C148.707 216.468 143.88 203.183 140.326 193.497C136.917 184.203 141.555 165.788 141.943 164.305V164.205L169.735 168.971Z" fill="#262F39"/>
<path d="M262.448 138.029L234.822 151.723L229.663 145.153L228.34 143.459L251.942 130.645C251.942 130.645 260.051 112.617 261.811 104.331C262.149 102.793 262.487 101.564 262.802 100.507C263.417 98.5859 269.278 91.7998 271.249 91.3958C273.219 90.9917 271 97.0471 272.311 98.5914C273.752 100.709 274.488 103.227 274.415 105.787C274.642 110.924 262.448 138.029 262.448 138.029Z" fill="#8FC045"/>
<path d="M298.897 154.064C298.897 154.064 285.175 170.554 269.356 166.629C268.267 166.355 267.201 165.996 266.167 165.555C265.497 165.267 264.89 164.849 264.381 164.325C263.873 163.801 263.473 163.181 263.205 162.502C262.937 161.823 262.806 161.098 262.819 160.368C262.833 159.638 262.991 158.918 263.284 158.249C264.811 154.784 264.856 149.775 264.717 145.153C264.396 134.52 261.706 123.012 261.507 118.224C261.374 115.164 261.867 110.83 262.769 106.501C264.357 98.8073 267.225 91.1411 270.136 90.6983C278.793 89.3644 281.76 91.7223 281.76 91.7223L296.539 100.307C303.878 108.001 300.303 120.046 298.897 154.064Z" fill="#8FC045"/>
<path d="M277.204 110.636L280.985 116.725L270.518 127.313L268.365 129.494L279.739 90.942L279.784 87.084L281.228 88.5619V88.5674L283.121 90.5047L283.846 106.468L277.204 110.636Z" fill="#8FC045"/>
<path opacity="0.61" d="M297.491 119.73L295.886 161.294C295.886 161.294 273.302 172.026 270.319 159.965C268.011 150.644 273.917 140.011 273.917 140.011L297.491 119.73Z" fill="url(#paint1_linear_1038_4964)"/>
<path d="M275.251 142.778L268.459 170.127L310.426 178.74L316.46 151.983L275.251 142.778Z" fill="white"/>
<path d="M280.077 80.9844C280.077 81.1061 279.928 87.2999 279.712 91.241C279.557 94.2908 278.129 96.4384 275.948 98.5639C274.681 99.8873 273.157 100.938 271.47 101.653C271.062 101.803 270.62 101.838 270.193 101.754C269.767 101.67 269.371 101.47 269.05 101.176C268.73 100.883 268.496 100.506 268.375 100.088C268.254 99.6703 268.251 99.2272 268.365 98.8075C268.581 97.9883 268.797 97.0362 268.963 96.0399C269.317 93.9864 269.472 91.7613 268.913 90.1893C268.899 90.1308 268.88 90.0735 268.858 90.0177C268.525 89.204 268.858 88.3184 269.61 87.4273C270.668 86.1708 272.516 84.8977 274.359 83.8239C276.21 82.7706 278.119 81.8226 280.077 80.9844Z" fill="url(#paint2_linear_1038_4964)"/>
<path d="M270.169 95.6245C269.79 95.8145 269.388 95.9558 268.974 96.0452C269.328 93.9916 269.483 91.7665 268.924 90.1945L269.621 87.427L270.147 85.3679L274.37 83.8236L278.649 82.2627C277.62 89.879 273.546 94.0248 270.169 95.6245Z" fill="url(#paint3_linear_1038_4964)"/>
<path d="M269.007 59.3417C267.332 59.4446 265.696 59.8927 264.202 60.6579C262.708 61.4231 261.388 62.4888 260.326 63.7882C259.264 65.0877 258.481 66.5926 258.028 68.2088C257.575 69.8249 257.461 71.5172 257.693 73.1795C258.08 78.1249 259.359 82.9594 261.468 87.4491C265.448 94.2019 275.444 88.6114 277.022 85.8217C278.599 83.032 284.55 70.412 282.037 66.8307C280.376 64.351 275.494 59.0428 269.007 59.3417Z" fill="url(#paint4_linear_1038_4964)"/>
<path d="M258.424 54.5821L260.483 55.6337C259.256 55.6089 258.04 55.876 256.936 56.413C255.833 56.95 254.872 57.7415 254.134 58.7223C252.253 60.6092 251.19 63.1598 251.173 65.8239L254.666 64.1634C254.666 64.1634 254.405 68.4752 261.025 68.7907C267.645 69.1062 274.653 69.3442 274.653 69.3442L272.406 66.239C272.406 66.239 276.524 67.8996 277.243 69.3996C277.903 71.8361 278.377 74.3193 278.66 76.8277C278.66 76.8277 280.293 72.5712 280.974 73.5066C281.655 74.4421 280.265 78.2945 279.408 79.1414C278.55 79.9883 278.693 82.5234 278.616 82.7337C278.538 82.944 282.718 79.4624 282.9 78.2668C283.083 77.0713 287.223 64.9825 284.505 62.4585L286.166 62.3312C285.192 61.6732 284.081 61.2454 282.917 61.0803C282.917 61.0803 272.013 46.8661 258.424 54.5821Z" fill="#262F39"/>
<path d="M215.394 149.127C217.203 147.547 219.184 146.175 221.3 145.037C222.958 144.452 224.688 144.094 226.442 143.974C226.442 143.974 226.73 146.393 225.335 146.553C223.94 146.714 222.778 148.834 222.778 148.834C222.778 148.834 231.728 152.498 232.962 152.155C234.196 151.812 233.953 153.594 231.689 153.478C229.425 153.362 228.872 156.528 227.305 156.484C225.739 156.439 223.259 157.408 220.956 157.491C218.629 157.297 216.343 156.764 214.17 155.908L215.394 149.127Z" fill="url(#paint5_linear_1038_4964)"/>
<path d="M180.755 123.422L173.249 165.627C173.249 165.627 170.659 173.703 157.253 172.496C152.348 172.082 147.734 169.995 144.184 166.585L143.969 166.38L143.819 166.225C141.251 163.685 139.24 160.639 137.913 157.28C137.913 157.28 146.526 97.7889 155.57 87.4327C156.472 86.4031 157.375 85.8552 158.282 85.905C160.76 86.2357 163.126 87.1418 165.19 88.5508C170.992 92.122 175.582 97.3608 178.359 103.582C181.136 109.804 181.971 116.718 180.755 123.422Z" fill="#8FC045"/>
<path opacity="0.61" d="M166.646 122.027L157.236 172.491C157.236 172.491 171.655 174.473 173.233 165.627L177.677 139.961L166.646 122.027Z" fill="url(#paint6_linear_1038_4964)"/>
<path d="M158.305 85.905C158.305 85.905 159.738 75.0506 160.314 67.9933C160.889 60.936 163.192 51.482 175.037 52.6942C186.882 53.9064 186.921 71.8125 183.65 79.3071C180.379 86.8017 176 86.5858 176 86.5858C176 86.5858 170.1 85.3016 170.321 92.3977L158.305 85.905Z" fill="url(#paint7_linear_1038_4964)"/>
<path d="M162.677 51.1945C160.953 52.8518 159.708 54.9438 159.074 57.2499C158.542 59.1191 158.183 61.033 158 62.9677L159.207 61.6448C159.147 64.9567 158.901 68.2627 158.471 71.5471C158.021 74.6067 157.836 77.6994 157.917 80.7908L160.131 80.6801L162.899 84.0786L165.954 82.0085L168.251 80.7852L170.299 75.7261C169.791 75.3591 169.418 74.8348 169.238 74.2345C169.058 73.6341 169.081 72.9911 169.303 72.405C170.056 70.3404 171.927 69.8644 172.364 71.0822C172.697 72.5994 172.883 74.1454 172.917 75.6984L176.183 66.4493C176.183 66.4493 178.231 63.5765 180.024 65.5526C181.1 66.7479 182.459 67.6538 183.976 68.1873L182.897 65.1319L185.858 65.8902L185.626 62.3588L187.84 63.9031C187.84 63.9031 188.809 58.1853 186.932 55.6502C185.056 53.1151 177.583 42.9914 162.677 51.1945Z" fill="#262F39"/>
<path d="M215.643 147.982L214.143 155.908L213.739 158.039L186.722 156.024C179.244 155.382 171.904 150.268 170.974 142.79L161.626 109.784C161.204 108.431 161.133 106.993 161.418 105.604C161.704 104.216 162.337 102.923 163.258 101.846C164.179 100.768 165.359 99.9425 166.686 99.4451C168.013 98.9477 169.445 98.795 170.847 99.0014C172.627 99.2664 174.298 100.026 175.668 101.193C177.038 102.361 178.052 103.889 178.596 105.605L184.48 135.146C184.826 136.88 185.664 138.479 186.894 139.75C188.124 141.021 189.693 141.911 191.416 142.314L215.643 147.982Z" fill="#8FC045"/>
<path d="M229.663 145.147L225.899 146.321C225.899 146.321 221.195 146.742 219.628 148.081C218.062 149.421 218.936 150.024 218.936 150.024C218.936 150.024 223.918 149.293 224.992 149.708C226.066 150.124 231.318 152.21 232.979 152.183C234.639 152.155 234.822 151.723 234.822 151.723L229.663 145.147Z" fill="url(#paint8_linear_1038_4964)"/>
<path d="M218.311 155.005C218.588 154.758 218.919 154.58 219.277 154.484C219.636 154.388 220.012 154.377 220.375 154.452C220.457 154.466 220.532 154.504 220.591 154.562C220.627 154.63 220.646 154.705 220.646 154.781C220.646 154.857 220.627 154.932 220.591 155C220.341 155.843 219.944 156.636 219.418 157.341C220.004 157.142 220.276 156.489 220.647 155.996C220.926 155.627 221.285 155.324 221.697 155.112C222.109 154.899 222.563 154.781 223.027 154.767C223.138 154.756 223.25 154.78 223.348 154.834C223.575 154.989 223.475 155.343 223.348 155.592C223.115 156.057 222.888 156.527 222.656 156.998C223.24 156.148 223.92 155.368 224.682 154.673C224.862 154.478 225.091 154.334 225.346 154.258C225.473 154.219 225.611 154.227 225.733 154.281C225.855 154.334 225.953 154.431 226.01 154.551C226.057 154.699 226.057 154.858 226.01 155.005C225.849 155.645 225.567 156.248 225.18 156.782C225.648 156.01 226.234 155.317 226.918 154.729C226.966 154.672 227.028 154.627 227.097 154.599C227.167 154.572 227.242 154.561 227.316 154.568C227.4 154.596 227.47 154.656 227.51 154.734C227.743 155.122 227.51 155.614 227.267 156.002C226.818 156.716 226.248 157.479 225.412 157.607C225.224 157.616 225.038 157.649 224.859 157.706C224.73 157.772 224.61 157.852 224.499 157.944C224.211 158.142 223.872 158.252 223.523 158.26C223.174 158.268 222.83 158.173 222.534 157.989C222.13 158.245 221.66 158.377 221.182 158.37C220.704 158.362 220.239 158.214 219.844 157.944C219.756 157.861 219.642 157.81 219.521 157.801C219.4 157.792 219.279 157.825 219.18 157.895C218.82 158.017 218.43 158.025 218.065 157.917C217.7 157.809 217.378 157.59 217.143 157.291C216.645 156.566 217.763 155.465 218.311 155.005Z" fill="url(#paint9_linear_1038_4964)"/>
<path d="M299.417 168.766L290.173 165.572L289.858 165.461L296.594 143.808C296.594 143.808 287.738 119.481 286.265 111.997C285.791 109.518 285.768 106.974 286.199 104.486C286.416 103.195 287.019 101.999 287.927 101.055C288.836 100.112 290.009 99.4655 291.291 99.2002C292.726 98.8847 294.226 99.0805 295.531 99.7538C296.683 100.352 297.793 101.029 298.852 101.78C299.701 102.397 300.303 103.295 300.552 104.315C302.212 111.134 308.893 138.953 309.142 141.594C309.413 144.621 299.417 168.766 299.417 168.766Z" fill="#8FC045"/>
<path d="M287.444 167.41C286.99 167.842 286.559 168.617 287.04 169.026C287.157 169.126 287.317 169.181 287.411 169.303C287.644 169.596 287.356 170.006 287.09 170.266L284.876 172.419C284.057 173.211 283.166 174.202 283.354 175.325C283.444 175.725 283.641 176.093 283.924 176.39C284.207 176.688 284.564 176.903 284.959 177.014C285.753 177.22 286.589 177.211 287.378 176.986C287.364 177.219 287.42 177.45 287.537 177.652C287.654 177.854 287.828 178.017 288.037 178.121C288.46 178.32 288.919 178.433 289.387 178.453C290.737 178.693 292.121 178.656 293.456 178.342C293.555 178.491 293.655 178.635 293.76 178.779C295.509 178.469 296.461 176.598 297.081 174.938C297.701 173.277 298.332 171.429 298.863 169.641C298.962 169.4 298.979 169.134 298.913 168.882C298.83 168.735 298.718 168.606 298.582 168.504C298.447 168.402 298.292 168.329 298.127 168.29C296.013 167.488 293.904 166.668 291.784 165.877C289.824 165.146 288.933 166.021 287.444 167.41Z" fill="url(#paint10_linear_1038_4964)"/>
<path d="M137.725 265.725L134.542 271.514L137.742 273.346L138.932 272.394L144.09 277.144C144.09 277.144 145.934 278.411 150.445 278.4C154.956 278.389 155.847 277.752 155.847 277.752C155.847 277.752 155.847 271.11 150.312 271.415C144.777 271.719 144.395 268.57 144.395 268.57L137.725 265.725Z" fill="url(#paint11_linear_1038_4964)"/>
<path d="M172.939 269.201L172.419 277.758H176.294V274.526L181.552 277.736L194.554 277.703C194.554 277.703 194.554 268.847 188.709 269.311C182.864 269.776 180.506 269.311 180.506 269.311L179.582 268.077L172.939 269.201Z" fill="url(#paint12_linear_1038_4964)"/>
<path d="M306.679 265.298L307.233 273.85H303.358V270.617L298.138 273.861L285.136 273.894C285.136 273.894 285.136 265.038 290.943 265.475C296.749 265.912 299.146 265.475 299.146 265.475L300.059 264.235L306.679 265.298Z" fill="url(#paint13_linear_1038_4964)"/>
<path d="M264.296 265.403L264.85 273.95H260.975V270.717L255.723 273.972L242.721 274.005C242.721 274.005 242.721 265.149 248.527 265.586C254.333 266.023 256.73 265.586 256.73 265.586L257.643 264.346L264.296 265.403Z" fill="url(#paint14_linear_1038_4964)"/>
<path d="M277.204 110.636L280.985 116.725L270.518 127.313L268.365 129.494L279.739 90.942L279.784 87.084L281.228 88.5619V88.5674L283.121 90.5047L283.846 106.468L277.204 110.636Z" fill="#8FC045"/>
<path d="M268.974 96.0454L267.562 102.688L268.365 129.489L278.677 94.5454L274.249 97.3462C274.011 97.4956 273.767 97.634 273.513 97.7613C273.106 97.9661 272.661 98.0838 272.206 98.1069C271.751 98.13 271.296 98.058 270.871 97.8955C270.445 97.733 270.058 97.4835 269.734 97.1631C269.411 96.8426 269.157 96.4582 268.99 96.0344L268.974 96.0454Z" fill="white"/>
<path d="M269.04 90.6929L264.441 99.3111L265.968 102.909L263.472 108.306L268.348 129.489C268.348 129.489 267.014 103.595 268.957 96.0343C268.974 96.0453 269.616 92.4254 269.04 90.6929Z" fill="#8FC045"/>
<path opacity="0.61" d="M277.204 110.636L280.985 116.725L270.518 127.313L268.365 129.494L279.739 90.942L279.784 87.084L281.228 88.5619V88.5674L283.121 90.5047L283.846 106.468L277.204 110.636Z" fill="url(#paint15_linear_1038_4964)"/>
<path opacity="0.61" d="M269.04 90.6929L264.441 99.3111L265.968 102.909L263.472 108.306L268.348 129.489C268.348 129.489 267.014 103.595 268.957 96.0343C268.974 96.0453 269.616 92.4254 269.04 90.6929Z" fill="url(#paint16_linear_1038_4964)"/>
<path d="M157.928 84.0894L171.517 90.8477L175.192 97.9714L155.581 87.4215L157.928 84.0894Z" fill="#8FC045"/>
<path opacity="0.61" d="M157.928 84.0894L171.517 90.8477L175.192 97.9714L155.581 87.4215L157.928 84.0894Z" fill="url(#paint17_linear_1038_4964)"/>
<path d="M121.607 177.799V285.734H109.723V236.77H2.52955C0.942521 230.934 0.092723 224.923 0 218.875L0 217.348C0.0940971 203.012 4.51666 188.831 13.7326 177.821L121.607 177.799ZM134.288 171.611V177.799H13.7326C14.3162 177.097 14.9179 176.411 15.5371 175.74C16.8434 174.334 18.2604 172.973 19.7604 171.611H134.288ZM68.7186 135.981C67.3569 134.675 65.7296 133.679 64.2905 132.483C63.7812 132.062 63.2443 131.498 63.3439 130.823C63.4078 130.561 63.5465 130.324 63.7432 130.14C63.9398 129.956 64.1858 129.834 64.451 129.788C64.9891 129.713 65.5368 129.747 66.0617 129.887L62.962 126.4C62.6742 126.073 62.3642 125.625 62.5746 125.243C62.7849 124.861 63.3772 124.883 63.7868 125.077C64.1571 125.334 64.5885 125.489 65.0377 125.526C63.9307 123.97 62.5247 122.703 61.3458 121.225C60.1668 119.747 59.2203 117.904 59.3974 116.044C59.4003 115.773 59.496 115.511 59.6686 115.302C60.0229 114.948 60.6207 115.097 61.0801 115.302C64.3591 116.729 66.9894 119.326 68.4584 122.586C67.9473 120.999 67.7407 119.33 67.8495 117.666C67.8383 117.472 67.8702 117.278 67.943 117.098C68.0157 116.918 68.1275 116.757 68.2702 116.625C68.8237 116.243 69.5544 116.902 69.8754 117.516C72.0562 121.762 70.5341 126.926 71.4252 131.625C71.5414 130.319 72.151 129.105 73.13 128.232C73.4009 130.651 73.3077 133.097 72.8533 135.489C73.5341 135.788 73.4788 136.762 73.3072 137.492C73.0871 138.613 72.8099 139.721 72.4769 140.814C71.2592 140.714 71.237 140.05 70.8551 139.07C70.3744 137.898 69.6455 136.844 68.7186 135.981Z" fill="#8FC045"/>
<path d="M78.4769 121.512C79.6227 120.212 80.9954 118.977 82.6947 118.623C83.2095 119.614 82.6947 120.837 81.9807 121.706C81.2666 122.575 80.381 123.367 80.0212 124.396C81.5038 122.626 83.5096 121.372 85.7501 120.815C86.5456 120.545 87.4149 120.594 88.1745 120.953C88.2831 121.011 88.3792 121.089 88.4572 121.184C88.5351 121.279 88.5933 121.389 88.6283 121.507C88.7612 122.116 87.9863 122.481 87.3774 122.614C83.1051 123.74 79.3553 126.312 76.7666 129.893C79.2924 128.366 82.2527 127.717 85.1855 128.049C85.6947 128.11 86.2925 128.265 86.4807 128.736C86.7741 129.433 85.9825 130.097 85.263 130.335C82.4954 131.254 79.0304 130.274 76.7943 132.167C78.0056 132.037 79.2209 132.374 80.1928 133.108C80.9733 133.701 81.5489 134.913 80.8626 135.61C80.6308 135.792 80.3616 135.92 80.0745 135.985C79.7874 136.05 79.4894 136.051 79.202 135.987C77.6024 135.848 75.6319 135.583 74.713 136.9C74.2093 137.625 74.2481 138.561 74.0599 139.446C73.9105 140.149 73.3293 141.395 72.5654 140.708C72.0562 140.249 72.2554 138.644 72.2554 138.035C72.2933 131.969 74.4956 126.115 78.4659 121.529L78.4769 121.512Z" fill="#8FC045"/>
<path opacity="0.61" d="M68.7186 135.981C67.357 134.675 65.7297 133.679 64.2905 132.483C63.7813 132.062 63.2444 131.498 63.344 130.823C63.4079 130.561 63.5466 130.324 63.7433 130.14C63.9399 129.956 64.1859 129.834 64.4511 129.788C64.9892 129.713 65.5369 129.747 66.0618 129.887L62.9621 126.4C62.6743 126.073 62.3643 125.625 62.5747 125.243C62.785 124.861 63.3773 124.883 63.7868 125.077C64.1572 125.334 64.5886 125.489 65.0378 125.525C63.9308 123.97 62.5248 122.703 61.3459 121.225C60.1669 119.747 59.2204 117.904 59.3975 116.044C59.4004 115.773 59.4961 115.511 59.6687 115.302C60.023 114.948 60.6208 115.097 61.0802 115.302C64.3592 116.729 66.9895 119.326 68.4585 122.586C67.9474 120.999 67.7408 119.33 67.8496 117.666C67.8384 117.472 67.8703 117.278 67.9431 117.098C68.0158 116.918 68.1276 116.757 68.2703 116.625C68.8238 116.243 69.5544 116.902 69.8755 117.516C72.0563 121.762 70.5342 126.926 71.4253 131.625C71.5415 130.319 72.1511 129.105 73.1301 128.232C73.401 130.651 73.3078 133.097 72.8534 135.489C73.5342 135.788 73.4789 136.762 73.3073 137.492C73.0872 138.613 72.81 139.721 72.477 140.814C71.2593 140.714 71.2371 140.05 70.8552 139.07C70.3745 137.898 69.6456 136.844 68.7186 135.981Z" fill="url(#paint18_linear_1038_4964)"/>
<path opacity="0.61" d="M78.4769 121.512C79.6227 120.212 80.9954 118.977 82.6947 118.623C83.2095 119.614 82.6947 120.837 81.9807 121.706C81.2666 122.575 80.381 123.367 80.0212 124.396C81.5038 122.626 83.5096 121.372 85.7501 120.815C86.5456 120.545 87.4149 120.594 88.1745 120.953C88.2831 121.011 88.3792 121.089 88.4572 121.184C88.5351 121.279 88.5933 121.389 88.6283 121.507C88.7612 122.116 87.9863 122.481 87.3774 122.614C83.1051 123.74 79.3553 126.312 76.7666 129.893C79.2924 128.366 82.2527 127.717 85.1855 128.049C85.6947 128.11 86.2925 128.265 86.4807 128.736C86.7741 129.433 85.9825 130.097 85.263 130.335C82.4954 131.254 79.0304 130.274 76.7943 132.167C78.0056 132.037 79.2209 132.374 80.1928 133.108C80.9733 133.701 81.5489 134.913 80.8626 135.61C80.6308 135.792 80.3616 135.92 80.0745 135.985C79.7874 136.05 79.4894 136.051 79.202 135.987C77.6024 135.848 75.6319 135.583 74.713 136.9C74.2093 137.625 74.2481 138.561 74.0599 139.446C73.9105 140.149 73.3293 141.395 72.5654 140.708C72.0562 140.249 72.2554 138.644 72.2554 138.035C72.2933 131.969 74.4956 126.115 78.4659 121.529L78.4769 121.512Z" fill="url(#paint19_linear_1038_4964)"/>
<path d="M79.6394 171.55L73.3072 171.583L67.0414 171.611C53.259 163.414 69.1614 146.797 69.1614 146.797C69.1614 146.797 69.7924 144.207 68.9677 142.574C68.78 142.179 68.482 141.846 68.1097 141.616C66.0783 140.399 68.9123 139.917 68.9123 139.917H77.4143C77.4143 139.917 80.3257 140.161 78.1394 141.694C75.953 143.227 77.1707 146.797 77.1707 146.797C94.2078 165.711 79.6394 171.55 79.6394 171.55Z" fill="white"/>
<path opacity="0.51" d="M73.7666 171.085C73.6267 171.263 73.4731 171.429 73.3072 171.583L67.0414 171.611C53.259 163.413 69.1614 146.797 69.1614 146.797C69.1614 146.797 69.7924 144.206 68.9677 142.573C71.7352 142.363 73.0692 145.933 72.6983 148.203C72.416 149.952 72.1448 151.706 71.8404 153.455C71.4869 155.091 71.3935 156.772 71.5636 158.437C71.9068 160.651 73.1688 162.605 73.9935 164.686C74.8183 166.767 75.1449 169.314 73.7666 171.085Z" fill="url(#paint20_linear_1038_4964)"/>
<path opacity="0.61" d="M121.607 177.799L59.6797 195.389C48.9386 198.441 38.9509 203.696 30.3531 210.821C21.7552 217.945 14.7357 226.783 9.74182 236.77H2.54616C0.953517 230.935 0.0981384 224.923 0 218.875L0 217.347C0.0940971 203.011 4.51666 188.83 13.7326 177.821L121.607 177.799Z" fill="url(#paint21_linear_1038_4964)"/>
<path opacity="0.61" d="M109.723 236.77H115.402V285.645H109.723V236.77Z" fill="url(#paint22_linear_1038_4964)"/>
<path d="M455.231 203.272C454.778 212.113 452.517 220.767 448.588 228.7C447.132 231.59 445.486 234.38 443.662 237.053C437.529 246.064 429.509 253.658 420.415 259.88C413.827 264.331 406.792 268.082 399.425 271.072L384.752 268.365L356.628 263.179C355.25 262.924 353.916 262.764 352.654 262.625C347.467 262.039 343.432 261.751 341.91 256.487C340.023 250.005 341.91 240.086 341.91 233.289C341.91 221.477 343.144 207.412 353.429 201.612C361.964 196.807 372.802 200.2 382.327 197.975C383.246 197.828 384.112 197.447 384.84 196.868C385.947 195.844 386.119 194.183 386.147 192.678C386.385 181.248 382.566 168.429 389.396 159.262C394.621 152.255 404.18 150.323 412.881 149.515C415.56 149.258 418.25 149.142 420.941 149.166C422.247 149.166 423.551 149.222 424.854 149.332C433.871 150.03 442.461 152.925 447.044 160.347C449.496 164.31 450.365 169.015 451.184 173.604C451.555 175.724 451.926 177.86 452.291 179.997C453.509 187.669 454.616 195.479 455.231 203.272Z" fill="#262F39"/>
<path d="M455.231 203.271C454.778 212.113 452.517 220.767 448.588 228.7C447.132 231.589 445.486 234.38 443.662 237.052C440.291 238.486 436.234 238.469 432.476 238.525C426.56 238.614 420.658 239.12 414.813 240.041C412.189 240.451 409.455 240.999 407.396 242.682C404.678 244.896 403.737 248.676 403.588 252.191C403.438 255.706 403.909 259.265 403.311 262.735C403.17 263.905 402.725 265.018 402.021 265.962C400.61 267.662 398.147 267.966 395.933 268.104C392.191 268.333 388.447 268.425 384.702 268.381C375.283 268.259 365.895 267.274 356.656 265.436C355.056 265.115 353.191 264.545 352.681 262.99C352.644 262.875 352.619 262.756 352.604 262.636C352.519 261.905 352.587 261.164 352.803 260.46L357.868 238.779C358.554 235.835 359.263 232.835 360.829 230.25C363.951 225.074 369.884 222.429 375.447 220.087L390.425 213.772C394.521 212.056 397.306 211.834 396.94 207.013C396.138 196.353 393.901 185.98 393.901 175.22C393.901 172.131 394.045 168.937 395.374 166.159C396.702 163.38 399.088 161.265 401.54 159.406C407.425 155.02 413.95 151.564 420.885 149.16C422.191 149.16 423.496 149.216 424.798 149.326C433.815 150.024 442.406 152.918 446.989 160.341C449.441 164.304 450.31 169.009 451.129 173.598C451.5 175.718 451.871 177.854 452.236 179.991C453.039 184.845 453.775 189.749 454.367 194.664C454.71 197.521 454.987 200.399 455.231 203.271Z" fill="#25233A"/>
<path d="M455.231 203.272C454.778 212.113 452.517 220.767 448.588 228.7C447.132 231.59 445.486 234.38 443.662 237.053C440.291 238.486 436.234 238.47 432.476 238.525C426.56 238.614 420.658 239.121 414.813 240.042C412.19 240.451 409.455 240.999 407.396 242.682C407.396 242.682 410.833 223.686 424.854 217.287C438.874 210.888 454.367 194.654 454.367 194.654C454.71 197.521 454.987 200.399 455.231 203.272Z" fill="#262F39"/>
<path d="M147.528 164.016C147.451 163.949 147.377 163.879 147.306 163.806L147.356 163.85C147.42 163.898 147.478 163.954 147.528 164.016Z" fill="url(#paint23_linear_1038_4964)"/>
<path opacity="0.24" d="M141.395 155.21C141.395 155.21 142.197 164.116 144.256 166.38C141.631 163.782 139.575 160.666 138.218 157.231C138.218 157.231 147.074 96.4108 156.295 85.8276L158.775 87.145L141.395 155.21ZM261.518 107.199L261.645 113.287L253.697 133.297L229.409 146.028L228.047 144.284L252.186 131.177C252.186 131.177 259.719 115.656 261.518 107.199ZM214.663 155.161L214.253 157.341L186.622 155.282C178.973 154.624 171.467 149.393 170.515 141.749L160.978 107.985C160.546 106.599 160.472 105.127 160.763 103.706C161.053 102.284 161.698 100.959 162.638 99.8536C162.638 99.8536 171.544 141.644 174.816 145.386C178.087 149.127 184.32 151.369 184.32 151.369L214.663 155.161Z" fill="white"/>
<path opacity="0.24" d="M153.113 220.669L138.251 267.607L136.037 266.655L148.718 216.728C148.718 216.728 143.78 203.139 140.149 193.231C136.662 183.727 141.406 164.897 141.81 163.38L143.708 165.345C143.708 165.345 138.727 187.63 145.136 198.224C151.546 208.818 153.113 220.669 153.113 220.669ZM269.699 166.585C268.585 166.301 267.495 165.931 266.439 165.478C265.751 165.185 265.129 164.758 264.608 164.223C264.087 163.687 263.677 163.053 263.402 162.358C263.128 161.663 262.994 160.92 263.009 160.173C263.024 159.426 263.187 158.689 263.488 158.006C265.055 154.463 265.099 149.338 264.955 144.611C264.629 133.74 261.878 121.989 261.673 117.073C261.54 113.946 262.044 109.512 262.963 105.084L264.701 97.7282C264.701 97.7282 263.107 109.662 262.697 112.933C262.287 116.204 266.046 134.83 267.407 137.531C268.769 140.232 266.361 156.129 266.688 159.904C267.014 163.679 269.699 166.585 269.699 166.585ZM300.524 265.431L298.26 266.538C298 265.238 293.157 241.298 286.332 223.951C281.234 211.016 278.776 184.652 277.819 171.19L280.625 171.744C280.625 171.744 284.788 206.117 289.36 218.826C293.932 231.534 300.524 265.431 300.524 265.431ZM299.151 142.624L291.812 166.264L290.151 165.949L289.825 165.838L296.716 143.697C296.716 143.697 287.694 118.823 286.166 111.162C285.678 108.626 285.654 106.023 286.094 103.479C286.315 102.158 286.931 100.934 287.861 99.9687C288.79 99.0036 289.99 98.3421 291.302 98.0713C291.302 98.0713 286.321 101.542 287.837 109.214C289.819 119.072 299.151 142.624 299.151 142.624ZM282.374 91.9716L270.9 128.371L268.697 130.601L280.332 91.1746L280.376 87.228L281.854 88.7391V88.7447L282.374 91.9716Z" fill="white"/>
</g>
<defs>
<linearGradient id="paint0_linear_1038_4964" x1="181.314" y1="142.452" x2="114.704" y2="107.636" gradientUnits="userSpaceOnUse">
<stop offset="0.17" stop-color="#00272E"/>
<stop offset="1" stop-color="#69B9EB" stop-opacity="0"/>
</linearGradient>
<linearGradient id="paint1_linear_1038_4964" x1="270.933" y1="198.611" x2="297.301" y2="105.274" gradientUnits="userSpaceOnUse">
<stop offset="0.17" stop-color="#00272E"/>
<stop offset="1" stop-color="#69B9EB" stop-opacity="0"/>
</linearGradient>
<linearGradient id="paint2_linear_1038_4964" x1="268.28" y1="91.3962" x2="280.114" y2="91.3673" gradientUnits="userSpaceOnUse">
<stop stop-color="#ECC4D7"/>
<stop offset="0.42" stop-color="#EFD4D1"/>
<stop offset="1" stop-color="#F2EAC9"/>
</linearGradient>
<linearGradient id="paint3_linear_1038_4964" x1="276.03" y1="82.7975" x2="255.242" y2="117.576" gradientUnits="userSpaceOnUse">
<stop stop-color="#ECC4D7"/>
<stop offset="0.42" stop-color="#EFD4D1"/>
<stop offset="1" stop-color="#F2EAC9"/>
</linearGradient>
<linearGradient id="paint4_linear_1038_4964" x1="257.584" y1="74.9937" x2="282.658" y2="74.9324" gradientUnits="userSpaceOnUse">
<stop stop-color="#ECC4D7"/>
<stop offset="0.42" stop-color="#EFD4D1"/>
<stop offset="1" stop-color="#F2EAC9"/>
</linearGradient>
<linearGradient id="paint5_linear_1038_4964" x1="213.073" y1="155.23" x2="226.085" y2="150.122" gradientUnits="userSpaceOnUse">
<stop stop-color="#ECC4D7"/>
<stop offset="0.42" stop-color="#EFD4D1"/>
<stop offset="1" stop-color="#F2EAC9"/>
</linearGradient>
<linearGradient id="paint6_linear_1038_4964" x1="218.289" y1="138.046" x2="134.166" y2="152.675" gradientUnits="userSpaceOnUse">
<stop offset="0.17" stop-color="#00272E"/>
<stop offset="1" stop-color="#69B9EB" stop-opacity="0"/>
</linearGradient>
<linearGradient id="paint7_linear_1038_4964" x1="173.491" y1="73.561" x2="180.354" y2="75.6753" gradientUnits="userSpaceOnUse">
<stop stop-color="#ECC4D7"/>
<stop offset="0.42" stop-color="#EFD4D1"/>
<stop offset="1" stop-color="#F2EAC9"/>
</linearGradient>
<linearGradient id="paint8_linear_1038_4964" x1="228.83" y1="145.599" x2="215.887" y2="176.334" gradientUnits="userSpaceOnUse">
<stop stop-color="#ECC4D7"/>
<stop offset="0.42" stop-color="#EFD4D1"/>
<stop offset="1" stop-color="#F2EAC9"/>
</linearGradient>
<linearGradient id="paint9_linear_1038_4964" x1="222.867" y1="153.976" x2="219.894" y2="164.882" gradientUnits="userSpaceOnUse">
<stop stop-color="#ECC4D7"/>
<stop offset="0.42" stop-color="#EFD4D1"/>
<stop offset="1" stop-color="#F2EAC9"/>
</linearGradient>
<linearGradient id="paint10_linear_1038_4964" x1="283.322" y1="172.206" x2="298.975" y2="172.168" gradientUnits="userSpaceOnUse">
<stop stop-color="#ECC4D7"/>
<stop offset="0.42" stop-color="#EFD4D1"/>
<stop offset="1" stop-color="#F2EAC9"/>
</linearGradient>
<linearGradient id="paint11_linear_1038_4964" x1="159.661" y1="266.057" x2="137.105" y2="276.014" gradientUnits="userSpaceOnUse">
<stop stop-color="#68E1FD"/>
<stop offset="0.01" stop-color="#67DDF9"/>
<stop offset="0.12" stop-color="#5CB3CE"/>
<stop offset="0.24" stop-color="#538EA9"/>
<stop offset="0.37" stop-color="#4C718B"/>
<stop offset="0.5" stop-color="#465A73"/>
<stop offset="0.63" stop-color="#424A63"/>
<stop offset="0.79" stop-color="#404059"/>
<stop offset="0.99" stop-color="#3F3D56"/>
</linearGradient>
<linearGradient id="paint12_linear_1038_4964" x1="195.44" y1="265.614" x2="175.729" y2="278.821" gradientUnits="userSpaceOnUse">
<stop stop-color="#68E1FD"/>
<stop offset="0.01" stop-color="#67DDF9"/>
<stop offset="0.12" stop-color="#5CB3CE"/>
<stop offset="0.24" stop-color="#538EA9"/>
<stop offset="0.37" stop-color="#4C718B"/>
<stop offset="0.5" stop-color="#465A73"/>
<stop offset="0.63" stop-color="#424A63"/>
<stop offset="0.79" stop-color="#404059"/>
<stop offset="0.99" stop-color="#3F3D56"/>
</linearGradient>
<linearGradient id="paint13_linear_1038_4964" x1="286.858" y1="262.763" x2="302.705" y2="274.752" gradientUnits="userSpaceOnUse">
<stop stop-color="#68E1FD"/>
<stop offset="0.01" stop-color="#67DDF9"/>
<stop offset="0.12" stop-color="#5CB3CE"/>
<stop offset="0.24" stop-color="#538EA9"/>
<stop offset="0.37" stop-color="#4C718B"/>
<stop offset="0.5" stop-color="#465A73"/>
<stop offset="0.63" stop-color="#424A63"/>
<stop offset="0.79" stop-color="#404059"/>
<stop offset="0.99" stop-color="#3F3D56"/>
</linearGradient>
<linearGradient id="paint14_linear_1038_4964" x1="238.304" y1="261.994" x2="269.19" y2="277.642" gradientUnits="userSpaceOnUse">
<stop stop-color="#68E1FD"/>
<stop offset="0.01" stop-color="#67DDF9"/>
<stop offset="0.12" stop-color="#5CB3CE"/>
<stop offset="0.24" stop-color="#538EA9"/>
<stop offset="0.37" stop-color="#4C718B"/>
<stop offset="0.5" stop-color="#465A73"/>
<stop offset="0.63" stop-color="#424A63"/>
<stop offset="0.79" stop-color="#404059"/>
<stop offset="0.99" stop-color="#3F3D56"/>
</linearGradient>
<linearGradient id="paint15_linear_1038_4964" x1="255.163" y1="119.974" x2="297.048" y2="94.097" gradientUnits="userSpaceOnUse">
<stop offset="0.17" stop-color="#00272E"/>
<stop offset="1" stop-color="#69B9EB" stop-opacity="0"/>
</linearGradient>
<linearGradient id="paint16_linear_1038_4964" x1="282.978" y1="109.003" x2="251.71" y2="111.394" gradientUnits="userSpaceOnUse">
<stop offset="0.17" stop-color="#00272E"/>
<stop offset="1" stop-color="#69B9EB" stop-opacity="0"/>
</linearGradient>
<linearGradient id="paint17_linear_1038_4964" x1="180.013" y1="65.4083" x2="154.657" y2="112.723" gradientUnits="userSpaceOnUse">
<stop offset="0.17" stop-color="#00272E"/>
<stop offset="1" stop-color="#69B9EB" stop-opacity="0"/>
</linearGradient>
<linearGradient id="paint18_linear_1038_4964" x1="59.3754" y1="127.989" x2="73.418" y2="127.989" gradientUnits="userSpaceOnUse">
<stop offset="0.17" stop-color="#00272E"/>
<stop offset="1" stop-color="#69B9EB" stop-opacity="0"/>
</linearGradient>
<linearGradient id="paint19_linear_1038_4964" x1="72.2278" y1="129.76" x2="88.6449" y2="129.76" gradientUnits="userSpaceOnUse">
<stop offset="0.17" stop-color="#00272E"/>
<stop offset="1" stop-color="#69B9EB" stop-opacity="0"/>
</linearGradient>
<linearGradient id="paint20_linear_1038_4964" x1="81.3165" y1="130.706" x2="60.9196" y2="182.792" gradientUnits="userSpaceOnUse">
<stop stop-color="white" stop-opacity="0"/>
<stop offset="1" stop-color="#1A7FC1"/>
</linearGradient>
<linearGradient id="paint21_linear_1038_4964" x1="-55.8494" y1="160.12" x2="223.027" y2="271.669" gradientUnits="userSpaceOnUse">
<stop offset="0.17" stop-color="#00272E"/>
<stop offset="1" stop-color="#69B9EB" stop-opacity="0"/>
</linearGradient>
<linearGradient id="paint22_linear_1038_4964" x1="-67.4788" y1="189.19" x2="211.397" y2="300.74" gradientUnits="userSpaceOnUse">
<stop offset="0.17" stop-color="#00272E"/>
<stop offset="1" stop-color="#69B9EB" stop-opacity="0"/>
</linearGradient>
<linearGradient id="paint23_linear_1038_4964" x1="147.306" y1="163.911" x2="147.528" y2="163.911" gradientUnits="userSpaceOnUse">
<stop stop-color="#68E1FD"/>
<stop offset="1" stop-color="#69B9EB"/>
</linearGradient>
<clipPath id="clip0_1038_4964">
<rect width="456" height="285.712" fill="white"/>
</clipPath>
</defs>
</svg>
