<svg width="196" height="200" viewBox="0 0 196 200" fill="none" xmlns="http://www.w3.org/2000/svg">
<path d="M177.271 74.9633C177.345 76.1105 177.395 77.2644 177.42 78.4244L177.067 78.432C177.079 79.0075 177.086 79.5845 177.086 80.1629C177.086 80.7414 177.079 81.3184 177.067 81.8939L177.42 81.9015C177.395 83.0615 177.345 84.2153 177.271 85.3626L176.918 85.3397C176.843 86.4918 176.744 87.6372 176.62 88.7753L176.972 88.8135C176.846 89.9658 176.696 91.1108 176.522 92.2479L176.173 92.1944C175.998 93.3359 175.798 94.4693 175.575 95.5942L175.922 95.663C175.696 96.8001 175.446 97.9285 175.172 99.0475L174.829 98.9635C174.554 100.084 174.256 101.195 173.934 102.296L174.274 102.395C173.949 103.507 173.6 104.609 173.229 105.7L172.894 105.586C172.523 106.677 172.128 107.757 171.71 108.826L172.039 108.954C171.618 110.032 171.174 111.099 170.708 112.154L170.385 112.011C169.919 113.064 169.43 114.105 168.92 115.134L169.237 115.291C168.723 116.327 168.187 117.351 167.63 118.361L167.32 118.19C166.764 119.198 166.186 120.193 165.588 121.174L165.889 121.358C165.287 122.345 164.663 123.318 164.019 124.276L163.726 124.079C163.084 125.034 162.422 125.975 161.74 126.9L162.024 127.11C161.338 128.041 160.633 128.956 159.908 129.854L159.632 129.633C158.91 130.528 158.169 131.408 157.408 132.27L157.674 132.504C156.91 133.371 156.127 134.221 155.327 135.054L155.072 134.809C154.275 135.639 153.46 136.451 152.628 137.245L152.872 137.5C152.036 138.298 151.183 139.077 150.313 139.838L150.081 139.572C149.215 140.328 148.333 141.067 147.435 141.786L147.655 142.062C146.754 142.784 145.837 143.486 144.904 144.169L144.695 143.884C143.767 144.562 142.824 145.221 141.867 145.86L142.063 146.154C141.102 146.795 140.127 147.415 139.138 148.014L138.955 147.712C137.972 148.307 136.976 148.882 135.966 149.435L136.136 149.745C135.124 150.299 134.099 150.832 133.061 151.343L132.905 151.026C131.875 151.533 130.832 152.018 129.777 152.482L129.919 152.805C128.864 153.269 127.796 153.71 126.717 154.128L126.589 153.799C125.519 154.214 124.438 154.606 123.346 154.975L123.459 155.31C122.367 155.679 121.265 156.025 120.152 156.348L120.054 156.008C118.952 156.328 117.841 156.624 116.72 156.896L116.803 157.24C115.684 157.512 114.555 157.76 113.418 157.985L113.349 157.638C112.224 157.86 111.09 158.058 109.948 158.231L110.002 158.581C108.864 158.754 107.719 158.903 106.567 159.027L106.529 158.676C105.391 158.798 104.245 158.897 103.093 158.971L103.116 159.324C101.968 159.398 100.814 159.447 99.6545 159.472L99.6469 159.119C99.0714 159.131 98.4944 159.137 97.9159 159.137C97.3374 159.137 96.7604 159.131 96.1849 159.119L96.1773 159.472C95.0173 159.447 93.8635 159.398 92.7162 159.324L92.7389 158.971C91.5868 158.897 90.4413 158.798 89.3031 158.676L89.2652 159.027C88.1126 158.903 86.9674 158.754 85.8302 158.581L85.8833 158.231C84.7415 158.058 83.6078 157.86 82.4826 157.638L82.4143 157.985C81.2768 157.76 80.148 157.512 79.0286 157.24L79.112 156.896C77.9911 156.624 76.8795 156.328 75.7778 156.008L75.6793 156.348C74.5669 156.025 73.4645 155.679 72.3728 155.31L72.486 154.975C71.3941 154.606 70.3129 154.214 69.2429 153.799L69.1152 154.128C68.036 153.71 66.9682 153.269 65.9125 152.805L66.0546 152.482C64.9998 152.018 63.957 151.533 62.9269 151.026L62.7708 151.343C61.7329 150.832 60.7078 150.299 59.696 149.745L59.8658 149.435C58.8559 148.882 57.8594 148.307 56.8769 147.712L56.6938 148.014C55.7045 147.415 54.7294 146.795 53.7691 146.154L53.9652 145.86C53.0075 145.221 52.0646 144.562 51.137 143.884L50.9282 144.169C49.9953 143.486 49.0778 142.784 48.1764 142.062L48.3973 141.786C47.4991 141.067 46.6169 140.328 45.7513 139.572L45.5187 139.838C44.6488 139.077 43.7956 138.298 42.9599 137.5L43.2039 137.245C42.3716 136.451 41.5567 135.639 40.7597 134.809L40.5049 135.054C39.7044 134.221 38.9219 133.371 38.1582 132.504L38.4234 132.27C37.6633 131.408 36.9218 130.528 36.1994 129.633L35.9243 129.854C35.1993 128.956 34.4936 128.041 33.8077 127.11L34.0922 126.9C33.4101 125.975 32.7477 125.034 32.1058 124.079L31.8124 124.276C31.1685 123.318 30.545 122.345 29.9426 121.358L30.2442 121.174C29.6457 120.193 29.068 119.198 28.5118 118.19L28.2023 118.361C27.6449 117.351 27.109 116.327 26.595 115.291L26.9117 115.134C26.4016 114.105 25.9132 113.064 25.4473 112.011L25.1241 112.154C24.6577 111.099 24.2136 110.032 23.7925 108.954L24.1217 108.826C23.7041 107.757 23.3092 106.677 22.9376 105.586L22.603 105.7C22.2314 104.609 21.8829 103.507 21.5582 102.395L21.8975 102.296C21.5758 101.195 21.2776 100.084 21.0033 98.9635L20.66 99.0475C20.3861 97.9285 20.1359 96.8001 19.9101 95.663L20.2568 95.5942C20.0334 94.4693 19.834 93.3358 19.6591 92.1943L19.3098 92.2479C19.1355 91.1108 18.9855 89.9658 18.8602 88.8134L19.2116 88.7752C19.0879 87.6371 18.9884 86.4918 18.9136 85.3397L18.561 85.3625C18.4865 84.2153 18.4366 83.0615 18.4116 81.9015L18.7649 81.8938C18.7525 81.3184 18.7463 80.7414 18.7463 80.1629C18.7463 79.5845 18.7525 79.0075 18.7649 78.432L18.4116 78.4244C18.4366 77.2644 18.4865 76.1105 18.561 74.9633L18.9136 74.9862C18.9884 73.834 19.0879 72.6887 19.2116 71.5506L18.8602 71.5124C18.9855 70.36 19.1355 69.215 19.3098 68.078L19.6591 68.1315C19.834 66.99 20.0334 65.8565 20.2568 64.7317L19.9101 64.6628C20.1359 63.5257 20.3861 62.3974 20.66 61.2783L21.0033 61.3623C21.2776 60.2419 21.5758 59.1309 21.8975 58.0298L21.5582 57.9307C21.8829 56.819 22.2314 55.7173 22.603 54.6263L22.9376 54.7403C23.3092 53.6493 23.7041 52.569 24.1217 51.5001L23.7925 51.3715C24.2136 50.2934 24.6576 49.2268 25.1241 48.1723L25.4473 48.3152C25.9132 47.2618 26.4016 46.2204 26.9117 45.1918L26.595 45.0347C27.109 43.9984 27.6449 42.9749 28.2023 41.9647L28.5118 42.1355C29.068 41.1274 29.6457 40.1328 30.2442 39.1521L29.9426 38.968C30.545 37.9809 31.1685 37.0079 31.8124 36.0497L32.1058 36.2468C32.7477 35.2914 33.4101 34.3507 34.0922 33.4254L33.8077 33.2157C34.4936 32.2853 35.1993 31.3703 35.9243 30.4714L36.1994 30.6933C36.9218 29.7977 37.6633 28.9182 38.4234 28.0554L38.1582 27.8217C38.9219 26.9547 39.7044 26.1044 40.5049 25.2715L40.7597 25.5164C41.5567 24.6872 42.3716 23.8752 43.2039 23.0812L42.9599 22.8255C43.7956 22.0282 44.6488 21.2488 45.5187 20.4881L45.7513 20.7542C46.6169 19.9974 47.4991 19.259 48.3973 18.5398L48.1764 18.2639C49.0778 17.5422 49.9953 16.8397 50.9283 16.157L51.137 16.4423C52.0646 15.7635 53.0075 15.1044 53.9652 14.4656L53.7691 14.1715C54.7294 13.531 55.7045 12.9107 56.6938 12.3114L56.8769 12.6137C57.8594 12.0184 58.8559 11.4439 59.8659 10.8907L59.6961 10.5807C60.7078 10.0266 61.733 9.49369 62.7709 8.98276L62.927 9.29986C63.9571 8.79277 64.9998 8.30739 66.0546 7.84429L65.9125 7.52067C66.9683 7.05717 68.036 6.6159 69.1152 6.19745L69.243 6.52698C70.3129 6.11211 71.3941 5.71978 72.486 5.35057L72.3728 5.01576C73.4646 4.64661 74.5669 4.30047 75.6794 3.97792L75.7778 4.31738C76.8795 3.99794 77.9911 3.70174 79.1121 3.42935L79.0286 3.08591C80.1481 2.81388 81.2768 2.56549 82.4143 2.34129L82.4827 2.68805C83.6078 2.46628 84.7416 2.26829 85.8834 2.09463L85.8302 1.74521C86.9675 1.57223 88.1127 1.42329 89.2652 1.29891L89.3031 1.65031C90.4413 1.52748 91.5868 1.42871 92.739 1.35453L92.7163 1.00182C93.8635 0.92796 95.0174 0.878363 96.1774 0.853544L96.1849 1.2069C96.7604 1.19459 97.3375 1.1884 97.9159 1.1884C98.4944 1.1884 99.0714 1.19459 99.6469 1.2069L99.6545 0.853544C100.814 0.878364 101.968 0.927961 103.116 1.00183L103.093 1.35453C104.245 1.42871 105.391 1.52748 106.529 1.65031L106.567 1.29891C107.719 1.42329 108.864 1.57224 110.002 1.74521L109.949 2.09463C111.09 2.26829 112.224 2.46629 113.349 2.68806L113.418 2.34129C114.555 2.56549 115.684 2.81388 116.803 3.08591L116.72 3.42936C117.841 3.70175 118.952 3.99795 120.054 4.31738L120.152 3.97793C121.265 4.30048 122.367 4.64662 123.459 5.01576L123.346 5.35058C124.438 5.71979 125.519 6.11212 126.589 6.52699L126.717 6.19746C127.796 6.6159 128.864 7.05718 129.919 7.52068L129.777 7.8443C130.832 8.30739 131.875 8.79278 132.905 9.29986L133.061 8.98276C134.099 9.49369 135.124 10.0266 136.136 10.5807L135.966 10.8907C136.976 11.4439 137.972 12.0184 138.955 12.6137L139.138 12.3114C140.127 12.9107 141.102 13.531 142.063 14.1715L141.867 14.4656C142.824 15.1044 143.767 15.7635 144.695 16.4422L144.904 16.157C145.837 16.8397 146.754 17.5422 147.655 18.2639L147.435 18.5398C148.333 19.259 149.215 19.9973 150.081 20.7542L150.313 20.4881C151.183 21.2488 152.036 22.0281 152.872 22.8255L152.628 23.0812C153.46 23.8752 154.275 24.6872 155.072 25.5164L155.327 25.2715C156.127 26.1044 156.91 26.9547 157.674 27.8217L157.408 28.0553C158.169 28.9182 158.91 29.7977 159.632 30.6933L159.908 30.4714C160.633 31.3703 161.338 32.2853 162.024 33.2157L161.74 33.4254C162.422 34.3507 163.084 35.2914 163.726 36.2468L164.019 36.0497C164.663 37.0079 165.287 37.9809 165.889 38.968L165.588 39.1521C166.186 40.1328 166.764 41.1274 167.32 42.1355L167.63 41.9647C168.187 42.9748 168.723 43.9984 169.237 45.0347L168.92 45.1917C169.43 46.2204 169.919 47.2618 170.385 48.3152L170.708 48.1723C171.174 49.2268 171.618 50.2934 172.039 51.3715L171.71 51.5001C172.128 52.569 172.523 53.6493 172.894 54.7403L173.229 54.6263C173.6 55.7173 173.949 56.819 174.274 57.9307L173.934 58.0298C174.256 59.1309 174.554 60.2419 174.829 61.3623L175.172 61.2783C175.446 62.3974 175.696 63.5257 175.922 64.6628L175.575 64.7317C175.798 65.8565 175.998 66.99 176.173 68.1315L176.522 68.078C176.696 69.215 176.846 70.36 176.972 71.5124L176.62 71.5506C176.744 72.6887 176.843 73.8341 176.918 74.9862L177.271 74.9633Z" stroke="#C9C9C9" stroke-width="0.706872" stroke-dasharray="3.53 3.53"/>
<ellipse cx="97.916" cy="80.1631" rx="47.1335" ry="47.0178" fill="#8FC045" fill-opacity="0.15"/>
<ellipse cx="155.675" cy="20.0408" rx="15.0675" ry="15.0306" fill="#262F39"/>
<path d="M154.57 19.4412V20.9977C154.57 21.7432 154.496 22.3797 154.347 22.9073C154.203 23.4305 153.994 23.8555 153.72 24.1825C153.445 24.5095 153.116 24.7493 152.732 24.9019C152.353 25.0545 151.928 25.1308 151.457 25.1308C151.082 25.1308 150.733 25.0828 150.41 24.9869C150.092 24.891 149.804 24.7406 149.547 24.5357C149.29 24.3308 149.07 24.067 148.887 23.7444C148.708 23.4174 148.568 23.0272 148.468 22.5738C148.372 22.1203 148.324 21.595 148.324 20.9977V19.4412C148.324 18.6913 148.398 18.0592 148.547 17.5447C148.695 17.0259 148.906 16.6052 149.181 16.2825C149.456 15.9556 149.783 15.7179 150.162 15.5697C150.546 15.4215 150.973 15.3474 151.444 15.3474C151.823 15.3474 152.172 15.3953 152.49 15.4912C152.813 15.5828 153.1 15.7288 153.353 15.9294C153.611 16.13 153.829 16.3915 154.007 16.7142C154.19 17.0324 154.33 17.4183 154.426 17.8717C154.522 18.3208 154.57 18.8439 154.57 19.4412ZM152.994 21.22V19.2058C152.994 18.8265 152.972 18.493 152.928 18.2052C152.885 17.9131 152.819 17.6668 152.732 17.4662C152.649 17.2613 152.545 17.0956 152.418 16.9692C152.292 16.8384 152.148 16.7447 151.986 16.688C151.825 16.627 151.644 16.5965 151.444 16.5965C151.2 16.5965 150.982 16.6444 150.79 16.7403C150.598 16.8319 150.437 16.9801 150.306 17.185C150.175 17.3899 150.075 17.6602 150.005 17.996C149.94 18.3273 149.907 18.7306 149.907 19.2058V21.22C149.907 21.6037 149.929 21.9416 149.972 22.2337C150.016 22.5258 150.081 22.7765 150.168 22.9858C150.256 23.1907 150.36 23.3607 150.482 23.4959C150.609 23.6267 150.753 23.7226 150.914 23.7836C151.08 23.8446 151.261 23.8752 151.457 23.8752C151.705 23.8752 151.925 23.8272 152.117 23.7313C152.309 23.6354 152.47 23.4828 152.601 23.2735C152.732 23.0599 152.83 22.783 152.896 22.443C152.961 22.1029 152.994 21.6953 152.994 21.22ZM157.826 19.5262H158.768C159.134 19.5262 159.437 19.463 159.677 19.3366C159.921 19.2102 160.102 19.0358 160.22 18.8134C160.338 18.5911 160.397 18.336 160.397 18.0483C160.397 17.7474 160.342 17.4902 160.233 17.2766C160.128 17.0586 159.967 16.8907 159.749 16.773C159.536 16.6553 159.263 16.5965 158.932 16.5965C158.653 16.5965 158.4 16.6531 158.173 16.7665C157.951 16.8755 157.774 17.0324 157.643 17.2373C157.513 17.4379 157.447 17.6777 157.447 17.9567H155.865C155.865 17.451 155.998 17.0019 156.263 16.6095C156.529 16.2171 156.891 15.9098 157.349 15.6874C157.811 15.4607 158.33 15.3474 158.906 15.3474C159.52 15.3474 160.057 15.4498 160.514 15.6547C160.976 15.8553 161.336 16.1561 161.593 16.5572C161.851 16.9583 161.979 17.4553 161.979 18.0483C161.979 18.3186 161.916 18.5932 161.79 18.8723C161.663 19.1513 161.476 19.4064 161.227 19.6374C160.979 19.8641 160.669 20.0494 160.298 20.1933C159.928 20.3328 159.498 20.4026 159.01 20.4026H157.826V19.5262ZM157.826 20.7557V19.8925H159.01C159.568 19.8925 160.043 19.9579 160.436 20.0887C160.833 20.2195 161.155 20.4004 161.404 20.6315C161.652 20.8582 161.833 21.1176 161.946 21.4097C162.064 21.7018 162.123 22.0113 162.123 22.3383C162.123 22.783 162.042 23.1798 161.881 23.5286C161.724 23.873 161.5 24.1651 161.208 24.4049C160.915 24.6447 160.573 24.8256 160.181 24.9477C159.793 25.0698 159.37 25.1308 158.912 25.1308C158.502 25.1308 158.11 25.0741 157.735 24.9608C157.36 24.8474 157.024 24.6796 156.728 24.4572C156.431 24.2305 156.196 23.9493 156.022 23.6136C155.851 23.2735 155.766 22.8811 155.766 22.4364H157.343C157.343 22.7198 157.408 22.9705 157.539 23.1885C157.674 23.4021 157.861 23.57 158.101 23.6921C158.345 23.8141 158.624 23.8752 158.938 23.8752C159.27 23.8752 159.555 23.8163 159.795 23.6986C160.035 23.5809 160.218 23.4065 160.344 23.1754C160.475 22.9443 160.54 22.6653 160.54 22.3383C160.54 21.9677 160.469 21.6669 160.325 21.4358C160.181 21.2048 159.976 21.0347 159.71 20.9258C159.444 20.8124 159.13 20.7557 158.768 20.7557H157.826Z" fill="white"/>
<path d="M1.96108 194.488V182.256H6.32116C7.26883 182.256 8.05524 182.419 8.68038 182.745C9.30951 183.072 9.77936 183.524 10.0899 184.101C10.4005 184.675 10.5558 185.338 10.5558 186.09C10.5558 186.839 10.3985 187.498 10.084 188.067C9.77339 188.633 9.30353 189.073 8.67441 189.387C8.04926 189.702 7.26286 189.859 6.31519 189.859H3.01228V188.27H6.14795C6.74522 188.27 7.231 188.185 7.60529 188.013C7.98356 187.842 8.2603 187.593 8.4355 187.267C8.6107 186.94 8.6983 186.548 8.6983 186.09C8.6983 185.628 8.60871 185.228 8.42953 184.89C8.25433 184.551 7.97759 184.292 7.59932 184.113C7.22503 183.93 6.73328 183.838 6.12406 183.838H3.80665V194.488H1.96108ZM7.99949 188.969L11.0217 194.488H8.91929L5.95682 188.969H7.99949ZM16.4972 194.673C15.5933 194.673 14.8149 194.48 14.1618 194.094C13.5128 193.703 13.0111 193.156 12.6567 192.451C12.3063 191.742 12.1311 190.912 12.1311 189.96C12.1311 189.021 12.3063 188.193 12.6567 187.476C13.0111 186.759 13.5048 186.2 14.1379 185.797C14.775 185.395 15.5196 185.194 16.3717 185.194C16.8894 185.194 17.3911 185.28 17.8769 185.451C18.3626 185.622 18.7987 185.891 19.1849 186.257C19.5711 186.624 19.8757 187.1 20.0987 187.685C20.3217 188.266 20.4332 188.973 20.4332 189.805V190.438H13.1405V189.1H18.6832C18.6832 188.631 18.5876 188.214 18.3965 187.852C18.2054 187.486 17.9366 187.197 17.5902 186.986C17.2477 186.775 16.8456 186.67 16.3837 186.67C15.882 186.67 15.444 186.793 15.0697 187.04C14.6994 187.283 14.4127 187.601 14.2096 187.995C14.0105 188.386 13.911 188.81 13.911 189.268V190.313C13.911 190.926 14.0185 191.448 14.2335 191.878C14.4525 192.308 14.7571 192.636 15.1473 192.863C15.5376 193.086 15.9935 193.198 16.5151 193.198C16.8535 193.198 17.1621 193.15 17.4409 193.054C17.7196 192.955 17.9605 192.807 18.1636 192.612C18.3666 192.417 18.5219 192.176 18.6294 191.89L20.3197 192.194C20.1843 192.692 19.9414 193.128 19.591 193.502C19.2446 193.873 18.8086 194.161 18.283 194.368C17.7614 194.571 17.1661 194.673 16.4972 194.673ZM26.279 194.673C25.391 194.673 24.6265 194.472 23.9855 194.07C23.3484 193.664 22.8586 193.104 22.5162 192.391C22.1737 191.679 22.0025 190.862 22.0025 189.943C22.0025 189.011 22.1777 188.189 22.5281 187.476C22.8785 186.759 23.3723 186.2 24.0093 185.797C24.6464 185.395 25.397 185.194 26.2611 185.194C26.9579 185.194 27.579 185.324 28.1245 185.582C28.6701 185.837 29.11 186.196 29.4445 186.658C29.783 187.119 29.984 187.659 30.0478 188.276H28.3097C28.2141 187.846 27.9951 187.476 27.6527 187.165C27.3142 186.855 26.8603 186.699 26.2909 186.699C25.7932 186.699 25.3572 186.831 24.9829 187.094C24.6126 187.352 24.3239 187.723 24.1169 188.204C23.9098 188.682 23.8063 189.248 23.8063 189.901C23.8063 190.57 23.9078 191.147 24.1109 191.633C24.314 192.119 24.6006 192.495 24.971 192.762C25.3452 193.028 25.7852 193.162 26.2909 193.162C26.6294 193.162 26.936 193.1 27.2107 192.977C27.4894 192.849 27.7224 192.668 27.9095 192.433C28.1007 192.198 28.234 191.916 28.3097 191.585H30.0478C29.984 192.178 29.7909 192.708 29.4684 193.174C29.1459 193.64 28.7139 194.006 28.1723 194.273C27.6348 194.54 27.0037 194.673 26.279 194.673ZM31.9575 194.488V185.314H33.7434V194.488H31.9575ZM32.8594 183.898C32.5488 183.898 32.2821 183.795 32.0591 183.588C31.8401 183.377 31.7306 183.126 31.7306 182.835C31.7306 182.54 31.8401 182.29 32.0591 182.082C32.2821 181.871 32.5488 181.766 32.8594 181.766C33.17 181.766 33.4348 181.871 33.6538 182.082C33.8768 182.29 33.9883 182.54 33.9883 182.835C33.9883 183.126 33.8768 183.377 33.6538 183.588C33.4348 183.795 33.17 183.898 32.8594 183.898ZM40.0998 194.673C39.196 194.673 38.4175 194.48 37.7645 194.094C37.1155 193.703 36.6138 193.156 36.2594 192.451C35.909 191.742 35.7338 190.912 35.7338 189.96C35.7338 189.021 35.909 188.193 36.2594 187.476C36.6138 186.759 37.1075 186.2 37.7406 185.797C38.3777 185.395 39.1223 185.194 39.9744 185.194C40.492 185.194 40.9937 185.28 41.4795 185.451C41.9653 185.622 42.4013 185.891 42.7876 186.257C43.1738 186.624 43.4784 187.1 43.7014 187.685C43.9244 188.266 44.0359 188.973 44.0359 189.805V190.438H36.7432V189.1H42.2858C42.2858 188.631 42.1903 188.214 41.9992 187.852C41.808 187.486 41.5393 187.197 41.1928 186.986C40.8504 186.775 40.4482 186.67 39.9864 186.67C39.4846 186.67 39.0466 186.793 38.6724 187.04C38.302 187.283 38.0154 187.601 37.8123 187.995C37.6132 188.386 37.5136 188.81 37.5136 189.268V190.313C37.5136 190.926 37.6212 191.448 37.8362 191.878C38.0552 192.308 38.3598 192.636 38.75 192.863C39.1402 193.086 39.5961 193.198 40.1178 193.198C40.4562 193.198 40.7648 193.15 41.0435 193.054C41.3222 192.955 41.5631 192.807 41.7662 192.612C41.9693 192.417 42.1246 192.176 42.2321 191.89L43.9224 192.194C43.787 192.692 43.5441 193.128 43.1937 193.502C42.8473 193.873 42.4113 194.161 41.8857 194.368C41.3641 194.571 40.7688 194.673 40.0998 194.673ZM53.6026 185.314L50.2758 194.488H48.3646L45.0318 185.314H46.949L49.2724 192.373H49.368L51.6854 185.314H53.6026ZM58.9228 194.673C58.019 194.673 57.2405 194.48 56.5875 194.094C55.9385 193.703 55.4368 193.156 55.0824 192.451C54.732 191.742 54.5568 190.912 54.5568 189.96C54.5568 189.021 54.732 188.193 55.0824 187.476C55.4368 186.759 55.9305 186.2 56.5636 185.797C57.2007 185.395 57.9453 185.194 58.7974 185.194C59.315 185.194 59.8168 185.28 60.3025 185.451C60.7883 185.622 61.2243 185.891 61.6106 186.257C61.9968 186.624 62.3014 187.1 62.5244 187.685C62.7474 188.266 62.8589 188.973 62.8589 189.805V190.438H55.5662V189.1H61.1089C61.1089 188.631 61.0133 188.214 60.8222 187.852C60.631 187.486 60.3623 187.197 60.0158 186.986C59.6734 186.775 59.2712 186.67 58.8094 186.67C58.3076 186.67 57.8696 186.793 57.4954 187.04C57.1251 187.283 56.8384 187.601 56.6353 187.995C56.4362 188.386 56.3367 188.81 56.3367 189.268V190.313C56.3367 190.926 56.4442 191.448 56.6592 191.878C56.8782 192.308 57.1828 192.636 57.573 192.863C57.9632 193.086 58.4191 193.198 58.9408 193.198C59.2792 193.198 59.5878 193.15 59.8665 193.054C60.1453 192.955 60.3862 192.807 60.5892 192.612C60.7923 192.417 60.9476 192.176 61.0551 191.89L62.7454 192.194C62.61 192.692 62.3671 193.128 62.0167 193.502C61.6703 193.873 61.2343 194.161 60.7087 194.368C60.1871 194.571 59.5918 194.673 58.9228 194.673ZM70.4203 197.928C70.1535 197.928 69.9106 197.906 69.6916 197.862C69.4726 197.823 69.3094 197.779 69.2019 197.731L69.6319 196.268C69.9584 196.355 70.2491 196.393 70.5039 196.381C70.7588 196.369 70.9837 196.274 71.1788 196.094C71.3779 195.915 71.5531 195.623 71.7044 195.216L71.9254 194.607L68.5688 185.314H70.48L72.8034 192.433H72.899L75.2224 185.314H77.1396L73.3589 195.712C73.1837 196.19 72.9607 196.594 72.6899 196.925C72.4192 197.259 72.0966 197.51 71.7224 197.677C71.3481 197.844 70.9141 197.928 70.4203 197.928ZM82.3702 194.673C81.5101 194.673 80.7596 194.476 80.1185 194.082C79.4774 193.687 78.9797 193.136 78.6253 192.427C78.2709 191.718 78.0937 190.89 78.0937 189.943C78.0937 188.991 78.2709 188.159 78.6253 187.446C78.9797 186.733 79.4774 186.18 80.1185 185.786C80.7596 185.391 81.5101 185.194 82.3702 185.194C83.2303 185.194 83.9809 185.391 84.6219 185.786C85.263 186.18 85.7607 186.733 86.1151 187.446C86.4695 188.159 86.6467 188.991 86.6467 189.943C86.6467 190.89 86.4695 191.718 86.1151 192.427C85.7607 193.136 85.263 193.687 84.6219 194.082C83.9809 194.476 83.2303 194.673 82.3702 194.673ZM82.3762 193.174C82.9336 193.174 83.3955 193.026 83.7619 192.732C84.1282 192.437 84.3989 192.045 84.5741 191.555C84.7533 191.065 84.8429 190.526 84.8429 189.937C84.8429 189.351 84.7533 188.814 84.5741 188.324C84.3989 187.83 84.1282 187.434 83.7619 187.135C83.3955 186.837 82.9336 186.687 82.3762 186.687C81.8147 186.687 81.3489 186.837 80.9786 187.135C80.6122 187.434 80.3395 187.83 80.1603 188.324C79.9851 188.814 79.8975 189.351 79.8975 189.937C79.8975 190.526 79.9851 191.065 80.1603 191.555C80.3395 192.045 80.6122 192.437 80.9786 192.732C81.3489 193.026 81.8147 193.174 82.3762 193.174ZM94.4515 190.683V185.314H96.2433V194.488H94.4874V192.899H94.3918C94.1808 193.389 93.8423 193.797 93.3764 194.123C92.9145 194.446 92.3392 194.607 91.6503 194.607C91.061 194.607 90.5394 194.478 90.0855 194.219C89.6355 193.956 89.2811 193.568 89.0223 193.054C88.7675 192.541 88.6401 191.906 88.6401 191.149V185.314H90.4259V190.934C90.4259 191.559 90.5991 192.057 90.9455 192.427C91.292 192.798 91.7419 192.983 92.2954 192.983C92.6298 192.983 92.9623 192.899 93.2928 192.732C93.6273 192.565 93.904 192.312 94.123 191.973C94.346 191.635 94.4555 191.205 94.4515 190.683ZM98.6429 194.488V185.314H100.369V186.771H100.465C100.632 186.277 100.926 185.889 101.349 185.606C101.775 185.32 102.256 185.176 102.794 185.176C102.905 185.176 103.037 185.18 103.188 185.188C103.343 185.196 103.465 185.206 103.552 185.218V186.926C103.481 186.906 103.353 186.885 103.17 186.861C102.987 186.833 102.804 186.819 102.621 186.819C102.199 186.819 101.822 186.908 101.492 187.088C101.165 187.263 100.907 187.508 100.715 187.822C100.524 188.133 100.429 188.487 100.429 188.885V194.488H98.6429ZM112.983 194.667C112.243 194.667 111.582 194.478 111 194.1C110.423 193.717 109.969 193.174 109.639 192.469C109.312 191.76 109.149 190.91 109.149 189.919C109.149 188.927 109.314 188.079 109.645 187.374C109.979 186.67 110.437 186.13 111.018 185.756C111.6 185.381 112.259 185.194 112.995 185.194C113.565 185.194 114.023 185.29 114.369 185.481C114.719 185.668 114.99 185.887 115.181 186.138C115.376 186.389 115.528 186.61 115.635 186.801H115.743V182.256H117.529V194.488H115.785V193.06H115.635C115.528 193.255 115.372 193.478 115.169 193.729C114.97 193.98 114.696 194.199 114.345 194.386C113.995 194.573 113.541 194.667 112.983 194.667ZM113.378 193.144C113.891 193.144 114.325 193.009 114.68 192.738C115.038 192.463 115.309 192.083 115.492 191.597C115.679 191.111 115.773 190.546 115.773 189.901C115.773 189.264 115.681 188.706 115.498 188.228C115.315 187.751 115.046 187.378 114.692 187.111C114.337 186.845 113.899 186.711 113.378 186.711C112.84 186.711 112.392 186.851 112.034 187.129C111.675 187.408 111.405 187.788 111.221 188.27C111.042 188.752 110.953 189.296 110.953 189.901C110.953 190.514 111.044 191.065 111.227 191.555C111.411 192.045 111.681 192.433 112.04 192.72C112.402 193.003 112.848 193.144 113.378 193.144ZM123.942 194.673C123.082 194.673 122.331 194.476 121.69 194.082C121.049 193.687 120.551 193.136 120.197 192.427C119.843 191.718 119.665 190.89 119.665 189.943C119.665 188.991 119.843 188.159 120.197 187.446C120.551 186.733 121.049 186.18 121.69 185.786C122.331 185.391 123.082 185.194 123.942 185.194C124.802 185.194 125.552 185.391 126.193 185.786C126.835 186.18 127.332 186.733 127.687 187.446C128.041 188.159 128.218 188.991 128.218 189.943C128.218 190.89 128.041 191.718 127.687 192.427C127.332 193.136 126.835 193.687 126.193 194.082C125.552 194.476 124.802 194.673 123.942 194.673ZM123.948 193.174C124.505 193.174 124.967 193.026 125.333 192.732C125.7 192.437 125.971 192.045 126.146 191.555C126.325 191.065 126.414 190.526 126.414 189.937C126.414 189.351 126.325 188.814 126.146 188.324C125.971 187.83 125.7 187.434 125.333 187.135C124.967 186.837 124.505 186.687 123.948 186.687C123.386 186.687 122.92 186.837 122.55 187.135C122.184 187.434 121.911 187.83 121.732 188.324C121.557 188.814 121.469 189.351 121.469 189.937C121.469 190.526 121.557 191.065 121.732 191.555C121.911 192.045 122.184 192.437 122.55 192.732C122.92 193.026 123.386 193.174 123.948 193.174ZM134.076 194.673C133.188 194.673 132.424 194.472 131.782 194.07C131.145 193.664 130.656 193.104 130.313 192.391C129.971 191.679 129.8 190.862 129.8 189.943C129.8 189.011 129.975 188.189 130.325 187.476C130.676 186.759 131.169 186.2 131.806 185.797C132.443 185.395 133.194 185.194 134.058 185.194C134.755 185.194 135.376 185.324 135.922 185.582C136.467 185.837 136.907 186.196 137.242 186.658C137.58 187.119 137.781 187.659 137.845 188.276H136.107C136.011 187.846 135.792 187.476 135.45 187.165C135.111 186.855 134.657 186.699 134.088 186.699C133.59 186.699 133.154 186.831 132.78 187.094C132.41 187.352 132.121 187.723 131.914 188.204C131.707 188.682 131.603 189.248 131.603 189.901C131.603 190.57 131.705 191.147 131.908 191.633C132.111 192.119 132.398 192.495 132.768 192.762C133.142 193.028 133.582 193.162 134.088 193.162C134.426 193.162 134.733 193.1 135.008 192.977C135.286 192.849 135.519 192.668 135.707 192.433C135.898 192.198 136.031 191.916 136.107 191.585H137.845C137.781 192.178 137.588 192.708 137.265 193.174C136.943 193.64 136.511 194.006 135.969 194.273C135.432 194.54 134.801 194.673 134.076 194.673ZM145.566 190.683V185.314H147.358V194.488H145.602V192.899H145.506C145.295 193.389 144.957 193.797 144.491 194.123C144.029 194.446 143.454 194.607 142.765 194.607C142.175 194.607 141.654 194.478 141.2 194.219C140.75 193.956 140.396 193.568 140.137 193.054C139.882 192.541 139.755 191.906 139.755 191.149V185.314H141.54V190.934C141.54 191.559 141.714 192.057 142.06 192.427C142.406 192.798 142.856 192.983 143.41 192.983C143.744 192.983 144.077 192.899 144.407 192.732C144.742 192.565 145.018 192.312 145.237 191.973C145.46 191.635 145.57 191.205 145.566 190.683ZM149.757 194.488V185.314H151.472V186.807H151.585C151.776 186.301 152.089 185.907 152.523 185.624C152.957 185.338 153.476 185.194 154.082 185.194C154.695 185.194 155.208 185.338 155.623 185.624C156.041 185.911 156.349 186.305 156.548 186.807H156.644C156.863 186.317 157.211 185.927 157.689 185.636C158.167 185.342 158.736 185.194 159.397 185.194C160.229 185.194 160.908 185.455 161.434 185.977C161.964 186.498 162.228 187.285 162.228 188.336V194.488H160.443V188.503C160.443 187.882 160.273 187.432 159.935 187.153C159.596 186.875 159.192 186.735 158.722 186.735C158.141 186.735 157.689 186.914 157.367 187.273C157.044 187.627 156.883 188.083 156.883 188.641V194.488H155.103V188.39C155.103 187.892 154.948 187.492 154.637 187.189C154.326 186.887 153.922 186.735 153.425 186.735C153.086 186.735 152.774 186.825 152.487 187.004C152.204 187.179 151.975 187.424 151.8 187.739C151.629 188.053 151.543 188.418 151.543 188.832V194.488H149.757ZM168.576 194.673C167.672 194.673 166.894 194.48 166.241 194.094C165.592 193.703 165.09 193.156 164.735 192.451C164.385 191.742 164.21 190.912 164.21 189.96C164.21 189.021 164.385 188.193 164.735 187.476C165.09 186.759 165.584 186.2 166.217 185.797C166.854 185.395 167.598 185.194 168.45 185.194C168.968 185.194 169.47 185.28 169.956 185.451C170.441 185.622 170.877 185.891 171.264 186.257C171.65 186.624 171.954 187.1 172.177 187.685C172.4 188.266 172.512 188.973 172.512 189.805V190.438H165.219V189.1H170.762C170.762 188.631 170.666 188.214 170.475 187.852C170.284 187.486 170.015 187.197 169.669 186.986C169.326 186.775 168.924 186.67 168.462 186.67C167.961 186.67 167.523 186.793 167.148 187.04C166.778 187.283 166.491 187.601 166.288 187.995C166.089 188.386 165.99 188.81 165.99 189.268V190.313C165.99 190.926 166.097 191.448 166.312 191.878C166.531 192.308 166.836 192.636 167.226 192.863C167.616 193.086 168.072 193.198 168.594 193.198C168.932 193.198 169.241 193.15 169.52 193.054C169.798 192.955 170.039 192.807 170.242 192.612C170.445 192.417 170.601 192.176 170.708 191.89L172.398 192.194C172.263 192.692 172.02 193.128 171.67 193.502C171.323 193.873 170.887 194.161 170.362 194.368C169.84 194.571 169.245 194.673 168.576 194.673ZM176.279 189.041V194.488H174.493V185.314H176.207V186.807H176.321C176.532 186.321 176.863 185.931 177.312 185.636C177.766 185.342 178.338 185.194 179.027 185.194C179.652 185.194 180.199 185.326 180.669 185.588C181.139 185.847 181.503 186.234 181.762 186.747C182.021 187.261 182.15 187.896 182.15 188.652V194.488H180.365V188.867C180.365 188.203 180.191 187.683 179.845 187.309C179.498 186.93 179.023 186.741 178.417 186.741C178.003 186.741 177.635 186.831 177.312 187.01C176.994 187.189 176.741 187.452 176.554 187.798C176.371 188.141 176.279 188.555 176.279 189.041ZM188.828 185.314V186.747H183.817V185.314H188.828ZM185.161 183.116H186.946V191.794C186.946 192.141 186.998 192.401 187.102 192.577C187.205 192.748 187.339 192.865 187.502 192.929C187.669 192.989 187.85 193.019 188.045 193.019C188.189 193.019 188.314 193.009 188.422 192.989C188.529 192.969 188.613 192.953 188.673 192.941L188.995 194.416C188.892 194.456 188.744 194.496 188.553 194.536C188.362 194.579 188.123 194.603 187.836 194.607C187.367 194.615 186.929 194.532 186.522 194.356C186.116 194.181 185.788 193.91 185.537 193.544C185.286 193.178 185.161 192.718 185.161 192.164V183.116ZM193.055 182.256L192.9 190.97H191.245L191.09 182.256H193.055ZM192.076 194.601C191.745 194.601 191.462 194.486 191.227 194.255C190.992 194.02 190.877 193.737 190.881 193.407C190.877 193.08 190.992 192.801 191.227 192.571C191.462 192.336 191.745 192.218 192.076 192.218C192.398 192.218 192.677 192.336 192.912 192.571C193.147 192.801 193.266 193.08 193.27 193.407C193.266 193.626 193.208 193.827 193.097 194.01C192.989 194.189 192.846 194.333 192.667 194.44C192.488 194.548 192.291 194.601 192.076 194.601Z" fill="#262F39"/>
<path d="M113.475 94.3647H82.958C81.8543 94.3647 80.7958 93.9263 80.0154 93.1458C79.2349 92.3654 78.7965 91.3069 78.7965 90.2032V70.7831C78.7965 69.6794 79.2349 68.6209 80.0154 67.8404C80.7958 67.06 81.8543 66.6216 82.958 66.6216H113.475C114.579 66.6216 115.638 67.06 116.418 67.8404C117.198 68.6209 117.637 69.6794 117.637 70.7831V90.2032C117.637 91.3069 117.198 92.3654 116.418 93.1458C115.638 93.9263 114.579 94.3647 113.475 94.3647ZM82.958 69.3959C82.5901 69.3959 82.2373 69.542 81.9771 69.8022C81.717 70.0623 81.5708 70.4152 81.5708 70.7831V90.2032C81.5708 90.5711 81.717 90.924 81.9771 91.1841C82.2373 91.4442 82.5901 91.5904 82.958 91.5904H113.475C113.843 91.5904 114.196 91.4442 114.456 91.1841C114.716 90.924 114.863 90.5711 114.863 90.2032V70.7831C114.863 70.4152 114.716 70.0623 114.456 69.8022C114.196 69.542 113.843 69.3959 113.475 69.3959H82.958Z" fill="#8FC045"/>
<path d="M98.2167 81.8803C97.9448 81.8782 97.6795 81.7962 97.4538 81.6445L80.8079 70.5473C80.5388 70.3305 80.3602 70.021 80.3073 69.6794C80.2544 69.3379 80.3308 68.9889 80.5218 68.7008C80.7127 68.4126 81.0043 68.2062 81.3394 68.1218C81.6746 68.0374 82.0292 68.0812 82.3338 68.2446L98.9797 79.3418C99.2257 79.5071 99.4122 79.7469 99.5121 80.0259C99.6119 80.305 99.6198 80.6087 99.5345 80.8925C99.4492 81.1763 99.2752 81.4254 99.0381 81.6031C98.8009 81.7809 98.5131 81.878 98.2167 81.8803Z" fill="#8FC045"/>
<path d="M98.2167 81.8803C97.9191 81.881 97.6293 81.786 97.3899 81.6093C97.1504 81.4326 96.9742 81.1836 96.8871 80.8991C96.8001 80.6145 96.8068 80.3096 96.9063 80.0292C97.0059 79.7488 97.1929 79.5078 97.4399 79.3418L114.086 68.2446C114.391 68.0641 114.754 68.0074 115.099 68.0861C115.445 68.1648 115.748 68.3729 115.945 68.6676C116.142 68.9624 116.219 69.3214 116.159 69.671C116.1 70.0206 115.909 70.3341 115.625 70.5473L98.9796 81.6445C98.7539 81.7962 98.4886 81.8782 98.2167 81.8803Z" fill="#8FC045"/>
</svg>
