<svg width="31" height="31" viewBox="0 0 31 31" fill="none" xmlns="http://www.w3.org/2000/svg">
<circle cx="15.5" cy="15.5" r="15.5" fill="#8FC045"/>
<path d="M15.4767 17.0627L21.2587 11.2807C21.4473 11.0986 21.6999 10.9978 21.9621 11C22.2243 11.0023 22.4751 11.1075 22.6605 11.2929C22.8459 11.4783 22.9511 11.7291 22.9534 11.9913C22.9557 12.2535 22.8549 12.5061 22.6727 12.6947L16.1867 19.1807C16.0935 19.2739 15.9828 19.3477 15.8609 19.3978C15.7391 19.4479 15.6085 19.4734 15.4767 19.4727C15.3449 19.4737 15.2142 19.4483 15.0923 19.3982C14.9704 19.348 14.8597 19.2741 14.7667 19.1807L8.28071 12.6947C8.09855 12.5061 7.99776 12.2535 8.00004 11.9913C8.00232 11.7291 8.10748 11.4783 8.29289 11.2929C8.4783 11.1075 8.72911 11.0023 8.99131 11C9.25351 10.9978 9.50611 11.0986 9.69471 11.2807L15.4767 17.0627Z" fill="white"/>
</svg>
