<svg width="50" height="50" viewBox="0 0 50 50" fill="none" xmlns="http://www.w3.org/2000/svg">
<path d="M47.8571 27.4675H41.4286V11.973C41.4286 11.8804 41.41 11.7886 41.374 11.7031C41.3379 11.6175 41.2851 11.5398 41.2186 11.4744L32.6486 3.02425C32.5822 2.95863 32.5034 2.90657 32.4166 2.87103C32.3299 2.8355 32.2368 2.8172 32.1429 2.81718H30V0.704296C30 0.517505 29.9247 0.338365 29.7908 0.206284C29.6568 0.0742025 29.4752 0 29.2857 0H5.71429C5.52485 0 5.34316 0.0742025 5.20921 0.206284C5.07525 0.338365 5 0.517505 5 0.704296V27.4675H2.14286C0.961429 27.4675 0 28.4155 0 29.5804V45.7792C0 47.721 1.60214 49.3007 3.57143 49.3007H46.4286C48.3979 49.3007 50 47.721 50 45.7792V29.5804C50 28.4155 49.0386 27.4675 47.8571 27.4675ZM34.2857 27.4675C34.2471 27.4675 34.2143 27.483 34.1764 27.4887C34.1286 27.4964 34.0814 27.5006 34.0364 27.5168C33.9914 27.5337 33.9536 27.5605 33.9136 27.5851C33.8757 27.6084 33.8371 27.6274 33.8043 27.6577C33.7664 27.6929 33.74 27.7352 33.71 27.7774C33.69 27.8056 33.6629 27.8253 33.6464 27.857L31.7014 31.6933H18.2986L16.3536 27.857C16.3371 27.8253 16.31 27.8049 16.2893 27.7767C16.2607 27.7345 16.2336 27.6922 16.1964 27.6584C16.1629 27.6281 16.1236 27.6084 16.0857 27.5851C16.0457 27.5605 16.0086 27.5337 15.9643 27.5175C15.9186 27.5006 15.8714 27.4964 15.8229 27.4894C15.7857 27.483 15.7529 27.4675 15.7143 27.4675H10V4.22577H31.4286V10.5644C31.4286 11.7293 32.39 12.6773 33.5714 12.6773H40V27.4675H34.2857ZM32.8571 5.22165L38.99 11.2687H33.5714C33.1779 11.2687 32.8571 10.9532 32.8571 10.5644V5.22165ZM6.42857 1.40859H28.5714V2.81718H9.28571C9.09627 2.81718 8.91459 2.89139 8.78064 3.02347C8.64668 3.15555 8.57143 3.33469 8.57143 3.52148V27.4675H6.42857V1.40859ZM48.5714 45.7792C48.5714 46.9441 47.61 47.8921 46.4286 47.8921H3.57143C2.39 47.8921 1.42857 46.9441 1.42857 45.7792V29.5804C1.42857 29.1916 1.74929 28.8761 2.14286 28.8761H15.2729L17.0207 32.3237C17.1389 32.5583 17.3214 32.7556 17.5475 32.8932C17.7736 33.0307 18.0343 33.103 18.3 33.1019H31.7021C31.9676 33.1028 32.228 33.0303 32.4538 32.8928C32.6797 32.7552 32.8619 32.5581 32.98 32.3237L34.7271 28.8761H47.8571C48.2507 28.8761 48.5714 29.1916 48.5714 29.5804V45.7792Z" fill="#8FC045"/>
<path d="M12.8571 9.15591H27.1428C27.3322 9.15591 27.5139 9.0817 27.6479 8.94962C27.7818 8.81754 27.8571 8.6384 27.8571 8.45161C27.8571 8.26482 27.7818 8.08568 27.6479 7.9536C27.5139 7.82152 27.3322 7.74731 27.1428 7.74731H12.8571C12.6676 7.74731 12.486 7.82152 12.352 7.9536C12.2181 8.08568 12.1428 8.26482 12.1428 8.45161C12.1428 8.6384 12.2181 8.81754 12.352 8.94962C12.486 9.0817 12.6676 9.15591 12.8571 9.15591ZM12.8571 14.086H29.2857C29.4751 14.086 29.6568 14.0118 29.7907 13.8797C29.9247 13.7476 29.9999 13.5685 29.9999 13.3817C29.9999 13.1949 29.9247 13.0157 29.7907 12.8837C29.6568 12.7516 29.4751 12.6774 29.2857 12.6774H12.8571C12.6676 12.6774 12.486 12.7516 12.352 12.8837C12.2181 13.0157 12.1428 13.1949 12.1428 13.3817C12.1428 13.5685 12.2181 13.7476 12.352 13.8797C12.486 14.0118 12.6676 14.086 12.8571 14.086ZM12.8571 19.016H37.1428C37.3322 19.016 37.5139 18.9418 37.6479 18.8098C37.7818 18.6777 37.8571 18.4985 37.8571 18.3117C37.8571 18.125 37.7818 17.9458 37.6479 17.8137C37.5139 17.6817 37.3322 17.6075 37.1428 17.6075H12.8571C12.6676 17.6075 12.486 17.6817 12.352 17.8137C12.2181 17.9458 12.1428 18.125 12.1428 18.3117C12.1428 18.4985 12.2181 18.6777 12.352 18.8098C12.486 18.9418 12.6676 19.016 12.8571 19.016ZM37.1428 22.5375H12.8571C12.6676 22.5375 12.486 22.6117 12.352 22.7438C12.2181 22.8759 12.1428 23.055 12.1428 23.2418C12.1428 23.4286 12.2181 23.6078 12.352 23.7398C12.486 23.8719 12.6676 23.9461 12.8571 23.9461H37.1428C37.3322 23.9461 37.5139 23.8719 37.6479 23.7398C37.7818 23.6078 37.8571 23.4286 37.8571 23.2418C37.8571 23.055 37.7818 22.8759 37.6479 22.7438C37.5139 22.6117 37.3322 22.5375 37.1428 22.5375Z" fill="#8FC045"/>
</svg>
