<svg width="44" height="43" viewBox="0 0 44 43" fill="none" xmlns="http://www.w3.org/2000/svg">
<path d="M39.3585 23.6304H34.5497V11.8755C34.5497 11.8053 34.5358 11.7357 34.5089 11.6707C34.4819 11.6058 34.4424 11.5469 34.3926 11.4972L27.982 5.08657C27.9323 5.03679 27.8734 4.99729 27.8085 4.97034C27.7436 4.94338 27.674 4.9295 27.6037 4.92948H26.0007V3.32655C26.0007 3.18484 25.9444 3.04894 25.8442 2.94873C25.744 2.84853 25.6081 2.79224 25.4664 2.79224H7.83413C7.69242 2.79224 7.55651 2.84853 7.45631 2.94873C7.35611 3.04894 7.29981 3.18484 7.29981 3.32655V23.6304H5.16257C4.27882 23.6304 3.55963 24.3496 3.55963 25.2333V37.5225C3.55963 38.9956 4.75809 40.1941 6.23119 40.1941H38.2899C39.763 40.1941 40.9615 38.9956 40.9615 37.5225V25.2333C40.9615 24.3496 40.2423 23.6304 39.3585 23.6304ZM29.2066 23.6304C29.1778 23.6304 29.1532 23.6422 29.1249 23.6464C29.0891 23.6523 29.0538 23.6555 29.0201 23.6678C28.9865 23.6806 28.9582 23.7009 28.9282 23.7196C28.8999 23.7373 28.8711 23.7517 28.8465 23.7747C28.8182 23.8014 28.7984 23.8334 28.7759 23.8655C28.761 23.8869 28.7407 23.9018 28.7284 23.9259L27.2735 26.8363H17.2476L15.7927 23.9259C15.7804 23.9018 15.7601 23.8863 15.7446 23.865C15.7232 23.8329 15.7029 23.8008 15.6752 23.7752C15.65 23.7522 15.6207 23.7373 15.5923 23.7196C15.5624 23.7009 15.5346 23.6806 15.5015 23.6683C15.4673 23.6555 15.432 23.6523 15.3957 23.647C15.3679 23.6422 15.3433 23.6304 15.3145 23.6304H11.04V5.99811H27.0694V10.8069C27.0694 11.6907 27.7885 12.4099 28.6723 12.4099H33.4811V23.6304H29.2066ZM28.138 6.75362L32.7256 11.3412H28.6723C28.3779 11.3412 28.138 11.1019 28.138 10.8069V6.75362ZM8.36844 3.86086H24.9321V4.92948H10.5057C10.364 4.92948 10.2281 4.98578 10.1279 5.08598C10.0277 5.18618 9.97137 5.32209 9.97137 5.4638V23.6304H8.36844V3.86086ZM39.8928 37.5225C39.8928 38.4063 39.1737 39.1255 38.2899 39.1255H6.23119C5.34744 39.1255 4.62826 38.4063 4.62826 37.5225V25.2333C4.62826 24.9384 4.86816 24.699 5.16257 24.699H14.9843L16.2918 27.3145C16.3801 27.4925 16.5166 27.6422 16.6858 27.7465C16.8549 27.8509 17.05 27.9058 17.2487 27.9049H27.274C27.4726 27.9056 27.6674 27.8506 27.8363 27.7463C28.0052 27.6419 28.1416 27.4923 28.2299 27.3145L29.5368 24.699H39.3585C39.6529 24.699 39.8928 24.9384 39.8928 25.2333V37.5225Z" fill="#8FC045"/>
<path d="M27.0694 31.6451C26.9277 31.6451 26.7918 31.7014 26.6916 31.8016C26.5914 31.9018 26.5351 32.0377 26.5351 32.1794V33.248H17.9861V32.1794C17.9861 32.0377 17.9298 31.9018 17.8296 31.8016C17.7294 31.7014 17.5935 31.6451 17.4518 31.6451C17.3101 31.6451 17.1742 31.7014 17.074 31.8016C16.9738 31.9018 16.9175 32.0377 16.9175 32.1794V33.7823C16.9175 33.924 16.9738 34.06 17.074 34.1602C17.1742 34.2604 17.3101 34.3167 17.4518 34.3167H27.0694C27.2111 34.3167 27.347 34.2604 27.4472 34.1602C27.5474 34.06 27.6037 33.924 27.6037 33.7823V32.1794C27.6037 32.0377 27.5474 31.9018 27.4472 31.8016C27.347 31.7014 27.2111 31.6451 27.0694 31.6451ZM13.1773 9.7383H23.8635C24.0052 9.7383 24.1411 9.68201 24.2413 9.58181C24.3415 9.4816 24.3978 9.3457 24.3978 9.20399C24.3978 9.06228 24.3415 8.92638 24.2413 8.82617C24.1411 8.72597 24.0052 8.66968 23.8635 8.66968H13.1773C13.0356 8.66968 12.8997 8.72597 12.7995 8.82617C12.6993 8.92638 12.643 9.06228 12.643 9.20399C12.643 9.3457 12.6993 9.4816 12.7995 9.58181C12.8997 9.68201 13.0356 9.7383 13.1773 9.7383ZM13.1773 13.4785H25.4665C25.6082 13.4785 25.7441 13.4222 25.8443 13.322C25.9445 13.2218 26.0008 13.0859 26.0008 12.9442C26.0008 12.8025 25.9445 12.6666 25.8443 12.5664C25.7441 12.4662 25.6082 12.4099 25.4665 12.4099H13.1773C13.0356 12.4099 12.8997 12.4662 12.7995 12.5664C12.6993 12.6666 12.643 12.8025 12.643 12.9442C12.643 13.0859 12.6993 13.2218 12.7995 13.322C12.8997 13.4222 13.0356 13.4785 13.1773 13.4785ZM13.1773 17.2187H31.3439C31.4856 17.2187 31.6215 17.1624 31.7217 17.0622C31.8219 16.962 31.8782 16.8261 31.8782 16.6844C31.8782 16.5426 31.8219 16.4067 31.7217 16.3065C31.6215 16.2063 31.4856 16.15 31.3439 16.15H13.1773C13.0356 16.15 12.8997 16.2063 12.7995 16.3065C12.6993 16.4067 12.643 16.5426 12.643 16.6844C12.643 16.8261 12.6993 16.962 12.7995 17.0622C12.8997 17.1624 13.0356 17.2187 13.1773 17.2187ZM31.3439 19.8902H13.1773C13.0356 19.8902 12.8997 19.9465 12.7995 20.0467C12.6993 20.1469 12.643 20.2828 12.643 20.4245C12.643 20.5662 12.6993 20.7022 12.7995 20.8024C12.8997 20.9026 13.0356 20.9589 13.1773 20.9589H31.3439C31.4856 20.9589 31.6215 20.9026 31.7217 20.8024C31.8219 20.7022 31.8782 20.5662 31.8782 20.4245C31.8782 20.2828 31.8219 20.1469 31.7217 20.0467C31.6215 19.9465 31.4856 19.8902 31.3439 19.8902Z" fill="#8FC045"/>
</svg>
