<svg width="96" height="67" viewBox="0 0 96 67" fill="none" xmlns="http://www.w3.org/2000/svg">
<g clip-path="url(#clip0_2118_21189)">
<path d="M10.4571 63.8142C10.4571 63.6976 10.4765 63.6004 10.5152 63.5033C10.554 63.4061 10.6121 63.3089 10.6895 63.2312C10.767 63.1535 10.8445 63.0952 10.9607 63.0563C11.0575 63.0175 11.1737 62.998 11.2899 62.998C11.348 62.998 11.3867 63.0175 11.4255 63.0563C11.4642 63.0952 11.4836 63.1341 11.4836 63.1924C11.4836 63.2507 11.4642 63.2895 11.4255 63.3284C11.3867 63.3672 11.348 63.3867 11.2899 63.3867C11.1737 63.3867 11.0575 63.4255 10.98 63.5227C10.9026 63.6004 10.8445 63.717 10.8445 63.8336V63.9696H11.2705C11.3286 63.9696 11.3674 63.9891 11.4061 64.0279C11.4448 64.0668 11.4642 64.1056 11.4642 64.1639C11.4642 64.2222 11.4448 64.2611 11.4061 64.3C11.3674 64.3388 11.3286 64.3583 11.2705 64.3583H10.8445V66.8261C10.8445 66.8844 10.8251 66.9232 10.7864 66.9621C10.7476 67.0009 10.7089 67.0204 10.6508 67.0204C10.5927 67.0204 10.554 67.0009 10.5152 66.9621C10.4765 66.9232 10.4571 66.8844 10.4571 66.8261V64.3583H10.2054C10.1473 64.3583 10.1086 64.3388 10.0698 64.3C10.0311 64.2611 10.0117 64.2222 10.0117 64.1639C10.0117 64.1056 10.0311 64.0668 10.0698 64.0279C10.1086 63.9891 10.1473 63.9696 10.2054 63.9696H10.4571V63.8142Z" fill="white"/>
<path d="M15.2989 66.4385C15.1633 66.594 14.989 66.73 14.7954 66.8466C14.6017 66.9632 14.3887 67.0215 14.1756 67.0215C13.9626 67.0215 13.7689 66.9826 13.5946 66.9049C13.4203 66.8271 13.246 66.73 13.1105 66.594C12.9749 66.4579 12.8587 66.3025 12.7812 66.1082C12.7038 65.9333 12.665 65.7195 12.665 65.5058C12.665 65.292 12.7038 65.0977 12.7812 64.9034C12.8587 64.7091 12.9555 64.5536 13.0911 64.4176C13.2267 64.2816 13.3816 64.165 13.5753 64.0873C13.7689 64.0096 13.9626 63.9707 14.1756 63.9707C14.3693 63.9707 14.563 64.0096 14.7566 64.0873C14.9503 64.165 15.1052 64.2816 15.2408 64.4176C15.3764 64.5536 15.4926 64.7091 15.57 64.9034C15.6475 65.0783 15.6862 65.292 15.6862 65.4864V66.8077C15.6862 66.866 15.6669 66.9049 15.6281 66.9437C15.5894 66.9826 15.5507 67.002 15.4926 67.002C15.4345 67.002 15.3957 66.9826 15.357 66.9437C15.3183 66.9049 15.2989 66.866 15.2989 66.8077V66.4385ZM15.2989 65.4864C15.2989 65.3309 15.2602 65.1755 15.2021 65.0394C15.144 64.9034 15.0665 64.7868 14.9697 64.6702C14.8728 64.5731 14.7566 64.4954 14.6017 64.4371C14.4661 64.3788 14.3112 64.3399 14.1563 64.3399C14.0013 64.3399 13.8658 64.3788 13.7302 64.4371C13.5946 64.4954 13.4784 64.5731 13.3816 64.6702C13.2848 64.7674 13.2073 64.884 13.1492 65.0394C13.0911 65.1755 13.0524 65.3309 13.0524 65.4864C13.0524 65.6418 13.0911 65.7778 13.1492 65.9139C13.2073 66.0499 13.2848 66.1665 13.3816 66.2636C13.4784 66.3608 13.5946 66.4385 13.7302 66.4968C13.8658 66.5551 14.0013 66.594 14.1563 66.594C14.3112 66.594 14.4468 66.5745 14.5823 66.5162C14.7179 66.4579 14.8341 66.3802 14.9309 66.2831C15.0278 66.1859 15.1052 66.0693 15.1827 65.9333C15.2602 65.7973 15.2989 65.6418 15.2989 65.4864Z" fill="white"/>
<path d="M18.7458 63.9707C18.9201 63.9707 19.0556 63.9901 19.1912 64.0484C19.3268 64.1067 19.443 64.165 19.5398 64.2233C19.6366 64.2816 19.7141 64.3593 19.7528 64.4176C19.8109 64.4759 19.8303 64.5342 19.8303 64.5731C19.8303 64.6119 19.8109 64.6508 19.7722 64.6897C19.7335 64.7285 19.6947 64.748 19.656 64.748C19.5979 64.748 19.5592 64.7285 19.5204 64.6897C19.4236 64.5925 19.288 64.5148 19.1718 64.4759C19.0363 64.4176 18.9007 64.3982 18.7458 64.3982C18.5908 64.3982 18.4553 64.4371 18.3197 64.4954C18.1841 64.5536 18.0679 64.6314 17.9711 64.7285C17.8743 64.8257 17.7968 64.9423 17.7387 65.0977C17.6806 65.2338 17.6419 65.3892 17.6419 65.5447C17.6419 65.7001 17.6806 65.8361 17.7387 65.9722C17.7968 66.1082 17.8743 66.2248 17.9711 66.3219C18.0679 66.4191 18.1841 66.4968 18.3197 66.5551C18.4553 66.6134 18.5908 66.6523 18.7458 66.6523C18.9007 66.6523 19.0363 66.6328 19.1718 66.5745C19.3074 66.5162 19.4236 66.4385 19.5204 66.3413C19.5592 66.3025 19.5979 66.2831 19.656 66.2831C19.7141 66.2831 19.7528 66.3025 19.7916 66.3413C19.8303 66.3802 19.8497 66.4191 19.8497 66.4774C19.8497 66.5162 19.8303 66.5551 19.7722 66.6328C19.7335 66.6911 19.656 66.7688 19.5592 66.8271C19.4623 66.8854 19.3461 66.9437 19.2106 66.9826C19.075 67.0215 18.9201 67.0603 18.7264 67.0603C18.5134 67.0603 18.3197 67.0215 18.1454 66.9437C17.9711 66.866 17.7968 66.7688 17.6613 66.6328C17.5257 66.4968 17.4095 66.3413 17.332 66.147C17.2546 65.9721 17.2158 65.7584 17.2158 65.5447C17.2158 65.3309 17.2546 65.1366 17.332 64.9617C17.4095 64.7868 17.5063 64.6119 17.6419 64.4759C17.7774 64.3399 17.9324 64.2233 18.126 64.1456C18.3197 64.029 18.5134 63.9707 18.7458 63.9707Z" fill="white"/>
<path d="M21.3408 63.2507C21.3408 63.1729 21.3602 63.1146 21.4183 63.0758C21.4764 63.0175 21.5345 62.998 21.5926 62.998C21.6701 62.998 21.7282 63.0175 21.7669 63.0758C21.825 63.1341 21.8444 63.1924 21.8444 63.2507C21.8444 63.3284 21.825 63.3867 21.7669 63.4255C21.7088 63.4838 21.6507 63.5033 21.5926 63.5033C21.5151 63.5033 21.457 63.4838 21.4183 63.4255C21.3602 63.3672 21.3408 63.3089 21.3408 63.2507ZM21.3989 64.1445C21.3989 64.0862 21.4183 64.0473 21.457 64.0085C21.4958 63.9696 21.5345 63.9502 21.5926 63.9502C21.6507 63.9502 21.6894 63.9696 21.7282 64.0085C21.7669 64.0473 21.7863 64.0862 21.7863 64.1445V66.8066C21.7863 66.8649 21.7669 66.9038 21.7282 66.9426C21.6894 66.9815 21.6507 67.0009 21.5926 67.0009C21.5345 67.0009 21.4958 66.9815 21.457 66.9426C21.4183 66.9038 21.3989 66.8649 21.3989 66.8066V64.1445Z" fill="white"/>
<path d="M23.4912 63.1728C23.4912 63.1145 23.5106 63.0757 23.5493 63.0368C23.588 62.9979 23.6268 62.9785 23.6849 62.9785C23.743 62.9785 23.7817 62.9979 23.8204 63.0368C23.8592 63.0757 23.8785 63.1145 23.8785 63.1728V66.8065C23.8785 66.8648 23.8592 66.9037 23.8204 66.9426C23.7817 66.9814 23.743 67.0008 23.6849 67.0008C23.6268 67.0008 23.588 66.9814 23.5493 66.9426C23.5106 66.9037 23.4912 66.8648 23.4912 66.8065V63.1728Z" fill="white"/>
<path d="M25.8538 65.6591C25.8732 65.7951 25.9119 65.9117 25.9894 66.0283C26.0475 66.1449 26.1443 66.242 26.2411 66.3198C26.338 66.3975 26.4542 66.4752 26.5704 66.5141C26.6866 66.5529 26.8221 66.5918 26.9577 66.5918C27.1126 66.5918 27.2482 66.5724 27.3838 66.5141C27.5193 66.4558 27.6355 66.3781 27.7324 66.2809C27.7711 66.242 27.8098 66.2226 27.8679 66.2226C27.926 66.2226 27.9648 66.242 28.0035 66.2809C28.0422 66.3198 28.0616 66.3586 28.0616 66.4169C28.0616 66.4752 28.0422 66.5141 28.0035 66.5529C27.8679 66.7084 27.713 66.825 27.5387 66.8833C27.3644 66.9416 27.1707 66.9804 26.9383 66.9804C26.7253 66.9804 26.5316 66.9416 26.3573 66.8639C26.183 66.7861 26.0087 66.689 25.8732 66.5529C25.7376 66.4169 25.6214 66.2615 25.5439 66.0672C25.4665 65.8923 25.4277 65.6785 25.4277 65.4648C25.4277 65.251 25.4665 65.0567 25.5439 64.8818C25.6214 64.7069 25.7182 64.5321 25.8538 64.396C25.9894 64.26 26.1443 64.1434 26.338 64.0657C26.5316 63.988 26.7253 63.9297 26.9383 63.9297C27.132 63.9297 27.3257 63.9686 27.5 64.0463C27.6743 64.124 27.8486 64.2406 27.9841 64.3766C28.1197 64.5126 28.2359 64.6681 28.3133 64.8624C28.3908 65.0373 28.4296 65.2316 28.4296 65.4453C28.4296 65.5036 28.4102 65.5619 28.3714 65.5814C28.3327 65.6202 28.294 65.6397 28.2359 65.6397H25.8538V65.6591ZM28.0616 65.2705C28.0422 65.1344 27.9841 65.0179 27.926 64.9013C27.8679 64.7847 27.7711 64.6875 27.6743 64.6098C27.5774 64.5321 27.4612 64.4543 27.345 64.4155C27.2288 64.3766 27.0933 64.3378 26.9577 64.3378C26.8221 64.3378 26.6866 64.3572 26.5704 64.4155C26.4542 64.4543 26.338 64.5321 26.2411 64.6098C26.1443 64.6875 26.0668 64.7847 25.9894 64.9013C25.9313 65.0179 25.8732 65.1344 25.8538 65.2705H28.0616Z" fill="white"/>
<path d="M32.8255 65.6591C32.8448 65.7951 32.8836 65.9117 32.961 66.0283C33.0191 66.1449 33.116 66.242 33.2128 66.3198C33.3096 66.3975 33.4258 66.4752 33.542 66.5141C33.6582 66.5529 33.7938 66.5918 33.9294 66.5918C34.0843 66.5918 34.2199 66.5724 34.3554 66.5141C34.491 66.4558 34.6072 66.3781 34.704 66.2809C34.7428 66.242 34.7815 66.2226 34.8396 66.2226C34.8977 66.2226 34.9364 66.242 34.9752 66.2809C35.0139 66.3198 35.0333 66.3586 35.0333 66.4169C35.0333 66.4752 35.0139 66.5141 34.9752 66.5529C34.8396 66.7084 34.6847 66.825 34.5104 66.8833C34.3361 66.9416 34.1424 66.9804 33.91 66.9804C33.697 66.9804 33.5033 66.9416 33.329 66.8639C33.1547 66.7861 32.9804 66.689 32.8448 66.5529C32.7093 66.4169 32.5931 66.2615 32.5156 66.0672C32.4381 65.8923 32.3994 65.6785 32.3994 65.4648C32.3994 65.251 32.4381 65.0567 32.5156 64.8818C32.5931 64.7069 32.6899 64.5321 32.8255 64.396C32.961 64.26 33.116 64.1434 33.3096 64.0657C33.5033 63.988 33.697 63.9297 33.91 63.9297C34.1037 63.9297 34.2973 63.9686 34.4716 64.0463C34.6459 64.124 34.8202 64.2406 34.9558 64.3766C35.0914 64.5126 35.2076 64.6681 35.285 64.8624C35.3625 65.0373 35.4012 65.2316 35.4012 65.4453C35.4012 65.5036 35.3819 65.5619 35.3431 65.5814C35.3044 65.6202 35.2657 65.6397 35.2076 65.6397H32.8255V65.6591ZM35.0526 65.2705C35.0333 65.1344 34.9752 65.0179 34.9171 64.9013C34.859 64.7847 34.7621 64.6875 34.6653 64.6098C34.5685 64.5321 34.4523 64.4543 34.3361 64.4155C34.2199 64.3766 34.0843 64.3378 33.9487 64.3378C33.8132 64.3378 33.6776 64.3572 33.5614 64.4155C33.4452 64.4543 33.329 64.5321 33.2322 64.6098C33.1353 64.6875 33.0579 64.7847 32.9804 64.9013C32.9223 65.0179 32.8642 65.1344 32.8448 65.2705H35.0526Z" fill="white"/>
<path d="M41.4241 64.0658C41.4435 64.0269 41.4628 64.0075 41.5016 63.9881C41.5403 63.9686 41.579 63.9492 41.5984 63.9492C41.6565 63.9492 41.6952 63.9686 41.734 64.0075C41.7727 64.0464 41.7921 64.0852 41.7921 64.1435C41.7921 64.163 41.7921 64.2018 41.7727 64.2213C41.7727 64.2213 41.7533 64.2796 41.734 64.3573C41.7146 64.435 41.6565 64.571 41.579 64.7653C41.5016 64.9597 41.4047 65.2317 41.2692 65.562C41.1336 65.8924 40.9787 66.3199 40.785 66.8445C40.7657 66.8834 40.7463 66.9222 40.7076 66.9611C40.6688 67 40.6301 67 40.572 67C40.5139 67 40.4752 66.9805 40.4364 66.9417C40.3977 66.9028 40.3783 66.864 40.359 66.8445C40.1847 66.3587 40.0297 65.9507 39.9135 65.6203C39.7973 65.29 39.7005 65.018 39.623 64.8236C39.5456 64.6293 39.4875 64.4739 39.4681 64.3767C39.4294 64.2796 39.41 64.2407 39.41 64.2407C39.3906 64.2213 39.3906 64.1824 39.3906 64.1435C39.3906 64.0852 39.41 64.0464 39.4294 64.0075C39.4681 63.9686 39.5068 63.9492 39.5649 63.9492C39.6037 63.9492 39.6424 63.9686 39.6811 63.9881C39.7199 64.0075 39.7392 64.0269 39.7586 64.0658L40.572 66.3004L41.4241 64.0658Z" fill="white"/>
<path d="M43.4192 65.6591C43.4386 65.7951 43.4773 65.9117 43.5548 66.0283C43.6129 66.1449 43.7097 66.242 43.8066 66.3198C43.9034 66.3975 44.0196 66.4752 44.1358 66.5141C44.252 66.5529 44.3876 66.5918 44.5231 66.5918C44.6781 66.5918 44.8136 66.5724 44.9492 66.5141C45.0848 66.4558 45.2009 66.3781 45.2978 66.2809C45.3365 66.242 45.3753 66.2226 45.4334 66.2226C45.4915 66.2226 45.5302 66.242 45.5689 66.2809C45.6076 66.3198 45.627 66.3586 45.627 66.4169C45.627 66.4752 45.6076 66.5141 45.5689 66.5529C45.4334 66.7084 45.2784 66.825 45.1041 66.8833C44.9298 66.9416 44.7362 66.9804 44.5038 66.9804C44.2907 66.9804 44.0971 66.9416 43.9228 66.8639C43.7485 66.7861 43.5742 66.689 43.4386 66.5529C43.303 66.4169 43.1868 66.2615 43.1094 66.0672C43.0319 65.8923 42.9932 65.6785 42.9932 65.4648C42.9932 65.251 43.0319 65.0567 43.1094 64.8818C43.1868 64.7069 43.2837 64.5321 43.4192 64.396C43.5548 64.26 43.7097 64.1434 43.9034 64.0657C44.0971 63.988 44.2907 63.9297 44.5038 63.9297C44.6974 63.9297 44.8911 63.9686 45.0654 64.0463C45.2397 64.124 45.414 64.2406 45.5495 64.3766C45.6851 64.5126 45.8013 64.6681 45.8788 64.8624C45.9562 65.0373 45.995 65.2316 45.995 65.4453C45.995 65.5036 45.9756 65.5619 45.9369 65.5814C45.8981 65.6202 45.8594 65.6397 45.8013 65.6397H43.4192V65.6591ZM45.627 65.2705C45.6077 65.1344 45.5495 65.0179 45.4914 64.9013C45.4333 64.7847 45.3365 64.6875 45.2397 64.6098C45.1429 64.5321 45.0267 64.4543 44.9105 64.4155C44.7943 64.3766 44.6587 64.3378 44.5231 64.3378C44.3876 64.3378 44.252 64.3572 44.1358 64.4155C44.0196 64.4543 43.9034 64.5321 43.8066 64.6098C43.7097 64.6875 43.6323 64.7847 43.5548 64.9013C43.4967 65.0179 43.4386 65.1344 43.4192 65.2705H45.627Z" fill="white"/>
<path d="M47.6025 63.1728C47.6025 63.1145 47.6219 63.0757 47.6606 63.0368C47.6994 62.9979 47.7381 62.9785 47.7962 62.9785C47.8543 62.9785 47.893 62.9979 47.9318 63.0368C47.9705 63.0757 47.9899 63.1145 47.9899 63.1728V66.8065C47.9899 66.8648 47.9705 66.9037 47.9318 66.9426C47.893 66.9814 47.8543 67.0008 47.7962 67.0008C47.7381 67.0008 47.6994 66.9814 47.6606 66.9426C47.6219 66.9037 47.6025 66.8648 47.6025 66.8065V63.1728Z" fill="white"/>
<path d="M51.0886 63.9492C51.2822 63.9492 51.4759 63.9881 51.6695 64.0658C51.8438 64.1435 52.0181 64.2601 52.1537 64.3961C52.2893 64.5322 52.4055 64.6876 52.4829 64.8819C52.5604 65.0568 52.5991 65.2706 52.5991 65.4649C52.5991 65.6786 52.5604 65.8729 52.4829 66.0478C52.4055 66.2227 52.2893 66.3976 52.1537 66.5336C52.0181 66.6696 51.8632 66.7862 51.6695 66.864C51.4952 66.9417 51.2822 66.9805 51.0692 66.9805C50.8562 66.9805 50.6625 66.9417 50.4882 66.864C50.3139 66.7862 50.1396 66.6891 50.004 66.553C49.8685 66.417 49.7523 66.2616 49.6748 66.0673C49.5973 65.8924 49.5586 65.6786 49.5586 65.4649C49.5586 65.2511 49.5973 65.0568 49.6748 64.8819C49.7523 64.707 49.8491 64.5322 49.9847 64.3961C50.1202 64.2601 50.2752 64.1435 50.4688 64.0658C50.6625 64.0075 50.8755 63.9687 51.0886 63.9492ZM51.0692 64.3573C50.9143 64.3573 50.7787 64.3961 50.6431 64.4544C50.5076 64.5127 50.3914 64.5905 50.2945 64.6876C50.1977 64.7848 50.1202 64.9014 50.0621 65.0568C50.004 65.1928 49.9653 65.3483 49.9653 65.5037C49.9653 65.6592 50.004 65.7952 50.0621 65.9312C50.1202 66.0673 50.1977 66.1838 50.2945 66.281C50.3914 66.3782 50.5076 66.4559 50.6431 66.5142C50.7787 66.5725 50.9143 66.6113 51.0692 66.6113C51.2241 66.6113 51.3791 66.5725 51.5146 66.5142C51.6502 66.4559 51.7664 66.3782 51.8826 66.281C51.9794 66.1838 52.0569 66.0673 52.115 65.9312C52.1731 65.7952 52.2118 65.6592 52.2118 65.5037C52.2118 65.3483 52.1731 65.1928 52.115 65.0568C52.0569 64.9208 51.9794 64.8042 51.8826 64.6876C51.7857 64.5905 51.6695 64.5127 51.5146 64.4544C51.3791 64.3767 51.2241 64.3573 51.0692 64.3573Z" fill="white"/>
<path d="M55.5807 63.9707C55.755 63.9707 55.8906 63.9901 56.0262 64.0484C56.1617 64.1067 56.2779 64.165 56.3748 64.2233C56.4716 64.2816 56.5491 64.3593 56.5878 64.4176C56.6459 64.4759 56.6653 64.5342 56.6653 64.5731C56.6653 64.6119 56.6459 64.6508 56.6072 64.6897C56.5684 64.7285 56.5297 64.748 56.491 64.748C56.4329 64.748 56.3941 64.7285 56.3554 64.6897C56.2586 64.5925 56.123 64.5148 56.0068 64.4759C55.8712 64.4176 55.7357 64.3982 55.5807 64.3982C55.4258 64.3982 55.2902 64.4371 55.1547 64.4954C55.0191 64.5536 54.9029 64.6314 54.8061 64.7285C54.7092 64.8257 54.6318 64.9423 54.5737 65.0977C54.5156 65.2338 54.4768 65.3892 54.4768 65.5447C54.4768 65.7001 54.5156 65.8361 54.5737 65.9722C54.6318 66.1082 54.7092 66.2248 54.8061 66.3219C54.9029 66.4191 55.0191 66.4968 55.1547 66.5551C55.2902 66.6134 55.4258 66.6523 55.5807 66.6523C55.7357 66.6523 55.8712 66.6328 56.0068 66.5745C56.1424 66.5162 56.2586 66.4385 56.3554 66.3413C56.3941 66.3025 56.4329 66.2831 56.491 66.2831C56.5491 66.2831 56.5878 66.3025 56.6265 66.3413C56.6653 66.3802 56.6846 66.4191 56.6846 66.4774C56.6846 66.5162 56.6653 66.5551 56.6072 66.6328C56.5684 66.6911 56.491 66.7688 56.3941 66.8271C56.2973 66.8854 56.1811 66.9437 56.0455 66.9826C55.91 67.0215 55.755 67.0603 55.5614 67.0603C55.3483 67.0603 55.1547 67.0215 54.9804 66.9437C54.8061 66.866 54.6318 66.7688 54.4962 66.6328C54.3606 66.4968 54.2444 66.3413 54.167 66.147C54.0895 65.9721 54.0508 65.7584 54.0508 65.5447C54.0508 65.3309 54.0895 65.1366 54.167 64.9617C54.2444 64.7868 54.3413 64.6119 54.4768 64.4759C54.6124 64.3399 54.7673 64.2233 54.961 64.1456C55.1547 64.029 55.3483 63.9707 55.5807 63.9707Z" fill="white"/>
<path d="M58.5442 65.6591C58.5636 65.7951 58.6023 65.9117 58.6798 66.0283C58.7379 66.1449 58.8347 66.242 58.9316 66.3198C59.0284 66.3975 59.1446 66.4752 59.2608 66.5141C59.377 66.5529 59.5126 66.5918 59.6481 66.5918C59.8031 66.5918 59.9386 66.5724 60.0742 66.5141C60.2098 66.4558 60.3259 66.3781 60.4228 66.2809C60.4615 66.242 60.5003 66.2226 60.5584 66.2226C60.6165 66.2226 60.6552 66.242 60.6939 66.2809C60.7326 66.3198 60.752 66.3586 60.752 66.4169C60.752 66.4752 60.7326 66.5141 60.6939 66.5529C60.5583 66.7084 60.4034 66.825 60.2291 66.8833C60.0548 66.9416 59.8612 66.9804 59.6288 66.9804C59.4157 66.9804 59.2221 66.9416 59.0478 66.8639C58.8735 66.7861 58.6992 66.689 58.5636 66.5529C58.428 66.4169 58.3118 66.2615 58.2344 66.0672C58.1569 65.8923 58.1182 65.6785 58.1182 65.4648C58.1182 65.251 58.1569 65.0567 58.2344 64.8818C58.3118 64.7069 58.4087 64.5321 58.5442 64.396C58.6798 64.26 58.8347 64.1434 59.0284 64.0657C59.2221 63.988 59.4157 63.9297 59.6288 63.9297C59.8224 63.9297 60.0161 63.9686 60.1904 64.0463C60.3647 64.124 60.539 64.2406 60.6745 64.3766C60.8101 64.5126 60.9263 64.6681 61.0038 64.8624C61.0812 65.0373 61.12 65.2316 61.12 65.4453C61.12 65.5036 61.1006 65.5619 61.0619 65.5814C61.0231 65.6202 60.9844 65.6397 60.9263 65.6397H58.5442V65.6591ZM60.7714 65.2705C60.752 65.1344 60.6939 65.0179 60.6358 64.9013C60.5777 64.7847 60.4809 64.6875 60.384 64.6098C60.2872 64.5321 60.171 64.4543 60.0548 64.4155C59.9386 64.3766 59.8031 64.3378 59.6675 64.3378C59.5319 64.3378 59.3964 64.3572 59.2802 64.4155C59.164 64.4543 59.0478 64.5321 58.9509 64.6098C58.8541 64.6875 58.7766 64.7847 58.6992 64.9013C58.6411 65.0179 58.583 65.1344 58.5636 65.2705H60.7714Z" fill="white"/>
<path d="M95.9998 16.886C95.9611 16.6917 95.7093 16.4391 95.5156 16.4002C95.1477 16.3225 94.741 16.3419 94.3536 16.3419C89.2021 16.3419 84.07 16.3419 78.9185 16.3419H77.3885C77.5822 15.9144 77.6597 15.623 77.8146 15.3898C79.0734 13.33 80.3516 11.2509 81.6298 9.19112C81.9203 8.72477 82.5207 8.33614 82.2495 7.71433C81.9203 6.99536 81.1844 7.28683 80.6228 7.28683C76.7688 7.2674 72.9342 7.28683 69.0803 7.2674C68.6155 7.2674 68.1701 7.22854 67.6472 7.18967C67.6278 6.66502 67.5891 6.29582 67.5891 5.90719C67.5891 4.52755 67.5891 3.12848 67.5891 1.74884C67.5891 0.0194316 67.5891 0.0194316 65.8654 0.0194316C53.8001 0 42.7999 0 30.7345 0C28.9334 0 28.9334 0 28.9334 1.7877C28.9334 5.65458 28.9334 3.28393 28.9141 5.65458H30.231C30.231 4.58585 30.1729 2.75928 30.4053 1.45737C30.599 1.4185 30.7152 1.36021 30.8507 1.36021C42.703 1.36021 53.4708 1.36021 65.3232 1.36021C65.5362 1.36021 65.7492 1.37964 65.9623 1.39907C66.001 1.39907 66.0397 1.43793 66.0591 1.4768C66.0978 1.49623 66.1172 1.53509 66.2334 1.63225C66.2334 2.07918 66.2334 2.5844 66.2334 3.10905C66.2334 19.2955 66.2334 48.4234 66.2334 64.6099C66.2334 65.0374 66.214 65.4843 66.2334 65.9118C66.2721 66.728 66.4658 66.9028 67.2405 66.9028C68.0345 66.9028 68.2475 66.7085 68.2475 65.7758C68.2669 63.036 68.6349 44.712 69.2933 42.0499C71.2493 34.0246 75.4325 30.08 81.746 24.7947C85.6193 21.5496 90.0155 19.2955 94.8378 17.8576C95.1283 17.7799 95.4382 17.7021 95.6706 17.5273C95.8836 17.3912 96.0385 17.0803 95.9998 16.886ZM67.6278 40.4176V8.78306C68.8285 8.53045 79.0928 8.53045 80.2548 8.78306C78.1632 11.9504 76.2846 15.1955 74.6385 18.596C72.973 22.0354 71.5205 25.5525 70.4747 29.2251C69.4289 32.8199 68.6155 36.4925 67.6278 40.4176ZM69.7194 38.7659C69.487 35.4043 73.9994 21.8411 76.7301 17.6633C81.2425 17.6827 85.8324 17.6438 90.461 17.8187C80.8745 22.0937 73.98 29.0307 69.7194 38.7659Z" fill="white"/>
<path d="M23.065 25.669H20.4893V8.74414H24.1883L26.5897 20.8694L28.875 8.74414H32.4191V25.6496H29.8433V15.04L27.6161 25.669H25.5633L23.065 15.0788V25.669Z" fill="white"/>
<path d="M37.4349 21.7828L36.8152 25.6691H34.1426L37.0476 8.76367H40.5916L43.4579 25.6691H40.7659L40.1656 21.7828H37.4349ZM38.7712 12.6306L37.8222 19.2956H39.7395L38.7712 12.6306Z" fill="white"/>
<path d="M49.191 8.74414C50.6241 8.74414 51.6893 9.13277 52.3477 9.92947C52.9481 10.6096 53.2386 11.5617 53.2386 12.7859V15.2343C53.2386 16.439 52.7738 17.4495 51.8636 18.2656L53.7809 25.6496H50.9921L49.4234 19.2566C49.3459 19.2566 49.2685 19.2566 49.191 19.2566H47.7191V25.6302H45.124V8.74414H49.191ZM50.721 12.8248C50.721 11.8338 50.2368 11.348 49.2491 11.348H47.6998V16.7499H49.2491C49.6558 16.7499 50.0044 16.6139 50.2949 16.3224C50.5854 16.031 50.721 15.6812 50.721 15.2926V12.8248Z" fill="white"/>
<path d="M57.383 11.3091H54.6523V8.74414H62.6895V11.2897H59.9588V25.6496H57.383V11.3091Z" fill="white"/>
<path d="M15.5506 60.9965C13.2654 60.9965 11.3481 60.2387 9.76002 58.7036C8.17196 57.1685 7.37793 55.3225 7.37793 53.1462V35.0943C7.37793 32.918 8.17196 31.0525 9.77938 29.5174C11.3674 27.9823 13.2847 27.2051 15.5506 27.2051C17.8165 27.2051 19.7532 27.9823 21.3412 29.5174C22.9293 31.0525 23.7039 32.918 23.7039 35.0749V38.8251H18.3588V34.9777C18.3588 34.181 18.0683 33.5009 17.4873 32.9374C16.9063 32.3739 16.2091 32.1018 15.3763 32.1018C14.5629 32.1018 13.8657 32.3739 13.3041 32.9374C12.7231 33.5009 12.4326 34.181 12.4326 34.9777V53.0685C12.4326 53.8652 12.7231 54.5453 13.3041 55.0894C13.8851 55.6529 14.5823 55.9249 15.3763 55.9249C16.2091 55.9249 16.9063 55.6529 17.4873 55.0894C18.0683 54.5258 18.3588 53.8652 18.3588 53.0685V48.5409H23.7039V53.1268C23.7039 55.3225 22.9099 57.1685 21.3025 58.7036C19.6951 60.2387 17.7778 60.9965 15.5506 60.9965Z" fill="#8FC045"/>
<path d="M32.303 53.0085L31.0442 60.5868H25.6797L31.4703 27.6309H38.5778L44.2909 60.5868H38.8877L37.6676 53.0085H32.303ZM35.0144 35.1703L33.0971 48.17H36.9317L35.0144 35.1703Z" fill="#8FC045"/>
<path d="M52.8507 60.5868H47.6992V27.6309H62.6696V32.6053H52.8507V41.641H59.8033V46.6155H52.8507V60.5868Z" fill="#8FC045"/>
<path d="M5.8679 22.3261C5.96473 22.1318 6.0422 21.9763 6.11967 21.8403C6.6232 20.8687 7.20419 19.936 7.84329 19.0422C8.77288 17.7597 9.77994 16.5355 10.8645 15.3696C10.9807 15.253 11.0775 15.1364 11.1937 15.0198C11.4067 14.7867 11.6198 14.5729 11.8522 14.3397C13.4209 12.7658 15.0864 11.2696 16.8875 9.94821C17.4878 9.50128 18.1076 9.09322 18.7273 8.66572C18.8629 8.56857 18.8629 8.588 18.9403 8.70459L18.9597 8.72402C19.0759 8.8989 19.0759 8.8989 18.9016 9.05435C17.6234 10.162 16.442 11.3278 15.2994 12.5326C15.0283 12.8241 14.7378 13.135 14.4666 13.4459C14.2536 13.6791 14.0406 13.9317 13.8276 14.1649C12.1039 16.1663 10.5546 18.2843 9.21831 20.5578C8.54048 21.6849 7.94012 22.8702 7.39786 24.0749C6.97179 25.0271 6.6232 25.9987 6.35206 26.9897C6.31333 27.0868 6.29396 27.2034 6.25523 27.3006C6.25523 27.3006 6.23586 27.32 6.2165 27.32C6.19713 27.2812 6.1584 27.2423 6.13903 27.2034C5.5774 26.0764 4.89957 25.0271 4.20238 23.9778C3.64075 23.1617 3.04038 22.3455 2.38192 21.6071C1.93649 21.1019 1.47169 20.6356 0.92943 20.2275C0.677665 20.0526 0.425899 19.8777 0.135401 19.7611C0.0966681 19.7417 0.0385684 19.7223 -0.0195312 19.6834C-0.000164699 19.6446 0.0385684 19.5863 0.057935 19.5474C0.561465 18.945 1.065 18.3621 1.56853 17.7597C1.66536 17.6431 1.68473 17.6431 1.82029 17.7403C3.40835 18.7701 4.64781 20.0915 5.5774 21.7237C5.6936 21.9569 5.77107 22.1124 5.8679 22.3261Z" fill="#8FC045"/>
<path d="M16.3066 12.4356C16.3841 12.6688 16.4422 12.9409 16.4809 13.2323L19.0373 12.8048C18.9792 12.0859 18.7856 11.4641 18.4563 10.92C18.3789 10.784 18.3014 10.6674 18.2046 10.5508C17.5655 11.1726 16.9264 11.7944 16.3066 12.4356Z" fill="white"/>
<path d="M18.3594 19.1404C17.9914 18.5574 17.4879 17.9551 16.8294 17.3527C16.6358 17.1584 16.2097 16.828 15.59 16.3617C15.0671 15.973 14.6797 15.6233 14.4086 15.3318C14.273 15.1958 14.1762 15.0597 14.06 14.9043C13.4984 15.565 12.9561 16.2256 12.4526 16.9252C12.6463 17.1195 12.8593 17.3138 13.0723 17.5081C14.1181 18.4214 14.9121 19.1015 15.4544 19.5679C16.1129 20.2285 16.4615 20.9086 16.4615 21.5888C16.4615 22.0551 16.3646 22.4049 16.1903 22.6575C15.8417 23.1627 15.3769 23.4153 14.7959 23.4347C14.3892 23.4542 14.0213 23.2987 13.692 22.9878C13.266 22.5603 12.9755 21.8802 12.8593 20.9475L10.3223 21.103C10.3804 21.9774 10.574 22.7352 10.9033 23.4153C11.2325 24.076 11.6973 24.6201 12.2589 25.0087C12.9368 25.4751 13.8082 25.7277 14.854 25.7277C15.4157 25.7277 15.9192 25.6694 16.3453 25.5334C17.1393 25.3196 17.7397 24.931 18.1851 24.3869C18.8435 23.5902 19.1728 22.6186 19.1534 21.4916C19.134 21.0252 18.9985 20.5006 18.7467 19.9371C18.6693 19.665 18.5337 19.4124 18.3594 19.1404Z" fill="white"/>
<path d="M11.3678 13.8738C13.1108 12.125 14.7763 10.6676 16.4805 9.42399C16.4999 9.40456 16.5386 9.38512 16.558 9.36569C16.0157 9.17138 15.4154 9.07422 14.7375 9.07422C13.7499 9.07422 12.9171 9.3074 12.2586 9.75432C11.1741 10.5122 10.6318 11.6392 10.6318 13.116C10.6318 13.5823 10.6899 14.0293 10.8255 14.4568C10.9998 14.2624 11.1935 14.0681 11.3678 13.8738Z" fill="white"/>
</g>
<defs>
<clipPath id="clip0_2118_21189">
<rect width="96" height="67" fill="white"/>
</clipPath>
</defs>
</svg>
