<svg width="160" height="199" viewBox="0 0 160 199" fill="none" xmlns="http://www.w3.org/2000/svg">
<path d="M159.403 74.9633C159.477 76.1105 159.527 77.2644 159.552 78.4244L159.199 78.432C159.211 79.0075 159.217 79.5845 159.217 80.1629C159.217 80.7414 159.211 81.3184 159.199 81.8939L159.552 81.9015C159.527 83.0615 159.477 84.2153 159.403 85.3626L159.05 85.3397C158.975 86.4918 158.876 87.6372 158.752 88.7753L159.104 88.8135C158.978 89.9658 158.828 91.1108 158.654 92.2479L158.305 92.1944C158.13 93.3359 157.93 94.4693 157.707 95.5942L158.054 95.663C157.828 96.8001 157.578 97.9285 157.304 99.0475L156.96 98.9635C156.686 100.084 156.388 101.195 156.066 102.296L156.406 102.395C156.081 103.507 155.732 104.609 155.361 105.7L155.026 105.586C154.655 106.677 154.26 107.757 153.842 108.826L154.171 108.954C153.75 110.032 153.306 111.099 152.84 112.154L152.516 112.011C152.051 113.064 151.562 114.105 151.052 115.134L151.369 115.291C150.855 116.327 150.319 117.351 149.761 118.361L149.452 118.19C148.896 119.198 148.318 120.193 147.72 121.174L148.021 121.358C147.419 122.345 146.795 123.318 146.151 124.276L145.858 124.079C145.216 125.034 144.554 125.975 143.872 126.9L144.156 127.11C143.47 128.041 142.764 128.956 142.039 129.854L141.764 129.633C141.042 130.528 140.3 131.408 139.54 132.27L139.806 132.504C139.042 133.371 138.259 134.221 137.459 135.054L137.204 134.809C136.407 135.639 135.592 136.451 134.76 137.245L135.004 137.5C134.168 138.298 133.315 139.077 132.445 139.838L132.212 139.572C131.347 140.328 130.465 141.067 129.566 141.786L129.787 142.062C128.886 142.784 127.968 143.486 127.036 144.169L126.827 143.884C125.899 144.562 124.956 145.221 123.999 145.86L124.195 146.154C123.234 146.795 122.259 147.415 121.27 148.014L121.087 147.712C120.104 148.307 119.108 148.882 118.098 149.435L118.268 149.745C117.256 150.299 116.231 150.832 115.193 151.343L115.037 151.026C114.007 151.533 112.964 152.018 111.909 152.482L112.051 152.805C110.996 153.269 109.928 153.71 108.849 154.128L108.721 153.799C107.651 154.214 106.57 154.606 105.478 154.975L105.591 155.31C104.499 155.679 103.397 156.025 102.284 156.348L102.186 156.008C101.084 156.328 99.9727 156.624 98.8517 156.896L98.9352 157.24C97.8157 157.512 96.687 157.76 95.5495 157.985L95.4811 157.638C94.3559 157.86 93.2222 158.058 92.0804 158.231L92.1336 158.581C90.9963 158.754 89.8511 158.903 88.6986 159.027L88.6607 158.676C87.5225 158.798 86.377 158.897 85.2248 158.971L85.2475 159.324C84.1003 159.398 82.9464 159.447 81.7864 159.472L81.7788 159.119C81.2033 159.131 80.6263 159.137 80.0479 159.137C79.4694 159.137 78.8923 159.131 78.3168 159.119L78.3093 159.472C77.1493 159.447 75.9954 159.398 74.8482 159.324L74.8709 158.971C73.7187 158.897 72.5732 158.798 71.435 158.676L71.3971 159.027C70.2445 158.903 69.0994 158.754 67.9621 158.581L68.0153 158.231C66.8735 158.058 65.7397 157.86 64.6145 157.638L64.5462 157.985C63.4087 157.76 62.28 157.512 61.1605 157.24L61.244 156.896C60.123 156.624 59.0114 156.328 57.9097 156.008L57.8113 156.348C56.6988 156.025 55.5965 155.679 54.5047 155.31L54.6179 154.975C53.526 154.606 52.4448 154.214 51.3749 153.799L51.2471 154.128C50.1679 153.71 49.1002 153.269 48.0444 152.805L48.1865 152.482C47.1317 152.018 46.089 151.533 45.0589 151.026L44.9028 151.343C43.8648 150.832 42.8397 150.299 41.828 149.745L41.9978 149.435C40.9878 148.882 39.9913 148.307 39.0088 147.712L38.8257 148.014C37.8365 147.415 36.8614 146.795 35.901 146.154L36.0971 145.86C35.1394 145.221 34.1965 144.562 33.2689 143.884L33.0602 144.169C32.1272 143.486 31.2097 142.784 30.3084 142.062L30.5293 141.786C29.631 141.067 28.7488 140.328 27.8833 139.572L27.6506 139.838C26.7807 139.077 25.9276 138.298 25.0918 137.5L25.3358 137.245C24.5035 136.451 23.6886 135.639 22.8916 134.809L22.6368 135.054C21.8363 134.221 21.0539 133.371 20.2901 132.504L20.5553 132.27C19.7952 131.408 19.0537 130.528 18.3314 129.633L18.0563 129.854C17.3313 128.956 16.6255 128.041 15.9396 127.11L16.2241 126.9C15.542 125.975 14.8797 125.034 14.2377 124.079L13.9443 124.276C13.3005 123.318 12.677 122.345 12.0745 121.358L12.3762 121.174C11.7777 120.193 11.2 119.198 10.6437 118.19L10.3343 118.361C9.77687 117.351 9.24091 116.327 8.72698 115.291L9.04362 115.134C8.53348 114.105 8.04515 113.064 7.57923 112.011L7.256 112.154C6.78958 111.099 6.34551 110.032 5.9244 108.954L6.25361 108.826C5.83605 107.757 5.44116 106.677 5.06953 105.586L4.73497 105.7C4.36334 104.609 4.01486 103.507 3.69013 102.395L4.02939 102.296C3.70776 101.195 3.40952 100.084 3.13524 98.9635L2.79194 99.0475C2.51799 97.9285 2.26784 96.8001 2.04205 95.663L2.38872 95.5942C2.16537 94.4693 1.96596 93.3358 1.79105 92.1943L1.44169 92.2479C1.26747 91.1108 1.11744 89.9658 0.992158 88.8134L1.34352 88.7752C1.21979 87.6371 1.1203 86.4918 1.04557 85.3397L0.692879 85.3625C0.618468 84.2153 0.568503 83.0615 0.5435 81.9015L0.896854 81.8938C0.88445 81.3184 0.878216 80.7414 0.878216 80.1629C0.878216 79.5845 0.88445 79.0075 0.896854 78.432L0.543501 78.4244C0.568504 77.2644 0.618469 76.1105 0.69288 74.9633L1.04557 74.9862C1.1203 73.834 1.21979 72.6887 1.34352 71.5506L0.992159 71.5124C1.11744 70.36 1.26747 69.215 1.44169 68.078L1.79105 68.1315C1.96596 66.99 2.16537 65.8565 2.38872 64.7317L2.04205 64.6628C2.26784 63.5257 2.51799 62.3974 2.79194 61.2783L3.13524 61.3623C3.40952 60.2419 3.70776 59.1309 4.02939 58.0298L3.69013 57.9307C4.01487 56.819 4.36334 55.7173 4.73497 54.6263L5.06953 54.7403C5.44116 53.6493 5.83605 52.569 6.25361 51.5001L5.9244 51.3715C6.34551 50.2934 6.78958 49.2268 7.25599 48.1723L7.57923 48.3152C8.04515 47.2618 8.53348 46.2204 9.04361 45.1918L8.72698 45.0347C9.24091 43.9984 9.77687 42.9749 10.3343 41.9647L10.6437 42.1355C11.2 41.1274 11.7777 40.1328 12.3762 39.1521L12.0745 38.968C12.677 37.9809 13.3005 37.0079 13.9443 36.0497L14.2377 36.2468C14.8797 35.2914 15.542 34.3507 16.2241 33.4254L15.9396 33.2157C16.6255 32.2853 17.3313 31.3703 18.0563 30.4714L18.3314 30.6933C19.0537 29.7977 19.7952 28.9182 20.5553 28.0554L20.2901 27.8217C21.0539 26.9547 21.8363 26.1044 22.6368 25.2715L22.8916 25.5164C23.6886 24.6872 24.5035 23.8752 25.3358 23.0812L25.0918 22.8255C25.9276 22.0282 26.7807 21.2488 27.6506 20.4881L27.8833 20.7542C28.7488 19.9974 29.631 19.259 30.5293 18.5398L30.3084 18.2639C31.2097 17.5422 32.1272 16.8397 33.0602 16.157L33.2689 16.4423C34.1965 15.7635 35.1395 15.1044 36.0972 14.4656L35.901 14.1715C36.8614 13.531 37.8365 12.9107 38.8257 12.3114L39.0089 12.6137C39.9914 12.0184 40.9879 11.4439 41.9978 10.8907L41.828 10.5807C42.8397 10.0266 43.8649 9.49369 44.9028 8.98276L45.0589 9.29986C46.089 8.79277 47.1317 8.30739 48.1865 7.84429L48.0445 7.52067C49.1002 7.05717 50.1679 6.6159 51.2471 6.19745L51.3749 6.52698C52.4448 6.11211 53.5261 5.71978 54.618 5.35057L54.5048 5.01576C55.5965 4.64661 56.6989 4.30047 57.8113 3.97792L57.9097 4.31738C59.0114 3.99794 60.123 3.70174 61.244 3.42935L61.1605 3.08591C62.28 2.81388 63.4088 2.56549 64.5462 2.34129L64.6146 2.68805C65.7398 2.46628 66.8735 2.26829 68.0153 2.09463L67.9622 1.74521C69.0994 1.57223 70.2446 1.42329 71.3971 1.29891L71.4351 1.65031C72.5733 1.52748 73.7187 1.42871 74.8709 1.35453L74.8482 1.00182C75.9954 0.92796 77.1493 0.878363 78.3093 0.853544L78.3169 1.2069C78.8924 1.19459 79.4694 1.1884 80.0479 1.1884C80.6263 1.1884 81.2034 1.19459 81.7789 1.2069L81.7864 0.853544C82.9464 0.878364 84.1003 0.927961 85.2475 1.00183L85.2248 1.35453C86.377 1.42871 87.5225 1.52748 88.6607 1.65031L88.6986 1.29891C89.8512 1.42329 90.9963 1.57224 92.1336 1.74521L92.0804 2.09463C93.2222 2.26829 94.356 2.46629 95.4811 2.68806L95.5495 2.34129C96.687 2.56549 97.8157 2.81388 98.9352 3.08591L98.8517 3.42936C99.9727 3.70175 101.084 3.99795 102.186 4.31738L102.284 3.97793C103.397 4.30048 104.499 4.64662 105.591 5.01576L105.478 5.35058C106.57 5.71979 107.651 6.11212 108.721 6.52699L108.849 6.19746C109.928 6.6159 110.996 7.05718 112.051 7.52068L111.909 7.8443C112.964 8.30739 114.007 8.79278 115.037 9.29986L115.193 8.98276C116.231 9.49369 117.256 10.0266 118.268 10.5807L118.098 10.8907C119.108 11.4439 120.104 12.0184 121.087 12.6137L121.27 12.3114C122.259 12.9107 123.234 13.531 124.195 14.1715L123.999 14.4656C124.956 15.1044 125.899 15.7635 126.827 16.4422L127.036 16.157C127.968 16.8397 128.886 17.5422 129.787 18.2639L129.566 18.5398C130.465 19.259 131.347 19.9973 132.212 20.7542L132.445 20.4881C133.315 21.2488 134.168 22.0281 135.004 22.8255L134.76 23.0812C135.592 23.8752 136.407 24.6872 137.204 25.5164L137.459 25.2715C138.259 26.1044 139.042 26.9547 139.806 27.8217L139.54 28.0553C140.3 28.9182 141.042 29.7977 141.764 30.6933L142.039 30.4714C142.764 31.3703 143.47 32.2853 144.156 33.2157L143.872 33.4254C144.554 34.3507 145.216 35.2914 145.858 36.2468L146.151 36.0497C146.795 37.0079 147.419 37.9809 148.021 38.968L147.72 39.1521C148.318 40.1328 148.896 41.1274 149.452 42.1355L149.761 41.9647C150.319 42.9748 150.855 43.9984 151.369 45.0347L151.052 45.1917C151.562 46.2204 152.051 47.2618 152.516 48.3152L152.84 48.1723C153.306 49.2268 153.75 50.2934 154.171 51.3715L153.842 51.5001C154.26 52.569 154.655 53.6493 155.026 54.7403L155.361 54.6263C155.732 55.7173 156.081 56.819 156.406 57.9307L156.066 58.0298C156.388 59.1309 156.686 60.2419 156.96 61.3623L157.304 61.2783C157.578 62.3974 157.828 63.5257 158.054 64.6628L157.707 64.7317C157.93 65.8565 158.13 66.99 158.305 68.1315L158.654 68.078C158.828 69.215 158.978 70.36 159.104 71.5124L158.752 71.5506C158.876 72.6887 158.975 73.8341 159.05 74.9862L159.403 74.9633Z" stroke="#C9C9C9" stroke-width="0.706872" stroke-dasharray="3.53 3.53"/>
<ellipse cx="79.717" cy="79.8337" rx="47.1335" ry="47.0178" fill="#8FC045" fill-opacity="0.15"/>
<ellipse cx="141.992" cy="20.0408" rx="15.0675" ry="15.0306" fill="#262F39"/>
<path d="M141.751 19.4412V20.9977C141.751 21.7432 141.677 22.3797 141.529 22.9073C141.385 23.4305 141.176 23.8555 140.901 24.1825C140.627 24.5095 140.297 24.7493 139.914 24.9019C139.535 25.0545 139.109 25.1308 138.639 25.1308C138.264 25.1308 137.915 25.0828 137.592 24.9869C137.274 24.891 136.986 24.7406 136.729 24.5357C136.472 24.3308 136.252 24.067 136.068 23.7444C135.89 23.4174 135.75 23.0272 135.65 22.5738C135.554 22.1203 135.506 21.595 135.506 20.9977V19.4412C135.506 18.6913 135.58 18.0592 135.728 17.5447C135.877 17.0259 136.088 16.6052 136.363 16.2825C136.637 15.9556 136.964 15.7179 137.344 15.5697C137.727 15.4215 138.155 15.3474 138.625 15.3474C139.005 15.3474 139.354 15.3953 139.672 15.4912C139.994 15.5828 140.282 15.7288 140.535 15.9294C140.792 16.13 141.01 16.3915 141.189 16.7142C141.372 17.0324 141.512 17.4183 141.608 17.8717C141.704 18.3208 141.751 18.8439 141.751 19.4412ZM140.175 21.22V19.2058C140.175 18.8265 140.154 18.493 140.11 18.2052C140.066 17.9131 140.001 17.6668 139.914 17.4662C139.831 17.2613 139.726 17.0957 139.6 16.9692C139.473 16.8384 139.33 16.7447 139.168 16.688C139.007 16.627 138.826 16.5965 138.625 16.5965C138.381 16.5965 138.163 16.6444 137.972 16.7403C137.78 16.8319 137.618 16.9801 137.488 17.185C137.357 17.3899 137.257 17.6602 137.187 17.996C137.121 18.3273 137.089 18.7306 137.089 19.2058V21.22C137.089 21.6037 137.11 21.9416 137.154 22.2337C137.198 22.5258 137.263 22.7765 137.35 22.9858C137.437 23.1907 137.542 23.3607 137.664 23.4959C137.791 23.6267 137.934 23.7226 138.096 23.7836C138.261 23.8446 138.442 23.8752 138.639 23.8752C138.887 23.8752 139.107 23.8272 139.299 23.7313C139.491 23.6354 139.652 23.4828 139.783 23.2735C139.914 23.0599 140.012 22.783 140.077 22.443C140.143 22.1029 140.175 21.6953 140.175 21.22ZM147.461 15.4455V25H145.885V17.3158L143.55 18.1071V16.8057L147.271 15.4455H147.461Z" fill="white"/>
<path d="M29 194.156V181.924H36.5854V183.513H30.8456V187.24H36.0419V188.823H30.8456V194.156H29ZM38.7117 194.156V184.982H40.4975V194.156H38.7117ZM39.6136 183.567C39.303 183.567 39.0362 183.463 38.8132 183.256C38.5942 183.045 38.4847 182.794 38.4847 182.504C38.4847 182.209 38.5942 181.958 38.8132 181.751C39.0362 181.54 39.303 181.435 39.6136 181.435C39.9241 181.435 40.1889 181.54 40.4079 181.751C40.6309 181.958 40.7424 182.209 40.7424 182.504C40.7424 182.794 40.6309 183.045 40.4079 183.256C40.1889 183.463 39.9241 183.567 39.6136 183.567ZM44.6859 181.924V194.156H42.9V181.924H44.6859ZM48.8743 181.924V194.156H47.0884V181.924H48.8743ZM56.8568 197.597C56.59 197.597 56.3471 197.575 56.1281 197.531C55.9091 197.491 55.7459 197.447 55.6383 197.4L56.0684 195.936C56.3949 196.024 56.6856 196.062 56.9404 196.05C57.1952 196.038 57.4202 195.942 57.6153 195.763C57.8144 195.584 57.9896 195.291 58.1409 194.885L58.3619 194.276L55.0052 184.982H56.9165L59.2399 192.102H59.3355L61.6588 184.982H63.5761L59.7954 195.381C59.6202 195.859 59.3972 196.263 59.1264 196.593C58.8556 196.928 58.5331 197.179 58.1588 197.346C57.7845 197.513 57.3505 197.597 56.8568 197.597ZM68.8067 194.342C67.9466 194.342 67.196 194.145 66.555 193.75C65.9139 193.356 65.4162 192.805 65.0618 192.096C64.7074 191.387 64.5302 190.559 64.5302 189.611C64.5302 188.66 64.7074 187.827 65.0618 187.115C65.4162 186.402 65.9139 185.848 66.555 185.454C67.196 185.06 67.9466 184.863 68.8067 184.863C69.6668 184.863 70.4173 185.06 71.0584 185.454C71.6995 185.848 72.1972 186.402 72.5516 187.115C72.906 187.827 73.0831 188.66 73.0831 189.611C73.0831 190.559 72.906 191.387 72.5516 192.096C72.1972 192.805 71.6995 193.356 71.0584 193.75C70.4173 194.145 69.6668 194.342 68.8067 194.342ZM68.8127 192.842C69.3701 192.842 69.832 192.695 70.1983 192.401C70.5647 192.106 70.8354 191.714 71.0106 191.224C71.1898 190.734 71.2794 190.195 71.2794 189.605C71.2794 189.02 71.1898 188.482 71.0106 187.993C70.8354 187.499 70.5647 187.103 70.1983 186.804C69.832 186.505 69.3701 186.356 68.8127 186.356C68.2512 186.356 67.7854 186.505 67.415 186.804C67.0487 187.103 66.776 187.499 66.5968 187.993C66.4216 188.482 66.334 189.02 66.334 189.605C66.334 190.195 66.4216 190.734 66.5968 191.224C66.776 191.714 67.0487 192.106 67.415 192.401C67.7854 192.695 68.2512 192.842 68.8127 192.842ZM80.888 190.352V184.982H82.6798V194.156H80.9238V192.568H80.8283C80.6172 193.058 80.2788 193.466 79.8129 193.792C79.351 194.115 78.7756 194.276 78.0868 194.276C77.4975 194.276 76.9759 194.147 76.5219 193.888C76.072 193.625 75.7176 193.237 75.4588 192.723C75.204 192.209 75.0765 191.574 75.0765 190.818V184.982H76.8624V190.603C76.8624 191.228 77.0356 191.726 77.382 192.096C77.7284 192.466 78.1784 192.651 78.7318 192.651C79.0663 192.651 79.3988 192.568 79.7293 192.401C80.0638 192.233 80.3405 191.98 80.5595 191.642C80.7825 191.304 80.892 190.873 80.888 190.352ZM85.0793 194.156V184.982H86.8055V186.44H86.901C87.0683 185.946 87.3629 185.558 87.785 185.275C88.211 184.988 88.6928 184.845 89.2304 184.845C89.3419 184.845 89.4733 184.849 89.6246 184.857C89.7799 184.865 89.9013 184.875 89.9889 184.887V186.595C89.9172 186.575 89.7898 186.553 89.6067 186.529C89.4235 186.501 89.2403 186.488 89.0572 186.488C88.6351 186.488 88.2588 186.577 87.9283 186.756C87.6018 186.932 87.343 187.176 87.1519 187.491C86.9607 187.802 86.8652 188.156 86.8652 188.554V194.156H85.0793ZM100.352 184.982V186.416H95.1672V184.982H100.352ZM96.5888 194.156V183.919C96.5888 183.346 96.7142 182.87 96.965 182.492C97.2159 182.11 97.5484 181.825 97.9625 181.638C98.3766 181.447 98.8265 181.351 99.3123 181.351C99.6707 181.351 99.9773 181.381 100.232 181.441C100.487 181.496 100.676 181.548 100.8 181.596L100.381 183.041C100.298 183.017 100.19 182.99 100.059 182.958C99.9275 182.922 99.7682 182.904 99.5811 182.904C99.1471 182.904 98.8365 183.011 98.6493 183.226C98.4662 183.441 98.3746 183.752 98.3746 184.158V194.156H96.5888ZM105.697 194.342C104.837 194.342 104.087 194.145 103.445 193.75C102.804 193.356 102.307 192.805 101.952 192.096C101.598 191.387 101.421 190.559 101.421 189.611C101.421 188.66 101.598 187.827 101.952 187.115C102.307 186.402 102.804 185.848 103.445 185.454C104.087 185.06 104.837 184.863 105.697 184.863C106.557 184.863 107.308 185.06 107.949 185.454C108.59 185.848 109.088 186.402 109.442 187.115C109.796 187.827 109.974 188.66 109.974 189.611C109.974 190.559 109.796 191.387 109.442 192.096C109.088 192.805 108.59 193.356 107.949 193.75C107.308 194.145 106.557 194.342 105.697 194.342ZM105.703 192.842C106.261 192.842 106.722 192.695 107.089 192.401C107.455 192.106 107.726 191.714 107.901 191.224C108.08 190.734 108.17 190.195 108.17 189.605C108.17 189.02 108.08 188.482 107.901 187.993C107.726 187.499 107.455 187.103 107.089 186.804C106.722 186.505 106.261 186.356 105.703 186.356C105.142 186.356 104.676 186.505 104.306 186.804C103.939 187.103 103.666 187.499 103.487 187.993C103.312 188.482 103.224 189.02 103.224 189.605C103.224 190.195 103.312 190.734 103.487 191.224C103.666 191.714 103.939 192.106 104.306 192.401C104.676 192.695 105.142 192.842 105.703 192.842ZM111.967 194.156V184.982H113.693V186.44H113.789C113.956 185.946 114.251 185.558 114.673 185.275C115.099 184.988 115.58 184.845 116.118 184.845C116.23 184.845 116.361 184.849 116.512 184.857C116.668 184.865 116.789 184.875 116.877 184.887V186.595C116.805 186.575 116.677 186.553 116.494 186.529C116.311 186.501 116.128 186.488 115.945 186.488C115.523 186.488 115.146 186.577 114.816 186.756C114.489 186.932 114.231 187.176 114.04 187.491C113.848 187.802 113.753 188.156 113.753 188.554V194.156H111.967ZM118.422 194.156V184.982H120.136V186.476H120.25C120.441 185.97 120.753 185.576 121.187 185.293C121.621 185.006 122.141 184.863 122.746 184.863C123.359 184.863 123.873 185.006 124.287 185.293C124.705 185.58 125.014 185.974 125.213 186.476H125.309C125.528 185.986 125.876 185.596 126.354 185.305C126.832 185.01 127.401 184.863 128.062 184.863C128.894 184.863 129.573 185.124 130.099 185.645C130.628 186.167 130.893 186.953 130.893 188.005V194.156H129.107V188.172C129.107 187.551 128.938 187.101 128.6 186.822C128.261 186.543 127.857 186.404 127.387 186.404C126.806 186.404 126.354 186.583 126.031 186.941C125.709 187.296 125.547 187.752 125.547 188.309V194.156H123.768V188.058C123.768 187.561 123.612 187.16 123.302 186.858C122.991 186.555 122.587 186.404 122.089 186.404C121.751 186.404 121.438 186.494 121.152 186.673C120.869 186.848 120.64 187.093 120.465 187.407C120.293 187.722 120.208 188.086 120.208 188.5V194.156H118.422Z" fill="#484848"/>
<path d="M97.3585 82.6304H92.5497V70.8755C92.5497 70.8053 92.5358 70.7357 92.5089 70.6707C92.4819 70.6058 92.4424 70.5469 92.3926 70.4972L85.982 64.0866C85.9323 64.0368 85.8734 63.9973 85.8085 63.9703C85.7436 63.9434 85.674 63.9295 85.6037 63.9295H84.0007V62.3265C84.0007 62.1848 83.9444 62.0489 83.8442 61.9487C83.744 61.8485 83.6081 61.7922 83.4664 61.7922H65.8341C65.6924 61.7922 65.5565 61.8485 65.4563 61.9487C65.3561 62.0489 65.2998 62.1848 65.2998 62.3265V82.6304H63.1626C62.2788 82.6304 61.5596 83.3496 61.5596 84.2333V96.5225C61.5596 97.9956 62.7581 99.1941 64.2312 99.1941H96.2899C97.763 99.1941 98.9615 97.9956 98.9615 96.5225V84.2333C98.9615 83.3496 98.2423 82.6304 97.3585 82.6304ZM87.2066 82.6304C87.1778 82.6304 87.1532 82.6422 87.1249 82.6464C87.0891 82.6523 87.0538 82.6555 87.0201 82.6678C86.9865 82.6806 86.9582 82.7009 86.9282 82.7196C86.8999 82.7373 86.8711 82.7517 86.8465 82.7747C86.8182 82.8014 86.7984 82.8334 86.7759 82.8655C86.761 82.8869 86.7407 82.9018 86.7284 82.9259L85.2735 85.8363H75.2476L73.7927 82.9259C73.7804 82.9018 73.7601 82.8863 73.7446 82.865C73.7232 82.8329 73.7029 82.8008 73.6752 82.7752C73.65 82.7522 73.6207 82.7373 73.5923 82.7196C73.5624 82.7009 73.5346 82.6806 73.5015 82.6683C73.4673 82.6555 73.432 82.6523 73.3957 82.647C73.3679 82.6422 73.3433 82.6304 73.3145 82.6304H69.04V64.9981H85.0694V69.8069C85.0694 70.6907 85.7885 71.4099 86.6723 71.4099H91.4811V82.6304H87.2066ZM86.138 65.7536L90.7256 70.3412H86.6723C86.3779 70.3412 86.138 70.1019 86.138 69.8069V65.7536ZM66.3684 62.8609H82.9321V63.9295H68.5057C68.364 63.9295 68.2281 63.9858 68.1279 64.086C68.0277 64.1862 67.9714 64.3221 67.9714 64.4638V82.6304H66.3684V62.8609ZM97.8928 96.5225C97.8928 97.4063 97.1737 98.1255 96.2899 98.1255H64.2312C63.3474 98.1255 62.6283 97.4063 62.6283 96.5225V84.2333C62.6283 83.9384 62.8682 83.699 63.1626 83.699H72.9843L74.2918 86.3145C74.3801 86.4925 74.5166 86.6422 74.6858 86.7465C74.8549 86.8509 75.05 86.9058 75.2487 86.9049H85.274C85.4726 86.9056 85.6674 86.8506 85.8363 86.7463C86.0052 86.6419 86.1416 86.4923 86.2299 86.3145L87.5368 83.699H97.3585C97.6529 83.699 97.8928 83.9384 97.8928 84.2333V96.5225Z" fill="#8FC045"/>
<path d="M85.0694 90.6451C84.9277 90.6451 84.7918 90.7014 84.6916 90.8016C84.5914 90.9018 84.5351 91.0377 84.5351 91.1794V92.248H75.9861V91.1794C75.9861 91.0377 75.9298 90.9018 75.8296 90.8016C75.7294 90.7014 75.5935 90.6451 75.4518 90.6451C75.3101 90.6451 75.1742 90.7014 75.074 90.8016C74.9738 90.9018 74.9175 91.0377 74.9175 91.1794V92.7823C74.9175 92.924 74.9738 93.06 75.074 93.1602C75.1742 93.2604 75.3101 93.3167 75.4518 93.3167H85.0694C85.2111 93.3167 85.347 93.2604 85.4472 93.1602C85.5474 93.06 85.6037 92.924 85.6037 92.7823V91.1794C85.6037 91.0377 85.5474 90.9018 85.4472 90.8016C85.347 90.7014 85.2111 90.6451 85.0694 90.6451ZM71.1773 68.7383H81.8635C82.0052 68.7383 82.1411 68.682 82.2413 68.5818C82.3415 68.4816 82.3978 68.3457 82.3978 68.204C82.3978 68.0623 82.3415 67.9264 82.2413 67.8262C82.1411 67.726 82.0052 67.6697 81.8635 67.6697H71.1773C71.0356 67.6697 70.8997 67.726 70.7995 67.8262C70.6993 67.9264 70.643 68.0623 70.643 68.204C70.643 68.3457 70.6993 68.4816 70.7995 68.5818C70.8997 68.682 71.0356 68.7383 71.1773 68.7383ZM71.1773 72.4785H83.4665C83.6082 72.4785 83.7441 72.4222 83.8443 72.322C83.9445 72.2218 84.0008 72.0859 84.0008 71.9442C84.0008 71.8025 83.9445 71.6666 83.8443 71.5664C83.7441 71.4662 83.6082 71.4099 83.4665 71.4099H71.1773C71.0356 71.4099 70.8997 71.4662 70.7995 71.5664C70.6993 71.6666 70.643 71.8025 70.643 71.9442C70.643 72.0859 70.6993 72.2218 70.7995 72.322C70.8997 72.4222 71.0356 72.4785 71.1773 72.4785ZM71.1773 76.2187H89.3439C89.4856 76.2187 89.6215 76.1624 89.7217 76.0622C89.8219 75.962 89.8782 75.8261 89.8782 75.6844C89.8782 75.5426 89.8219 75.4067 89.7217 75.3065C89.6215 75.2063 89.4856 75.15 89.3439 75.15H71.1773C71.0356 75.15 70.8997 75.2063 70.7995 75.3065C70.6993 75.4067 70.643 75.5426 70.643 75.6844C70.643 75.8261 70.6993 75.962 70.7995 76.0622C70.8997 76.1624 71.0356 76.2187 71.1773 76.2187ZM89.3439 78.8902H71.1773C71.0356 78.8902 70.8997 78.9465 70.7995 79.0467C70.6993 79.1469 70.643 79.2828 70.643 79.4245C70.643 79.5662 70.6993 79.7022 70.7995 79.8024C70.8997 79.9026 71.0356 79.9589 71.1773 79.9589H89.3439C89.4856 79.9589 89.6215 79.9026 89.7217 79.8024C89.8219 79.7022 89.8782 79.5662 89.8782 79.4245C89.8782 79.2828 89.8219 79.1469 89.7217 79.0467C89.6215 78.9465 89.4856 78.8902 89.3439 78.8902Z" fill="#8FC045"/>
</svg>
