<svg width="16" height="16" viewBox="0 0 16 16" fill="none" xmlns="http://www.w3.org/2000/svg">
<path d="M15.3957 6.60773L8.86944 6.60742C8.58125 6.60742 8.34766 6.84098 8.34766 7.12917V9.21402C8.34766 9.50214 8.58125 9.73577 8.86941 9.73577H12.5446C12.1422 10.7802 11.391 11.6548 10.4327 12.2106L11.9998 14.9234C14.5136 13.4695 15.9998 10.9186 15.9998 8.06305C15.9998 7.65645 15.9698 7.3658 15.9099 7.03852C15.8643 6.78986 15.6485 6.60773 15.3957 6.60773Z" fill="#167EE6"/>
<path d="M7.99985 12.8685C6.20129 12.8685 4.63116 11.8858 3.78788 10.4316L1.0752 11.9952C2.45566 14.3878 5.04173 15.9989 7.99985 15.9989C9.45101 15.9989 10.8203 15.6082 11.9999 14.9273V14.9236L10.4328 12.2108C9.71595 12.6265 8.88645 12.8685 7.99985 12.8685Z" fill="#12B347"/>
<path d="M12 14.9294V14.9257L10.4329 12.2129C9.71609 12.6286 8.88666 12.8706 8 12.8706V16.001C9.45116 16.001 10.8205 15.6103 12 14.9294Z" fill="#0F993E"/>
<path d="M3.13044 8.00019C3.13044 7.11366 3.37238 6.28425 3.78803 5.56747L1.07534 4.00391C0.390687 5.17975 0 6.54531 0 8.00019C0 9.45506 0.390687 10.8206 1.07534 11.9965L3.78803 10.4329C3.37238 9.71612 3.13044 8.88672 3.13044 8.00019Z" fill="#FFD500"/>
<path d="M7.99985 3.13044C9.1727 3.13044 10.25 3.54719 11.0915 4.24041C11.2991 4.41141 11.6008 4.39906 11.7909 4.20891L13.2681 2.73172C13.4839 2.51597 13.4685 2.16281 13.238 1.96288C11.8282 0.739781 9.99382 0 7.99985 0C5.04173 0 2.45566 1.61116 1.0752 4.00372L3.78788 5.56728C4.63116 4.11312 6.20129 3.13044 7.99985 3.13044Z" fill="#FF4B26"/>
<path d="M11.0916 4.24041C11.2992 4.41141 11.601 4.39906 11.7911 4.20891L13.2683 2.73172C13.484 2.51597 13.4686 2.16281 13.2382 1.96288C11.8283 0.73975 9.99397 0 8 0V3.13044C9.17281 3.13044 10.2502 3.54719 11.0916 4.24041Z" fill="#D93F21"/>
</svg>
