<svg width="667" height="400" viewBox="0 0 667 400" fill="none" xmlns="http://www.w3.org/2000/svg">
<path d="M150.226 232.921H116.343C115.607 232.921 115.009 233.518 115.009 234.255V268.121C115.009 268.857 115.607 269.454 116.343 269.454H150.226C150.963 269.454 151.56 268.857 151.56 268.121V234.255C151.56 233.518 150.963 232.921 150.226 232.921Z" fill="#C1E3C3"/>
<path d="M496.931 46.0433H396.047C395.31 46.0433 394.713 46.6403 394.713 47.3767V63.0007C394.713 63.737 395.31 64.334 396.047 64.334H496.931C497.668 64.334 498.265 63.737 498.265 63.0007V47.3767C498.265 46.6403 497.668 46.0433 496.931 46.0433Z" fill="#E9F8EA"/>
<path d="M397.316 320.038H357.688C356.951 320.038 356.354 320.635 356.354 321.371V336.31C356.354 337.046 356.951 337.643 357.688 337.643H397.316C398.053 337.643 398.65 337.046 398.65 336.31V321.371C398.65 320.635 398.053 320.038 397.316 320.038Z" fill="#C1E3C3"/>
<path d="M537.271 77.2853H415.303C414.566 77.2853 413.969 77.8822 413.969 78.6186V321.711C413.969 322.448 414.566 323.045 415.303 323.045H537.271C538.008 323.045 538.605 322.448 538.605 321.711V78.6186C538.605 77.8822 538.008 77.2853 537.271 77.2853Z" fill="#E9F8EA"/>
<path d="M308.56 263.589H176.075C175.339 263.589 174.741 264.186 174.741 264.922V321.711C174.741 322.448 175.339 323.045 176.075 323.045H308.56C309.296 323.045 309.894 322.448 309.894 321.711V264.922C309.894 264.186 309.296 263.589 308.56 263.589Z" fill="#C1E3C3"/>
<path d="M369.447 42.476H101.915C101.178 42.476 100.581 43.0729 100.581 43.8093V215.889C100.581 216.625 101.178 217.222 101.915 217.222H369.447C370.184 217.222 370.781 216.625 370.781 215.889V43.8093C370.781 43.0729 370.184 42.476 369.447 42.476Z" fill="#E9F8EA"/>
<path d="M164.976 216.4C166.417 216.4 167.585 215.233 167.585 213.793C167.585 212.353 166.417 211.185 164.976 211.185C163.536 211.185 162.368 212.353 162.368 213.793C162.368 215.233 163.536 216.4 164.976 216.4Z" fill="#9AD09C"/>
<path d="M164.976 209.858C166.417 209.858 167.585 208.691 167.585 207.251C167.585 205.811 166.417 204.643 164.976 204.643C163.536 204.643 162.368 205.811 162.368 207.251C162.368 208.691 163.536 209.858 164.976 209.858Z" fill="#9AD09C"/>
<path d="M164.976 203.316C166.417 203.316 167.585 202.149 167.585 200.709C167.585 199.269 166.417 198.101 164.976 198.101C163.536 198.101 162.368 199.269 162.368 200.709C162.368 202.149 163.536 203.316 164.976 203.316Z" fill="#9AD09C"/>
<path d="M388.168 105.378C389.609 105.378 390.777 104.211 390.777 102.771C390.777 101.331 389.609 100.163 388.168 100.163C386.727 100.163 385.559 101.331 385.559 102.771C385.559 104.211 386.727 105.378 388.168 105.378Z" fill="#9AD09C"/>
<path d="M394.713 105.378C396.154 105.378 397.322 104.211 397.322 102.771C397.322 101.331 396.154 100.163 394.713 100.163C393.273 100.163 392.105 101.331 392.105 102.771C392.105 104.211 393.273 105.378 394.713 105.378Z" fill="#9AD09C"/>
<path d="M401.259 105.378C402.699 105.378 403.867 104.211 403.867 102.771C403.867 101.331 402.699 100.163 401.259 100.163C399.818 100.163 398.65 101.331 398.65 102.771C398.65 104.211 399.818 105.378 401.259 105.378Z" fill="#9AD09C"/>
<path d="M184.188 224.87H164.977C164.711 224.87 164.457 224.765 164.269 224.578C164.082 224.39 163.976 224.136 163.976 223.87V102.771C163.976 102.64 164.002 102.509 164.052 102.388C164.103 102.267 164.176 102.157 164.269 102.064C164.362 101.971 164.472 101.897 164.594 101.847C164.715 101.797 164.845 101.771 164.977 101.771H480.016C480.147 101.771 480.277 101.797 480.399 101.847C480.52 101.897 480.631 101.971 480.723 102.064C480.816 102.157 480.89 102.267 480.94 102.388C480.991 102.509 481.016 102.64 481.016 102.771V215.003C481.016 215.269 480.911 215.523 480.723 215.71C480.536 215.898 480.281 216.003 480.016 216.003C479.751 216.003 479.496 215.898 479.308 215.71C479.121 215.523 479.015 215.269 479.015 215.003V103.771H165.977V222.87H184.188C184.453 222.87 184.708 222.976 184.896 223.163C185.083 223.351 185.189 223.605 185.189 223.87C185.189 224.136 185.083 224.39 184.896 224.578C184.708 224.765 184.453 224.87 184.188 224.87ZM564.844 241.841V349.009C564.844 349.467 564.754 349.921 564.579 350.345C564.403 350.768 564.146 351.153 563.821 351.477C563.497 351.801 563.112 352.059 562.688 352.234C562.265 352.409 561.81 352.5 561.352 352.499H453.624C452.698 352.497 451.812 352.128 451.157 351.474C450.503 350.82 450.134 349.934 450.131 349.009V226.987C450.131 226.529 450.221 226.075 450.397 225.651C450.572 225.228 450.83 224.843 451.154 224.519C451.478 224.194 451.863 223.937 452.287 223.762C452.711 223.587 453.165 223.496 453.624 223.496H546.473L564.844 241.841Z" fill="#9AD09C"/>
<path d="M565.351 242.347H548.22C547.756 242.347 547.312 242.163 546.985 241.836C546.657 241.508 546.473 241.064 546.473 240.601V223.496L564.844 241.841L565.351 242.347Z" fill="#8FC045"/>
<path d="M493.889 246.843H466.142C465.406 246.843 464.808 247.44 464.808 248.177V272.39C464.808 273.126 465.406 273.723 466.142 273.723H493.889C494.626 273.723 495.223 273.126 495.223 272.39V248.177C495.223 247.44 494.626 246.843 493.889 246.843Z" fill="white"/>
<path d="M546.473 328.403H465.502V330.403H546.473V328.403Z" fill="#262F39"/>
<path d="M546.473 318.803H465.502V320.803H546.473V318.803Z" fill="#262F39"/>
<path d="M546.473 309.203H465.502V311.203H546.473V309.203Z" fill="#262F39"/>
<path d="M546.473 299.603H465.502V301.603H546.473V299.603Z" fill="#262F39"/>
<path d="M546.473 290.003H465.502V292.003H546.473V290.003Z" fill="#262F39"/>
<path d="M546.473 280.403H465.502V282.403H546.473V280.403Z" fill="#262F39"/>
<path d="M546.473 270.803H504.188V272.803H546.473V270.803Z" fill="#262F39"/>
<path d="M546.473 261.203H504.188V263.203H546.473V261.203Z" fill="#262F39"/>
<path d="M546.473 251.603H504.188V253.603H546.473V251.603Z" fill="#262F39"/>
<path d="M181.329 333.081H156.744C153.106 333.076 149.619 331.63 147.047 329.059C144.475 326.488 143.028 323.002 143.024 319.366V313.921C143.028 310.285 144.475 306.799 147.047 304.228C149.619 301.657 153.106 300.211 156.744 300.207H181.329C184.966 300.211 188.454 301.657 191.026 304.228C193.599 306.799 195.046 310.285 195.05 313.921V319.366C195.046 323.002 193.599 326.488 191.026 329.059C188.454 331.63 184.966 333.076 181.329 333.081ZM156.744 304.207C154.168 304.21 151.697 305.234 149.875 307.055C148.053 308.877 147.029 311.346 147.026 313.921V319.366C147.029 321.942 148.053 324.411 149.875 326.232C151.697 328.053 154.168 329.077 156.744 329.081H181.329C183.905 329.078 186.376 328.053 188.198 326.232C190.02 324.411 191.045 321.942 191.048 319.366V313.921C191.045 311.346 190.02 308.876 188.198 307.055C186.376 305.234 183.905 304.21 181.329 304.207H156.744Z" fill="#9AD09C"/>
<path d="M177.441 285.772L175.04 310.239L173.786 323.045L171.164 349.799C171.114 350.293 170.883 350.751 170.515 351.085C170.146 351.419 169.667 351.604 169.17 351.605H120.879C120.382 351.604 119.903 351.419 119.535 351.085C119.166 350.751 118.935 350.293 118.885 349.799L116.264 323.045L115.01 310.239L112.608 285.772C112.581 285.494 112.613 285.213 112.701 284.948C112.789 284.682 112.931 284.438 113.119 284.231C113.307 284.024 113.536 283.858 113.791 283.745C114.047 283.631 114.323 283.573 114.603 283.572H175.446C175.726 283.572 176.002 283.631 176.258 283.745C176.514 283.858 176.743 284.024 176.93 284.231C177.118 284.438 177.261 284.682 177.348 284.948C177.436 285.213 177.468 285.494 177.441 285.772Z" fill="#9AD09C"/>
<path d="M175.039 310.239L173.786 323.045H116.263L115.009 310.239H175.039Z" fill="#262F39"/>
<path opacity="0.19" d="M125.096 241.644C125.17 242.241 125.109 242.847 124.917 243.416C124.694 243.98 124.388 244.508 124.009 244.982C123.662 245.404 123.38 245.875 123.17 246.379C122.824 247.35 122.872 248.417 123.305 249.351C123.556 249.814 123.871 250.239 124.242 250.613C124.688 251.077 125.059 251.606 125.344 252.183C125.62 252.801 125.762 253.471 125.762 254.148C125.762 254.825 125.619 255.494 125.342 256.112C125.057 256.688 124.685 257.218 124.241 257.682C123.871 258.056 123.556 258.481 123.306 258.944C123.094 259.402 122.973 259.896 122.948 260.399C122.922 260.914 122.998 261.429 123.173 261.915C123.382 262.419 123.664 262.89 124.011 263.313C124.39 263.787 124.696 264.315 124.918 264.879C125.11 265.449 125.171 266.055 125.096 266.651C125.031 266.083 124.856 265.533 124.581 265.031C124.286 264.553 123.927 264.118 123.513 263.738C123.063 263.31 122.679 262.817 122.376 262.276C122.088 261.691 121.928 261.051 121.907 260.4C121.874 259.737 121.988 259.076 122.241 258.463C122.508 257.882 122.858 257.344 123.28 256.863C123.63 256.476 123.925 256.042 124.155 255.574C124.519 254.658 124.52 253.637 124.157 252.72C123.927 252.252 123.633 251.818 123.284 251.43C122.862 250.95 122.512 250.412 122.243 249.833C121.99 249.22 121.876 248.558 121.909 247.896C121.929 247.245 122.089 246.605 122.377 246.021C122.68 245.479 123.063 244.986 123.514 244.559C123.927 244.178 124.287 243.743 124.582 243.265C124.856 242.763 125.031 242.213 125.096 241.644ZM144.809 229.13C144.883 229.727 144.822 230.333 144.63 230.902C144.407 231.466 144.101 231.994 143.722 232.468C143.375 232.89 143.092 233.361 142.883 233.866C142.537 234.836 142.585 235.903 143.018 236.837C143.269 237.3 143.584 237.725 143.955 238.099C144.4 238.563 144.772 239.092 145.056 239.669C145.333 240.287 145.475 240.957 145.475 241.634C145.475 242.311 145.331 242.98 145.055 243.598C144.769 244.175 144.398 244.704 143.954 245.169C143.583 245.542 143.268 245.967 143.018 246.43C142.587 247.365 142.539 248.431 142.885 249.401C143.095 249.906 143.377 250.377 143.724 250.799C144.103 251.273 144.408 251.801 144.631 252.365C144.823 252.935 144.884 253.541 144.809 254.137C144.743 253.569 144.569 253.019 144.294 252.517C143.999 252.039 143.639 251.604 143.226 251.224C142.775 250.796 142.392 250.303 142.089 249.762C141.8 249.177 141.641 248.537 141.62 247.886C141.587 247.223 141.701 246.562 141.953 245.949C142.221 245.368 142.571 244.83 142.992 244.349C143.343 243.962 143.637 243.528 143.868 243.06C144.232 242.144 144.233 241.123 143.87 240.206C143.64 239.738 143.346 239.304 142.996 238.916C142.575 238.436 142.225 237.898 141.956 237.319C141.703 236.706 141.589 236.044 141.622 235.382C141.642 234.731 141.801 234.091 142.09 233.507C142.393 232.965 142.776 232.472 143.226 232.045C143.64 231.664 144 231.229 144.295 230.751C144.569 230.249 144.744 229.699 144.809 229.13ZM162.715 249.687C162.797 250.341 162.73 251.006 162.519 251.631C162.274 252.25 161.939 252.829 161.523 253.349C161.142 253.812 160.832 254.329 160.602 254.883C160.222 255.948 160.275 257.119 160.75 258.144C161.025 258.652 161.371 259.118 161.778 259.529C162.267 260.038 162.675 260.619 162.987 261.252C163.29 261.93 163.447 262.665 163.446 263.408C163.446 264.151 163.289 264.886 162.985 265.564C162.672 266.196 162.265 266.777 161.777 267.287C161.371 267.697 161.025 268.163 160.751 268.671C160.277 269.697 160.225 270.867 160.604 271.932C160.834 272.485 161.144 273.002 161.525 273.465C161.94 273.986 162.276 274.565 162.52 275.184C162.731 275.81 162.798 276.475 162.715 277.129C162.643 276.506 162.452 275.902 162.151 275.352C161.827 274.827 161.432 274.349 160.978 273.932C160.484 273.463 160.063 272.922 159.731 272.327C159.414 271.686 159.239 270.984 159.216 270.269C159.179 269.542 159.304 268.816 159.582 268.143C159.876 267.506 160.26 266.915 160.722 266.388C161.106 265.963 161.43 265.487 161.683 264.973C162.083 263.967 162.083 262.847 161.685 261.841C161.432 261.327 161.11 260.851 160.727 260.425C160.264 259.899 159.88 259.308 159.585 258.672C159.307 258 159.182 257.274 159.218 256.547C159.24 255.833 159.415 255.131 159.732 254.489C160.064 253.895 160.485 253.354 160.979 252.885C161.433 252.467 161.827 251.99 162.151 251.465C162.453 250.914 162.644 250.31 162.715 249.687Z" fill="#AAAAAA"/>
<path d="M286.33 287.998V352.078H338.196V287.998H286.33ZM320.16 314.805C320.16 317.043 319.27 319.19 317.687 320.773C316.103 322.355 313.955 323.245 311.716 323.245C309.476 323.245 307.328 322.355 305.745 320.773C304.161 319.19 303.272 317.043 303.272 314.805V306.365H320.16V314.805Z" fill="#8FC045"/>
<path d="M286.33 315.965H303.361C303.304 315.581 303.275 315.193 303.272 314.805V306.365H320.16V314.805C320.157 315.193 320.127 315.581 320.071 315.965H338.196V287.998H286.33V315.965Z" fill="#4469A0"/>
<path d="M420.972 154.341H203.554C197.66 154.341 192.882 159.117 192.882 165.008V295.699C192.882 301.59 197.66 306.365 203.554 306.365H420.972C426.866 306.365 431.644 301.59 431.644 295.699V165.008C431.644 159.117 426.866 154.341 420.972 154.341Z" fill="#8FC045"/>
<path d="M416.461 164.358H208.064C205.485 164.358 203.395 166.447 203.395 169.025V291.681C203.395 294.259 205.485 296.348 208.064 296.348H416.461C419.04 296.348 421.13 294.259 421.13 291.681V169.025C421.13 166.447 419.04 164.358 416.461 164.358Z" fill="white"/>
<path d="M417.309 164.358H207.216C206.203 164.358 205.231 164.761 204.514 165.477C203.798 166.193 203.395 167.165 203.395 168.177V174.572H421.13V168.177C421.13 167.165 420.728 166.193 420.011 165.477C419.295 164.761 418.323 164.358 417.309 164.358Z" fill="#9AD09C"/>
<path d="M280.315 193.211H231.117C230.38 193.211 229.783 193.808 229.783 194.544V227.157C229.783 227.894 230.38 228.491 231.117 228.491H280.315C281.051 228.491 281.649 227.894 281.649 227.157V194.544C281.649 193.808 281.051 193.211 280.315 193.211Z" fill="#A8BB8C"/>
<path d="M351.165 197.495H298.338V199.495H351.165V197.495Z" fill="#262F39"/>
<path d="M377.845 210.183H298.338V212.183H377.845V210.183Z" fill="#262F39"/>
<path d="M364.505 222.871H298.338V224.871H364.505V222.871Z" fill="#262F39"/>
<path d="M264.947 258.481H231.117C230.38 258.481 229.783 259.078 229.783 259.815V270.588C229.783 271.324 230.38 271.921 231.117 271.921H264.947C265.684 271.921 266.281 271.324 266.281 270.588V259.815C266.281 259.078 265.684 258.481 264.947 258.481Z" fill="#262F39"/>
<path d="M313.932 258.481H280.101C279.365 258.481 278.767 259.078 278.767 259.815V270.588C278.767 271.324 279.365 271.921 280.101 271.921H313.932C314.668 271.921 315.266 271.324 315.266 270.588V259.815C315.266 259.078 314.668 258.481 313.932 258.481Z" fill="#262F39"/>
<path d="M363.171 258.481H329.341C328.604 258.481 328.007 259.078 328.007 259.815V270.588C328.007 271.324 328.604 271.921 329.341 271.921H363.171C363.908 271.921 364.505 271.324 364.505 270.588V259.815C364.505 259.078 363.908 258.481 363.171 258.481Z" fill="#262F39"/>
<path d="M203.888 249.179L216.282 264.702C222.475 264.382 228.675 265.165 234.595 267.013L225.602 260.196L226.688 258.765L235.681 265.582C232.308 260.386 229.878 254.637 228.502 248.599L210.436 240.963L203.888 249.179ZM219.735 250.703C220.399 251.208 220.835 251.954 220.948 252.779C221.062 253.604 220.843 254.44 220.34 255.104C219.838 255.766 219.093 256.201 218.269 256.314C217.445 256.428 216.611 256.209 215.948 255.707C215.292 255.197 214.863 254.45 214.752 253.627C214.641 252.804 214.857 251.971 215.354 251.305C215.602 250.978 215.912 250.703 216.267 250.496C216.621 250.288 217.013 250.153 217.42 250.097C217.827 250.041 218.241 250.066 218.638 250.17C219.035 250.274 219.408 250.455 219.735 250.703V250.703Z" fill="#C1E3C3"/>
<path d="M190.359 244.298L200.571 252.039C200.929 252.309 201.379 252.427 201.824 252.366C202.269 252.305 202.671 252.07 202.942 251.713L212.044 239.715L212.406 239.242C212.677 238.885 212.794 238.434 212.733 237.99C212.672 237.545 212.437 237.143 212.08 236.872L201.869 229.13L190.359 244.298ZM234.595 267.013L225.602 260.196L226.689 258.765L235.681 265.582C232.308 260.386 229.878 254.637 228.502 248.598L212.651 241.897L209.101 246.575L205.551 251.257L216.282 264.702C222.475 264.383 228.675 265.165 234.595 267.013L234.595 267.013ZM215.354 251.305C215.73 250.814 216.244 250.445 216.83 250.245C217.417 250.046 218.049 250.024 218.647 250.183C219.246 250.342 219.784 250.675 220.193 251.139C220.603 251.603 220.865 252.179 220.948 252.792C221.031 253.405 220.93 254.03 220.658 254.586C220.387 255.142 219.956 255.605 219.421 255.917C218.886 256.229 218.271 256.375 217.653 256.338C217.035 256.301 216.441 256.081 215.948 255.707C215.292 255.197 214.863 254.451 214.751 253.627C214.64 252.804 214.857 251.971 215.354 251.305Z" fill="#8FC045"/>
<path d="M201.869 229.131L190.359 244.298L200.571 252.039C200.929 252.309 201.379 252.427 201.824 252.366C202.269 252.305 202.671 252.07 202.943 251.713L212.044 239.715L212.406 239.242C212.677 238.885 212.794 238.434 212.733 237.99C212.672 237.545 212.437 237.143 212.08 236.872L201.869 229.131Z" fill="#A8BB8C"/>
<path d="M460.424 308.832L454.999 314.558C454.638 314.938 454.203 315.24 453.721 315.445C453.238 315.65 452.719 315.754 452.194 315.75C451.67 315.747 451.152 315.636 450.673 315.425C450.193 315.213 449.762 314.906 449.405 314.521L431.621 295.641C431.314 295.312 431.145 294.879 431.147 294.43C431.149 293.981 431.322 293.549 431.631 293.224L437.763 286.733C438.07 286.407 438.49 286.21 438.937 286.182C439.385 286.154 439.826 286.298 440.171 286.584L460.075 303.237C460.482 303.57 460.815 303.985 461.055 304.453C461.294 304.921 461.434 305.434 461.467 305.958C461.5 306.483 461.424 307.009 461.245 307.504C461.065 307.998 460.786 308.45 460.424 308.832V308.832Z" fill="#262F39"/>
<path d="M460.419 308.827L456.842 312.607C457.253 311.829 457.382 310.934 457.208 310.072C457.034 309.21 456.567 308.435 455.886 307.878L435.972 291.231C435.628 290.945 435.189 290.8 434.742 290.825C434.296 290.851 433.876 291.046 433.568 291.369L431.252 293.822C431.339 293.599 431.468 293.394 431.631 293.219L437.763 286.738C438.068 286.41 438.487 286.212 438.934 286.183C439.381 286.154 439.822 286.298 440.166 286.585L460.08 303.232C460.486 303.567 460.818 303.981 461.056 304.45C461.294 304.918 461.433 305.431 461.465 305.956C461.497 306.48 461.421 307.006 461.241 307.5C461.061 307.994 460.781 308.446 460.419 308.827H460.419Z" fill="#6A7A8C"/>
<path d="M432.17 282.625L437.415 286.912L431.605 293.161L426.947 288.086L432.17 282.625Z" fill="#262F39"/>
<path d="M437.545 265.307C437.39 259.748 435.59 254.361 432.371 249.825C429.153 245.29 424.661 241.81 419.464 239.826C414.267 237.842 408.598 237.443 403.174 238.679C397.75 239.916 392.814 242.732 388.992 246.772C385.169 250.812 382.631 255.894 381.698 261.376C380.765 266.857 381.479 272.492 383.751 277.568C386.022 282.644 389.748 286.933 394.458 289.892C399.168 292.851 404.651 294.348 410.212 294.193C417.669 293.985 424.738 290.825 429.864 285.408C434.99 279.991 437.753 272.76 437.545 265.307ZM410.058 286.9C405.936 287.016 401.871 285.907 398.379 283.714C394.886 281.521 392.123 278.343 390.438 274.58C388.754 270.817 388.223 266.64 388.914 262.575C389.605 258.511 391.486 254.743 394.32 251.748C397.153 248.753 400.812 246.664 404.833 245.748C408.854 244.831 413.057 245.126 416.91 246.597C420.763 248.067 424.093 250.647 426.479 254.009C428.865 257.372 430.2 261.366 430.315 265.487C430.469 271.011 428.422 276.37 424.623 280.386C420.824 284.401 415.585 286.745 410.058 286.9Z" fill="#262F39"/>
<path d="M400.343 281.085C403.698 284.263 408.02 286.23 412.622 286.671C409.697 287.127 406.709 286.955 403.857 286.167C401.004 285.379 398.352 283.993 396.077 282.101C393.802 280.208 391.956 277.854 390.663 275.193C389.37 272.532 388.658 269.626 388.576 266.669C388.493 263.712 389.042 260.772 390.185 258.043C391.328 255.314 393.04 252.861 395.206 250.845C397.372 248.829 399.942 247.297 402.747 246.351C405.551 245.406 408.525 245.068 411.47 245.361C407.615 245.955 404.005 247.62 401.05 250.164C398.095 252.708 395.914 256.03 394.754 259.753C393.595 263.475 393.504 267.447 394.492 271.219C395.48 274.99 397.508 278.408 400.343 281.085Z" fill="#A8BB8C"/>
<path opacity="0.28" d="M506.018 126.896H394.244C390.551 126.896 387.557 129.889 387.557 133.58V201.877C387.557 205.568 390.551 208.561 394.244 208.561H506.018C509.711 208.561 512.705 205.568 512.705 201.877V133.58C512.705 129.889 509.711 126.896 506.018 126.896Z" fill="#E9F8EA"/>
<path d="M518.347 116.594H406.574C402.881 116.594 399.887 119.587 399.887 123.278V191.575C399.887 195.266 402.881 198.259 406.574 198.259H518.347C522.04 198.259 525.034 195.266 525.034 191.575V123.278C525.034 119.587 522.04 116.594 518.347 116.594Z" fill="white"/>
<path d="M518.347 199.259H406.574C404.536 199.256 402.582 198.446 401.14 197.005C399.699 195.565 398.888 193.612 398.886 191.574V123.278C398.888 121.241 399.699 119.288 401.14 117.847C402.582 116.407 404.536 115.596 406.574 115.594H518.347C520.385 115.596 522.339 116.407 523.781 117.847C525.222 119.288 526.033 121.241 526.035 123.278V191.574C526.033 193.612 525.222 195.565 523.781 197.005C522.339 198.446 520.385 199.256 518.347 199.259ZM406.574 117.594C405.066 117.596 403.621 118.195 402.554 119.261C401.488 120.326 400.889 121.771 400.887 123.278V191.574C400.889 193.081 401.488 194.526 402.554 195.592C403.621 196.657 405.066 197.257 406.574 197.259H518.347C519.855 197.257 521.3 196.657 522.366 195.592C523.433 194.526 524.032 193.081 524.034 191.574V123.278C524.032 121.771 523.433 120.326 522.366 119.261C521.3 118.195 519.855 117.596 518.347 117.594H406.574Z" fill="#8FC045"/>
<path d="M512.915 147.046H472.395V149.046H512.915V147.046Z" fill="#8FC045"/>
<path d="M512.915 157.006H472.395V159.006H512.915V157.006Z" fill="#8FC045"/>
<path d="M512.915 166.966H472.395V168.966H512.915V166.966Z" fill="#8FC045"/>
<path d="M512.915 177.237H412.365V179.237H512.915V177.237Z" fill="#8FC045"/>
<path d="M512.915 186.357H412.365V188.357H512.915V186.357Z" fill="#8FC045"/>
<path opacity="0.19" d="M457.126 144.559H415.97C414.865 144.559 413.969 145.454 413.969 146.559V171.825C413.969 172.93 414.865 173.825 415.97 173.825H457.126C458.232 173.825 459.127 172.93 459.127 171.825V146.559C459.127 145.454 458.232 144.559 457.126 144.559Z" fill="#AAAAAA"/>
<path d="M525.034 132.606H399.887V134.606H525.034V132.606Z" fill="#8FC045"/>
<path d="M460.459 141.379H419.303C418.198 141.379 417.302 142.275 417.302 143.379V168.646C417.302 169.751 418.198 170.646 419.303 170.646H460.459C461.565 170.646 462.46 169.751 462.46 168.646V143.379C462.46 142.275 461.565 141.379 460.459 141.379Z" fill="#262F39"/>
<path d="M592.908 351.524H74.0924V357.524H592.908V351.524Z" fill="#262F39"/>
<path opacity="0.28" d="M214.084 81.2406H135.538C134.065 81.2406 132.87 82.4345 132.87 83.9073V193.134C132.87 194.607 134.065 195.801 135.538 195.801H214.084C215.558 195.801 216.752 194.607 216.752 193.134V83.9073C216.752 82.4345 215.558 81.2406 214.084 81.2406Z" fill="#6299E8"/>
<path d="M204.249 71.4106H125.703C124.23 71.4106 123.035 72.6046 123.035 74.0773V183.304C123.035 184.777 124.23 185.971 125.703 185.971H204.249C205.723 185.971 206.917 184.777 206.917 183.304V74.0773C206.917 72.6046 205.723 71.4106 204.249 71.4106Z" fill="white"/>
<path d="M174.741 170.651H140.484V172.651H174.741V170.651Z" fill="#8FC045"/>
<path d="M194.751 162.251H140.484V164.251H194.751V162.251Z" fill="#8FC045"/>
<path d="M174.741 151.691H140.484V153.691H174.741V151.691Z" fill="#8FC045"/>
<path d="M194.751 143.291H140.484V145.291H194.751V143.291Z" fill="#8FC045"/>
<path d="M194.751 134.891H140.484V136.891H194.751V134.891Z" fill="#8FC045"/>
<path d="M164.976 119.091C173.994 119.091 181.305 111.784 181.305 102.771C181.305 93.7574 173.994 86.4507 164.976 86.4507C155.959 86.4507 148.648 93.7574 148.648 102.771C148.648 111.784 155.959 119.091 164.976 119.091Z" fill="#262F39"/>
<path d="M204.25 186.971H125.703C124.731 186.97 123.798 186.583 123.111 185.896C122.423 185.208 122.036 184.276 122.035 183.304V74.0774C122.036 73.1053 122.423 72.1733 123.111 71.4859C123.798 70.7985 124.731 70.4119 125.703 70.4108H204.25C205.222 70.4119 206.155 70.7985 206.842 71.4859C207.53 72.1733 207.917 73.1053 207.918 74.0774V183.304C207.917 184.276 207.53 185.208 206.842 185.896C206.155 186.583 205.222 186.97 204.25 186.971ZM125.703 72.4108C125.261 72.4113 124.838 72.587 124.525 72.8995C124.212 73.2119 124.036 73.6356 124.036 74.0774V183.304C124.036 183.746 124.212 184.17 124.525 184.482C124.838 184.795 125.261 184.97 125.703 184.971H204.25C204.692 184.97 205.115 184.795 205.428 184.482C205.741 184.17 205.917 183.746 205.917 183.304V74.0774C205.917 73.6356 205.741 73.2119 205.428 72.8995C205.115 72.587 204.692 72.4113 204.25 72.4108H125.703Z" fill="#8FC045"/>
<path d="M134.295 166.951H130.226C129.784 166.95 129.36 166.775 129.047 166.462C128.735 166.15 128.559 165.726 128.558 165.284V161.218C128.559 160.776 128.735 160.352 129.047 160.04C129.36 159.727 129.784 159.552 130.226 159.551H134.295C134.737 159.552 135.161 159.727 135.473 160.04C135.786 160.352 135.962 160.776 135.962 161.218V165.284C135.962 165.726 135.786 166.15 135.473 166.462C135.161 166.775 134.737 166.95 134.295 166.951ZM130.559 164.951H133.961V161.551H130.559V164.951ZM134.295 139.591H130.226C129.784 139.59 129.36 139.414 129.047 139.102C128.735 138.79 128.559 138.366 128.558 137.924V133.858C128.559 133.416 128.735 132.992 129.047 132.68C129.36 132.367 129.784 132.192 130.226 132.191H134.295C134.737 132.192 135.161 132.367 135.473 132.68C135.786 132.992 135.962 133.416 135.962 133.858V137.924C135.962 138.366 135.786 138.79 135.473 139.102C135.161 139.414 134.737 139.59 134.295 139.591ZM130.559 137.591H133.961V134.191H130.559V137.591Z" fill="#8FC045"/>
<path d="M338.196 335.06H286.33V346.036H338.196V335.06Z" fill="#262F39"/>
<path d="M350.202 351.524H274.324V343.881C274.324 342.997 274.675 342.149 275.3 341.524C275.926 340.899 276.774 340.548 277.659 340.548H346.867C347.751 340.548 348.599 340.899 349.225 341.524C349.85 342.149 350.202 342.997 350.202 343.881V351.524Z" fill="#8FC045"/>
<path d="M307 131.008C322.603 131.008 335.252 118.366 335.252 102.771C335.252 87.1756 322.603 74.5333 307 74.5333C291.397 74.5333 278.749 87.1756 278.749 102.771C278.749 118.366 291.397 131.008 307 131.008Z" fill="white"/>
<path d="M310.098 121.319C310.098 123.211 308.486 124.201 306.894 124.201C305.301 124.201 303.69 123.211 303.69 121.319C303.69 121.246 303.704 121.174 303.732 121.107C303.76 121.039 303.801 120.978 303.852 120.926C303.904 120.875 303.965 120.834 304.033 120.806C304.1 120.778 304.173 120.764 304.246 120.764H309.542C309.615 120.764 309.687 120.778 309.754 120.806C309.822 120.834 309.883 120.875 309.935 120.926C309.986 120.978 310.027 121.039 310.055 121.107C310.083 121.174 310.098 121.246 310.098 121.319Z" fill="#A8BB8C"/>
<path d="M312.717 114.839V118.778C312.717 119.575 312.4 120.339 311.836 120.902C311.272 121.466 310.508 121.782 309.711 121.783H304.077C303.28 121.782 302.515 121.466 301.951 120.902C301.388 120.339 301.071 119.575 301.07 118.778V114.839C301.07 114.756 301.087 114.672 301.119 114.595C301.151 114.517 301.198 114.447 301.258 114.388C301.317 114.328 301.388 114.281 301.465 114.249C301.543 114.217 301.626 114.2 301.71 114.2H312.078C312.161 114.2 312.245 114.217 312.322 114.249C312.4 114.281 312.47 114.328 312.53 114.388C312.589 114.447 312.636 114.517 312.668 114.595C312.7 114.672 312.717 114.756 312.717 114.839Z" fill="#8FC045"/>
<path d="M318.388 100.804C318.397 103.806 317.222 106.691 315.117 108.832C314.428 109.87 314.033 111.075 313.974 112.32C313.974 114.859 312.347 115.424 312.277 115.446C312.213 115.468 312.145 115.479 312.078 115.479H301.88C301.789 115.479 301.699 115.459 301.616 115.421C301.245 115.251 300.035 114.533 300.035 112.342V112.199C300.035 110.921 300.035 110.325 299.234 109.375C297.803 108.098 296.713 106.484 296.066 104.679C295.419 102.873 295.234 100.935 295.528 99.0398C295.822 97.1448 296.585 95.3534 297.749 93.8289C298.913 92.3044 300.441 91.0953 302.192 90.3117C303.943 89.5281 305.862 89.1949 307.775 89.3425C309.688 89.4902 311.534 90.1139 313.144 91.1569C314.754 92.1999 316.077 93.629 316.993 95.314C317.909 96.999 318.389 98.8863 318.388 100.804V100.804ZM325.597 101.316H320.658C320.488 101.316 320.326 101.249 320.206 101.129C320.086 101.009 320.019 100.847 320.019 100.677C320.019 100.508 320.086 100.345 320.206 100.225C320.326 100.105 320.488 100.038 320.658 100.038H325.597C325.767 100.038 325.929 100.105 326.049 100.225C326.169 100.345 326.237 100.508 326.237 100.677C326.237 100.847 326.169 101.009 326.049 101.129C325.929 101.249 325.767 101.316 325.597 101.316ZM316.27 91.3837C316.144 91.3835 316.021 91.3459 315.916 91.2756C315.811 91.2054 315.729 91.1056 315.68 90.9889C315.632 90.8722 315.619 90.7438 315.644 90.6199C315.669 90.4961 315.729 90.3822 315.819 90.2928L319.374 86.7394C319.433 86.6798 319.504 86.6325 319.581 86.6002C319.659 86.5679 319.742 86.5512 319.826 86.5511C319.911 86.551 319.994 86.5675 320.072 86.5996C320.149 86.6317 320.22 86.6789 320.279 86.7383C320.339 86.7978 320.386 86.8684 320.418 86.9461C320.45 87.0238 320.467 87.107 320.467 87.1911C320.467 87.2752 320.45 87.3584 320.418 87.436C320.385 87.5136 320.338 87.5841 320.278 87.6434L316.72 91.1958C316.601 91.3154 316.439 91.3829 316.27 91.3837ZM293.342 101.316H288.403C288.234 101.316 288.071 101.249 287.951 101.129C287.831 101.009 287.764 100.847 287.764 100.677C287.764 100.508 287.831 100.345 287.951 100.225C288.071 100.105 288.234 100.038 288.403 100.038H293.342C293.512 100.038 293.675 100.105 293.795 100.225C293.915 100.345 293.982 100.508 293.982 100.677C293.982 100.847 293.915 101.009 293.795 101.129C293.675 101.249 293.512 101.316 293.342 101.316ZM297.73 91.3837C297.646 91.3836 297.563 91.367 297.485 91.3348C297.408 91.3026 297.337 91.2554 297.278 91.1958L293.723 87.6424C293.663 87.5831 293.616 87.5126 293.584 87.435C293.551 87.3574 293.535 87.2741 293.534 87.1901C293.534 87.106 293.551 87.0227 293.583 86.945C293.615 86.8673 293.662 86.7967 293.722 86.7373C293.781 86.6779 293.852 86.6307 293.93 86.5986C294.007 86.5665 294.091 86.55 294.175 86.5501C294.259 86.5502 294.342 86.5668 294.42 86.5991C294.497 86.6315 294.568 86.6788 294.627 86.7383L298.183 90.2918C298.272 90.3811 298.333 90.495 298.357 90.6189C298.382 90.7428 298.37 90.8712 298.321 90.988C298.273 91.1047 298.191 91.2045 298.086 91.2747C297.981 91.345 297.857 91.3825 297.731 91.3826L297.73 91.3837ZM307.11 87.5555C306.941 87.5555 306.778 87.4881 306.658 87.3683C306.538 87.2484 306.471 87.0859 306.471 86.9164V81.9798C306.471 81.8959 306.487 81.8128 306.519 81.7352C306.552 81.6577 306.599 81.5872 306.658 81.5279C306.717 81.4685 306.788 81.4215 306.865 81.3893C306.943 81.3572 307.026 81.3407 307.11 81.3407C307.194 81.3407 307.277 81.3572 307.355 81.3893C307.432 81.4215 307.503 81.4685 307.562 81.5279C307.622 81.5872 307.669 81.6577 307.701 81.7352C307.733 81.8128 307.75 81.8959 307.75 81.9798V86.9164C307.75 87.0004 307.733 87.0835 307.701 87.161C307.669 87.2386 307.622 87.309 307.562 87.3684C307.503 87.4277 307.432 87.4748 307.355 87.5069C307.277 87.539 307.194 87.5556 307.11 87.5555Z" fill="#AADB61"/>
<path d="M315.89 101.269C315.834 101.269 315.779 101.258 315.727 101.237C315.675 101.215 315.628 101.184 315.589 101.145C315.549 101.105 315.518 101.058 315.496 101.006C315.475 100.955 315.464 100.899 315.464 100.843C315.461 98.6093 314.572 96.4677 312.992 94.8881C311.411 93.3085 309.269 92.4198 307.034 92.4171C306.921 92.4167 306.813 92.3716 306.733 92.2917C306.654 92.2118 306.609 92.1037 306.609 91.991C306.609 91.8783 306.654 91.7702 306.733 91.6903C306.813 91.6105 306.921 91.5654 307.034 91.5649C309.495 91.5677 311.854 92.5461 313.595 94.2855C315.335 96.0249 316.314 98.3833 316.317 100.843C316.317 100.899 316.305 100.955 316.284 101.006C316.263 101.058 316.231 101.105 316.192 101.145C316.152 101.184 316.105 101.215 316.053 101.237C316.002 101.258 315.946 101.269 315.89 101.269Z" fill="#C1E3C3"/>
<path d="M307 132.008C301.215 132.008 295.559 130.294 290.748 127.081C285.938 123.868 282.189 119.302 279.975 113.96C277.761 108.617 277.181 102.738 278.31 97.0669C279.439 91.3953 282.225 86.1857 286.316 82.0967C290.407 78.0078 295.619 75.2231 301.293 74.095C306.968 72.9669 312.849 73.5459 318.194 75.7588C323.54 77.9717 328.108 81.7192 331.322 86.5273C334.537 91.3354 336.252 96.9882 336.252 102.771C336.244 110.522 333.159 117.954 327.675 123.435C322.191 128.917 314.756 132 307 132.008ZM307 75.5332C301.61 75.5332 296.342 77.1307 291.86 80.1236C287.379 83.1165 283.886 87.3704 281.823 92.3475C279.761 97.3245 279.221 102.801 280.272 108.085C281.324 113.368 283.919 118.222 287.731 122.031C291.542 125.84 296.397 128.434 301.684 129.485C306.97 130.536 312.449 129.997 317.429 127.935C322.408 125.874 326.664 122.382 329.659 117.903C332.653 113.424 334.251 108.158 334.251 102.771C334.243 95.5495 331.369 88.6262 326.261 83.52C321.152 78.4137 314.225 75.5414 307 75.5332Z" fill="#8FC045"/>
</svg>
