<svg width="57" height="56" viewBox="0 0 57 56" fill="none" xmlns="http://www.w3.org/2000/svg">
<path d="M2.82899 29.0079C2.82899 17.5967 10.5765 7.82379 21.4714 5.14221L20.2309 7.0916L20.2308 7.09155L20.2271 7.09786C19.9884 7.49557 20.0546 8.02158 20.4954 8.28604L20.5046 8.29157L20.5142 8.29638L20.5183 8.29843C20.5728 8.32565 20.6364 8.35746 20.6943 8.38227C20.7243 8.39514 20.7579 8.4084 20.7921 8.4188C20.8228 8.42815 20.8716 8.4408 20.9266 8.4408C21.0686 8.4408 21.2173 8.39555 21.3405 8.3237C21.4528 8.25818 21.5745 8.15206 21.6376 7.99974L23.918 4.40813C24.0513 4.20729 24.161 3.94205 24.0637 3.65015C24.0075 3.48162 23.9239 3.26603 23.7072 3.15071L20.0413 0.859474L20.0413 0.859434L20.0369 0.856815C19.6392 0.618191 19.1132 0.68437 18.8487 1.12514L19.0873 1.26828L18.8487 1.12515C18.6108 1.52163 18.6759 2.04563 19.113 2.31088L20.9674 3.50299C9.34805 6.4033 1.12039 16.8112 1.12039 29.0079C1.12039 31.0384 1.35234 33.0111 1.81601 34.9831C1.90329 35.4078 2.25497 35.6626 2.66385 35.6626H2.77871H2.80644L2.83362 35.6572C3.06583 35.6107 3.25658 35.4548 3.36939 35.2702C3.4792 35.0905 3.53431 34.8505 3.45027 34.6148C3.05432 32.7423 2.82899 30.8736 2.82899 29.0079ZM49.465 41.9354L49.4535 41.9267L49.4411 41.9193C49.0443 41.6812 48.5199 41.7465 48.2548 42.1845C43.7117 49.3377 35.934 53.5951 27.4736 53.5951C19.723 53.5951 12.6116 50.0307 7.94001 43.9812L9.95235 44.4423L9.95232 44.4424L9.95998 44.444C10.1742 44.4868 10.3993 44.4436 10.5816 44.3424C10.7644 44.2408 10.9301 44.0648 10.9786 43.8223C11.0215 43.6081 10.9783 43.3829 10.877 43.2007C10.7761 43.0191 10.6018 42.8544 10.3617 42.8046L6.18445 41.8319C5.94343 41.7565 5.74797 41.827 5.6141 41.8753C5.59541 41.882 5.57791 41.8883 5.56167 41.8937L5.49896 41.9146L5.45222 41.9614L5.43706 41.9765C5.33408 42.0793 5.19089 42.2222 5.11262 42.3787L5.09785 42.4083L5.09036 42.4404L4.11405 46.6328L4.11391 46.6328L4.11219 46.6414C4.06935 46.8556 4.11253 47.0808 4.21377 47.263C4.31535 47.4459 4.49134 47.6116 4.73385 47.6601L4.76104 47.6655H4.78876H4.90362C5.3125 47.6655 5.66417 47.4107 5.75147 46.986L6.2996 44.6564C11.2547 51.3223 19.0311 55.3037 27.4162 55.3037C36.4627 55.3037 44.7564 50.7263 49.6334 43.0793C49.8037 42.8931 49.8444 42.6611 49.8007 42.4534C49.7569 42.2453 49.6298 42.0589 49.465 41.9354ZM53.4697 33.0464C53.6824 31.7223 53.7694 30.3632 53.7694 29.0079C53.7694 16.1217 44.5393 5.20825 31.8275 3.0606L31.8269 3.06049C31.3279 2.97732 30.9031 3.31127 30.8171 3.74121C30.7706 3.97408 30.8423 4.20671 30.9592 4.38216C31.0762 4.55762 31.2634 4.71327 31.4962 4.75985L31.4962 4.75998L31.5049 4.76144C43.3721 6.74877 52.0034 16.9688 52.0034 29.0653C52.0034 30.2275 51.9273 31.3893 51.7754 32.5192L50.6857 30.759C50.6853 30.7584 50.6849 30.7577 50.6845 30.7571C50.4197 30.3181 49.8947 30.2524 49.4975 30.4907C49.0568 30.7552 48.9906 31.2812 49.2292 31.6789L49.2302 31.6805L51.465 35.3479C51.5234 35.4574 51.6184 35.5438 51.7045 35.6012C51.7907 35.6587 51.9175 35.7201 52.0537 35.7201H52.1685C52.2679 35.7201 52.3576 35.6957 52.4105 35.6806C52.4243 35.6766 52.4345 35.6736 52.443 35.6712C52.4549 35.6676 52.4633 35.6652 52.473 35.6626H52.5343L52.6014 35.6217L56.2752 33.383C56.2756 33.3827 56.276 33.3825 56.2764 33.3822C56.6921 33.132 56.7737 32.6487 56.5799 32.2609C56.5688 32.1427 56.5318 32.0334 56.4668 31.94C56.3876 31.8265 56.2782 31.7529 56.1623 31.7143C55.9446 31.6417 55.6984 31.6884 55.5169 31.8181L53.4697 33.0464Z" fill="#243D8C" stroke="#243D8C" stroke-width="0.56"/>
<path d="M27.3004 9.3165C16.3489 9.3165 7.4368 18.2286 7.4368 29.1801C7.4368 40.1316 16.3489 49.0438 27.3004 49.0438C38.2519 49.0438 47.1641 40.1316 47.1641 29.1801C47.1641 18.2286 38.2519 9.3165 27.3004 9.3165ZM27.3004 47.3352C17.29 47.3352 9.1454 39.1906 9.1454 29.1801C9.1454 19.1697 17.29 11.0251 27.3004 11.0251C37.3109 11.0251 45.4555 19.1697 45.4555 29.1801C45.4555 39.1906 37.3109 47.3352 27.3004 47.3352Z" fill="#243D8C" stroke="#243D8C" stroke-width="0.56"/>
<path d="M29.6477 29.1801C29.6477 28.1491 28.9741 27.292 28.0971 26.9658V18.9576C28.0971 18.7217 28.0172 18.5033 27.8572 18.3432C27.6971 18.1832 27.4787 18.1033 27.2428 18.1033C27.0069 18.1033 26.7885 18.1832 26.6284 18.3432C26.4684 18.5033 26.3885 18.7217 26.3885 18.9576V27.0306C25.8771 27.2437 25.4688 27.655 25.2234 28.1536H19.3175C19.0815 28.1536 18.8632 28.2334 18.7031 28.3935C18.543 28.5536 18.4632 28.7719 18.4632 29.0079C18.4632 29.2438 18.543 29.4621 18.7031 29.6222C18.8632 29.7823 19.0815 29.8622 19.3175 29.8622H25.0816C25.4013 30.7877 26.2533 31.5276 27.3002 31.5276C28.6085 31.5276 29.6477 30.4209 29.6477 29.1801ZM27.3002 29.819C26.9491 29.819 26.6614 29.4963 26.6614 29.1801V29.084C26.7077 28.7659 26.9378 28.5413 27.3002 28.5413C27.6514 28.5413 27.9391 28.864 27.9391 29.1801C27.9391 29.4963 27.6514 29.819 27.3002 29.819Z" fill="#243D8C" stroke="#243D8C" stroke-width="0.56"/>
<path d="M38.5256 17.9557L38.4452 17.8737H38.4414C35.5299 15.0591 31.6459 13.3367 27.3585 13.3367C23.0719 13.3367 19.1295 15.0586 16.2707 17.8769C16.2586 17.8786 16.24 17.882 16.2191 17.8889C16.1988 17.8957 16.0998 17.9298 16.0502 18.0427C16.0384 18.0695 16.0316 18.0953 16.0284 18.1196C13.2263 20.9744 11.5149 24.85 11.5149 29.1802C11.5149 33.5242 13.2372 37.4106 16.0551 40.268C16.0568 40.2801 16.0602 40.2987 16.0672 40.3196C16.0739 40.3399 16.1081 40.4389 16.2209 40.4885C16.2486 40.5007 16.2753 40.5075 16.3003 40.5106C19.1539 43.255 23.0275 44.9663 27.301 44.9663C31.5876 44.9663 35.53 43.2444 38.3888 40.4262C38.4009 40.4245 38.4195 40.4211 38.4404 40.4141C38.4607 40.4073 38.5597 40.3732 38.6093 40.2604C38.6211 40.2336 38.6279 40.2077 38.6311 40.1835C41.4331 37.3287 43.1446 33.4531 43.1446 29.1228C43.1446 24.9712 41.5716 21.2915 38.9766 18.4337H39.0133L38.5256 17.9557ZM16.1124 18.3588C16.1128 18.3593 16.112 18.3585 16.1104 18.3568L16.1124 18.3588ZM16.1411 40.0303C16.1401 40.0313 16.1403 40.0311 16.1411 40.0303L16.1411 40.0303ZM38.1511 40.3402C38.1521 40.3412 38.1519 40.341 38.1511 40.3401L38.1511 40.3402ZM40.4525 30.0345H41.4238C41.2506 33.3008 39.9411 36.2126 37.9137 38.5355L37.2047 37.8265C36.8656 37.4874 36.3438 37.4874 36.0047 37.8265C35.6656 38.1655 35.6656 38.6874 36.0047 39.0265L36.6585 39.6803C34.3858 41.7047 31.4259 43.0149 28.1553 43.1881V42.2168C28.1553 41.9809 28.0755 41.7626 27.9154 41.6025C27.7553 41.4424 27.5369 41.3625 27.301 41.3625C27.0651 41.3625 26.8467 41.4424 26.6867 41.6025C26.5266 41.7626 26.4467 41.9809 26.4467 42.2168V43.2456C23.1804 43.0723 20.2687 41.7629 17.9458 39.7355L18.5974 39.0839C18.9364 38.7448 18.9364 38.223 18.5974 37.8839C18.2583 37.5448 17.7364 37.5448 17.3974 37.8839L16.7435 38.5378C14.7192 36.265 13.4089 33.3051 13.2357 30.0345H14.207C14.4429 30.0345 14.6613 29.9547 14.8213 29.7946C14.9814 29.6345 15.0613 29.4162 15.0613 29.1802C15.0613 28.9443 14.9814 28.726 14.8213 28.5659C14.6613 28.4058 14.4429 28.3259 14.207 28.3259H13.2357C13.4089 25.0597 14.7183 22.1479 16.7458 19.825L17.3974 20.4766C17.5682 20.6474 17.8132 20.7309 17.9974 20.7309C18.1815 20.7309 18.4266 20.6474 18.5974 20.4766C18.9364 20.1375 18.9364 19.6156 18.5974 19.2766L17.9435 18.6227C20.2162 16.5984 23.1762 15.2881 26.4467 15.1149V16.0862C26.4467 16.3221 26.5266 16.5405 26.6867 16.7005C26.8467 16.8606 27.0651 16.9405 27.301 16.9405C27.5369 16.9405 27.7553 16.8606 27.9154 16.7005C28.0755 16.5405 28.1553 16.3221 28.1553 16.0862V15.1149C31.4216 15.2881 34.3334 16.5976 36.6563 18.625L36.0047 19.2766C35.6656 19.6156 35.6656 20.1375 36.0047 20.4766C36.1755 20.6474 36.4206 20.7309 36.6047 20.7309C36.7888 20.7309 37.0339 20.6474 37.2047 20.4766L37.8585 19.8227C39.8829 22.0955 41.1931 25.0554 41.3664 28.3259H40.4525C40.2166 28.3259 39.9982 28.4058 39.8381 28.5659C39.6781 28.726 39.5982 28.9443 39.5982 29.1802C39.5982 29.4162 39.6781 29.6345 39.8381 29.7946C39.9982 29.9547 40.2166 30.0345 40.4525 30.0345Z" fill="#243D8C" stroke="#243D8C" stroke-width="0.56"/>
</svg>
