<svg width="32" height="32" viewBox="0 0 32 32" fill="none" xmlns="http://www.w3.org/2000/svg">
<circle cx="16" cy="16" r="16" fill="#34414F"/>
<path d="M18.8496 8.34961H13.1496C10.5246 8.34961 8.34961 10.5246 8.34961 13.1496V18.9246C8.34961 21.5496 10.5246 23.7246 13.1496 23.7246H18.9246C21.5496 23.7246 23.7246 21.5496 23.7246 18.9246V13.1496C23.6496 10.4496 21.5496 8.34961 18.8496 8.34961ZM22.2246 18.8496C22.2246 20.7246 20.7246 22.2246 18.8496 22.2246H13.1496C11.2746 22.2246 9.77461 20.7246 9.77461 18.8496V13.1496C9.77461 11.2746 11.2746 9.77461 13.1496 9.77461H18.9246C20.7996 9.77461 22.2996 11.2746 22.2996 13.1496V18.8496H22.2246Z" fill="white"/>
<path d="M15.9998 12.1758C13.8998 12.1758 12.1748 13.9008 12.1748 16.0008C12.1748 18.1008 13.8998 19.8258 15.9998 19.8258C18.0998 19.8258 19.8248 18.1008 19.8248 16.0008C19.8248 13.9008 18.0998 12.1758 15.9998 12.1758ZM15.9998 18.4008C14.6498 18.4008 13.5998 17.3508 13.5998 16.0008C13.5998 14.6508 14.6498 13.6008 15.9998 13.6008C17.3498 13.6008 18.3998 14.6508 18.3998 16.0008C18.3998 17.3508 17.3498 18.4008 15.9998 18.4008Z" fill="white"/>
<path d="M20.1246 12.3996C20.4146 12.3996 20.6496 12.1646 20.6496 11.8746C20.6496 11.5847 20.4146 11.3496 20.1246 11.3496C19.8347 11.3496 19.5996 11.5847 19.5996 11.8746C19.5996 12.1646 19.8347 12.3996 20.1246 12.3996Z" fill="white"/>
</svg>
