<svg width="50" height="50" viewBox="0 0 50 50" fill="none" xmlns="http://www.w3.org/2000/svg">
<path d="M47.8571 27.7844H41.4286V12.2899C41.4286 12.1973 41.41 12.1055 41.374 12.02C41.3379 11.9344 41.2851 11.8567 41.2186 11.7913L32.6486 3.34114C32.5822 3.27552 32.5034 3.22346 32.4166 3.18793C32.3299 3.1524 32.2368 3.1341 32.1429 3.13408H30V1.02119C30 0.834399 29.9247 0.655259 29.7908 0.523178C29.6568 0.391097 29.4752 0.316895 29.2857 0.316895H5.71429C5.52485 0.316895 5.34316 0.391097 5.20921 0.523178C5.07525 0.655259 5 0.834399 5 1.02119V27.7844H2.14286C0.961429 27.7844 0 28.7324 0 29.8973V46.0961C0 48.0379 1.60214 49.6176 3.57143 49.6176H46.4286C48.3979 49.6176 50 48.0379 50 46.0961V29.8973C50 28.7324 49.0386 27.7844 47.8571 27.7844ZM34.2857 27.7844C34.2471 27.7844 34.2143 27.7999 34.1764 27.8056C34.1286 27.8133 34.0814 27.8175 34.0364 27.8337C33.9914 27.8506 33.9536 27.8774 33.9136 27.902C33.8757 27.9253 33.8371 27.9443 33.8043 27.9746C33.7664 28.0098 33.74 28.0521 33.71 28.0943C33.69 28.1225 33.6629 28.1422 33.6464 28.1739L31.7014 32.0102H18.2986L16.3536 28.1739C16.3371 28.1422 16.31 28.1218 16.2893 28.0936C16.2607 28.0514 16.2336 28.0091 16.1964 27.9753C16.1629 27.945 16.1236 27.9253 16.0857 27.902C16.0457 27.8774 16.0086 27.8506 15.9643 27.8344C15.9186 27.8175 15.8714 27.8133 15.8229 27.8063C15.7857 27.7999 15.7529 27.7844 15.7143 27.7844H10V4.54267H31.4286V10.8813C31.4286 12.0462 32.39 12.9942 33.5714 12.9942H40V27.7844H34.2857ZM32.8571 5.53854L38.99 11.5856H33.5714C33.1779 11.5856 32.8571 11.2701 32.8571 10.8813V5.53854ZM6.42857 1.72549H28.5714V3.13408H9.28571C9.09627 3.13408 8.91459 3.20828 8.78064 3.34036C8.64668 3.47244 8.57143 3.65158 8.57143 3.83837V27.7844H6.42857V1.72549ZM48.5714 46.0961C48.5714 47.261 47.61 48.209 46.4286 48.209H3.57143C2.39 48.209 1.42857 47.261 1.42857 46.0961V29.8973C1.42857 29.5085 1.74929 29.193 2.14286 29.193H15.2729L17.0207 32.6405C17.1389 32.8752 17.3214 33.0725 17.5475 33.2101C17.7736 33.3476 18.0343 33.4199 18.3 33.4188H31.7021C31.9676 33.4197 32.228 33.3472 32.4538 33.2097C32.6797 33.0721 32.8619 32.875 32.98 32.6405L34.7271 29.193H47.8571C48.2507 29.193 48.5714 29.5085 48.5714 29.8973V46.0961Z" fill="#8FC045"/>
<path d="M12.8571 9.4728H27.1428C27.3322 9.4728 27.5139 9.3986 27.6479 9.26652C27.7818 9.13444 27.8571 8.9553 27.8571 8.7685C27.8571 8.58171 27.7818 8.40257 27.6479 8.27049C27.5139 8.13841 27.3322 8.06421 27.1428 8.06421H12.8571C12.6677 8.06421 12.486 8.13841 12.352 8.27049C12.2181 8.40257 12.1428 8.58171 12.1428 8.7685C12.1428 8.9553 12.2181 9.13444 12.352 9.26652C12.486 9.3986 12.6677 9.4728 12.8571 9.4728ZM12.8571 14.4029H29.2857C29.4751 14.4029 29.6568 14.3287 29.7907 14.1966C29.9247 14.0645 30 13.8854 30 13.6986C30 13.5118 29.9247 13.3326 29.7907 13.2006C29.6568 13.0685 29.4751 12.9943 29.2857 12.9943H12.8571C12.6677 12.9943 12.486 13.0685 12.352 13.2006C12.2181 13.3326 12.1428 13.5118 12.1428 13.6986C12.1428 13.8854 12.2181 14.0645 12.352 14.1966C12.486 14.3287 12.6677 14.4029 12.8571 14.4029ZM12.8571 19.3329H37.1428C37.3323 19.3329 37.5139 19.2587 37.6479 19.1267C37.7818 18.9946 37.8571 18.8154 37.8571 18.6286C37.8571 18.4419 37.7818 18.2627 37.6479 18.1306C37.5139 17.9986 37.3323 17.9243 37.1428 17.9243H12.8571C12.6677 17.9243 12.486 17.9986 12.352 18.1306C12.2181 18.2627 12.1428 18.4419 12.1428 18.6286C12.1428 18.8154 12.2181 18.9946 12.352 19.1267C12.486 19.2587 12.6677 19.3329 12.8571 19.3329ZM37.1428 22.8544H12.8571C12.6677 22.8544 12.486 22.9286 12.352 23.0607C12.2181 23.1928 12.1428 23.3719 12.1428 23.5587C12.1428 23.7455 12.2181 23.9246 12.352 24.0567C12.486 24.1888 12.6677 24.263 12.8571 24.263H37.1428C37.3323 24.263 37.5139 24.1888 37.6479 24.0567C37.7818 23.9246 37.8571 23.7455 37.8571 23.5587C37.8571 23.3719 37.7818 23.1928 37.6479 23.0607C37.5139 22.9286 37.3323 22.8544 37.1428 22.8544Z" fill="#8FC045"/>
<path d="M6.25284 36.43V42.3669H5.17736V36.43H6.25284ZM10.6439 38.0621C10.6169 37.8089 10.5029 37.6118 10.3019 37.4707C10.1028 37.3296 9.84384 37.2591 9.52496 37.2591C9.30078 37.2591 9.10849 37.2929 8.94808 37.3606C8.78768 37.4282 8.66496 37.52 8.57993 37.636C8.49489 37.7519 8.45141 37.8843 8.44948 38.0331C8.44948 38.1568 8.4775 38.2641 8.53354 38.3549C8.59152 38.4457 8.66979 38.523 8.76835 38.5868C8.86692 38.6486 8.97611 38.7008 9.09593 38.7433C9.21575 38.7859 9.33654 38.8216 9.45829 38.8506L10.0149 38.9897C10.2391 39.0419 10.4545 39.1125 10.6613 39.2014C10.87 39.2903 11.0565 39.4023 11.2208 39.5376C11.387 39.6729 11.5184 39.8362 11.6151 40.0275C11.7117 40.2189 11.76 40.443 11.76 40.7001C11.76 41.0479 11.6711 41.3543 11.4933 41.619C11.3155 41.8819 11.0585 42.0877 10.7222 42.2365C10.3879 42.3834 9.98299 42.4568 9.50757 42.4568C9.04568 42.4568 8.64467 42.3853 8.30453 42.2423C7.96633 42.0993 7.70156 41.8906 7.51024 41.6161C7.32084 41.3417 7.21841 41.0074 7.20295 40.6131H8.26105C8.27651 40.8199 8.34028 40.9919 8.45237 41.1291C8.56446 41.2663 8.71038 41.3688 8.89011 41.4364C9.07177 41.504 9.27469 41.5379 9.49887 41.5379C9.73272 41.5379 9.93757 41.5031 10.1134 41.4335C10.2912 41.362 10.4304 41.2634 10.5309 41.1378C10.6314 41.0103 10.6826 40.8615 10.6845 40.6914C10.6826 40.5368 10.6372 40.4092 10.5483 40.3087C10.4594 40.2063 10.3347 40.1213 10.1743 40.0536C10.0158 39.9841 9.83031 39.9222 9.61773 39.8681L8.94229 39.6942C8.45334 39.5686 8.06682 39.3782 7.78273 39.1231C7.50057 38.8661 7.35949 38.525 7.35949 38.0998C7.35949 37.75 7.45419 37.4437 7.64358 37.1808C7.83491 36.918 8.09485 36.7141 8.42339 36.5692C8.75193 36.4223 9.12395 36.3489 9.53946 36.3489C9.96076 36.3489 10.3299 36.4223 10.6468 36.5692C10.9657 36.7141 11.216 36.9161 11.3976 37.175C11.5793 37.4321 11.673 37.7278 11.6788 38.0621H10.6439ZM12.7188 42.3669V36.43H16.5801V37.3316H13.7943V38.9434H16.3801V39.8449H13.7943V41.4654H16.6033V42.3669H12.7188ZM17.6774 42.3669V36.43H21.5387V37.3316H18.7528V38.9434H21.3387V39.8449H18.7528V41.4654H21.5619V42.3669H17.6774ZM24.6028 42.3669V41.59L26.6639 39.5695C26.861 39.3705 27.0253 39.1936 27.1567 39.039C27.2881 38.8844 27.3867 38.7346 27.4524 38.5897C27.5181 38.4447 27.551 38.2901 27.551 38.1259C27.551 37.9384 27.5085 37.778 27.4234 37.6447C27.3384 37.5094 27.2215 37.405 27.0727 37.3316C26.9238 37.2581 26.7547 37.2214 26.5653 37.2214C26.3702 37.2214 26.1991 37.262 26.0522 37.3432C25.9054 37.4224 25.7913 37.5355 25.7102 37.6823C25.6309 37.8292 25.5913 38.0041 25.5913 38.207H24.568C24.568 37.8302 24.654 37.5026 24.826 37.2243C24.998 36.946 25.2348 36.7305 25.5362 36.5779C25.8397 36.4252 26.1875 36.3489 26.5798 36.3489C26.978 36.3489 27.3278 36.4233 27.6292 36.5721C27.9307 36.7209 28.1646 36.9248 28.3308 37.1837C28.4989 37.4427 28.583 37.7384 28.583 38.0708C28.583 38.293 28.5405 38.5114 28.4554 38.7259C28.3704 38.9405 28.2206 39.1782 28.0061 39.4391C27.7935 39.7 27.4949 40.0159 27.1103 40.387L26.087 41.4277V41.4683H28.6728V42.3669H24.6028ZM31.8674 42.48C31.3901 42.48 30.9804 42.3592 30.6383 42.1176C30.2981 41.8741 30.0363 41.5234 29.8527 41.0653C29.671 40.6054 29.5802 40.0517 29.5802 39.4043C29.5821 38.7569 29.6739 38.2061 29.8556 37.7519C30.0392 37.2958 30.301 36.948 30.6412 36.7083C30.9832 36.4687 31.392 36.3489 31.8674 36.3489C32.3428 36.3489 32.7516 36.4687 33.0936 36.7083C33.4357 36.948 33.6976 37.2958 33.8792 37.7519C34.0628 38.208 34.1546 38.7588 34.1546 39.4043C34.1546 40.0536 34.0628 40.6083 33.8792 41.0682C33.6976 41.5263 33.4357 41.8761 33.0936 42.1176C32.7535 42.3592 32.3448 42.48 31.8674 42.48ZM31.8674 41.5726C32.2385 41.5726 32.5313 41.39 32.7458 41.0248C32.9622 40.6576 33.0704 40.1174 33.0704 39.4043C33.0704 38.9327 33.0212 38.5365 32.9226 38.2157C32.824 37.8949 32.6849 37.6534 32.5052 37.491C32.3254 37.3267 32.1128 37.2446 31.8674 37.2446C31.4983 37.2446 31.2065 37.4282 30.9919 37.7954C30.7774 38.1607 30.6692 38.697 30.6673 39.4043C30.6653 39.8778 30.7127 40.2759 30.8093 40.5986C30.9079 40.9214 31.047 41.1649 31.2268 41.3291C31.4065 41.4915 31.62 41.5726 31.8674 41.5726ZM35.1178 42.3669V41.59L37.1789 39.5695C37.376 39.3705 37.5403 39.1936 37.6717 39.039C37.8031 38.8844 37.9017 38.7346 37.9674 38.5897C38.0331 38.4447 38.066 38.2901 38.066 38.1259C38.066 37.9384 38.0234 37.778 37.9384 37.6447C37.8534 37.5094 37.7364 37.405 37.5876 37.3316C37.4388 37.2581 37.2697 37.2214 37.0803 37.2214C36.8851 37.2214 36.7141 37.262 36.5672 37.3432C36.4204 37.4224 36.3063 37.5355 36.2252 37.6823C36.1459 37.8292 36.1063 38.0041 36.1063 38.207H35.083C35.083 37.8302 35.169 37.5026 35.341 37.2243C35.513 36.946 35.7497 36.7305 36.0512 36.5779C36.3546 36.4252 36.7025 36.3489 37.0948 36.3489C37.4929 36.3489 37.8427 36.4233 38.1442 36.5721C38.4457 36.7209 38.6796 36.9248 38.8458 37.1837C39.0139 37.4427 39.098 37.7384 39.098 38.0708C39.098 38.293 39.0554 38.5114 38.9704 38.7259C38.8854 38.9405 38.7356 39.1782 38.5211 39.4391C38.3085 39.7 38.0099 40.0159 37.6253 40.387L36.602 41.4277V41.4683H39.1878V42.3669H35.1178ZM40.1879 42.3669V41.59L42.249 39.5695C42.4462 39.3705 42.6104 39.1936 42.7419 39.039C42.8733 38.8844 42.9718 38.7346 43.0375 38.5897C43.1033 38.4447 43.1361 38.2901 43.1361 38.1259C43.1361 37.9384 43.0936 37.778 43.0086 37.6447C42.9235 37.5094 42.8066 37.405 42.6578 37.3316C42.509 37.2581 42.3399 37.2214 42.1505 37.2214C41.9553 37.2214 41.7843 37.262 41.6374 37.3432C41.4905 37.4224 41.3765 37.5355 41.2953 37.6823C41.2161 37.8292 41.1765 38.0041 41.1765 38.207H40.1532C40.1532 37.8302 40.2392 37.5026 40.4112 37.2243C40.5832 36.946 40.8199 36.7305 41.1214 36.5779C41.4248 36.4252 41.7727 36.3489 42.165 36.3489C42.5631 36.3489 42.9129 36.4233 43.2144 36.5721C43.5159 36.7209 43.7497 36.9248 43.9159 37.1837C44.084 37.4427 44.1681 37.7384 44.1681 38.0708C44.1681 38.293 44.1256 38.5114 44.0406 38.7259C43.9555 38.9405 43.8058 39.1782 43.5912 39.4391C43.3786 39.7 43.0801 40.0159 42.6955 40.387L41.6722 41.4277V41.4683H44.258V42.3669H40.1879Z" fill="#8FC045"/>
</svg>
