<svg width="32" height="32" viewBox="0 0 32 32" fill="none" xmlns="http://www.w3.org/2000/svg">
<circle cx="16" cy="16" r="16" fill="#34414F"/>
<path d="M11.3712 11.1043H11.351C11.1375 11.1185 10.9236 11.0857 10.7226 11.0078C10.5216 10.93 10.3379 10.8088 10.1829 10.6519C10.028 10.495 9.90512 10.3058 9.82208 10.096C9.73904 9.88631 9.69759 9.66059 9.70032 9.43301C9.70306 9.20544 9.74992 8.98092 9.83798 8.77351C9.92603 8.56609 10.0534 8.38026 10.2121 8.22764C10.3707 8.07502 10.5573 7.9589 10.7601 7.88655C10.9629 7.8142 11.1776 7.78718 11.3906 7.80718C11.6041 7.79131 11.8184 7.82253 12.02 7.89889C12.2216 7.97525 12.4062 8.0951 12.5623 8.25092C12.7183 8.40674 12.8424 8.59518 12.9269 8.80443C13.0113 9.01368 13.0541 9.23922 13.0528 9.46692C13.0514 9.69462 13.0059 9.91957 12.919 10.1277C12.8322 10.3358 12.7058 10.5225 12.548 10.6763C12.3901 10.83 12.2041 10.9474 12.0016 11.021C11.7991 11.0947 11.5845 11.123 11.3712 11.1043ZM9.9904 13.3236H12.7714V22.2008H9.9904V13.3236ZM20.0716 13.3236C19.603 13.325 19.1407 13.439 18.7193 13.6571C18.298 13.8753 17.9284 14.1919 17.6382 14.5834V13.3236H14.8572V22.2008H17.6382V18.1321C17.6382 17.7397 17.7847 17.3634 18.0454 17.0859C18.3062 16.8084 18.6599 16.6525 19.0287 16.6525C19.3975 16.6525 19.7511 16.8084 20.0119 17.0859C20.2727 17.3634 20.4192 17.7397 20.4192 18.1321V22.2008H23.2002V16.6525C23.2002 15.7697 22.8706 14.9229 22.2838 14.2986C21.6971 13.6743 20.9013 13.3236 20.0716 13.3236Z" fill="white"/>
</svg>
