<svg width="44" height="44" viewBox="0 0 44 44" fill="none" xmlns="http://www.w3.org/2000/svg">
<rect opacity="0.2" width="44" height="44" rx="8" fill="#8FC045"/>
<path fill-rule="evenodd" clip-rule="evenodd" d="M12.375 19.9049C12.3931 14.5891 16.7169 10.2946 22.0326 10.3126C27.3484 10.3307 31.6429 14.6545 31.6249 19.9703V20.0793C31.5595 23.5346 29.6301 26.7284 27.2648 29.2246C25.912 30.6293 24.4014 31.873 22.763 32.9307C22.3249 33.3096 21.675 33.3096 21.2369 32.9307C18.7944 31.3409 16.6507 29.3337 14.9039 27.0009C13.3469 24.9667 12.463 22.4977 12.375 19.9376V19.9049Z" stroke="#8FC045" stroke-width="1.5" stroke-linecap="round" stroke-linejoin="round"/>
<path opacity="0.4" d="M21.9998 23.1749C23.7035 23.1749 25.0846 21.7938 25.0846 20.0901C25.0846 18.3865 23.7035 17.0054 21.9998 17.0054C20.2961 17.0054 18.915 18.3865 18.915 20.0901C18.915 21.7938 20.2961 23.1749 21.9998 23.1749Z" stroke="#8FC045" stroke-width="1.5" stroke-linecap="round" stroke-linejoin="round"/>
</svg>
