<svg width="14" height="18" viewBox="0 0 14 18" fill="none" xmlns="http://www.w3.org/2000/svg">
<path d="M7.02435 0.664079C8.90768 0.672435 10.7077 1.42243 12.0243 2.7391C13.3493 4.0641 14.091 5.85577 14.0828 7.7141V7.75577C14.0327 10.2807 12.616 12.6057 10.8493 14.4224C9.84935 15.4474 8.74102 16.3557 7.53268 17.1224C7.20768 17.3974 6.73268 17.3974 6.40768 17.1224C4.61602 15.9557 3.03268 14.4891 1.74935 12.7807C0.624349 11.2974 -0.0173177 9.5141 -0.0839844 7.65577C-0.0673177 3.78077 3.11602 0.655768 7.02435 0.664079ZM7.02435 5.60577C5.78268 5.60577 4.78268 6.59743 4.78268 7.83077C4.78268 9.04827 5.76602 10.0308 6.99935 10.0474H7.02435C7.61602 10.0474 8.18268 9.82243 8.59935 9.4141C9.03268 8.9891 9.27513 8.42327 9.27513 7.83077C9.27513 6.59743 8.26602 5.60577 7.02435 5.60577Z" fill="white"/>
</svg>
