<svg width="92" height="64" viewBox="0 0 92 64" fill="none" xmlns="http://www.w3.org/2000/svg">
<g clip-path="url(#clip0_2621_25024)">
<path d="M12.3688 59.1469C12.3688 59.0425 12.3861 58.9555 12.4208 58.8684C12.4555 58.7814 12.5076 58.6944 12.5769 58.6248C12.6463 58.5552 12.7157 58.503 12.8198 58.4682C12.9066 58.4334 13.0107 58.416 13.1148 58.416C13.1668 58.416 13.2015 58.4334 13.2362 58.4682C13.2709 58.503 13.2883 58.5378 13.2883 58.59C13.2883 58.6422 13.2709 58.677 13.2362 58.7118C13.2015 58.7466 13.1668 58.764 13.1148 58.764C13.0107 58.764 12.9066 58.7988 12.8372 58.8859C12.7678 58.9555 12.7157 59.0599 12.7157 59.1643V59.2861H13.0974C13.1495 59.2861 13.1842 59.3035 13.2189 59.3383C13.2536 59.3731 13.2709 59.4079 13.2709 59.4601C13.2709 59.5123 13.2536 59.5471 13.2189 59.5819C13.1842 59.6167 13.1495 59.6341 13.0974 59.6341H12.7157V61.8441C12.7157 61.8963 12.6984 61.9311 12.6637 61.9659C12.629 62.0007 12.5943 62.0181 12.5423 62.0181C12.4902 62.0181 12.4555 62.0007 12.4208 61.9659C12.3861 61.9311 12.3688 61.8963 12.3688 61.8441V59.6341H12.1432C12.0912 59.6341 12.0565 59.6167 12.0218 59.5819C11.9871 59.5471 11.9697 59.5123 11.9697 59.4601C11.9697 59.4079 11.9871 59.3731 12.0218 59.3383C12.0565 59.3035 12.0912 59.2861 12.1432 59.2861H12.3688V59.1469Z" fill="#262F39"/>
<path d="M16.7062 61.4971C16.5847 61.6363 16.4286 61.7581 16.2551 61.8625C16.0816 61.9669 15.8908 62.0191 15.6999 62.0191C15.5091 62.0191 15.3356 61.9843 15.1794 61.9147C15.0233 61.8451 14.8672 61.7581 14.7457 61.6363C14.6243 61.5145 14.5202 61.3753 14.4508 61.2013C14.3814 61.0447 14.3467 60.8532 14.3467 60.6618C14.3467 60.4704 14.3814 60.2964 14.4508 60.1224C14.5202 59.9484 14.6069 59.8091 14.7284 59.6873C14.8498 59.5655 14.9886 59.4611 15.1621 59.3915C15.3356 59.3219 15.5091 59.2871 15.6999 59.2871C15.8734 59.2871 16.0469 59.3219 16.2204 59.3915C16.3939 59.4611 16.5327 59.5655 16.6541 59.6873C16.7756 59.8091 16.8797 59.9484 16.9491 60.1224C17.0185 60.279 17.0532 60.4704 17.0532 60.6444V61.8277C17.0532 61.8799 17.0358 61.9147 17.0011 61.9495C16.9664 61.9843 16.9317 62.0017 16.8797 62.0017C16.8276 62.0017 16.7929 61.9843 16.7582 61.9495C16.7235 61.9147 16.7062 61.8799 16.7062 61.8277V61.4971ZM16.7062 60.6444C16.7062 60.5052 16.6715 60.366 16.6194 60.2442C16.5674 60.1224 16.498 60.018 16.4112 59.9136C16.3245 59.8265 16.2204 59.7569 16.0816 59.7047C15.9602 59.6525 15.8214 59.6177 15.6826 59.6177C15.5438 59.6177 15.4223 59.6525 15.3009 59.7047C15.1794 59.7569 15.0753 59.8265 14.9886 59.9136C14.9019 60.0006 14.8325 60.105 14.7804 60.2442C14.7284 60.366 14.6937 60.5052 14.6937 60.6444C14.6937 60.7836 14.7284 60.9054 14.7804 61.0272C14.8325 61.1491 14.9019 61.2535 14.9886 61.3405C15.0753 61.4275 15.1794 61.4971 15.3009 61.5493C15.4223 61.6015 15.5438 61.6363 15.6826 61.6363C15.8214 61.6363 15.9428 61.6189 16.0643 61.5667C16.1857 61.5145 16.2898 61.4449 16.3765 61.3579C16.4633 61.2709 16.5327 61.1665 16.6021 61.0446C16.6715 60.9228 16.7062 60.7836 16.7062 60.6444Z" fill="#262F39"/>
<path d="M19.7944 59.2871C19.9506 59.2871 20.072 59.3045 20.1934 59.3567C20.3149 59.4089 20.419 59.4611 20.5057 59.5133C20.5925 59.5655 20.6619 59.6351 20.6966 59.6873C20.7486 59.7395 20.766 59.7917 20.766 59.8265C20.766 59.8614 20.7486 59.8962 20.7139 59.931C20.6792 59.9658 20.6445 59.9832 20.6098 59.9832C20.5578 59.9832 20.5231 59.9658 20.4884 59.931C20.4016 59.844 20.2802 59.7743 20.1761 59.7395C20.0547 59.6873 19.9332 59.6699 19.7944 59.6699C19.6556 59.6699 19.5342 59.7047 19.4127 59.7569C19.2913 59.8091 19.1872 59.8788 19.1004 59.9658C19.0137 60.0528 18.9443 60.1572 18.8923 60.2964C18.8402 60.4182 18.8055 60.5574 18.8055 60.6966C18.8055 60.8358 18.8402 60.9576 18.8923 61.0795C18.9443 61.2013 19.0137 61.3057 19.1004 61.3927C19.1872 61.4797 19.2913 61.5493 19.4127 61.6015C19.5342 61.6537 19.6556 61.6885 19.7944 61.6885C19.9332 61.6885 20.0547 61.6711 20.1761 61.6189C20.2975 61.5667 20.4016 61.4971 20.4884 61.4101C20.5231 61.3753 20.5578 61.3579 20.6098 61.3579C20.6619 61.3579 20.6966 61.3753 20.7313 61.4101C20.766 61.4449 20.7833 61.4797 20.7833 61.5319C20.7833 61.5667 20.766 61.6015 20.7139 61.6711C20.6792 61.7233 20.6098 61.7929 20.5231 61.8451C20.4363 61.8973 20.3322 61.9495 20.2108 61.9843C20.0894 62.0191 19.9506 62.0539 19.7771 62.0539C19.5862 62.0539 19.4127 62.0191 19.2566 61.9495C19.1004 61.8799 18.9443 61.7929 18.8229 61.6711C18.7014 61.5493 18.5973 61.4101 18.5279 61.2361C18.4585 61.0794 18.4238 60.888 18.4238 60.6966C18.4238 60.5052 18.4585 60.3312 18.5279 60.1746C18.5973 60.018 18.6841 59.8614 18.8055 59.7395C18.927 59.6177 19.0657 59.5133 19.2392 59.4437C19.4127 59.3393 19.5862 59.2871 19.7944 59.2871Z" fill="#262F39"/>
<path d="M22.1191 58.6422C22.1191 58.5726 22.1365 58.5204 22.1885 58.4856C22.2406 58.4334 22.2926 58.416 22.3447 58.416C22.4141 58.416 22.4661 58.4334 22.5008 58.4856C22.5529 58.5378 22.5702 58.59 22.5702 58.6422C22.5702 58.7118 22.5529 58.764 22.5008 58.7988C22.4488 58.851 22.3967 58.8684 22.3447 58.8684C22.2753 58.8684 22.2232 58.851 22.1885 58.7988C22.1365 58.7466 22.1191 58.6944 22.1191 58.6422ZM22.1712 59.4427C22.1712 59.3905 22.1885 59.3557 22.2232 59.3209C22.2579 59.2861 22.2926 59.2687 22.3447 59.2687C22.3967 59.2687 22.4314 59.2861 22.4661 59.3209C22.5008 59.3557 22.5182 59.3905 22.5182 59.4427V61.8267C22.5182 61.8789 22.5008 61.9137 22.4661 61.9485C22.4314 61.9833 22.3967 62.0007 22.3447 62.0007C22.2926 62.0007 22.2579 61.9833 22.2232 61.9485C22.1885 61.9137 22.1712 61.8789 22.1712 61.8267V59.4427Z" fill="#262F39"/>
<path d="M24.0449 58.5725C24.0449 58.5202 24.0623 58.4854 24.097 58.4506C24.1317 58.4158 24.1664 58.3984 24.2184 58.3984C24.2705 58.3984 24.3052 58.4158 24.3399 58.4506C24.3746 58.4854 24.3919 58.5202 24.3919 58.5725V61.8265C24.3919 61.8787 24.3746 61.9135 24.3399 61.9483C24.3052 61.9831 24.2705 62.0005 24.2184 62.0005C24.1664 62.0005 24.1317 61.9831 24.097 61.9483C24.0623 61.9135 24.0449 61.8787 24.0449 61.8265V58.5725Z" fill="#262F39"/>
<path d="M26.161 60.7987C26.1783 60.9205 26.213 61.0249 26.2824 61.1293C26.3345 61.2338 26.4212 61.3208 26.508 61.3904C26.5947 61.46 26.6988 61.5296 26.8029 61.5644C26.907 61.5992 27.0284 61.634 27.1499 61.634C27.2887 61.634 27.4101 61.6166 27.5316 61.5644C27.653 61.5122 27.7571 61.4426 27.8439 61.3556C27.8785 61.3208 27.9132 61.3034 27.9653 61.3034C28.0173 61.3034 28.052 61.3208 28.0867 61.3556C28.1214 61.3904 28.1388 61.4252 28.1388 61.4774C28.1388 61.5296 28.1214 61.5644 28.0867 61.5992C27.9653 61.7384 27.8265 61.8428 27.6704 61.895C27.5142 61.9472 27.3407 61.982 27.1325 61.982C26.9417 61.982 26.7682 61.9472 26.6121 61.8776C26.4559 61.808 26.2998 61.721 26.1783 61.5992C26.0569 61.4774 25.9528 61.3382 25.8834 61.1642C25.814 61.0075 25.7793 60.8161 25.7793 60.6247C25.7793 60.4333 25.814 60.2593 25.8834 60.1027C25.9528 59.9461 26.0395 59.7894 26.161 59.6676C26.2824 59.5458 26.4212 59.4414 26.5947 59.3718C26.7682 59.3022 26.9417 59.25 27.1325 59.25C27.306 59.25 27.4795 59.2848 27.6357 59.3544C27.7918 59.424 27.9479 59.5284 28.0694 59.6502C28.1908 59.772 28.2949 59.9113 28.3643 60.0853C28.4337 60.2419 28.4684 60.4159 28.4684 60.6073C28.4684 60.6595 28.4511 60.7117 28.4164 60.7291C28.3817 60.7639 28.347 60.7813 28.2949 60.7813H26.161V60.7987ZM28.1388 60.4507C28.1214 60.3289 28.0694 60.2245 28.0173 60.1201C27.9653 60.0157 27.8785 59.9287 27.7918 59.859C27.7051 59.7894 27.601 59.7198 27.4969 59.685C27.3928 59.6502 27.2713 59.6154 27.1499 59.6154C27.0284 59.6154 26.907 59.6328 26.8029 59.685C26.6988 59.7198 26.5947 59.7894 26.508 59.859C26.4212 59.9287 26.3518 60.0157 26.2824 60.1201C26.2304 60.2245 26.1783 60.3289 26.161 60.4507H28.1388Z" fill="#262F39"/>
<path d="M32.4071 60.7987C32.4244 60.9205 32.4591 61.0249 32.5285 61.1293C32.5806 61.2338 32.6673 61.3208 32.7541 61.3904C32.8408 61.46 32.9449 61.5296 33.049 61.5644C33.1531 61.5992 33.2745 61.634 33.396 61.634C33.5348 61.634 33.6562 61.6166 33.7777 61.5644C33.8991 61.5122 34.0032 61.4426 34.0899 61.3556C34.1246 61.3208 34.1593 61.3034 34.2114 61.3034C34.2634 61.3034 34.2981 61.3208 34.3328 61.3556C34.3675 61.3904 34.3849 61.4252 34.3849 61.4774C34.3849 61.5296 34.3675 61.5644 34.3328 61.5992C34.2114 61.7384 34.0726 61.8428 33.9165 61.895C33.7603 61.9472 33.5868 61.982 33.3786 61.982C33.1878 61.982 33.0143 61.9472 32.8582 61.8776C32.702 61.808 32.5459 61.721 32.4244 61.5992C32.303 61.4774 32.1989 61.3382 32.1295 61.1642C32.0601 61.0075 32.0254 60.8161 32.0254 60.6247C32.0254 60.4333 32.0601 60.2593 32.1295 60.1027C32.1989 59.9461 32.2856 59.7894 32.4071 59.6676C32.5285 59.5458 32.6673 59.4414 32.8408 59.3718C33.0143 59.3022 33.1878 59.25 33.3786 59.25C33.5521 59.25 33.7256 59.2848 33.8818 59.3544C34.0379 59.424 34.194 59.5284 34.3155 59.6502C34.4369 59.772 34.541 59.9113 34.6104 60.0853C34.6798 60.2419 34.7145 60.4159 34.7145 60.6073C34.7145 60.6595 34.6972 60.7117 34.6625 60.7291C34.6278 60.7639 34.5931 60.7813 34.541 60.7813H32.4071V60.7987ZM34.4022 60.4507C34.3849 60.3289 34.3328 60.2245 34.2808 60.1201C34.2287 60.0157 34.142 59.9287 34.0552 59.859C33.9685 59.7894 33.8644 59.7198 33.7603 59.685C33.6562 59.6502 33.5348 59.6154 33.4133 59.6154C33.2919 59.6154 33.1704 59.6328 33.0663 59.685C32.9622 59.7198 32.8582 59.7894 32.7714 59.859C32.6847 59.9287 32.6153 60.0157 32.5459 60.1201C32.4938 60.2245 32.4418 60.3289 32.4244 60.4507H34.4022Z" fill="#262F39"/>
<path d="M40.1098 59.372C40.1271 59.3372 40.1445 59.3198 40.1792 59.3024C40.2138 59.285 40.2485 59.2676 40.2659 59.2676C40.3179 59.2676 40.3526 59.285 40.3873 59.3198C40.422 59.3546 40.4394 59.3894 40.4394 59.4416C40.4394 59.459 40.4394 59.4938 40.422 59.5112C40.422 59.5112 40.4047 59.5634 40.3873 59.633C40.37 59.7026 40.3179 59.8244 40.2485 59.9984C40.1791 60.1724 40.0924 60.4161 39.971 60.7119C39.8495 61.0077 39.7107 61.3905 39.5372 61.8604C39.5199 61.8952 39.5025 61.93 39.4678 61.9648C39.4331 61.9996 39.3984 61.9996 39.3464 61.9996C39.2943 61.9996 39.2596 61.9822 39.2249 61.9474C39.1902 61.9126 39.1729 61.8778 39.1555 61.8604C38.9994 61.4253 38.8606 61.0599 38.7565 60.7641C38.6524 60.4683 38.5657 60.2247 38.4963 60.0506C38.4269 59.8766 38.3748 59.7374 38.3575 59.6504C38.3228 59.5634 38.3054 59.5286 38.3054 59.5286C38.2881 59.5112 38.2881 59.4764 38.2881 59.4416C38.2881 59.3894 38.3054 59.3546 38.3228 59.3198C38.3575 59.285 38.3922 59.2676 38.4442 59.2676C38.4789 59.2676 38.5136 59.285 38.5483 59.3024C38.583 59.3198 38.6004 59.3372 38.6177 59.372L39.3464 61.3731L40.1098 59.372Z" fill="#262F39"/>
<path d="M41.8973 60.7987C41.9147 60.9205 41.9494 61.0249 42.0188 61.1293C42.0708 61.2338 42.1575 61.3208 42.2443 61.3904C42.331 61.46 42.4351 61.5296 42.5392 61.5644C42.6433 61.5992 42.7648 61.634 42.8862 61.634C43.025 61.634 43.1465 61.6166 43.2679 61.5644C43.3893 61.5122 43.4934 61.4426 43.5802 61.3556C43.6149 61.3208 43.6496 61.3034 43.7016 61.3034C43.7537 61.3034 43.7884 61.3208 43.8231 61.3556C43.8578 61.3904 43.8751 61.4252 43.8751 61.4774C43.8751 61.5296 43.8578 61.5644 43.8231 61.5992C43.7016 61.7384 43.5628 61.8428 43.4067 61.895C43.2505 61.9472 43.0771 61.982 42.8689 61.982C42.678 61.982 42.5045 61.9472 42.3484 61.8776C42.1922 61.808 42.0361 61.721 41.9147 61.5992C41.7932 61.4774 41.6891 61.3382 41.6197 61.1642C41.5503 61.0075 41.5156 60.8161 41.5156 60.6247C41.5156 60.4333 41.5503 60.2593 41.6197 60.1027C41.6891 59.9461 41.7759 59.7894 41.8973 59.6676C42.0188 59.5458 42.1575 59.4414 42.331 59.3718C42.5045 59.3022 42.678 59.25 42.8689 59.25C43.0424 59.25 43.2158 59.2848 43.372 59.3544C43.5281 59.424 43.6843 59.5284 43.8057 59.6502C43.9272 59.772 44.0313 59.9113 44.1007 60.0853C44.1701 60.2419 44.2048 60.4159 44.2048 60.6073C44.2048 60.6595 44.1874 60.7117 44.1527 60.7291C44.118 60.7639 44.0833 60.7813 44.0313 60.7813H41.8973V60.7987ZM43.8751 60.4507C43.8578 60.3289 43.8057 60.2245 43.7537 60.1201C43.7016 60.0157 43.6149 59.9287 43.5281 59.859C43.4414 59.7894 43.3373 59.7198 43.2332 59.685C43.1291 59.6502 43.0077 59.6154 42.8862 59.6154C42.7648 59.6154 42.6433 59.6328 42.5392 59.685C42.4351 59.7198 42.331 59.7894 42.2443 59.859C42.1575 59.9287 42.0881 60.0157 42.0188 60.1201C41.9667 60.2245 41.9147 60.3289 41.8973 60.4507H43.8751Z" fill="#262F39"/>
<path d="M45.6445 58.5725C45.6445 58.5202 45.6619 58.4854 45.6966 58.4506C45.7313 58.4158 45.766 58.3984 45.818 58.3984C45.8701 58.3984 45.9048 58.4158 45.9395 58.4506C45.9742 58.4854 45.9915 58.5202 45.9915 58.5725V61.8265C45.9915 61.8787 45.9742 61.9135 45.9395 61.9483C45.9048 61.9831 45.8701 62.0005 45.818 62.0005C45.766 62.0005 45.7313 61.9831 45.6966 61.9483C45.6619 61.9135 45.6445 61.8787 45.6445 61.8265V58.5725Z" fill="#262F39"/>
<path d="M48.7671 59.2676C48.9406 59.2676 49.1141 59.3024 49.2875 59.372C49.4437 59.4416 49.5998 59.546 49.7213 59.6678C49.8427 59.7896 49.9468 59.9288 50.0162 60.1028C50.0856 60.2595 50.1203 60.4509 50.1203 60.6249C50.1203 60.8163 50.0856 60.9903 50.0162 61.1469C49.9468 61.3035 49.8427 61.4602 49.7213 61.582C49.5998 61.7038 49.461 61.8082 49.2875 61.8778C49.1314 61.9474 48.9406 61.9822 48.7497 61.9822C48.5589 61.9822 48.3854 61.9474 48.2292 61.8778C48.0731 61.8082 47.917 61.7212 47.7955 61.5994C47.6741 61.4776 47.57 61.3383 47.5006 61.1643C47.4312 61.0077 47.3965 60.8163 47.3965 60.6249C47.3965 60.4335 47.4312 60.2595 47.5006 60.1028C47.57 59.9462 47.6567 59.7896 47.7782 59.6678C47.8996 59.546 48.0384 59.4416 48.2119 59.372C48.3854 59.3198 48.5762 59.285 48.7671 59.2676ZM48.7497 59.633C48.6109 59.633 48.4895 59.6678 48.368 59.72C48.2466 59.7722 48.1425 59.8418 48.0558 59.9288C47.969 60.0158 47.8996 60.1202 47.8476 60.2595C47.7955 60.3813 47.7608 60.5205 47.7608 60.6597C47.7608 60.7989 47.7955 60.9207 47.8476 61.0425C47.8996 61.1643 47.969 61.2687 48.0558 61.3557C48.1425 61.4428 48.2466 61.5124 48.368 61.5646C48.4895 61.6168 48.6109 61.6516 48.7497 61.6516C48.8885 61.6516 49.0273 61.6168 49.1488 61.5646C49.2702 61.5124 49.3743 61.4428 49.4784 61.3557C49.5651 61.2687 49.6345 61.1643 49.6866 61.0425C49.7386 60.9207 49.7733 60.7989 49.7733 60.6597C49.7733 60.5205 49.7386 60.3813 49.6866 60.2595C49.6345 60.1376 49.5651 60.0332 49.4784 59.9288C49.3916 59.8418 49.2875 59.7722 49.1488 59.72C49.0273 59.6504 48.8885 59.633 48.7497 59.633Z" fill="#262F39"/>
<path d="M52.7925 59.2871C52.9486 59.2871 53.07 59.3045 53.1915 59.3567C53.3129 59.4089 53.417 59.4611 53.5038 59.5133C53.5905 59.5655 53.6599 59.6351 53.6946 59.6873C53.7467 59.7395 53.764 59.7917 53.764 59.8265C53.764 59.8614 53.7467 59.8962 53.712 59.931C53.6773 59.9658 53.6426 59.9832 53.6079 59.9832C53.5558 59.9832 53.5211 59.9658 53.4864 59.931C53.3997 59.844 53.2782 59.7743 53.1741 59.7395C53.0527 59.6873 52.9313 59.6699 52.7925 59.6699C52.6537 59.6699 52.5322 59.7047 52.4108 59.7569C52.2893 59.8091 52.1852 59.8788 52.0985 59.9658C52.0117 60.0528 51.9423 60.1572 51.8903 60.2964C51.8383 60.4182 51.8036 60.5574 51.8036 60.6966C51.8036 60.8358 51.8383 60.9576 51.8903 61.0795C51.9423 61.2013 52.0117 61.3057 52.0985 61.3927C52.1852 61.4797 52.2893 61.5493 52.4108 61.6015C52.5322 61.6537 52.6537 61.6885 52.7925 61.6885C52.9313 61.6885 53.0527 61.6711 53.1741 61.6189C53.2956 61.5667 53.3997 61.4971 53.4864 61.4101C53.5211 61.3753 53.5558 61.3579 53.6079 61.3579C53.6599 61.3579 53.6946 61.3753 53.7293 61.4101C53.764 61.4449 53.7814 61.4797 53.7814 61.5319C53.7814 61.5667 53.764 61.6015 53.712 61.6711C53.6773 61.7233 53.6079 61.7929 53.5211 61.8451C53.4344 61.8973 53.3303 61.9495 53.2088 61.9843C53.0874 62.0191 52.9486 62.0539 52.7751 62.0539C52.5843 62.0539 52.4108 62.0191 52.2546 61.9495C52.0985 61.8799 51.9423 61.7929 51.8209 61.6711C51.6995 61.5493 51.5954 61.4101 51.526 61.2361C51.4566 61.0794 51.4219 60.888 51.4219 60.6966C51.4219 60.5052 51.4566 60.3312 51.526 60.1746C51.5954 60.018 51.6821 59.8614 51.8036 59.7395C51.925 59.6177 52.0638 59.5133 52.2373 59.4437C52.4108 59.3393 52.5843 59.2871 52.7925 59.2871Z" fill="#262F39"/>
<path d="M55.4471 60.7987C55.4645 60.9205 55.4992 61.0249 55.5686 61.1293C55.6206 61.2338 55.7073 61.3208 55.7941 61.3904C55.8808 61.46 55.9849 61.5296 56.089 61.5644C56.1931 61.5992 56.3146 61.634 56.436 61.634C56.5748 61.634 56.6963 61.6166 56.8177 61.5644C56.9391 61.5122 57.0432 61.4426 57.13 61.3556C57.1647 61.3208 57.1994 61.3034 57.2514 61.3034C57.3035 61.3034 57.3382 61.3208 57.3729 61.3556C57.4076 61.3904 57.4249 61.4252 57.4249 61.4774C57.4249 61.5296 57.4076 61.5644 57.3729 61.5992C57.2514 61.7384 57.1126 61.8428 56.9565 61.895C56.8003 61.9472 56.6269 61.982 56.4187 61.982C56.2278 61.982 56.0543 61.9472 55.8982 61.8776C55.742 61.808 55.5859 61.721 55.4645 61.5992C55.343 61.4774 55.2389 61.3382 55.1695 61.1642C55.1001 61.0075 55.0654 60.8161 55.0654 60.6247C55.0654 60.4333 55.1001 60.2593 55.1695 60.1027C55.2389 59.9461 55.3257 59.7894 55.4471 59.6676C55.5686 59.5458 55.7073 59.4414 55.8808 59.3718C56.0543 59.3022 56.2278 59.25 56.4187 59.25C56.5922 59.25 56.7656 59.2848 56.9218 59.3544C57.0779 59.424 57.2341 59.5284 57.3555 59.6502C57.477 59.772 57.5811 59.9113 57.6505 60.0853C57.7199 60.2419 57.7546 60.4159 57.7546 60.6073C57.7546 60.6595 57.7372 60.7117 57.7025 60.7291C57.6678 60.7639 57.6331 60.7813 57.5811 60.7813H55.4471V60.7987ZM57.4423 60.4507C57.4249 60.3289 57.3729 60.2245 57.3208 60.1201C57.2688 60.0157 57.182 59.9287 57.0953 59.859C57.0085 59.7894 56.9044 59.7198 56.8004 59.685C56.6963 59.6502 56.5748 59.6154 56.4534 59.6154C56.3319 59.6154 56.2105 59.6328 56.1064 59.685C56.0023 59.7198 55.8982 59.7894 55.8114 59.859C55.7247 59.9287 55.6553 60.0157 55.5859 60.1201C55.5339 60.2245 55.4818 60.3289 55.4645 60.4507H57.4423Z" fill="#262F39"/>
<path d="M89 17.1218C88.9653 16.9478 88.7397 16.7216 88.5662 16.6868C88.2366 16.6172 87.8723 16.6346 87.5253 16.6346C82.9104 16.6346 78.3129 16.6346 73.698 16.6346H72.3274C72.5009 16.2517 72.5703 15.9907 72.7091 15.7819C73.8368 13.9374 74.9818 12.0754 76.1269 10.2309C76.3871 9.81322 76.9249 9.4652 76.682 8.90835C76.3871 8.2645 75.7278 8.52552 75.2247 8.52552C71.7722 8.50812 68.3371 8.52552 64.8846 8.50812C64.4682 8.50812 64.0692 8.47332 63.6007 8.43851C63.5834 7.96868 63.5487 7.63805 63.5487 7.29002C63.5487 6.05452 63.5487 4.80162 63.5487 3.56612C63.5487 2.0174 63.5487 2.0174 62.0046 2.0174C51.1961 2 41.3417 2 30.5332 2C28.9197 2 28.9197 2 28.9197 3.60093C28.9197 7.0638 28.9197 4.94083 28.9023 7.0638H30.0821C30.0821 6.10673 30.03 4.471 30.2382 3.3051C30.4117 3.2703 30.5158 3.2181 30.6373 3.2181C41.255 3.2181 50.9011 3.2181 61.5188 3.2181C61.7097 3.2181 61.9005 3.2355 62.0914 3.2529C62.1261 3.2529 62.1608 3.2877 62.1781 3.32251C62.2128 3.33991 62.2302 3.37471 62.3343 3.46172C62.3343 3.86195 62.3343 4.31438 62.3343 4.78422C62.3343 19.2796 62.3343 45.3643 62.3343 59.8596C62.3343 60.2424 62.3169 60.6427 62.3343 61.0255C62.3689 61.7564 62.5424 61.913 63.2364 61.913C63.9477 61.913 64.1386 61.739 64.1386 60.9037C64.1559 58.4501 64.4855 42.0406 65.0754 39.6566C66.8277 32.4698 70.5751 28.9373 76.231 24.2042C79.7008 21.2981 83.6391 19.2796 87.959 17.9919C88.2193 17.9223 88.4968 17.8527 88.705 17.6961C88.8959 17.5742 89.0347 17.2958 89 17.1218ZM63.5834 38.1949V9.86543C64.659 9.63921 73.8541 9.63921 74.8951 9.86543C73.0214 12.7019 71.3385 15.6079 69.8638 18.6531C68.3718 21.7332 67.0706 24.8828 66.1337 28.1717C65.1969 31.3909 64.4682 34.6798 63.5834 38.1949ZM65.4571 36.7158C65.2489 33.7053 69.2913 21.5592 71.7375 17.8179C75.7799 17.8353 79.8916 17.8005 84.0381 17.9571C75.4502 21.7854 69.2739 27.9977 65.4571 36.7158Z" fill="#262F39"/>
<path d="M23.6629 24.9867H21.3555V9.83008H24.6692L26.8205 20.6885L28.8677 9.83008H32.0426V24.9693H29.7351V15.4681L27.74 24.9867H25.901L23.6629 15.5029V24.9867Z" fill="#262F39"/>
<path d="M36.5363 21.5066L35.9811 24.9869H33.5869L36.1893 9.84766H39.3642L41.9319 24.9869H39.5203L38.9825 21.5066H36.5363ZM37.7334 13.3105L36.8833 19.2792H38.6008L37.7334 13.3105Z" fill="#262F39"/>
<path d="M47.0672 9.83008C48.351 9.83008 49.3052 10.1781 49.8951 10.8916C50.4329 11.5006 50.6931 12.3533 50.6931 13.4496V15.6421C50.6931 16.721 50.2768 17.6259 49.4613 18.3568L51.1789 24.9693H48.6806L47.2754 19.2442C47.206 19.2442 47.1366 19.2442 47.0672 19.2442H45.7486V24.9519H43.4238V9.83008H47.0672ZM48.4377 13.4844C48.4377 12.5969 48.004 12.1619 47.1192 12.1619H45.7313V16.9995H47.1192C47.4835 16.9995 47.7958 16.8776 48.0561 16.6166C48.3163 16.3556 48.4377 16.0424 48.4377 15.6943V13.4844Z" fill="#262F39"/>
<path d="M54.4052 12.1271H51.959V9.83008H59.1589V12.1097H56.7127V24.9693H54.4052V12.1271Z" fill="#262F39"/>
<path d="M16.9307 56.6243C14.8835 56.6243 13.166 55.9456 11.7433 54.5709C10.3207 53.1962 9.60938 51.5431 9.60938 49.5941V33.4282C9.60938 31.4793 10.3207 29.8088 11.7607 28.434C13.1833 27.0593 14.9009 26.3633 16.9307 26.3633C18.9606 26.3633 20.6955 27.0593 22.1181 28.434C23.5408 29.8088 24.2348 31.4793 24.2348 33.4108V36.7693H19.4464V33.3238C19.4464 32.6104 19.1861 32.0013 18.6657 31.4967C18.1452 30.9921 17.5206 30.7484 16.7746 30.7484C16.0459 30.7484 15.4214 30.9921 14.9182 31.4967C14.3978 32.0013 14.1375 32.6104 14.1375 33.3238V49.5245C14.1375 50.238 14.3978 50.847 14.9182 51.3343C15.4387 51.8389 16.0633 52.0825 16.7746 52.0825C17.5206 52.0825 18.1452 51.8389 18.6657 51.3343C19.1861 50.8296 19.4464 50.238 19.4464 49.5245V45.47H24.2348V49.5767C24.2348 51.5431 23.5234 53.1962 22.0835 54.5709C20.6435 55.9456 18.9259 56.6243 16.9307 56.6243Z" fill="#8FC045"/>
<path d="M31.9383 49.4704L30.8106 56.2569H26.0049L31.1923 26.7441H37.5595L42.6775 56.2569H37.837L36.744 49.4704H31.9383ZM34.3672 33.4959L32.6496 45.1374H36.0848L34.3672 33.4959Z" fill="#8FC045"/>
<path d="M50.3454 56.2569H45.7305V26.7441H59.1414V31.1989H50.3454V39.2905H56.5737V43.7453H50.3454V56.2569Z" fill="#8FC045"/>
<path d="M8.25658 21.994C8.34333 21.82 8.41272 21.6807 8.48212 21.5589C8.9332 20.6889 9.45367 19.8536 10.0262 19.0531C10.859 17.9046 11.7611 16.8084 12.7327 15.7643C12.8368 15.6599 12.9235 15.5555 13.0276 15.451C13.2185 15.2422 13.4093 15.0508 13.6175 14.842C15.0228 13.4325 16.5148 12.0926 18.1283 10.9093C18.6661 10.509 19.2213 10.1436 19.7764 9.76079C19.8979 9.67378 19.8979 9.69118 19.9673 9.79559L19.9846 9.81299C20.0887 9.9696 20.0887 9.9696 19.9326 10.1088C18.7875 11.1007 17.7292 12.1448 16.7056 13.2237C16.4628 13.4847 16.2025 13.7631 15.9596 14.0415C15.7688 14.2503 15.5779 14.4766 15.3871 14.6854C13.843 16.4777 12.4551 18.3745 11.258 20.4104C10.6508 21.4197 10.1129 22.4812 9.62717 23.5601C9.24548 24.4128 8.9332 25.2828 8.69031 26.1703C8.65561 26.2573 8.63826 26.3617 8.60356 26.4487C8.60356 26.4487 8.58621 26.4661 8.56886 26.4661C8.55152 26.4313 8.51682 26.3965 8.49947 26.3617C7.99634 25.3524 7.38912 24.4128 6.76455 23.4731C6.26142 22.7422 5.7236 22.0114 5.13372 21.3501C4.73469 20.8977 4.31831 20.48 3.83253 20.1146C3.60699 19.958 3.38145 19.8014 3.12122 19.697C3.08652 19.6796 3.03447 19.6622 2.98242 19.6274C2.99977 19.5926 3.03447 19.5404 3.05182 19.5056C3.5029 18.9661 3.95398 18.4441 4.40506 17.9046C4.4918 17.8002 4.50915 17.8002 4.6306 17.8872C6.05323 18.8095 7.16358 19.9928 7.99634 21.4545C8.10044 21.6633 8.16983 21.8025 8.25658 21.994Z" fill="#8FC045"/>
<path d="M17.6074 13.1372C17.6768 13.346 17.7289 13.5896 17.7636 13.8506L20.0537 13.4678C20.0016 12.8239 19.8281 12.2671 19.5332 11.7798C19.4638 11.658 19.3944 11.5536 19.3076 11.4492C18.7351 12.0061 18.1626 12.5629 17.6074 13.1372Z" fill="#262F39"/>
<path d="M19.447 19.1412C19.1174 18.6191 18.6663 18.0797 18.0764 17.5402C17.9029 17.3662 17.5212 17.0704 16.9661 16.6528C16.4976 16.3047 16.1506 15.9915 15.9078 15.7305C15.7863 15.6087 15.6996 15.4869 15.5955 15.3477C15.0923 15.9393 14.6066 16.531 14.1555 17.1574C14.329 17.3314 14.5198 17.5054 14.7107 17.6794C15.6475 18.4973 16.3588 19.1064 16.8446 19.524C17.4345 20.1156 17.7468 20.7247 17.7468 21.3337C17.7468 21.7514 17.66 22.0646 17.5039 22.2908C17.1916 22.7432 16.7752 22.9695 16.2547 22.9869C15.8904 23.0043 15.5608 22.8651 15.2658 22.5866C14.8841 22.2038 14.6239 21.5948 14.5198 20.7595L12.2471 20.8987C12.2991 21.6818 12.4726 22.3604 12.7675 22.9695C13.0625 23.5611 13.4789 24.0484 13.982 24.3964C14.5892 24.814 15.3699 25.0402 16.3068 25.0402C16.8099 25.0402 17.261 24.988 17.6427 24.8662C18.354 24.6748 18.8918 24.3268 19.2908 23.8395C19.8807 23.1261 20.1757 22.256 20.1583 21.2467C20.141 20.8291 20.0195 20.3593 19.794 19.8546C19.7246 19.611 19.6031 19.3848 19.447 19.1412Z" fill="#262F39"/>
<path d="M13.1837 14.4251C14.7451 12.859 16.2371 11.5539 17.7639 10.4402C17.7812 10.4228 17.8159 10.4054 17.8333 10.388C17.3475 10.214 16.8097 10.127 16.2024 10.127C15.3176 10.127 14.5716 10.3358 13.9817 10.736C13.0102 11.4147 12.5244 12.4239 12.5244 13.7464C12.5244 14.1641 12.5765 14.5643 12.6979 14.9471C12.854 14.7731 13.0275 14.5991 13.1837 14.4251Z" fill="#262F39"/>
</g>
<defs>
<clipPath id="clip0_2621_25024">
<rect width="86" height="60" fill="white" transform="translate(3 2)"/>
</clipPath>
</defs>
</svg>
