<svg width="45" height="45" viewBox="0 0 45 45" fill="none" xmlns="http://www.w3.org/2000/svg">
<path d="M37.4754 36.3647H6.95798C5.85429 36.3647 4.7958 35.9263 4.01537 35.1458C3.23495 34.3654 2.79651 33.3069 2.79651 32.2032V12.7831C2.79651 11.6794 3.23495 10.6209 4.01537 9.84045C4.7958 9.06002 5.85429 8.62158 6.95798 8.62158H37.4754C38.5791 8.62158 39.6376 9.06002 40.418 9.84045C41.1984 10.6209 41.6369 11.6794 41.6369 12.7831V32.2032C41.6369 33.3069 41.1984 34.3654 40.418 35.1458C39.6376 35.9263 38.5791 36.3647 37.4754 36.3647ZM6.95798 11.3959C6.59008 11.3959 6.23725 11.542 5.97711 11.8022C5.71697 12.0623 5.57082 12.4152 5.57082 12.7831V32.2032C5.57082 32.5711 5.71697 32.924 5.97711 33.1841C6.23725 33.4442 6.59008 33.5904 6.95798 33.5904H37.4754C37.8433 33.5904 38.1961 33.4442 38.4563 33.1841C38.7164 32.924 38.8626 32.5711 38.8626 32.2032V12.7831C38.8626 12.4152 38.7164 12.0623 38.4563 11.8022C38.1961 11.542 37.8433 11.3959 37.4754 11.3959H6.95798Z" fill="#8FC045"/>
<path d="M22.2167 23.8803C21.9448 23.8782 21.6795 23.7962 21.4538 23.6445L4.80792 12.5473C4.53875 12.3305 4.36022 12.021 4.30729 11.6794C4.25436 11.3379 4.33084 10.9889 4.52176 10.7008C4.71268 10.4126 5.00428 10.2062 5.33945 10.1218C5.67462 10.0374 6.02921 10.0812 6.33379 10.2446L22.9797 21.3418C23.2257 21.5071 23.4122 21.7469 23.5121 22.0259C23.6119 22.305 23.6198 22.6087 23.5345 22.8925C23.4492 23.1763 23.2752 23.4254 23.0381 23.6031C22.8009 23.7809 22.5131 23.878 22.2167 23.8803Z" fill="#8FC045"/>
<path d="M22.2167 23.8803C21.9191 23.881 21.6293 23.786 21.3899 23.6093C21.1504 23.4326 20.9742 23.1836 20.8871 22.8991C20.8001 22.6145 20.8068 22.3096 20.9063 22.0292C21.0059 21.7488 21.1929 21.5078 21.4399 21.3418L38.0857 10.2446C38.391 10.0641 38.7537 10.0074 39.0995 10.0861C39.4452 10.1648 39.7477 10.3729 39.9448 10.6676C40.1419 10.9624 40.2186 11.3214 40.1592 11.671C40.0999 12.0206 39.9089 12.3341 39.6255 12.5473L22.9796 23.6445C22.7539 23.7962 22.4886 23.8782 22.2167 23.8803Z" fill="#8FC045"/>
</svg>
