<svg width="32" height="32" viewBox="0 0 32 32" fill="none" xmlns="http://www.w3.org/2000/svg">
<path d="M15.9999 2.26758C8.2666 2.26758 2.2666 8.00091 2.2666 15.6009C2.2666 19.6009 3.8666 23.0676 6.53327 25.4676C6.79993 25.6009 6.93327 26.0009 6.93327 26.2676L7.0666 28.6676C7.0666 29.3342 7.59994 29.7342 8.2666 29.7342C8.39994 29.7342 8.53327 29.7342 8.6666 29.6009L11.4666 28.4009C11.7333 28.2676 11.9999 28.2676 12.2666 28.4009C13.4666 28.8009 14.7999 28.9342 16.2666 28.9342C23.9999 28.9342 29.9999 23.2009 29.9999 15.6009C29.9999 8.00091 23.7333 2.26758 15.9999 2.26758Z" fill="url(#paint0_radial_2126_21273)"/>
<path d="M7.73311 19.4659L11.7331 13.0659C12.3998 12.1326 13.5998 11.8659 14.5331 12.3993C14.5331 12.3993 14.6664 12.3993 14.6664 12.5326L17.8664 14.9326C18.1331 15.1993 18.5331 15.1993 18.7998 14.9326L23.1998 11.5993C23.7331 11.1993 24.5331 11.8659 24.1331 12.5326L20.1331 18.9326C19.4664 19.8659 18.2664 20.1326 17.3331 19.5993C17.3331 19.5993 17.1998 19.5993 17.1998 19.4659L13.9998 17.0659C13.7331 16.7993 13.3331 16.7993 13.0664 17.0659L8.66644 20.3993C8.13311 20.7993 7.33311 20.1326 7.73311 19.4659Z" fill="white"/>
<defs>
<radialGradient id="paint0_radial_2126_21273" cx="0" cy="0" r="1" gradientUnits="userSpaceOnUse" gradientTransform="translate(6.87994 29.8142) scale(30.3079 30.3079)">
<stop stop-color="#0099FF"/>
<stop offset="0.6" stop-color="#A033FF"/>
<stop offset="0.9" stop-color="#FF5280"/>
<stop offset="1" stop-color="#FF7061"/>
</radialGradient>
</defs>
</svg>
