<svg width="26" height="30" viewBox="0 0 26 30" fill="none" xmlns="http://www.w3.org/2000/svg">
<path d="M11.2 29.2C12.966 29.2 14.3985 27.7675 14.3985 26H8.00153C8.00153 27.7675 9.43403 29.2 11.2 29.2ZM21.9695 21.7145C21.0035 20.6765 19.196 19.115 19.196 14C19.196 10.115 16.472 7.00498 12.799 6.24198V5.19998C12.799 4.31648 12.083 3.59998 11.2 3.59998C10.317 3.59998 9.60104 4.31648 9.60104 5.19998V6.24198C5.92803 7.00498 3.20403 10.115 3.20403 14C3.20403 19.115 1.39653 20.6765 0.430535 21.7145C0.130535 22.037 -0.00246543 22.4225 3.45694e-05 22.8C0.00553457 23.62 0.649034 24.4 1.60503 24.4H20.795C21.751 24.4 22.395 23.62 22.4 22.8C22.4025 22.4225 22.2695 22.0365 21.9695 21.7145Z" fill="#C5C7CD"/>
<circle cx="19.2004" cy="6.8" r="5.55" fill="#8FC045" stroke="#F7F8FC" stroke-width="1.5"/>
</svg>
