<svg width="33" height="33" viewBox="0 0 33 33" fill="none" xmlns="http://www.w3.org/2000/svg">
<path opacity="0.2" d="M24.1201 0.336914H9.08013C3.59411 0.336914 0.48584 3.44518 0.48584 8.9312V23.9712C0.48584 29.4429 3.57978 32.5655 9.08013 32.5655H24.1201C29.6061 32.5655 32.7144 29.4429 32.7144 23.9712V8.9312C32.7144 3.44518 29.6061 0.336914 24.1201 0.336914Z" fill="#8FC045"/>
<path d="M15.7821 15.185V11.114C15.8333 10.7143 16.1779 10.4082 16.5935 10.4082C17.0091 10.4082 17.3537 10.7143 17.405 11.114V15.185V15.5879H17.8078H21.9281C22.3383 15.6391 22.6429 15.9841 22.6429 16.3888C22.6429 16.7934 22.3383 17.1384 21.9281 17.1897H17.8078H17.405V17.5925V21.6995C17.405 22.1349 17.0479 22.4939 16.6 22.4939C16.1521 22.4939 15.7951 22.1349 15.7951 21.6995V17.5925V17.1897H15.3922H11.272C10.8618 17.1384 10.5572 16.7934 10.5572 16.3888C10.5572 15.9841 10.8618 15.6391 11.272 15.5879H15.3792H15.7821V15.185Z" fill="#8FC045" stroke="#8FC045" stroke-width="0.805714"/>
</svg>
