<svg width="14" height="11" viewBox="0 0 14 11" fill="none" xmlns="http://www.w3.org/2000/svg">
<path d="M0.213753 3.4785C0.213753 2.64328 0.500111 1.95125 1.07283 1.4024C1.62168 0.877407 2.24212 0.614912 2.93416 0.614912C3.65005 0.614912 4.28243 0.865476 4.83128 1.3666C5.35627 1.89159 5.61877 2.59556 5.61877 3.4785C5.61877 5.19665 5.23696 6.75969 4.47333 8.16761C3.68585 9.57554 2.8387 10.4466 1.9319 10.7806L1.43078 10.4585C3.00575 9.36077 3.79323 7.71421 3.79323 5.5188C3.79323 4.99381 3.75744 4.62393 3.68585 4.40916C3.49494 4.5762 3.1012 4.77904 2.50462 5.01767C1.90804 5.2563 1.44271 5.37562 1.10862 5.37562C0.512043 5.37562 0.213753 4.74325 0.213753 3.4785ZM8.55394 3.4785C8.55394 2.64328 8.8403 1.95125 9.41302 1.4024C9.96187 0.877407 10.5823 0.614912 11.2743 0.614912C11.9902 0.614912 12.6226 0.865476 13.1715 1.3666C13.6965 1.89159 13.959 2.59556 13.959 3.4785C13.959 5.19665 13.5771 6.75969 12.8135 8.16761C12.026 9.57554 11.1789 10.4466 10.2721 10.7806L9.77096 10.4585C11.3459 9.36077 12.1334 7.71421 12.1334 5.5188C12.1334 4.99381 12.0976 4.62393 12.026 4.40916C11.8351 4.5762 11.4414 4.77904 10.8448 5.01767C10.2482 5.2563 9.7829 5.37562 9.44881 5.37562C8.85223 5.37562 8.55394 4.74325 8.55394 3.4785Z" fill="#8FC045"/>
</svg>
