<svg width="39" height="28" viewBox="0 0 39 28" fill="none" xmlns="http://www.w3.org/2000/svg">
<path d="M38.4062 20.0083C38.4062 22.2869 37.625 24.175 36.0625 25.6724C34.5651 27.1047 32.8724 27.8208 30.9844 27.8208C29.0312 27.8208 27.306 27.1372 25.8086 25.77C24.3763 24.3377 23.6602 22.4172 23.6602 20.0083C23.6602 15.3208 24.7018 11.0565 26.7852 7.21533C28.9336 3.37419 31.2448 0.997884 33.7188 0.0864258L35.0859 0.965332C30.7891 3.96012 28.6406 8.45231 28.6406 14.4419C28.6406 15.8742 28.7383 16.8833 28.9336 17.4692C29.4544 17.0135 30.5286 16.4601 32.1562 15.8091C33.7839 15.158 35.0534 14.8325 35.9648 14.8325C37.5924 14.8325 38.4062 16.5578 38.4062 20.0083ZM15.6523 20.0083C15.6523 22.2869 14.8711 24.175 13.3086 25.6724C11.8112 27.1047 10.1185 27.8208 8.23047 27.8208C6.27734 27.8208 4.55208 27.1372 3.05469 25.77C1.6224 24.3377 0.90625 22.4172 0.90625 20.0083C0.90625 15.3208 1.94792 11.0565 4.03125 7.21533C6.17969 3.37419 8.49089 0.997884 10.9648 0.0864258L12.332 0.965332C8.03516 3.96012 5.88672 8.45231 5.88672 14.4419C5.88672 15.8742 5.98438 16.8833 6.17969 17.4692C6.70052 17.0135 7.77474 16.4601 9.40234 15.8091C11.0299 15.158 12.2995 14.8325 13.2109 14.8325C14.8385 14.8325 15.6523 16.5578 15.6523 20.0083Z" fill="#8FC045"/>
</svg>
