<svg width="21" height="22" viewBox="0 0 21 22" fill="none" xmlns="http://www.w3.org/2000/svg">
<path d="M12.6263 17.1238C12.46 17.1238 12.2938 17.0634 12.1625 16.934C11.9088 16.6838 11.9088 16.2697 12.1625 16.0195L17.01 11.2398L12.1625 6.46009C11.9088 6.20989 11.9088 5.79576 12.1625 5.54556C12.4163 5.29536 12.8363 5.29536 13.09 5.54556L18.4013 10.7825C18.655 11.0327 18.655 11.4469 18.4013 11.6971L13.09 16.934C12.9588 17.0634 12.7925 17.1238 12.6263 17.1238Z" fill="#8FC045"/>
<path d="M17.7888 11.8869H3.06256C2.70381 11.8869 2.40631 11.5936 2.40631 11.2398C2.40631 10.8861 2.70381 10.5928 3.06256 10.5928H17.7888C18.1476 10.5928 18.4451 10.8861 18.4451 11.2398C18.4451 11.5936 18.1476 11.8869 17.7888 11.8869Z" fill="#8FC045"/>
</svg>
