<svg width="56" height="55" viewBox="0 0 56 55" fill="none" xmlns="http://www.w3.org/2000/svg">
<path d="M27.6846 0C24.3937 0 21.1762 0.575208 18.1192 1.70958L18.9167 3.85802C21.7226 2.81775 24.692 2.2873 27.6846 2.29167C41.5847 2.29167 52.8929 13.5999 52.8929 27.5C52.8929 41.4001 41.5847 52.7083 27.6846 52.7083C13.7845 52.7083 2.47624 41.4001 2.47624 27.5C2.47844 23.7859 3.30129 20.1182 4.88595 16.7591C6.47061 13.4 8.77793 10.4325 11.6429 8.06896V16.0417H13.9346V4.58333H2.47624V6.875H9.49561C6.56961 9.45583 4.22614 12.6296 2.6208 16.1856C1.01547 19.7416 0.18501 23.5984 0.18457 27.5C0.18457 42.6628 12.5218 55 27.6846 55C42.8474 55 55.1846 42.6628 55.1846 27.5C55.1846 12.3372 42.8474 0 27.6846 0Z" fill="#DEAD00"/>
<path d="M20.8083 36.6667H18.5166V38.9584H36.8499V36.6667H34.5583V32.7548L29.3035 27.5L34.5583 22.2452V18.3334H36.8499V16.0417H18.5166V18.3334H20.8083V22.2452L26.0631 27.5L20.8083 32.7548V36.6667ZM23.0999 21.2965V18.3334H32.2666V21.2965L27.6833 25.8798L23.0999 21.2965ZM27.6833 29.1202L32.2666 33.7036V36.6667H23.0999V33.7036L27.6833 29.1202ZM20.8083 43.5417H23.0999V45.8334H20.8083V43.5417ZM26.5374 43.5417H28.8291V45.8334H26.5374V43.5417ZM32.2666 43.5417H34.5583V45.8334H32.2666V43.5417Z" fill="#DEAD00"/>
</svg>
