<svg width="45" height="45" viewBox="0 0 45 45" fill="none" xmlns="http://www.w3.org/2000/svg">
<g clip-path="url(#clip0_213_2077)">
<path fill-rule="evenodd" clip-rule="evenodd" d="M11.4949 37.8068L13.2998 35.9846C13.6856 35.5954 14.3145 35.5925 14.7039 35.9778C15.0931 36.3635 15.096 36.9925 14.7103 37.3819L11.2684 40.8569C10.9884 41.1393 10.567 41.2277 10.1973 41.0812C9.82749 40.9347 9.58105 40.5815 9.57051 40.1842L9.24928 27.846C9.23501 27.2982 9.66777 26.8421 10.2158 26.8277C10.7635 26.8135 11.2197 27.2464 11.234 27.7942L11.4949 37.8068Z" fill="#8FC045"/>
<path fill-rule="evenodd" clip-rule="evenodd" d="M21.1543 12.4115L22.7635 11.725C23.2677 11.5099 23.5023 10.9254 23.2872 10.422C23.0721 9.91782 22.4877 9.68326 21.9842 9.89912L20.375 10.5857C19.8708 10.8008 19.6363 11.3852 19.8513 11.8886C20.0672 12.3928 20.6509 12.6274 21.1543 12.4115Z" fill="#8FC045"/>
<path fill-rule="evenodd" clip-rule="evenodd" d="M40.9123 3.97488L26.1854 10.2637C25.6812 10.4788 25.0975 10.2442 24.8824 9.7408C24.6673 9.23661 24.9011 8.65292 25.4053 8.43784L42.4062 1.17803C42.7786 1.01906 43.2112 1.10244 43.4979 1.38922C43.7847 1.67599 43.8681 2.10772 43.7091 2.481L26.268 43.3248C26.1386 43.628 25.8666 43.8469 25.5432 43.9101C25.2198 43.9724 24.8863 43.8703 24.6525 43.6373L15.3845 34.3693C15.0393 34.0233 14.9964 33.4778 15.284 33.0827L25.9601 18.4049L10.7968 28.6439C10.4025 28.9104 9.87573 28.8597 9.53908 28.5239L1.24983 20.2339C1.01683 20.0009 0.914742 19.6673 0.977085 19.3439C1.04021 19.0205 1.25919 18.7485 1.56233 18.6192L16.4435 12.2649C16.9469 12.0498 17.5306 12.2836 17.7457 12.7878C17.9608 13.292 17.727 13.8757 17.2228 14.0908L3.69211 19.8684L10.3643 26.5406L29.5293 13.599C29.929 13.3294 30.4644 13.3855 30.7995 13.7323C31.1338 14.0791 31.1712 14.616 30.8876 15.0056L17.3888 33.5651L25.0188 41.195L40.9123 3.97488Z" fill="#8FC045"/>
</g>
<defs>
<clipPath id="clip0_213_2077">
<rect width="43.567" height="44.2477" fill="white" transform="translate(0.590916 0.400879)"/>
</clipPath>
</defs>
</svg>
