<svg width="160" height="207" viewBox="0 0 160 207" fill="none" xmlns="http://www.w3.org/2000/svg">
<path d="M159.449 82.5793C159.523 83.7265 159.573 84.8804 159.598 86.0404L159.245 86.048C159.257 86.6234 159.264 87.2004 159.264 87.7789C159.264 88.3573 159.257 88.9343 159.245 89.5098L159.598 89.5174C159.573 90.6774 159.523 91.8313 159.449 92.9785L159.096 92.9557C159.022 94.1078 158.922 95.2531 158.798 96.3912L159.15 96.4294C159.024 97.5818 158.874 98.7268 158.7 99.8638L158.351 99.8103C158.176 100.952 157.976 102.085 157.753 103.21L158.1 103.279C157.874 104.416 157.624 105.544 157.35 106.664L157.007 106.579C156.732 107.7 156.434 108.811 156.112 109.912L156.452 110.011C156.127 111.123 155.779 112.225 155.407 113.315L155.072 113.202C154.701 114.292 154.306 115.373 153.888 116.442L154.217 116.57C153.796 117.648 153.352 118.715 152.886 119.77L152.563 119.627C152.097 120.68 151.608 121.721 151.098 122.75L151.415 122.907C150.901 123.943 150.365 124.967 149.808 125.977L149.498 125.806C148.942 126.814 148.364 127.809 147.766 128.79L148.067 128.974C147.465 129.961 146.841 130.934 146.198 131.892L145.904 131.695C145.262 132.65 144.6 133.591 143.918 134.516L144.202 134.726C143.516 135.657 142.811 136.572 142.086 137.47L141.81 137.249C141.088 138.144 140.347 139.024 139.587 139.886L139.852 140.12C139.088 140.987 138.306 141.837 137.505 142.67L137.25 142.425C136.453 143.255 135.638 144.067 134.806 144.861L135.05 145.116C134.214 145.914 133.361 146.693 132.491 147.454L132.259 147.188C131.393 147.944 130.511 148.683 129.613 149.402L129.834 149.678C128.932 150.4 128.015 151.102 127.082 151.785L126.873 151.5C125.945 152.178 125.002 152.837 124.045 153.476L124.241 153.77C123.28 154.411 122.305 155.031 121.316 155.63L121.133 155.328C120.15 155.923 119.154 156.498 118.144 157.051L118.314 157.361C117.302 157.915 116.277 158.448 115.239 158.959L115.083 158.642C114.053 159.149 113.01 159.634 111.955 160.098L112.097 160.421C111.042 160.885 109.974 161.326 108.895 161.744L108.767 161.415C107.697 161.83 106.616 162.222 105.524 162.591L105.637 162.926C104.545 163.295 103.443 163.641 102.331 163.964L102.232 163.624C101.13 163.944 100.019 164.24 98.8979 164.512L98.9813 164.856C97.8618 165.128 96.7331 165.376 95.5956 165.601L95.5273 165.254C94.4021 165.476 93.2683 165.674 92.1265 165.847L92.1797 166.197C91.0424 166.37 89.8973 166.519 88.7447 166.643L88.7068 166.291C87.5686 166.414 86.4231 166.513 85.271 166.587L85.2937 166.94C84.1464 167.014 82.9925 167.063 81.8325 167.088L81.825 166.735C81.2495 166.747 80.6725 166.753 80.094 166.753C79.5155 166.753 78.9385 166.747 78.363 166.735L78.3554 167.088C77.1954 167.063 76.0415 167.014 74.8943 166.94L74.917 166.587C73.7648 166.513 72.6194 166.414 71.4812 166.291L71.4432 166.643C70.2907 166.519 69.1455 166.37 68.0082 166.197L68.0614 165.847C66.9196 165.674 65.7859 165.476 64.6607 165.254L64.5923 165.601C63.4549 165.376 62.3261 165.128 61.2066 164.856L61.2901 164.512C60.1691 164.24 59.0575 163.944 57.9558 163.624L57.8574 163.964C56.745 163.641 55.6426 163.295 54.5509 162.926L54.6641 162.591C53.5722 162.222 52.4909 161.83 51.421 161.415L51.2932 161.744C50.2141 161.326 49.1463 160.885 48.0906 160.421L48.2327 160.098C47.1779 159.634 46.1351 159.149 45.105 158.642L44.9489 158.959C43.911 158.448 42.8858 157.915 41.8741 157.361L42.0439 157.051C41.034 156.498 40.0375 155.923 39.055 155.328L38.8718 155.63C37.8826 155.031 36.9075 154.411 35.9472 153.77L36.1433 153.476C35.1856 152.837 34.2426 152.178 33.315 151.5L33.1063 151.785C32.1733 151.102 31.2559 150.4 30.3545 149.678L30.5754 149.402C29.6771 148.683 28.7949 147.944 27.9294 147.188L27.6967 147.454C26.8268 146.693 25.9737 145.914 25.138 145.116L25.3819 144.861C24.5497 144.067 23.7347 143.255 22.9377 142.425L22.6829 142.67C21.8824 141.837 21.1 140.987 20.3362 140.12L20.6014 139.886C19.8414 139.024 19.0998 138.144 18.3775 137.249L18.1024 137.47C17.3774 136.572 16.6716 135.657 15.9857 134.726L16.2702 134.516C15.5882 133.591 14.9258 132.65 14.2838 131.695L13.9905 131.892C13.3466 130.934 12.7231 129.961 12.1206 128.974L12.4223 128.79C11.8238 127.809 11.2461 126.814 10.6898 125.806L10.3804 125.977C9.82301 124.967 9.28704 123.943 8.77311 122.907L9.08975 122.75C8.57961 121.721 8.09129 120.68 7.62536 119.627L7.30213 119.77C6.83571 118.715 6.39165 117.648 5.97054 116.57L6.29975 116.442C5.88219 115.373 5.48729 114.292 5.11566 113.201L4.7811 113.315C4.40947 112.224 4.061 111.123 3.73626 110.011L4.07552 109.912C3.75389 108.811 3.45565 107.7 3.18137 106.579L2.83807 106.664C2.56412 105.544 2.31397 104.416 2.08819 103.279L2.43485 103.21C2.2115 102.085 2.01209 100.952 1.83718 99.8103L1.48783 99.8638C1.3136 98.7268 1.16358 97.5818 1.03829 96.4294L1.38966 96.3912C1.26593 95.2531 1.16644 94.1077 1.09171 92.9556L0.739014 92.9785C0.664603 91.8313 0.614638 90.6774 0.589635 89.5174L0.942989 89.5098C0.930585 88.9343 0.924351 88.3573 0.924351 87.7789C0.924351 87.2004 0.930585 86.6234 0.942989 86.0479L0.589636 86.0403C0.614639 84.8803 0.664604 83.7265 0.739015 82.5792L1.09171 82.6021C1.16644 81.45 1.26593 80.3046 1.38966 79.1665L1.03829 79.1283C1.16358 77.976 1.3136 76.831 1.48783 75.6939L1.83719 75.7475C2.01209 74.6059 2.2115 73.4725 2.43486 72.3476L2.08819 72.2788C2.31398 71.1417 2.56413 70.0133 2.83808 68.8943L3.18138 68.9783C3.45565 67.8579 3.75389 66.7468 4.07552 65.6458L3.73626 65.5467C4.061 64.4349 4.40948 63.3333 4.7811 62.2423L5.11566 62.3563C5.48729 61.2653 5.88219 60.185 6.29975 59.116L5.97054 58.9874C6.39165 57.9094 6.83571 56.8428 7.30213 55.7882L7.62536 55.9312C8.09128 54.8778 8.57961 53.8364 9.08975 52.8077L8.77311 52.6507C9.28704 51.6144 9.82301 50.5908 10.3804 49.5807L10.6898 49.7515C11.2461 48.7434 11.8238 47.7487 12.4223 46.7681L12.1206 46.584C12.7231 45.5968 13.3466 44.6239 13.9905 43.6656L14.2838 43.8628C14.9258 42.9074 15.5882 41.9667 16.2702 41.0414L15.9857 40.8317C16.6716 39.9012 17.3774 38.9863 18.1024 38.0874L18.3775 38.3093C19.0998 37.4137 19.8414 36.5342 20.6014 35.6713L20.3362 35.4377C21.1 34.5707 21.8824 33.7204 22.6829 32.8875L22.9377 33.1324C23.7347 32.3031 24.5497 31.4912 25.3819 30.6972L25.138 30.4414C25.9737 29.6441 26.8268 28.8648 27.6967 28.1041L27.9294 28.3702C28.7949 27.6133 29.6771 26.875 30.5754 26.1558L30.3545 25.8799C31.2559 25.1582 32.1734 24.4557 33.1063 23.773L33.315 24.0582C34.2426 23.3794 35.1856 22.7204 36.1433 22.0815L35.9472 21.7875C36.9075 21.1469 37.8826 20.5267 38.8719 19.9273L39.055 20.2296C40.0375 19.6344 41.034 19.0599 42.0439 18.5067L41.8741 18.1967C42.8859 17.6425 43.911 17.1097 44.9489 16.5987L45.105 16.9158C46.1351 16.4087 47.1779 15.9234 48.2327 15.4603L48.0906 15.1366C49.1463 14.6731 50.2141 14.2319 51.2933 13.8134L51.421 14.1429C52.491 13.7281 53.5722 13.3357 54.6641 12.9665L54.5509 12.6317C55.6426 12.2626 56.745 11.9164 57.8574 11.5939L57.9559 11.9333C59.0576 11.6139 60.1692 11.3177 61.2901 11.0453L61.2067 10.7019C62.3262 10.4298 63.4549 10.1815 64.5924 9.95726L64.6607 10.304C65.7859 10.0822 66.9197 9.88426 68.0614 9.71059L68.0083 9.36118C69.1455 9.1882 70.2907 9.03926 71.4433 8.91488L71.4812 9.26628C72.6194 9.14345 73.7649 9.04468 74.917 8.9705L74.8943 8.61779C76.0416 8.54393 77.1955 8.49433 78.3554 8.46951L78.363 8.82287C78.9385 8.81055 79.5155 8.80436 80.094 8.80436C80.6725 8.80436 81.2495 8.81055 81.825 8.82287L81.8326 8.46951C82.9926 8.49433 84.1464 8.54393 85.2937 8.61779L85.271 8.9705C86.4231 9.04468 87.5686 9.14345 88.7068 9.26628L88.7447 8.91488C89.8973 9.03926 91.0425 9.1882 92.1797 9.36118L92.1266 9.7106C93.2684 9.88426 94.4021 10.0823 95.5273 10.304L95.5956 9.95726C96.7331 10.1815 97.8619 10.4299 98.9813 10.7019L98.8979 11.0453C100.019 11.3177 101.13 11.6139 102.232 11.9333L102.331 11.5939C103.443 11.9164 104.545 12.2626 105.637 12.6317L105.524 12.9665C106.616 13.3358 107.697 13.7281 108.767 14.143L108.895 13.8134C109.974 14.2319 111.042 14.6731 112.097 15.1366L111.955 15.4603C113.01 15.9234 114.053 16.4087 115.083 16.9158L115.239 16.5987C116.277 17.1097 117.302 17.6425 118.314 18.1967L118.144 18.5067C119.154 19.0599 120.15 19.6344 121.133 20.2296L121.316 19.9273C122.305 20.5267 123.28 21.1469 124.241 21.7875L124.045 22.0815C125.002 22.7203 125.945 23.3794 126.873 24.0582L127.082 23.773C128.015 24.4557 128.932 25.1582 129.833 25.8799L129.613 26.1558C130.511 26.875 131.393 27.6133 132.259 28.3702L132.491 28.1041C133.361 28.8648 134.214 29.6441 135.05 30.4414L134.806 30.6972C135.638 31.4912 136.453 32.3031 137.25 33.1324L137.505 32.8875C138.306 33.7204 139.088 34.5706 139.852 35.4377L139.587 35.6713C140.347 36.5342 141.088 37.4137 141.81 38.3092L142.086 38.0874C142.811 38.9862 143.516 39.9012 144.202 40.8317L143.918 41.0414C144.6 41.9667 145.262 42.9073 145.904 43.8628L146.198 43.6656C146.841 44.6238 147.465 45.5968 148.067 46.584L147.766 46.7681C148.364 47.7487 148.942 48.7434 149.498 49.7515L149.808 49.5807C150.365 50.5908 150.901 51.6143 151.415 52.6507L151.098 52.8077C151.608 53.8364 152.097 54.8778 152.563 55.9312L152.886 55.7882C153.352 56.8428 153.796 57.9094 154.217 58.9874L153.888 59.116C154.306 60.185 154.701 61.2653 155.072 62.3563L155.407 62.2423C155.779 63.3333 156.127 64.4349 156.452 65.5467L156.112 65.6458C156.434 66.7469 156.732 67.8579 157.007 68.9783L157.35 68.8943C157.624 70.0133 157.874 71.1417 158.1 72.2788L157.753 72.3476C157.976 73.4725 158.176 74.606 158.351 75.7475L158.7 75.6939C158.874 76.831 159.024 77.976 159.15 79.1284L158.798 79.1666C158.922 80.3047 159.022 81.45 159.096 82.6021L159.449 82.5793Z" stroke="#8FC045" stroke-width="0.706872" stroke-dasharray="3.53 3.53"/>
<ellipse cx="80.0938" cy="87.779" rx="43.4726" ry="43.3659" fill="#8FC045" fill-opacity="0.15"/>
<ellipse cx="130.319" cy="20.9764" rx="15.0675" ry="15.0306" fill="#8FC045"/>
<path d="M131.045 19.4412V20.9977C131.045 21.7432 130.971 22.3797 130.823 22.9073C130.679 23.4305 130.469 23.8555 130.195 24.1825C129.92 24.5095 129.591 24.7493 129.207 24.9019C128.828 25.0545 128.403 25.1308 127.932 25.1308C127.557 25.1308 127.208 25.0828 126.886 24.9869C126.567 24.891 126.28 24.7406 126.022 24.5357C125.765 24.3308 125.545 24.067 125.362 23.7444C125.183 23.4174 125.044 23.0272 124.943 22.5738C124.847 22.1203 124.8 21.595 124.8 20.9977V19.4412C124.8 18.6913 124.874 18.0592 125.022 17.5447C125.17 17.0259 125.382 16.6052 125.656 16.2825C125.931 15.9556 126.258 15.7179 126.637 15.5697C127.021 15.4215 127.448 15.3474 127.919 15.3474C128.298 15.3474 128.647 15.3953 128.965 15.4912C129.288 15.5828 129.576 15.7288 129.829 15.9294C130.086 16.13 130.304 16.3915 130.483 16.7142C130.666 17.0324 130.805 17.4183 130.901 17.8717C130.997 18.3208 131.045 18.8439 131.045 19.4412ZM129.469 21.22V19.2058C129.469 18.8265 129.447 18.493 129.403 18.2052C129.36 17.9131 129.294 17.6668 129.207 17.4662C129.124 17.2613 129.02 17.0957 128.893 16.9692C128.767 16.8384 128.623 16.7447 128.462 16.688C128.3 16.627 128.12 16.5965 127.919 16.5965C127.675 16.5965 127.457 16.6444 127.265 16.7403C127.073 16.8319 126.912 16.9801 126.781 17.185C126.65 17.3899 126.55 17.6602 126.48 17.996C126.415 18.3273 126.382 18.7306 126.382 19.2058V21.22C126.382 21.6037 126.404 21.9416 126.448 22.2337C126.491 22.5258 126.557 22.7765 126.644 22.9858C126.731 23.1907 126.836 23.3607 126.958 23.4959C127.084 23.6267 127.228 23.7226 127.389 23.7836C127.555 23.8446 127.736 23.8752 127.932 23.8752C128.181 23.8752 128.401 23.8272 128.593 23.7313C128.784 23.6354 128.946 23.4828 129.077 23.2735C129.207 23.0599 129.305 22.783 129.371 22.443C129.436 22.1029 129.469 21.6953 129.469 21.22ZM138.834 23.7444V25H132.451V23.9209L135.551 20.5399C135.891 20.1562 136.159 19.8249 136.355 19.5459C136.551 19.2668 136.689 19.0162 136.767 18.7938C136.85 18.5671 136.891 18.3469 136.891 18.1333C136.891 17.8325 136.835 17.5687 136.721 17.342C136.612 17.1109 136.451 16.93 136.238 16.7992C136.024 16.664 135.764 16.5965 135.459 16.5965C135.106 16.5965 134.81 16.6727 134.57 16.8253C134.33 16.9779 134.149 17.1894 134.027 17.4597C133.905 17.7256 133.844 18.0308 133.844 18.3753H132.268C132.268 17.8216 132.394 17.3158 132.647 16.858C132.9 16.3959 133.266 16.0297 133.746 15.7594C134.225 15.4847 134.803 15.3474 135.479 15.3474C136.115 15.3474 136.656 15.4542 137.101 15.6678C137.545 15.8814 137.883 16.1844 138.114 16.5768C138.35 16.9692 138.468 17.4335 138.468 17.9698C138.468 18.2663 138.42 18.5605 138.324 18.8527C138.228 19.1448 138.09 19.4369 137.912 19.729C137.737 20.0167 137.53 20.3067 137.29 20.5988C137.051 20.8865 136.787 21.1786 136.499 21.4751L134.439 23.7444H138.834Z" fill="white"/>
<path d="M37.5888 192.753C37.5251 192.188 37.2623 191.75 36.8004 191.439C36.3385 191.125 35.7572 190.968 35.0564 190.968C34.5547 190.968 34.1207 191.047 33.7544 191.206C33.388 191.362 33.1033 191.577 32.9003 191.852C32.7012 192.122 32.6016 192.431 32.6016 192.777C32.6016 193.068 32.6693 193.319 32.8047 193.53C32.9441 193.741 33.1252 193.918 33.3482 194.061C33.5752 194.201 33.8181 194.318 34.0769 194.414C34.3357 194.505 34.5846 194.581 34.8235 194.641L36.018 194.951C36.4082 195.047 36.8084 195.176 37.2185 195.34C37.6287 195.503 38.0089 195.718 38.3593 195.985C38.7097 196.251 38.9924 196.582 39.2074 196.976C39.4264 197.37 39.5359 197.842 39.5359 198.392C39.5359 199.084 39.3568 199.7 38.9984 200.237C38.644 200.775 38.1284 201.199 37.4515 201.509C36.7785 201.82 35.9643 201.975 35.0086 201.975C34.0928 201.975 33.3004 201.83 32.6315 201.539C31.9625 201.249 31.4389 200.836 31.0607 200.303C30.6824 199.765 30.4733 199.128 30.4335 198.392H32.2851C32.3209 198.834 32.4642 199.202 32.7151 199.497C32.9699 199.787 33.2945 200.004 33.6887 200.148C34.0868 200.287 34.5228 200.357 34.9967 200.357C35.5183 200.357 35.9822 200.275 36.3883 200.112C36.7984 199.945 37.121 199.714 37.3559 199.419C37.5908 199.12 37.7083 198.772 37.7083 198.374C37.7083 198.011 37.6048 197.715 37.3977 197.484C37.1946 197.253 36.9179 197.062 36.5675 196.91C36.2211 196.759 35.8289 196.626 35.3909 196.51L33.9455 196.116C32.966 195.849 32.1895 195.457 31.6161 194.939C31.0467 194.422 30.762 193.737 30.762 192.885C30.762 192.18 30.9532 191.565 31.3354 191.039C31.7177 190.514 32.2353 190.106 32.8883 189.815C33.5413 189.52 34.278 189.373 35.0982 189.373C35.9264 189.373 36.6571 189.518 37.2902 189.809C37.9273 190.1 38.429 190.5 38.7953 191.009C39.1617 191.515 39.3528 192.096 39.3687 192.753H37.5888ZM45.552 201.957C44.6481 201.957 43.8696 201.764 43.2166 201.378C42.5676 200.988 42.0659 200.44 41.7115 199.736C41.3611 199.027 41.1859 198.197 41.1859 197.245C41.1859 196.305 41.3611 195.477 41.7115 194.76C42.0659 194.044 42.5596 193.484 43.1927 193.082C43.8298 192.68 44.5744 192.479 45.4265 192.479C45.9442 192.479 46.4459 192.564 46.9317 192.736C47.4174 192.907 47.8534 193.175 48.2397 193.542C48.6259 193.908 48.9305 194.384 49.1535 194.969C49.3765 195.551 49.488 196.257 49.488 197.09V197.723H42.1953V196.385H47.738C47.738 195.915 47.6424 195.499 47.4513 195.137C47.2602 194.77 46.9914 194.482 46.645 194.27C46.3025 194.059 45.9004 193.954 45.4385 193.954C44.9368 193.954 44.4988 194.077 44.1245 194.324C43.7542 194.567 43.4675 194.886 43.2644 195.28C43.0653 195.67 42.9658 196.094 42.9658 196.552V197.597C42.9658 198.21 43.0733 198.732 43.2883 199.162C43.5073 199.592 43.8119 199.921 44.2021 200.148C44.5923 200.371 45.0483 200.482 45.5699 200.482C45.9083 200.482 46.2169 200.434 46.4956 200.339C46.7744 200.239 47.0153 200.092 47.2183 199.897C47.4214 199.702 47.5767 199.461 47.6842 199.174L49.3745 199.479C49.2391 199.976 48.9962 200.412 48.6458 200.787C48.2994 201.157 47.8634 201.446 47.3378 201.653C46.8162 201.856 46.2209 201.957 45.552 201.957ZM53.2553 196.325V201.772H51.4694V192.598H53.1836V194.091H53.2971C53.5081 193.606 53.8386 193.215 54.2885 192.921C54.7425 192.626 55.3139 192.479 56.0027 192.479C56.6279 192.479 57.1754 192.61 57.6452 192.873C58.1151 193.132 58.4794 193.518 58.7382 194.032C58.997 194.545 59.1264 195.18 59.1264 195.937V201.772H57.3406V196.152C57.3406 195.487 57.1674 194.967 56.821 194.593C56.4746 194.215 55.9987 194.026 55.3935 194.026C54.9794 194.026 54.6111 194.115 54.2885 194.294C53.97 194.474 53.7172 194.736 53.53 195.083C53.3468 195.425 53.2553 195.839 53.2553 196.325ZM64.9558 201.951C64.2152 201.951 63.5542 201.762 62.9729 201.384C62.3955 201.002 61.9416 200.458 61.6111 199.753C61.2846 199.045 61.1213 198.195 61.1213 197.203C61.1213 196.212 61.2866 195.363 61.6171 194.659C61.9515 193.954 62.4094 193.414 62.9908 193.04C63.5721 192.666 64.2311 192.479 64.9678 192.479C65.5371 192.479 65.9951 192.574 66.3415 192.765C66.6919 192.953 66.9626 193.172 67.1538 193.422C67.3489 193.673 67.5002 193.894 67.6077 194.085H67.7152V189.54H69.501V201.772H67.757V200.345H67.6077C67.5002 200.54 67.3449 200.763 67.1418 201.014C66.9427 201.265 66.668 201.484 66.3176 201.671C65.9672 201.858 65.5133 201.951 64.9558 201.951ZM65.35 200.428C65.8637 200.428 66.2977 200.293 66.6521 200.022C67.0104 199.747 67.2812 199.367 67.4643 198.881C67.6515 198.396 67.7451 197.83 67.7451 197.185C67.7451 196.548 67.6535 195.991 67.4703 195.513C67.2872 195.035 67.0184 194.663 66.664 194.396C66.3096 194.129 65.8716 193.996 65.35 193.996C64.8125 193.996 64.3645 194.135 64.0061 194.414C63.6478 194.693 63.377 195.073 63.1939 195.555C63.0147 196.036 62.9251 196.58 62.9251 197.185C62.9251 197.798 63.0167 198.35 63.1998 198.84C63.383 199.329 63.6538 199.718 64.0121 200.004C64.3745 200.287 64.8204 200.428 65.35 200.428ZM76.5011 201.772V192.598H78.2869V201.772H76.5011ZM77.4029 191.183C77.0924 191.183 76.8256 191.079 76.6026 190.872C76.3836 190.661 76.2741 190.41 76.2741 190.119C76.2741 189.825 76.3836 189.574 76.6026 189.367C76.8256 189.156 77.0924 189.05 77.4029 189.05C77.7135 189.05 77.9783 189.156 78.1973 189.367C78.4203 189.574 78.5318 189.825 78.5318 190.119C78.5318 190.41 78.4203 190.661 78.1973 190.872C77.9783 191.079 77.7135 191.183 77.4029 191.183ZM84.9719 192.598V194.032H79.9608V192.598H84.9719ZM81.3046 190.4H83.0905V199.079C83.0905 199.425 83.1422 199.686 83.2457 199.861C83.3493 200.032 83.4827 200.15 83.6459 200.213C83.8132 200.273 83.9943 200.303 84.1894 200.303C84.3328 200.303 84.4582 200.293 84.5657 200.273C84.6732 200.253 84.7568 200.237 84.8166 200.225L85.1391 201.701C85.0356 201.74 84.8882 201.78 84.6971 201.82C84.506 201.864 84.2671 201.888 83.9804 201.892C83.5105 201.9 83.0725 201.816 82.6664 201.641C82.2602 201.466 81.9317 201.195 81.6809 200.829C81.43 200.462 81.3046 200.002 81.3046 199.449V190.4ZM95.6809 192.598V194.032H90.6698V192.598H95.6809ZM92.0137 190.4H93.7995V199.079C93.7995 199.425 93.8513 199.686 93.9548 199.861C94.0583 200.032 94.1917 200.15 94.355 200.213C94.5222 200.273 94.7034 200.303 94.8985 200.303C95.0419 200.303 95.1673 200.293 95.2748 200.273C95.3823 200.253 95.4659 200.237 95.5256 200.225L95.8482 201.701C95.7446 201.74 95.5973 201.78 95.4062 201.82C95.2151 201.864 94.9762 201.888 94.6895 201.892C94.2196 201.9 93.7816 201.816 93.3755 201.641C92.9693 201.466 92.6408 201.195 92.39 200.829C92.1391 200.462 92.0137 200.002 92.0137 199.449V190.4ZM101.422 201.957C100.562 201.957 99.8116 201.76 99.1705 201.366C98.5294 200.972 98.0317 200.42 97.6773 199.712C97.3229 199.003 97.1457 198.175 97.1457 197.227C97.1457 196.275 97.3229 195.443 97.6773 194.73C98.0317 194.018 98.5294 193.464 99.1705 193.07C99.8116 192.676 100.562 192.479 101.422 192.479C102.282 192.479 103.033 192.676 103.674 193.07C104.315 193.464 104.813 194.018 105.167 194.73C105.521 195.443 105.699 196.275 105.699 197.227C105.699 198.175 105.521 199.003 105.167 199.712C104.813 200.42 104.315 200.972 103.674 201.366C103.033 201.76 102.282 201.957 101.422 201.957ZM101.428 200.458C101.986 200.458 102.448 200.311 102.814 200.016C103.18 199.722 103.451 199.329 103.626 198.84C103.805 198.35 103.895 197.81 103.895 197.221C103.895 196.636 103.805 196.098 103.626 195.608C103.451 195.115 103.18 194.718 102.814 194.42C102.448 194.121 101.986 193.972 101.428 193.972C100.867 193.972 100.401 194.121 100.031 194.42C99.6642 194.718 99.3915 195.115 99.2123 195.608C99.0371 196.098 98.9495 196.636 98.9495 197.221C98.9495 197.81 99.0371 198.35 99.2123 198.84C99.3915 199.329 99.6642 199.722 100.031 200.016C100.401 200.311 100.867 200.458 101.428 200.458ZM117.955 197.968V192.598H119.746V201.772H117.991V200.183H117.895C117.684 200.673 117.345 201.081 116.88 201.408C116.418 201.73 115.842 201.892 115.153 201.892C114.564 201.892 114.043 201.762 113.589 201.503C113.139 201.241 112.784 200.852 112.525 200.339C112.271 199.825 112.143 199.19 112.143 198.433V192.598H113.929V198.218C113.929 198.844 114.102 199.341 114.449 199.712C114.795 200.082 115.245 200.267 115.799 200.267C116.133 200.267 116.465 200.183 116.796 200.016C117.13 199.849 117.407 199.596 117.626 199.258C117.849 198.919 117.959 198.489 117.955 197.968ZM129.021 194.838L127.402 195.125C127.334 194.918 127.227 194.72 127.079 194.533C126.936 194.346 126.741 194.193 126.494 194.073C126.247 193.954 125.939 193.894 125.568 193.894C125.063 193.894 124.641 194.008 124.302 194.235C123.964 194.458 123.794 194.746 123.794 195.101C123.794 195.407 123.908 195.654 124.135 195.841C124.362 196.028 124.728 196.182 125.234 196.301L126.691 196.636C127.535 196.831 128.165 197.131 128.579 197.538C128.993 197.944 129.2 198.471 129.2 199.12C129.2 199.67 129.041 200.16 128.722 200.59C128.407 201.016 127.967 201.35 127.402 201.593C126.841 201.836 126.19 201.957 125.449 201.957C124.422 201.957 123.583 201.738 122.934 201.3C122.285 200.858 121.887 200.231 121.74 199.419L123.466 199.156C123.573 199.606 123.794 199.947 124.129 200.178C124.463 200.404 124.899 200.518 125.437 200.518C126.022 200.518 126.49 200.397 126.841 200.154C127.191 199.907 127.366 199.606 127.366 199.252C127.366 198.965 127.259 198.724 127.044 198.529C126.833 198.334 126.508 198.187 126.07 198.087L124.517 197.747C123.661 197.551 123.028 197.241 122.618 196.815C122.212 196.389 122.009 195.849 122.009 195.196C122.009 194.655 122.16 194.181 122.463 193.775C122.765 193.369 123.183 193.052 123.717 192.825C124.25 192.594 124.862 192.479 125.55 192.479C126.542 192.479 127.322 192.694 127.892 193.124C128.461 193.55 128.837 194.121 129.021 194.838Z" fill="#262F39"/>
<g clip-path="url(#clip0_161_1761)">
<path fill-rule="evenodd" clip-rule="evenodd" d="M68.4949 102.807L70.2998 100.985C70.6856 100.595 71.3145 100.593 71.7039 100.978C72.0931 101.363 72.096 101.993 71.7103 102.382L68.2684 105.857C67.9884 106.139 67.567 106.228 67.1973 106.081C66.8275 105.935 66.581 105.581 66.5705 105.184L66.2493 92.846C66.235 92.2982 66.6678 91.8421 67.2158 91.8277C67.7635 91.8135 68.2197 92.2464 68.234 92.7942L68.4949 102.807Z" fill="#8FC045"/>
<path fill-rule="evenodd" clip-rule="evenodd" d="M78.1543 77.4115L79.7635 76.725C80.2677 76.5099 80.5023 75.9254 80.2872 75.422C80.0721 74.9178 79.4877 74.6833 78.9842 74.8991L77.375 75.5857C76.8708 75.8008 76.6363 76.3852 76.8513 76.8886C77.0672 77.3928 77.6509 77.6274 78.1543 77.4115Z" fill="#8FC045"/>
<path fill-rule="evenodd" clip-rule="evenodd" d="M97.9123 68.9749L83.1854 75.2637C82.6812 75.4788 82.0975 75.2442 81.8824 74.7408C81.6673 74.2366 81.9011 73.6529 82.4053 73.4378L99.4062 66.178C99.7786 66.0191 100.211 66.1024 100.498 66.3892C100.785 66.676 100.868 67.1077 100.709 67.481L83.268 108.325C83.1386 108.628 82.8666 108.847 82.5432 108.91C82.2198 108.972 81.8863 108.87 81.6525 108.637L72.3845 99.3693C72.0393 99.0233 71.9964 98.4778 72.284 98.0827L82.9601 83.4049L67.7968 93.6439C67.4025 93.9104 66.8757 93.8597 66.5391 93.5239L58.2498 85.2339C58.0168 85.0009 57.9147 84.6673 57.9771 84.3439C58.0402 84.0205 58.2592 83.7485 58.5623 83.6192L73.4435 77.2649C73.9469 77.0498 74.5306 77.2836 74.7457 77.7878C74.9608 78.292 74.727 78.8757 74.2228 79.0908L60.6921 84.8684L67.3643 91.5406L86.5293 78.599C86.929 78.3294 87.4644 78.3855 87.7995 78.7323C88.1338 79.0791 88.1712 79.616 87.8876 80.0056L74.3888 98.5651L82.0188 106.195L97.9123 68.9749Z" fill="#8FC045"/>
</g>
<defs>
<clipPath id="clip0_161_1761">
<rect width="43.567" height="44.2477" fill="white" transform="translate(57.5909 65.4009)"/>
</clipPath>
</defs>
</svg>
