<svg width="249" height="60" viewBox="0 0 249 60" fill="none" xmlns="http://www.w3.org/2000/svg">
<g clip-path="url(#clip0_1200_4818)">
<path d="M150.915 0H98.0851C96.2615 0 94.7832 1.4783 94.7832 3.30187V56.1318C94.7832 57.9553 96.2615 59.4336 98.0851 59.4336H150.915C152.739 59.4336 154.217 57.9553 154.217 56.1318V3.30187C154.217 1.4783 152.739 0 150.915 0Z" fill="#117EB8"/>
<path fill-rule="evenodd" clip-rule="evenodd" d="M105.63 22.9876H113.573V48.5457H105.63V22.9876ZM109.602 10.2828C112.142 10.2828 114.206 12.3465 114.206 14.8864C114.206 17.4289 112.142 19.4934 109.602 19.4934C108.99 19.505 108.382 19.3944 107.813 19.1682C107.244 18.9419 106.726 18.6046 106.289 18.1758C105.852 17.747 105.505 17.2354 105.268 16.6709C105.031 16.1064 104.909 15.5003 104.909 14.8881C104.909 14.2759 105.031 13.6698 105.268 13.1053C105.505 12.5408 105.852 12.0292 106.289 11.6004C106.726 11.1716 107.244 10.8342 107.813 10.608C108.382 10.3818 108.99 10.2712 109.602 10.2828ZM118.556 22.9867H126.175V26.4793H126.28C127.341 24.4701 129.932 22.352 133.796 22.352C141.839 22.352 143.325 27.6457 143.325 34.5276V48.5457H135.387V36.1166C135.387 33.1532 135.332 29.3404 131.259 29.3404C127.126 29.3404 126.492 32.5688 126.492 35.9028V48.5457H118.555V22.9876L118.556 22.9867Z" fill="white"/>
</g>
<g clip-path="url(#clip1_1200_4818)">
<path d="M52.0044 0H7.42921C3.332 0 0 3.332 0 7.42921V52.0044C0 56.1016 3.332 59.4336 7.42921 59.4336H52.0044C56.1016 59.4336 59.4336 56.1016 59.4336 52.0044V7.42921C59.4336 3.332 56.1016 0 52.0044 0Z" fill="#1976D2"/>
<path fill-rule="evenodd" clip-rule="evenodd" d="M50.1471 29.7168H40.8606V22.2876C40.8606 20.2371 42.5248 20.4303 44.5752 20.4303H48.2898V11.1438H40.8606C37.9051 11.1438 35.0706 12.3179 32.9807 14.4077C30.8909 16.4976 29.7168 19.3321 29.7168 22.2876V29.7168H22.2876V39.0033H29.7168V59.4336H40.8606V39.0033H46.4325L50.1471 29.7168Z" fill="#FAFAFA"/>
</g>
<g clip-path="url(#clip2_1200_4818)">
<path d="M204.637 59.2233C202.339 59.1976 200.061 58.776 197.906 57.9769C196.332 57.3951 194.907 56.4687 193.737 55.2657C192.531 54.0979 191.603 52.6733 191.023 51.0978C190.225 48.9422 189.804 46.6652 189.779 44.3666C189.602 40.5454 189.566 39.3993 189.566 29.7168C189.566 20.0344 189.605 18.8923 189.777 15.0682C189.805 12.7705 190.227 10.4947 191.023 8.33936C191.606 6.76495 192.532 5.34016 193.735 4.16851C194.904 2.96331 196.329 2.03649 197.904 1.45671C200.06 0.657625 202.337 0.236003 204.636 0.210348C208.458 0.0355436 209.606 0 219.283 0C228.96 0 230.108 0.0390397 233.932 0.210348C236.23 0.238364 238.507 0.659915 240.662 1.45671C242.237 2.03725 243.662 2.96375 244.831 4.16793C246.036 5.33752 246.962 6.76238 247.543 8.33761C248.343 10.4932 248.764 12.7705 248.79 15.0693C248.965 18.8935 249.001 20.0385 249.001 29.718C249.001 39.3975 248.965 40.5425 248.79 44.3666C248.763 46.6651 248.341 48.9419 247.543 51.0978C246.94 52.6612 246.016 54.081 244.831 55.2658C243.646 56.4506 242.226 57.3741 240.662 57.9769C238.507 58.7762 236.23 59.198 233.931 59.2239C230.11 59.3987 228.962 59.4342 219.282 59.4342C209.603 59.4342 208.458 59.4004 204.637 59.2239" fill="url(#paint0_radial_1200_4818)"/>
<path d="M204.637 59.2233C202.339 59.1976 200.061 58.776 197.906 57.9769C196.332 57.3951 194.907 56.4687 193.737 55.2657C192.531 54.0979 191.603 52.6733 191.023 51.0978C190.225 48.9422 189.804 46.6652 189.779 44.3666C189.602 40.5454 189.566 39.3993 189.566 29.7168C189.566 20.0344 189.605 18.8923 189.777 15.0682C189.805 12.7705 190.227 10.4947 191.023 8.33936C191.606 6.76495 192.532 5.34016 193.735 4.16851C194.904 2.96331 196.329 2.03649 197.904 1.45671C200.06 0.657625 202.337 0.236003 204.636 0.210348C208.458 0.0355436 209.606 0 219.283 0C228.96 0 230.108 0.0390397 233.932 0.210348C236.23 0.238364 238.507 0.659915 240.662 1.45671C242.237 2.03725 243.662 2.96375 244.831 4.16793C246.036 5.33752 246.962 6.76238 247.543 8.33761C248.343 10.4932 248.764 12.7705 248.79 15.0693C248.965 18.8935 249.001 20.0385 249.001 29.718C249.001 39.3975 248.965 40.5425 248.79 44.3666C248.763 46.6651 248.341 48.9419 247.543 51.0978C246.94 52.6612 246.016 54.081 244.831 55.2658C243.646 56.4506 242.226 57.3741 240.662 57.9769C238.507 58.7762 236.23 59.198 233.931 59.2239C230.11 59.3987 228.962 59.4342 219.282 59.4342C209.603 59.4342 208.458 59.4004 204.637 59.2239" fill="url(#paint1_radial_1200_4818)"/>
<path d="M211.987 29.8433C211.987 28.3877 212.418 26.9647 213.227 25.7544C214.036 24.5442 215.186 23.6009 216.531 23.044C217.875 22.4871 219.355 22.3415 220.783 22.6256C222.211 22.9098 223.522 23.6109 224.551 24.6403C225.58 25.6697 226.281 26.9813 226.565 28.409C226.849 29.8367 226.703 31.3166 226.146 32.6614C225.588 34.0061 224.645 35.1555 223.434 35.964C222.224 36.7726 220.801 37.204 219.345 37.2038C217.393 37.2035 215.522 36.4278 214.142 35.0475C212.762 33.6672 211.986 31.7952 211.987 29.8433ZM208.007 29.8433C208.007 32.0857 208.672 34.2778 209.918 36.1423C211.164 38.0068 212.935 39.46 215.006 40.3181C217.078 41.1763 219.358 41.4008 221.557 40.9633C223.756 40.5258 225.777 39.446 227.362 37.8604C228.948 36.2748 230.028 34.2546 230.465 32.0552C230.903 29.8559 230.678 27.5762 229.82 25.5045C228.962 23.4328 227.509 21.6621 225.644 20.4162C223.78 19.1704 221.588 18.5055 219.345 18.5055C217.856 18.5054 216.382 18.7986 215.006 19.3684C213.631 19.9381 212.381 20.7733 211.328 21.8261C210.275 22.8789 209.44 24.1288 208.87 25.5044C208.301 26.88 208.007 28.3544 208.007 29.8433ZM228.482 18.0562C228.482 18.5802 228.637 19.0926 228.928 19.5284C229.219 19.9642 229.633 20.304 230.117 20.5047C230.601 20.7055 231.133 20.7582 231.647 20.6562C232.161 20.5542 232.634 20.302 233.004 19.9317C233.375 19.5613 233.628 19.0893 233.73 18.5754C233.833 18.0615 233.78 17.5288 233.58 17.0446C233.38 16.5604 233.04 16.1464 232.605 15.8551C232.169 15.5638 231.657 15.4082 231.133 15.4079C230.431 15.4083 229.757 15.6873 229.26 16.1839C228.763 16.6804 228.484 17.3538 228.483 18.0562M210.426 47.8162C209.026 47.8008 207.639 47.5446 206.326 47.0587C205.373 46.6916 204.508 46.1292 203.787 45.4076C203.065 44.6861 202.502 43.8214 202.135 42.8692C201.648 41.5561 201.392 40.169 201.377 38.7689C201.27 36.4416 201.249 35.7424 201.249 29.8462C201.249 23.9501 201.272 23.2526 201.377 20.923C201.394 19.5231 201.65 18.1363 202.135 16.8227C202.502 15.87 203.064 15.0049 203.786 14.283C204.508 13.5611 205.373 12.9985 206.326 12.6315C207.639 12.1454 209.026 11.8891 210.426 11.874C212.753 11.7668 213.453 11.7458 219.346 11.7458C225.24 11.7458 225.94 11.7685 228.27 11.8746C229.67 11.8915 231.056 12.1477 232.37 12.632C233.323 12.9991 234.188 13.5617 234.91 14.2836C235.631 15.0055 236.194 15.8706 236.561 16.8233C237.047 18.1364 237.303 19.5235 237.319 20.9236C237.426 23.2544 237.447 23.9501 237.447 29.8468C237.447 35.7436 237.425 36.4405 237.319 38.77C237.302 40.1701 237.046 41.5569 236.561 42.8704C236.194 43.8226 235.631 44.6873 234.909 45.4088C234.187 46.1304 233.322 46.6928 232.37 47.0599C231.057 47.5459 229.67 47.8022 228.27 47.8173C225.942 47.9246 225.243 47.9455 219.346 47.9455C213.45 47.9455 212.753 47.924 210.426 47.8173M210.243 7.89833C208.411 7.93435 206.598 8.2811 204.882 8.92384C203.416 9.49101 202.083 10.3584 200.971 11.4705C199.859 12.5826 198.992 13.9148 198.425 15.3817C197.782 17.0977 197.435 18.9104 197.399 20.7424C197.29 23.0964 197.266 23.8493 197.266 29.8457C197.266 35.842 197.291 36.5943 197.399 38.9489C197.435 40.781 197.782 42.5936 198.425 44.3096C198.992 45.7765 199.859 47.1087 200.971 48.2207C202.083 49.3328 203.416 50.2003 204.882 50.7675C206.599 51.4099 208.411 51.7567 210.243 51.793C212.598 51.9002 213.35 51.9264 219.346 51.9264C225.343 51.9264 226.095 51.9014 228.45 51.793C230.282 51.7568 232.094 51.41 233.81 50.7675C235.277 50.2003 236.609 49.3328 237.721 48.2207C238.834 47.1087 239.701 45.7765 240.268 44.3096C240.912 42.5938 241.258 40.7811 241.294 38.9489C241.401 36.5931 241.425 35.842 241.425 29.8457C241.425 23.8493 241.4 23.097 241.294 20.7424C241.258 18.9104 240.911 17.0977 240.268 15.3817C239.701 13.9151 238.834 12.5831 237.722 11.471C236.61 10.359 235.279 9.4914 233.812 8.92384C232.096 8.28069 230.283 7.93392 228.451 7.89833C226.097 7.79053 225.345 7.76489 219.349 7.76489C213.354 7.76489 212.6 7.78995 210.244 7.89833" fill="white"/>
</g>
<defs>
<radialGradient id="paint0_radial_1200_4818" cx="0" cy="0" r="1" gradientUnits="userSpaceOnUse" gradientTransform="translate(193.413 58.1319) scale(75.4586)">
<stop offset="0.09" stop-color="#FA8F21"/>
<stop offset="0.78" stop-color="#D82D7E"/>
</radialGradient>
<radialGradient id="paint1_radial_1200_4818" cx="0" cy="0" r="1" gradientUnits="userSpaceOnUse" gradientTransform="translate(230.734 56.2231) scale(66.4043)">
<stop offset="0.64" stop-color="#8C3AAA" stop-opacity="0"/>
<stop offset="1" stop-color="#8C3AAA"/>
</radialGradient>
<clipPath id="clip0_1200_4818">
<rect width="59.4336" height="59.4336" fill="white" transform="translate(94.7832)"/>
</clipPath>
<clipPath id="clip1_1200_4818">
<rect width="59.4336" height="59.4336" fill="white"/>
</clipPath>
<clipPath id="clip2_1200_4818">
<rect width="59.4336" height="59.4336" fill="white" transform="translate(189.566)"/>
</clipPath>
</defs>
</svg>
