<svg width="61" height="60" viewBox="0 0 61 60" fill="none" xmlns="http://www.w3.org/2000/svg">
<path d="M45.0559 17.9001C44.9059 17.8751 44.7309 17.8751 44.5809 17.9001C41.1309 17.7751 38.3809 14.9501 38.3809 11.4501C38.3809 7.87513 41.2559 5.00012 44.8309 5.00012C48.4059 5.00012 51.2808 7.90013 51.2808 11.4501C51.2558 14.9501 48.5059 17.7751 45.0559 17.9001Z" stroke="#262F39" stroke-width="2.18854" stroke-linecap="round" stroke-linejoin="round"/>
<path d="M42.4793 36.1C45.9043 36.675 49.6793 36.075 52.3293 34.3C55.8543 31.95 55.8543 28.1 52.3293 25.75C49.6543 23.975 45.8293 23.375 42.4043 23.975" stroke="#262F39" stroke-width="2.18854" stroke-linecap="round" stroke-linejoin="round"/>
<path d="M14.9818 17.9001C15.1318 17.8751 15.3068 17.8751 15.4568 17.9001C18.9068 17.7751 21.6568 14.9501 21.6568 11.4501C21.6568 7.87513 18.7818 5.00012 15.2068 5.00012C11.6318 5.00012 8.75684 7.90013 8.75684 11.4501C8.78184 14.9501 11.5318 17.7751 14.9818 17.9001Z" stroke="#262F39" stroke-width="2.18854" stroke-linecap="round" stroke-linejoin="round"/>
<path d="M17.5582 36.1C14.1332 36.675 10.3582 36.075 7.7082 34.3C4.1832 31.95 4.1832 28.1 7.7082 25.75C10.3832 23.975 14.2082 23.375 17.6332 23.975" stroke="#262F39" stroke-width="2.18854" stroke-linecap="round" stroke-linejoin="round"/>
<path d="M30.0656 36.575C29.9156 36.55 29.7406 36.55 29.5906 36.575C26.1406 36.45 23.3906 33.625 23.3906 30.125C23.3906 26.55 26.2656 23.675 29.8406 23.675C33.4156 23.675 36.2906 26.575 36.2906 30.125C36.2656 33.625 33.5156 36.475 30.0656 36.575Z" stroke="#262F39" stroke-width="2.18854" stroke-linecap="round" stroke-linejoin="round"/>
<path d="M22.7893 44.4501C19.2643 46.8001 19.2643 50.6501 22.7893 53.0001C26.7893 55.6751 33.3393 55.6751 37.3393 53.0001C40.8643 50.6501 40.8643 46.8001 37.3393 44.4501C33.3643 41.8001 26.7893 41.8001 22.7893 44.4501Z" stroke="#262F39" stroke-width="2.18854" stroke-linecap="round" stroke-linejoin="round"/>
</svg>
