<svg width="119" height="20" viewBox="0 0 119 20" fill="none" xmlns="http://www.w3.org/2000/svg">
<path fill-rule="evenodd" clip-rule="evenodd" d="M10.0432 0.316895L12.5935 6.05072C12.6915 6.27095 12.8457 6.46146 13.0407 6.60316C13.2357 6.74486 13.4646 6.83264 13.7043 6.85777L19.9456 7.51141L15.2805 11.7088C15.1013 11.87 14.9678 12.0756 14.8933 12.3048C14.8188 12.534 14.806 12.7789 14.8562 13.0146L16.1632 19.1524L10.7297 16.0127C10.521 15.8921 10.2842 15.8286 10.0432 15.8286C9.80212 15.8286 9.56538 15.8921 9.35668 16.0127L3.92313 19.1524L5.23014 13.0146C5.28035 12.7789 5.26753 12.534 5.19307 12.3048C5.11857 12.0756 4.98502 11.87 4.80584 11.7088L0.140747 7.51141L6.38203 6.85777C6.62174 6.83264 6.85062 6.74486 7.04563 6.60316C7.24063 6.46146 7.39487 6.27095 7.49283 6.05072L10.0432 0.316895Z" fill="#8FC045"/>
<path fill-rule="evenodd" clip-rule="evenodd" d="M34.5635 0.316895L37.1139 6.05072C37.2119 6.27095 37.3661 6.46146 37.5611 6.60316C37.7561 6.74486 37.985 6.83264 38.2247 6.85777L44.466 7.51141L39.8009 11.7088C39.6217 11.87 39.4881 12.0756 39.4136 12.3048C39.3392 12.534 39.3264 12.7789 39.3766 13.0146L40.6836 19.1524L35.25 16.0127C35.0413 15.8921 34.8046 15.8286 34.5635 15.8286C34.3225 15.8286 34.0857 15.8921 33.877 16.0127L28.4435 19.1524L29.7505 13.0146C29.8007 12.7789 29.7879 12.534 29.7134 12.3048C29.6389 12.0756 29.5054 11.87 29.3262 11.7088L24.6611 7.51141L30.9024 6.85777C31.1421 6.83264 31.371 6.74486 31.566 6.60316C31.761 6.46146 31.9152 6.27095 32.0132 6.05072L34.5635 0.316895Z" fill="#8FC045"/>
<path fill-rule="evenodd" clip-rule="evenodd" d="M59.0837 0.316895L61.634 6.05072C61.732 6.27095 61.8862 6.46146 62.0813 6.60316C62.2763 6.74486 62.5051 6.83264 62.7448 6.85777L68.9861 7.51141L64.321 11.7088C64.1419 11.87 64.0083 12.0756 63.9338 12.3048C63.8593 12.534 63.8465 12.7789 63.8967 13.0146L65.2037 19.1524L59.7702 16.0127C59.5615 15.8921 59.3248 15.8286 59.0837 15.8286C58.8427 15.8286 58.6059 15.8921 58.3972 16.0127L52.9637 19.1524L54.2707 13.0146C54.3209 12.7789 54.3081 12.534 54.2336 12.3048C54.1591 12.0756 54.0255 11.87 53.8464 11.7088L49.1813 7.51141L55.4226 6.85777C55.6623 6.83264 55.8911 6.74486 56.0862 6.60316C56.2812 6.46146 56.4354 6.27095 56.5334 6.05072L59.0837 0.316895Z" fill="#8FC045"/>
<path fill-rule="evenodd" clip-rule="evenodd" d="M83.6044 0.316895L86.1548 6.05072C86.2527 6.27095 86.407 6.46146 86.602 6.60316C86.797 6.74486 87.0259 6.83264 87.2656 6.85777L93.5069 7.51141L88.8418 11.7088C88.6626 11.87 88.529 12.0756 88.4545 12.3048C88.3801 12.534 88.3672 12.7789 88.4175 13.0146L89.7245 19.1524L84.2909 16.0127C84.0822 15.8921 83.8455 15.8286 83.6044 15.8286C83.3634 15.8286 83.1266 15.8921 82.9179 16.0127L77.4844 19.1524L78.7914 13.0146C78.8416 12.7789 78.8288 12.534 78.7543 12.3048C78.6798 12.0756 78.5463 11.87 78.3671 11.7088L73.702 7.51141L79.9433 6.85777C80.183 6.83264 80.4119 6.74486 80.6069 6.60316C80.8019 6.46146 80.9561 6.27095 81.0541 6.05072L83.6044 0.316895Z" fill="#8FC045"/>
<path fill-rule="evenodd" clip-rule="evenodd" d="M108.125 0.316895L110.675 6.05072C110.773 6.27095 110.927 6.46146 111.122 6.60316C111.317 6.74486 111.546 6.83264 111.786 6.85777L118.027 7.51141L113.362 11.7088C113.183 11.87 113.049 12.0756 112.975 12.3048C112.9 12.534 112.887 12.7789 112.938 13.0146L114.245 19.1524L108.811 16.0127C108.602 15.8921 108.366 15.8286 108.125 15.8286C107.884 15.8286 107.647 15.8921 107.438 16.0127L102.005 19.1524L103.312 13.0146C103.362 12.7789 103.349 12.534 103.274 12.3048C103.2 12.0756 103.066 11.87 102.887 11.7088L98.2221 7.51141L104.463 6.85777C104.703 6.83264 104.932 6.74486 105.127 6.60316C105.322 6.46146 105.476 6.27095 105.574 6.05072L108.125 0.316895Z" fill="#A2A2A2"/>
</svg>
