<svg width="287" height="18" viewBox="0 0 287 18" fill="none" xmlns="http://www.w3.org/2000/svg">
<g clip-path="url(#clip0_3941_1091)">
<path d="M8.50943 10.6365C9.07364 10.6365 9.61474 10.4124 10.0137 10.0135C10.4127 9.6145 10.6368 9.0734 10.6368 8.50919C10.6368 7.94498 10.4127 7.40388 10.0137 7.00492C9.61474 6.60597 9.07364 6.38184 8.50943 6.38184C7.94522 6.38184 7.40412 6.60597 7.00517 7.00492C6.60621 7.40388 6.38208 7.94498 6.38208 8.50919C6.38208 9.0734 6.60621 9.6145 7.00517 10.0135C7.40412 10.4124 7.94522 10.6365 8.50943 10.6365Z" fill="#484848"/>
<path d="M0 4.25459C0 3.97249 0.112066 3.70194 0.311544 3.50246C0.511022 3.30298 0.781572 3.19092 1.06368 3.19092H15.9552C16.2373 3.19092 16.5078 3.30298 16.7073 3.50246C16.9068 3.70194 17.0188 3.97249 17.0188 4.25459V12.764C17.0188 13.0461 16.9068 13.3167 16.7073 13.5161C16.5078 13.7156 16.2373 13.8277 15.9552 13.8277H1.06368C0.781572 13.8277 0.511022 13.7156 0.311544 13.5161C0.112066 13.3167 0 13.0461 0 12.764V4.25459ZM3.19103 4.25459C3.19103 4.8188 2.9669 5.3599 2.56794 5.75886C2.16899 6.15782 1.62789 6.38195 1.06368 6.38195V10.6367C1.62789 10.6367 2.16899 10.8608 2.56794 11.2597C2.9669 11.6587 3.19103 12.1998 3.19103 12.764H13.8278C13.8278 12.1998 14.0519 11.6587 14.4509 11.2597C14.8498 10.8608 15.3909 10.6367 15.9552 10.6367V6.38195C15.3909 6.38195 14.8498 6.15782 14.4509 5.75886C14.0519 5.3599 13.8278 4.8188 13.8278 4.25459H3.19103Z" fill="#484848"/>
</g>
<path d="M30.6274 6.36364C30.5678 5.85985 30.3258 5.46875 29.9016 5.19034C29.4773 4.91193 28.957 4.77273 28.3405 4.77273C27.8897 4.77273 27.4953 4.84564 27.1573 4.99148C26.8225 5.13731 26.5607 5.33783 26.3717 5.59304C26.1861 5.84825 26.0933 6.13826 26.0933 6.46307C26.0933 6.73485 26.158 6.96851 26.2872 7.16406C26.4198 7.3563 26.5888 7.51705 26.7943 7.64631C26.9998 7.77225 27.2153 7.87666 27.4406 7.95952C27.666 8.03906 27.8732 8.10369 28.0621 8.15341L29.0962 8.43182C29.3613 8.50142 29.6563 8.59754 29.9811 8.72017C30.3092 8.8428 30.6225 9.01018 30.9208 9.2223C31.2224 9.43111 31.4709 9.69957 31.6665 10.0277C31.862 10.3558 31.9598 10.7585 31.9598 11.2358C31.9598 11.786 31.8156 12.2831 31.5273 12.7273C31.2423 13.1714 30.8246 13.5244 30.2744 13.7862C29.7276 14.0481 29.063 14.179 28.2808 14.179C27.5517 14.179 26.9203 14.0613 26.3867 13.826C25.8564 13.5907 25.4387 13.2625 25.1338 12.8416C24.8322 12.4207 24.6615 11.9318 24.6217 11.375H25.8945C25.9276 11.7595 26.0569 12.0777 26.2823 12.3295C26.511 12.5781 26.7993 12.7637 27.1473 12.8864C27.4986 13.0057 27.8765 13.0653 28.2808 13.0653C28.7515 13.0653 29.1741 12.9891 29.5486 12.8366C29.9231 12.6809 30.2198 12.4654 30.4385 12.1903C30.6573 11.9119 30.7666 11.5871 30.7666 11.2159C30.7666 10.8778 30.6722 10.6027 30.4833 10.3906C30.2943 10.1785 30.0458 10.0062 29.7375 9.87358C29.4293 9.741 29.0962 9.625 28.7382 9.52557L27.4854 9.16761C26.6899 8.93892 26.0602 8.61245 25.5962 8.18821C25.1322 7.76397 24.9002 7.20881 24.9002 6.52273C24.9002 5.95265 25.0543 5.45549 25.3625 5.03125C25.6741 4.60369 26.0917 4.27225 26.6154 4.03693C27.1423 3.7983 27.7306 3.67898 28.3803 3.67898C29.0365 3.67898 29.6199 3.79664 30.1303 4.03196C30.6407 4.26397 31.045 4.58215 31.3433 4.98651C31.6449 5.39086 31.804 5.8499 31.8206 6.36364H30.6274ZM37.1489 6.36364V7.35795H33.1915V6.36364H37.1489ZM34.3449 4.53409H35.5182V11.8125C35.5182 12.1439 35.5663 12.3925 35.6624 12.5582C35.7618 12.7206 35.8878 12.83 36.0403 12.8864C36.196 12.9394 36.3601 12.9659 36.5324 12.9659C36.6617 12.9659 36.7678 12.9593 36.8506 12.946C36.9335 12.9295 36.9998 12.9162 37.0495 12.9062L37.2881 13.9602C37.2086 13.9901 37.0975 14.0199 36.955 14.0497C36.8125 14.0829 36.6319 14.0994 36.4131 14.0994C36.0817 14.0994 35.7569 14.0282 35.4387 13.8857C35.1238 13.7431 34.862 13.526 34.6532 13.2344C34.4477 12.9427 34.3449 12.5748 34.3449 12.1307V4.53409ZM41.161 14.179C40.6771 14.179 40.2379 14.0878 39.8435 13.9055C39.4491 13.7199 39.1359 13.4531 38.9039 13.1051C38.6719 12.7538 38.5559 12.3295 38.5559 11.8324C38.5559 11.3949 38.642 11.0402 38.8144 10.7685C38.9867 10.4934 39.2171 10.2779 39.5054 10.1222C39.7938 9.96638 40.112 9.85038 40.46 9.77415C40.8113 9.6946 41.1643 9.63163 41.5189 9.58523C41.983 9.52557 42.3591 9.48082 42.6475 9.45099C42.9392 9.41785 43.1513 9.36316 43.2839 9.28693C43.4197 9.2107 43.4877 9.07812 43.4877 8.8892V8.84943C43.4877 8.3589 43.3535 7.97775 43.085 7.70597C42.8198 7.43419 42.4171 7.2983 41.8769 7.2983C41.3168 7.2983 40.8776 7.42093 40.5594 7.66619C40.2412 7.91146 40.0175 8.1733 39.8883 8.4517L38.7746 8.05398C38.9735 7.58996 39.2386 7.22869 39.5701 6.97017C39.9048 6.70833 40.2694 6.52604 40.6638 6.4233C41.0616 6.31723 41.4527 6.2642 41.8371 6.2642C42.0824 6.2642 42.3641 6.29403 42.6823 6.35369C43.0038 6.41004 43.3137 6.5277 43.612 6.70668C43.9136 6.88565 44.1638 7.15578 44.3627 7.51705C44.5616 7.87831 44.661 8.36222 44.661 8.96875V14H43.4877V12.9659H43.428C43.3485 13.1316 43.2159 13.3089 43.0303 13.4979C42.8447 13.6868 42.5978 13.8475 42.2895 13.9801C41.9813 14.1127 41.6051 14.179 41.161 14.179ZM41.34 13.125C41.804 13.125 42.1951 13.0339 42.5133 12.8516C42.8348 12.6693 43.0767 12.4339 43.2391 12.1456C43.4048 11.8572 43.4877 11.554 43.4877 11.2358V10.1619C43.438 10.2216 43.3286 10.2763 43.1596 10.326C42.9938 10.3724 42.8016 10.4138 42.5829 10.4503C42.3674 10.4834 42.157 10.5133 41.9515 10.5398C41.7493 10.563 41.5852 10.5829 41.4593 10.5994C41.1544 10.6392 40.8693 10.7038 40.6042 10.7933C40.3423 10.8795 40.1302 11.0104 39.9678 11.1861C39.8087 11.3584 39.7292 11.5937 39.7292 11.892C39.7292 12.2997 39.88 12.608 40.1816 12.8168C40.4865 13.0223 40.8726 13.125 41.34 13.125ZM46.8025 14V6.36364H47.936V7.51705H48.0156C48.1548 7.1392 48.4067 6.83262 48.7713 6.5973C49.1358 6.36198 49.5468 6.24432 50.0042 6.24432C50.0904 6.24432 50.1981 6.24597 50.3274 6.24929C50.4566 6.2526 50.5544 6.25758 50.6207 6.2642V7.45739C50.5809 7.44744 50.4898 7.43253 50.3472 7.41264C50.208 7.38944 50.0606 7.37784 49.9048 7.37784C49.5336 7.37784 49.2021 7.45573 48.9105 7.61151C48.6221 7.76397 48.3934 7.97609 48.2244 8.24787C48.0587 8.51634 47.9758 8.82292 47.9758 9.16761V14H46.8025ZM55.811 6.36364V7.35795H51.8536V6.36364H55.811ZM53.007 4.53409H54.1803V11.8125C54.1803 12.1439 54.2284 12.3925 54.3245 12.5582C54.424 12.7206 54.5499 12.83 54.7024 12.8864C54.8581 12.9394 55.0222 12.9659 55.1945 12.9659C55.3238 12.9659 55.4299 12.9593 55.5127 12.946C55.5956 12.9295 55.6619 12.9162 55.7116 12.9062L55.9502 13.9602C55.8707 13.9901 55.7597 14.0199 55.6171 14.0497C55.4746 14.0829 55.294 14.0994 55.0752 14.0994C54.7438 14.0994 54.419 14.0282 54.1008 13.8857C53.7859 13.7431 53.5241 13.526 53.3153 13.2344C53.1098 12.9427 53.007 12.5748 53.007 12.1307V4.53409ZM62.8483 8.07386L61.7943 8.37216C61.728 8.1965 61.6303 8.0258 61.501 7.86009C61.3751 7.69105 61.2027 7.55185 60.984 7.44247C60.7652 7.3331 60.4851 7.27841 60.1438 7.27841C59.6764 7.27841 59.287 7.38613 58.9754 7.60156C58.6672 7.81368 58.5131 8.08381 58.5131 8.41193C58.5131 8.7036 58.6191 8.93395 58.8313 9.10298C59.0434 9.27202 59.3748 9.41288 59.8256 9.52557L60.9591 9.80398C61.6419 9.9697 62.1506 10.2232 62.4854 10.5646C62.8201 10.9027 62.9875 11.3385 62.9875 11.8722C62.9875 12.3097 62.8616 12.7008 62.6097 13.0455C62.3611 13.3902 62.0131 13.6619 61.5656 13.8608C61.1182 14.0597 60.5978 14.1591 60.0046 14.1591C59.2257 14.1591 58.581 13.9901 58.0706 13.652C57.5602 13.3139 57.237 12.8201 57.1012 12.1705L58.2148 11.892C58.3208 12.303 58.5214 12.6113 58.8164 12.8168C59.1146 13.0223 59.5041 13.125 59.9847 13.125C60.5315 13.125 60.9657 13.009 61.2872 12.777C61.612 12.5417 61.7744 12.2599 61.7744 11.9318C61.7744 11.6667 61.6816 11.4446 61.496 11.2656C61.3104 11.0833 61.0254 10.9474 60.6409 10.858L59.3682 10.5597C58.6689 10.3939 58.1551 10.1371 57.827 9.78906C57.5022 9.43774 57.3398 8.99858 57.3398 8.47159C57.3398 8.04072 57.4608 7.65956 57.7027 7.32812C57.948 6.99669 58.2811 6.73651 58.702 6.54758C59.1262 6.35866 59.6068 6.2642 60.1438 6.2642C60.8994 6.2642 61.4927 6.42992 61.9236 6.76136C62.3578 7.0928 62.666 7.5303 62.8483 8.07386ZM72.0917 6.36364V7.35795H67.9753V6.36364H72.0917ZM69.2082 14V5.30966C69.2082 4.87216 69.311 4.50758 69.5165 4.21591C69.7219 3.92424 69.9888 3.70549 70.3169 3.55966C70.645 3.41383 70.9914 3.34091 71.3559 3.34091C71.6443 3.34091 71.8796 3.36411 72.0619 3.41051C72.2442 3.45691 72.3801 3.5 72.4696 3.53977L72.1315 4.55398C72.0719 4.53409 71.989 4.50923 71.8829 4.4794C71.7802 4.44957 71.6443 4.43466 71.4753 4.43466C71.0875 4.43466 70.8074 4.53243 70.6351 4.72798C70.466 4.92353 70.3815 5.21023 70.3815 5.58807V14H69.2082ZM73.7361 14V6.36364H74.8696V7.51705H74.9492C75.0884 7.1392 75.3403 6.83262 75.7048 6.5973C76.0694 6.36198 76.4804 6.24432 76.9378 6.24432C77.024 6.24432 77.1317 6.24597 77.261 6.24929C77.3902 6.2526 77.488 6.25758 77.5543 6.2642V7.45739C77.5145 7.44744 77.4234 7.43253 77.2808 7.41264C77.1416 7.38944 76.9941 7.37784 76.8384 7.37784C76.4672 7.37784 76.1357 7.45573 75.844 7.61151C75.5557 7.76397 75.327 7.97609 75.158 8.24787C74.9923 8.51634 74.9094 8.82292 74.9094 9.16761V14H73.7361ZM81.8149 14.1591C81.1255 14.1591 80.5207 13.995 80.0003 13.6669C79.4833 13.3388 79.0789 12.8797 78.7872 12.2898C78.4989 11.6998 78.3547 11.0104 78.3547 10.2216C78.3547 9.42614 78.4989 8.73177 78.7872 8.13849C79.0789 7.54522 79.4833 7.08452 80.0003 6.75639C80.5207 6.42827 81.1255 6.2642 81.8149 6.2642C82.5043 6.2642 83.1075 6.42827 83.6246 6.75639C84.1449 7.08452 84.5493 7.54522 84.8377 8.13849C85.1293 8.73177 85.2752 9.42614 85.2752 10.2216C85.2752 11.0104 85.1293 11.6998 84.8377 12.2898C84.5493 12.8797 84.1449 13.3388 83.6246 13.6669C83.1075 13.995 82.5043 14.1591 81.8149 14.1591ZM81.8149 13.1051C82.3386 13.1051 82.7695 12.9709 83.1075 12.7024C83.4456 12.4339 83.6958 12.081 83.8583 11.6435C84.0207 11.206 84.1019 10.732 84.1019 10.2216C84.1019 9.71117 84.0207 9.23556 83.8583 8.79474C83.6958 8.35393 83.4456 7.99763 83.1075 7.72585C82.7695 7.45407 82.3386 7.31818 81.8149 7.31818C81.2913 7.31818 80.8604 7.45407 80.5223 7.72585C80.1842 7.99763 79.934 8.35393 79.7716 8.79474C79.6092 9.23556 79.528 9.71117 79.528 10.2216C79.528 10.732 79.6092 11.206 79.7716 11.6435C79.934 12.081 80.1842 12.4339 80.5223 12.7024C80.8604 12.9709 81.2913 13.1051 81.8149 13.1051ZM87.0662 14V6.36364H88.1997V7.55682H88.2991C88.4582 7.14915 88.7151 6.83262 89.0697 6.60724C89.4244 6.37855 89.8503 6.2642 90.3474 6.2642C90.8512 6.2642 91.2705 6.37855 91.6052 6.60724C91.9433 6.83262 92.2068 7.14915 92.3957 7.55682H92.4753C92.6708 7.16241 92.9641 6.84919 93.3552 6.61719C93.7463 6.38187 94.2153 6.2642 94.7622 6.2642C95.445 6.2642 96.0034 6.47798 96.4376 6.90554C96.8718 7.32978 97.0889 7.991 97.0889 8.8892V14H95.9156V8.8892C95.9156 8.32576 95.7615 7.92306 95.4532 7.68111C95.145 7.43916 94.7821 7.31818 94.3645 7.31818C93.8275 7.31818 93.4116 7.48059 93.1166 7.8054C92.8216 8.12689 92.6741 8.53456 92.6741 9.02841V14H91.4809V8.76989C91.4809 8.3357 91.3401 7.98603 91.0584 7.72088C90.7766 7.45241 90.4137 7.31818 89.9696 7.31818C89.6647 7.31818 89.3796 7.39938 89.1145 7.56179C88.8526 7.72419 88.6405 7.94957 88.4781 8.23793C88.319 8.52296 88.2395 8.85275 88.2395 9.22727V14H87.0662Z" fill="#6D6D6D"/>
<path d="M110.579 14.1392C109.877 14.1392 109.25 14.0099 108.7 13.7514C108.153 13.4929 107.719 13.1366 107.397 12.6825C107.076 12.2285 106.909 11.7081 106.895 11.1214H108.983C109.007 11.5159 109.172 11.8357 109.481 12.081C109.789 12.3262 110.155 12.4489 110.579 12.4489C110.917 12.4489 111.216 12.3743 111.474 12.2251C111.736 12.0727 111.94 11.8622 112.086 11.5938C112.235 11.322 112.309 11.0104 112.309 10.6591C112.309 10.3011 112.233 9.98627 112.081 9.71449C111.932 9.44271 111.724 9.23059 111.459 9.07812C111.194 8.92566 110.891 8.84777 110.549 8.84446C110.251 8.84446 109.961 8.90578 109.679 9.02841C109.401 9.15104 109.184 9.31842 109.028 9.53054L107.114 9.1875L107.596 3.81818H113.821V5.57812H109.371L109.108 8.12855H109.167C109.346 7.87666 109.616 7.66785 109.978 7.50213C110.339 7.33641 110.743 7.25355 111.191 7.25355C111.804 7.25355 112.351 7.39773 112.831 7.68608C113.312 7.97443 113.692 8.3705 113.97 8.87429C114.248 9.37476 114.386 9.95147 114.383 10.6044C114.386 11.2905 114.227 11.9003 113.905 12.4339C113.587 12.9643 113.141 13.3819 112.568 13.6868C111.998 13.9884 111.335 14.1392 110.579 14.1392ZM119.876 14.2237C119.021 14.2204 118.285 14.0099 117.669 13.5923C117.056 13.1747 116.583 12.5698 116.252 11.7777C115.924 10.9856 115.761 10.0327 115.765 8.91903C115.765 7.80871 115.929 6.86245 116.257 6.08026C116.588 5.29806 117.061 4.70312 117.674 4.29545C118.29 3.88447 119.024 3.67898 119.876 3.67898C120.728 3.67898 121.46 3.88447 122.074 4.29545C122.69 4.70644 123.164 5.30303 123.496 6.08523C123.827 6.86411 123.991 7.80871 123.988 8.91903C123.988 10.036 123.822 10.9905 123.491 11.7827C123.162 12.5748 122.692 13.1797 122.079 13.5973C121.465 14.0149 120.731 14.2237 119.876 14.2237ZM119.876 12.4389C120.46 12.4389 120.925 12.1456 121.273 11.5589C121.621 10.9723 121.794 10.0923 121.79 8.91903C121.79 8.14678 121.711 7.50379 121.552 6.99006C121.396 6.47633 121.174 6.0902 120.885 5.83168C120.6 5.57315 120.264 5.44389 119.876 5.44389C119.296 5.44389 118.832 5.7339 118.484 6.31392C118.136 6.89394 117.96 7.76231 117.957 8.91903C117.957 9.70123 118.035 10.3542 118.191 10.8778C118.35 11.3982 118.574 11.7893 118.862 12.0511C119.15 12.3097 119.488 12.4389 119.876 12.4389Z" fill="#484848"/>
<path d="M130.846 8.97167H130.798V8.97083V8.92248V8.18645V8.1381H130.846H131.653V7.16443H130.846H130.798V7.11608V6.33085V6.2825H130.846H131.733C131.919 5.13676 132.411 4.22987 133.168 3.60774C133.933 2.97843 134.964 2.64412 136.211 2.64408C136.212 2.64408 136.212 2.64408 136.212 2.64408V2.69243C136.685 2.68763 137.156 2.74279 137.615 2.85658L130.846 8.97167ZM130.846 8.97167V9.01918H131.703C131.853 10.2368 132.332 11.2027 133.094 11.8661C133.866 12.5372 134.923 12.8945 136.211 12.8945C136.741 12.8945 137.206 12.8366 137.626 12.7367L137.663 12.7278V12.6896V11.5897V11.528L137.603 11.5427C137.199 11.6422 136.728 11.6851 136.211 11.6851C135.332 11.6851 134.613 11.4346 134.081 10.9717C133.56 10.5187 133.214 9.85868 133.073 9.02003M130.846 8.97167L133.073 9.02003M133.073 9.02003H136.416H136.464V8.97167V8.18645V8.1381H136.416H133.007" fill="#484848" stroke="#484848" stroke-width="0.0967024"/>
<path d="M164.978 5.85027H166.041V10.6368H164.978V5.85027ZM163.914 1.06372H167.105V2.1274H163.914V1.06372Z" fill="#484848"/>
<path d="M171.891 4.78649L171.136 4.0366L169.939 5.23323C168.96 4.10203 167.582 3.39171 166.092 3.24985C164.603 3.108 163.116 3.54551 161.94 4.4715C160.765 5.39749 159.991 6.74075 159.78 8.22219C159.57 9.70363 159.938 11.2094 160.808 12.4265C161.679 13.6436 162.984 14.4786 164.455 14.758C165.925 15.0373 167.446 14.7396 168.702 13.9265C169.958 13.1135 170.853 11.8477 171.2 10.3922C171.547 8.93672 171.321 7.40337 170.567 6.11076L171.891 4.78649ZM165.509 13.8277C164.562 13.8277 163.637 13.547 162.85 13.0211C162.063 12.4951 161.449 11.7476 161.087 10.8729C160.725 9.9983 160.63 9.03588 160.814 8.10739C160.999 7.17889 161.455 6.32601 162.124 5.6566C162.794 4.98719 163.647 4.53131 164.575 4.34662C165.504 4.16193 166.466 4.25672 167.341 4.619C168.215 4.98129 168.963 5.59479 169.489 6.38193C170.015 7.16908 170.296 8.0945 170.296 9.04119C170.296 10.3107 169.791 11.5281 168.894 12.4258C167.996 13.3234 166.778 13.8277 165.509 13.8277Z" fill="#484848"/>
<path d="M185.301 6.36364V7.35795H181.184V6.36364H185.301ZM182.417 14V5.30966C182.417 4.87216 182.52 4.50758 182.725 4.21591C182.931 3.92424 183.198 3.70549 183.526 3.55966C183.854 3.41383 184.2 3.34091 184.565 3.34091C184.853 3.34091 185.089 3.36411 185.271 3.41051C185.453 3.45691 185.589 3.5 185.679 3.53977L185.34 4.55398C185.281 4.53409 185.198 4.50923 185.092 4.4794C184.989 4.44957 184.853 4.43466 184.684 4.43466C184.296 4.43466 184.016 4.53243 183.844 4.72798C183.675 4.92353 183.59 5.21023 183.59 5.58807V14H182.417ZM186.945 14V6.36364H188.079V7.51705H188.158C188.297 7.1392 188.549 6.83262 188.914 6.5973C189.278 6.36198 189.689 6.24432 190.147 6.24432C190.233 6.24432 190.341 6.24597 190.47 6.24929C190.599 6.2526 190.697 6.25758 190.763 6.2642V7.45739C190.723 7.44744 190.632 7.43253 190.49 7.41264C190.351 7.38944 190.203 7.37784 190.047 7.37784C189.676 7.37784 189.345 7.45573 189.053 7.61151C188.765 7.76397 188.536 7.97609 188.367 8.24787C188.201 8.51634 188.118 8.82292 188.118 9.16761V14H186.945ZM195.024 14.1591C194.335 14.1591 193.73 13.995 193.209 13.6669C192.692 13.3388 192.288 12.8797 191.996 12.2898C191.708 11.6998 191.564 11.0104 191.564 10.2216C191.564 9.42614 191.708 8.73177 191.996 8.13849C192.288 7.54522 192.692 7.08452 193.209 6.75639C193.73 6.42827 194.335 6.2642 195.024 6.2642C195.713 6.2642 196.317 6.42827 196.834 6.75639C197.354 7.08452 197.758 7.54522 198.047 8.13849C198.338 8.73177 198.484 9.42614 198.484 10.2216C198.484 11.0104 198.338 11.6998 198.047 12.2898C197.758 12.8797 197.354 13.3388 196.834 13.6669C196.317 13.995 195.713 14.1591 195.024 14.1591ZM195.024 13.1051C195.548 13.1051 195.978 12.9709 196.317 12.7024C196.655 12.4339 196.905 12.081 197.067 11.6435C197.23 11.206 197.311 10.732 197.311 10.2216C197.311 9.71117 197.23 9.23556 197.067 8.79474C196.905 8.35393 196.655 7.99763 196.317 7.72585C195.978 7.45407 195.548 7.31818 195.024 7.31818C194.5 7.31818 194.069 7.45407 193.731 7.72585C193.393 7.99763 193.143 8.35393 192.981 8.79474C192.818 9.23556 192.737 9.71117 192.737 10.2216C192.737 10.732 192.818 11.206 192.981 11.6435C193.143 12.081 193.393 12.4339 193.731 12.7024C194.069 12.9709 194.5 13.1051 195.024 13.1051ZM200.275 14V6.36364H201.409V7.55682H201.508C201.667 7.14915 201.924 6.83262 202.279 6.60724C202.633 6.37855 203.059 6.2642 203.556 6.2642C204.06 6.2642 204.479 6.37855 204.814 6.60724C205.152 6.83262 205.416 7.14915 205.605 7.55682H205.684C205.88 7.16241 206.173 6.84919 206.564 6.61719C206.955 6.38187 207.424 6.2642 207.971 6.2642C208.654 6.2642 209.212 6.47798 209.647 6.90554C210.081 7.32978 210.298 7.991 210.298 8.8892V14H209.125V8.8892C209.125 8.32576 208.97 7.92306 208.662 7.68111C208.354 7.43916 207.991 7.31818 207.573 7.31818C207.037 7.31818 206.621 7.48059 206.326 7.8054C206.031 8.12689 205.883 8.53456 205.883 9.02841V14H204.69V8.76989C204.69 8.3357 204.549 7.98603 204.267 7.72088C203.986 7.45241 203.623 7.31818 203.179 7.31818C202.874 7.31818 202.589 7.39938 202.323 7.56179C202.062 7.72419 201.849 7.94957 201.687 8.23793C201.528 8.52296 201.448 8.85275 201.448 9.22727V14H200.275Z" fill="#6D6D6D"/>
<path d="M214.588 14V12.4489L218.212 9.09304C218.52 8.79474 218.779 8.52628 218.988 8.28764C219.2 8.04901 219.361 7.81534 219.47 7.58665C219.579 7.35464 219.634 7.1044 219.634 6.83594C219.634 6.53764 219.566 6.28078 219.43 6.06534C219.294 5.84659 219.109 5.67921 218.873 5.56321C218.638 5.44389 218.371 5.38423 218.073 5.38423C217.761 5.38423 217.49 5.44721 217.258 5.57315C217.026 5.6991 216.847 5.87973 216.721 6.11506C216.595 6.35038 216.532 6.63044 216.532 6.95526H214.488C214.488 6.28906 214.639 5.7107 214.941 5.22017C215.242 4.72964 215.665 4.35014 216.209 4.08168C216.752 3.81321 217.379 3.67898 218.088 3.67898C218.817 3.67898 219.452 3.80824 219.992 4.06676C220.535 4.32197 220.958 4.67661 221.26 5.13068C221.561 5.58475 221.712 6.10511 221.712 6.69176C221.712 7.07623 221.636 7.45573 221.483 7.83026C221.334 8.20478 221.067 8.62074 220.683 9.07812C220.299 9.5322 219.757 10.0774 219.057 10.7138L217.571 12.1705V12.2401H221.846V14H214.588ZM229.339 6.36364V7.35795H225.382V6.36364H229.339ZM226.535 4.53409H227.708V11.8125C227.708 12.1439 227.757 12.3925 227.853 12.5582C227.952 12.7206 228.078 12.83 228.23 12.8864C228.386 12.9394 228.55 12.9659 228.723 12.9659C228.852 12.9659 228.958 12.9593 229.041 12.946C229.124 12.9295 229.19 12.9162 229.24 12.9062L229.478 13.9602C229.399 13.9901 229.288 14.0199 229.145 14.0497C229.003 14.0829 228.822 14.0994 228.603 14.0994C228.272 14.0994 227.947 14.0282 227.629 13.8857C227.314 13.7431 227.052 13.526 226.843 13.2344C226.638 12.9427 226.535 12.5748 226.535 12.1307V4.53409ZM234.124 14.1591C233.435 14.1591 232.83 13.995 232.31 13.6669C231.793 13.3388 231.388 12.8797 231.097 12.2898C230.808 11.6998 230.664 11.0104 230.664 10.2216C230.664 9.42614 230.808 8.73177 231.097 8.13849C231.388 7.54522 231.793 7.08452 232.31 6.75639C232.83 6.42827 233.435 6.2642 234.124 6.2642C234.814 6.2642 235.417 6.42827 235.934 6.75639C236.454 7.08452 236.859 7.54522 237.147 8.13849C237.439 8.73177 237.585 9.42614 237.585 10.2216C237.585 11.0104 237.439 11.6998 237.147 12.2898C236.859 12.8797 236.454 13.3388 235.934 13.6669C235.417 13.995 234.814 14.1591 234.124 14.1591ZM234.124 13.1051C234.648 13.1051 235.079 12.9709 235.417 12.7024C235.755 12.4339 236.005 12.081 236.168 11.6435C236.33 11.206 236.411 10.732 236.411 10.2216C236.411 9.71117 236.33 9.23556 236.168 8.79474C236.005 8.35393 235.755 7.99763 235.417 7.72585C235.079 7.45407 234.648 7.31818 234.124 7.31818C233.601 7.31818 233.17 7.45407 232.832 7.72585C232.494 7.99763 232.243 8.35393 232.081 8.79474C231.919 9.23556 231.837 9.71117 231.837 10.2216C231.837 10.732 231.919 11.206 232.081 11.6435C232.243 12.081 232.494 12.4339 232.832 12.7024C233.17 12.9709 233.601 13.1051 234.124 13.1051ZM241.336 12.2102V10.5149L245.587 3.81818H247.049V6.16477H246.183L243.504 10.4055V10.4851H249.544V12.2102H241.336ZM246.223 14V11.6932L246.263 10.9425V3.81818H248.282V14H246.223ZM257.053 14.1243C256.473 14.1243 255.947 13.9751 255.477 13.6768C255.009 13.3752 254.638 12.9328 254.363 12.3494C254.091 11.7628 253.955 11.0436 253.955 10.1918C253.955 9.31676 254.096 8.58925 254.378 8.00923C254.66 7.4259 255.034 6.99006 255.502 6.7017C255.972 6.41004 256.488 6.2642 257.048 6.2642C257.475 6.2642 257.832 6.33712 258.117 6.48295C258.405 6.62547 258.637 6.80445 258.813 7.01989C258.992 7.23201 259.127 7.44081 259.22 7.64631H259.285V3.81818H261.398V14H259.31V12.777H259.22C259.121 12.9891 258.98 13.1996 258.798 13.4084C258.619 13.6139 258.385 13.7846 258.097 13.9205C257.812 14.0563 257.464 14.1243 257.053 14.1243ZM257.724 12.4389C258.065 12.4389 258.354 12.3461 258.589 12.1605C258.827 11.9716 259.01 11.7081 259.136 11.37C259.265 11.032 259.33 10.6359 259.33 10.1818C259.33 9.72775 259.267 9.33333 259.141 8.99858C259.015 8.66383 258.832 8.4053 258.594 8.22301C258.355 8.04072 258.065 7.94957 257.724 7.94957C257.376 7.94957 257.082 8.04403 256.844 8.23295C256.605 8.42187 256.425 8.68371 256.302 9.01847C256.179 9.35322 256.118 9.741 256.118 10.1818C256.118 10.6259 256.179 11.0187 256.302 11.3601C256.428 11.6982 256.609 11.9633 256.844 12.1555C257.082 12.3445 257.376 12.4389 257.724 12.4389ZM265.317 14.1442C264.829 14.1442 264.395 14.0597 264.014 13.8906C263.633 13.7183 263.331 13.4647 263.109 13.13C262.891 12.7919 262.781 12.371 262.781 11.8672C262.781 11.4429 262.859 11.0866 263.015 10.7983C263.171 10.5099 263.383 10.2779 263.651 10.1023C263.92 9.92661 264.225 9.79403 264.566 9.70455C264.911 9.61506 265.272 9.55208 265.65 9.51562C266.094 9.46922 266.452 9.42614 266.724 9.38636C266.995 9.34328 267.193 9.2803 267.315 9.19744C267.438 9.11458 267.499 8.99195 267.499 8.82955V8.79972C267.499 8.48485 267.4 8.24124 267.201 8.06889C267.005 7.89654 266.727 7.81037 266.366 7.81037C265.985 7.81037 265.681 7.89489 265.456 8.06392C265.23 8.22964 265.081 8.43845 265.008 8.69034L263.05 8.53125C263.149 8.06723 263.345 7.66619 263.636 7.32812C263.928 6.98674 264.304 6.7249 264.765 6.54261C265.229 6.35701 265.766 6.2642 266.376 6.2642C266.8 6.2642 267.206 6.31392 267.594 6.41335C267.985 6.51278 268.331 6.6669 268.633 6.87571C268.938 7.08452 269.178 7.35298 269.354 7.68111C269.529 8.00592 269.617 8.39536 269.617 8.84943V14H267.609V12.9411H267.549C267.426 13.1797 267.262 13.3902 267.057 13.5724C266.851 13.7514 266.604 13.8923 266.316 13.995C266.028 14.0945 265.695 14.1442 265.317 14.1442ZM265.923 12.6825C266.235 12.6825 266.51 12.6212 266.748 12.4986C266.987 12.3726 267.174 12.2036 267.31 11.9915C267.446 11.7794 267.514 11.5391 267.514 11.2706V10.4602C267.448 10.5033 267.357 10.5431 267.241 10.5795C267.128 10.6127 267 10.6442 266.858 10.674C266.715 10.7005 266.573 10.7254 266.43 10.7486C266.288 10.7685 266.159 10.7867 266.043 10.8033C265.794 10.8397 265.577 10.8977 265.391 10.9773C265.206 11.0568 265.061 11.1645 264.959 11.3004C264.856 11.433 264.805 11.5987 264.805 11.7976C264.805 12.0859 264.909 12.3063 265.118 12.4588C265.33 12.608 265.598 12.6825 265.923 12.6825ZM272.294 16.8636C272.026 16.8636 271.774 16.8421 271.539 16.799C271.307 16.7592 271.114 16.7079 270.962 16.6449L271.439 15.0639C271.688 15.1402 271.911 15.1816 272.11 15.1882C272.313 15.1948 272.487 15.1484 272.632 15.049C272.782 14.9496 272.902 14.7805 272.995 14.5419L273.12 14.2188L270.38 6.36364H272.608L274.188 11.9716H274.268L275.864 6.36364H278.106L275.138 14.8253C274.996 15.2363 274.802 15.5942 274.556 15.8991C274.314 16.2074 274.008 16.4444 273.637 16.6101C273.265 16.7791 272.818 16.8636 272.294 16.8636ZM285.544 8.54119L283.605 8.66051C283.572 8.49479 283.5 8.34564 283.391 8.21307C283.282 8.07718 283.137 7.96946 282.958 7.88991C282.783 7.80705 282.572 7.76562 282.327 7.76562C281.999 7.76562 281.722 7.83523 281.497 7.97443C281.271 8.11032 281.159 8.29261 281.159 8.52131C281.159 8.7036 281.232 8.85772 281.377 8.98366C281.523 9.10961 281.773 9.2107 282.128 9.28693L283.51 9.56534C284.253 9.7178 284.806 9.96307 285.171 10.3011C285.535 10.6392 285.718 11.0833 285.718 11.6335C285.718 12.134 285.57 12.5732 285.275 12.951C284.983 13.3288 284.582 13.6238 284.072 13.8359C283.565 14.0447 282.98 14.1491 282.317 14.1491C281.306 14.1491 280.501 13.9387 279.901 13.5178C279.304 13.0935 278.955 12.5168 278.852 11.7876L280.935 11.6783C280.998 11.9865 281.15 12.2218 281.392 12.3842C281.634 12.5433 281.944 12.6229 282.322 12.6229C282.693 12.6229 282.991 12.5516 283.217 12.4091C283.446 12.2633 283.562 12.076 283.565 11.8473C283.562 11.6551 283.48 11.4976 283.321 11.375C283.162 11.2491 282.917 11.1529 282.585 11.0866L281.263 10.8232C280.517 10.674 279.962 10.4155 279.598 10.0476C279.236 9.67969 279.056 9.2107 279.056 8.64062C279.056 8.15009 279.188 7.72751 279.453 7.37287C279.722 7.01823 280.098 6.74479 280.582 6.55256C281.069 6.36032 281.639 6.2642 282.292 6.2642C283.257 6.2642 284.016 6.46804 284.569 6.87571C285.126 7.28338 285.451 7.83854 285.544 8.54119Z" fill="#484848"/>
<defs>
<clipPath id="clip0_3941_1091">
<rect width="17.0188" height="17.0188" fill="white"/>
</clipPath>
</defs>
</svg>
