<svg width="31" height="31" viewBox="0 0 31 31" fill="none" xmlns="http://www.w3.org/2000/svg">
<circle cx="15.5" cy="15.5" r="15.5" fill="#262F39"/>
<path d="M15.4767 13.4099L21.2587 19.1919C21.4473 19.3741 21.6999 19.4749 21.9621 19.4726C22.2243 19.4703 22.4751 19.3652 22.6605 19.1798C22.8459 18.9944 22.9511 18.7435 22.9534 18.4813C22.9557 18.2191 22.8549 17.9665 22.6727 17.7779L16.1867 11.2919C16.0935 11.1988 15.9828 11.125 15.8609 11.0749C15.7391 11.0247 15.6085 10.9993 15.4767 10.9999C15.3449 10.999 15.2142 11.0243 15.0923 11.0745C14.9704 11.1246 14.8597 11.1985 14.7667 11.2919L8.28071 17.7779C8.09855 17.9665 7.99776 18.2191 8.00004 18.4813C8.00232 18.7435 8.10748 18.9944 8.29289 19.1798C8.4783 19.3652 8.72911 19.4703 8.99131 19.4726C9.25351 19.4749 9.50611 19.3741 9.69471 19.1919L15.4767 13.4099Z" fill="white"/>
</svg>
