<svg width="24" height="16" viewBox="0 0 24 16" fill="none" xmlns="http://www.w3.org/2000/svg">
<g clip-path="url(#clip0_2621_25008)">
<path d="M0 0.015625H24V15.9846H0V0.015625Z" fill="#F0F0F0"/>
<path d="M0 2.01172H24V4.00765H0V2.01172ZM0 6.00409H24V8.00002H0V6.00409ZM0 9.99595H24V11.9919H0V9.99595ZM0 13.9883H24V15.9843H0V13.9883Z" fill="#D80027"/>
<path d="M0 0.015625H12V8.61432H0V0.015625Z" fill="#2E52B2"/>
<path d="M4.67911 3.53796L4.48584 4.13136H3.86072L4.36655 4.49791L4.17328 5.09127L4.67911 4.72472L5.18461 5.09127L4.99139 4.49791L5.49722 4.13136H4.87205L4.67911 3.53796ZM4.87205 6.27274L4.67911 5.67938L4.48584 6.27274H3.86072L4.36655 6.63934L4.17328 7.23269L4.67911 6.8661L5.18461 7.23269L4.99139 6.63934L5.49722 6.27274H4.87205ZM2.23012 6.27274L2.03714 5.67938L1.84388 6.27274H1.21875L1.72458 6.63934L1.53131 7.23269L2.03714 6.8661L2.54269 7.23269L2.34947 6.63934L2.8552 6.27274H2.23012ZM2.03714 3.53796L1.84388 4.13136H1.21875L1.72458 4.49791L1.53131 5.09127L2.03714 4.72472L2.54269 5.09127L2.34947 4.49791L2.8552 4.13136H2.23012L2.03714 3.53796ZM4.67911 1.39648L4.48584 1.98993H3.86072L4.36655 2.35653L4.17328 2.94989L4.67911 2.58329L5.18461 2.94989L4.99139 2.35653L5.49722 1.98993H4.87205L4.67911 1.39648ZM2.03714 1.39648L1.84388 1.98993H1.21875L1.72458 2.35653L1.53131 2.94989L2.03714 2.58329L2.54269 2.94989L2.34947 2.35653L2.8552 1.98993H2.23012L2.03714 1.39648ZM7.32103 3.53796L7.12781 4.13136H6.50269L7.00847 4.49791L6.8153 5.09127L7.32103 4.72472L7.82662 5.09127L7.63336 4.49791L8.13919 4.13136H7.51406L7.32103 3.53796ZM7.51406 6.27274L7.32103 5.67938L7.12781 6.27274H6.50269L7.00847 6.63934L6.8153 7.23269L7.32103 6.8661L7.82662 7.23269L7.63336 6.63934L8.13919 6.27274H7.51406ZM10.156 6.27274L9.96305 5.67938L9.76978 6.27274H9.1447L9.65044 6.63934L9.45722 7.23269L9.96305 6.8661L10.4686 7.23269L10.2753 6.63934L10.7812 6.27274H10.156ZM9.96305 3.53796L9.76978 4.13136H9.1447L9.65044 4.49791L9.45722 5.09127L9.96305 4.72472L10.4686 5.09127L10.2753 4.49791L10.7812 4.13136H10.156L9.96305 3.53796ZM7.32103 1.39648L7.12781 1.98993H6.50269L7.00847 2.35653L6.8153 2.94989L7.32103 2.58329L7.82662 2.94989L7.63336 2.35653L8.13919 1.98993H7.51406L7.32103 1.39648ZM9.96305 1.39648L9.76978 1.98993H9.1447L9.65044 2.35653L9.45722 2.94989L9.96305 2.58329L10.4686 2.94989L10.2753 2.35653L10.7812 1.98993H10.156L9.96305 1.39648Z" fill="#F0F0F0"/>
</g>
<defs>
<clipPath id="clip0_2621_25008">
<rect width="24" height="16" fill="white"/>
</clipPath>
</defs>
</svg>
