<svg width="32" height="32" viewBox="0 0 32 32" fill="none" xmlns="http://www.w3.org/2000/svg">
<path d="M25.7338 6.13086C23.2005 3.59753 19.7338 2.13086 16.0005 2.13086C8.53379 2.13086 2.26712 8.26419 2.26712 15.8642C2.26712 18.2642 2.93379 20.6642 4.13379 22.7975L2.13379 29.8642L9.46712 27.9975C11.4671 29.0642 13.7338 29.7309 16.0005 29.7309C23.6005 29.7309 29.7338 23.5975 29.7338 15.9975C29.8671 12.2642 28.4005 8.79753 25.7338 6.13086ZM16.0005 27.3309C14.0005 27.3309 12.0005 26.7975 10.1338 25.7309L9.73379 25.4642L5.46712 26.6642L6.66712 22.3975L6.40046 21.9975C5.20046 20.1309 4.66712 18.1309 4.66712 15.8642C4.66712 9.59752 9.73379 4.39753 16.1338 4.39753C19.2005 4.39753 22.0005 5.59753 24.2671 7.73086C26.4005 9.86419 27.6005 12.7975 27.6005 15.8642C27.4671 22.1309 22.4005 27.3309 16.0005 27.3309Z" fill="#E0E0E0"/>
<path d="M2.80078 29.0641L4.66745 22.2641C3.46745 20.2641 2.93411 17.9974 2.93411 15.7307C2.93411 8.53073 8.80078 2.66406 16.0008 2.66406C19.4674 2.66406 22.8008 3.9974 25.3341 6.53073C27.8674 9.06406 29.2008 12.2641 29.2008 15.8641C29.2008 23.0641 23.3341 28.9307 16.1341 28.9307C14.0008 28.9307 11.7341 28.3974 9.86745 27.3307L2.80078 29.0641Z" fill="url(#paint0_linear_2126_21267)"/>
<path fill-rule="evenodd" clip-rule="evenodd" d="M12.6678 9.99818C12.4012 9.46484 12.1345 9.46484 11.8678 9.46484C11.7345 9.46484 11.4678 9.46484 11.2012 9.46484C11.0678 9.46484 10.6678 9.46484 10.4012 9.86484C10.0012 10.2648 9.20117 11.0648 9.20117 12.6648C9.20117 14.3982 10.4012 15.9982 10.5345 16.1315C10.6678 16.3982 12.9345 19.9982 16.4012 21.3315C19.3345 22.3982 19.8678 22.2648 20.5345 22.1315C21.2012 21.9982 22.5345 21.3315 22.8012 20.5315C23.0678 19.7315 23.0678 19.0648 22.9345 18.9315C22.8012 18.7982 22.6678 18.6648 22.2678 18.5315C21.8678 18.3982 20.2678 17.5982 20.0012 17.4648C19.7345 17.3315 19.4678 17.3315 19.2012 17.5982C18.9345 17.9982 18.2678 18.6648 18.1345 18.9315C18.0012 19.1982 17.7345 19.1982 17.3345 19.0648C16.9345 18.9315 15.8678 18.5315 14.6678 17.3315C13.6012 16.3982 12.9345 15.3315 12.8012 14.9315C12.6678 14.5315 12.8012 14.3982 12.9345 14.2648C13.0678 14.1315 13.3345 13.8648 13.4678 13.7315C13.6012 13.5982 13.7345 13.3315 13.8678 13.1982C14.0012 12.9315 13.8678 12.7982 13.8678 12.6648C13.6012 12.3982 12.9345 10.6648 12.6678 9.99818Z" fill="white"/>
<path d="M25.7342 6.13086C23.2008 3.59753 19.7342 2.13086 16.1342 2.13086C8.53418 2.13086 2.53418 8.26419 2.53418 15.7309C2.53418 18.1309 3.20085 20.3975 4.40085 22.5309L2.53418 29.5975L9.73418 27.7309C11.6008 28.7975 13.7342 29.3309 16.0008 29.3309C23.4675 29.3309 29.6008 23.1975 29.6008 15.7309C29.6008 12.1309 28.2675 8.66419 25.7342 6.13086ZM16.0008 27.0642C14.0008 27.0642 12.0008 26.5309 10.2675 25.4642L9.86751 25.1975L5.60085 26.2642L6.80085 22.1309L6.53418 21.7309C5.46751 19.9975 4.80085 17.8642 4.80085 15.7309C4.80085 9.46419 9.86751 4.39753 16.1342 4.39753C19.2008 4.39753 22.0008 5.59753 24.1342 7.73086C26.2675 9.86419 27.4675 12.6642 27.4675 15.7309C27.3342 21.9975 22.2675 27.0642 16.0008 27.0642Z" fill="white"/>
<defs>
<linearGradient id="paint0_linear_2126_21267" x1="15.9939" y1="29.0699" x2="15.9939" y2="2.60401" gradientUnits="userSpaceOnUse">
<stop stop-color="#20B038"/>
<stop offset="1" stop-color="#60D66A"/>
</linearGradient>
</defs>
</svg>
