<svg width="44" height="44" viewBox="0 0 44 44" fill="none" xmlns="http://www.w3.org/2000/svg">
<path d="M42.1143 24.1714H36.4571V10.5363C36.4571 10.4547 36.4408 10.374 36.4091 10.2987C36.3774 10.2234 36.3309 10.155 36.2723 10.0975L28.7307 2.66134C28.6724 2.60359 28.603 2.55778 28.5266 2.52651C28.4503 2.49524 28.3684 2.47914 28.2857 2.47912H26.4V0.61978C26.4 0.455404 26.3338 0.297761 26.2159 0.18153C26.098 0.0652982 25.9381 0 25.7714 0H5.02857C4.86186 0 4.70198 0.0652982 4.5841 0.18153C4.46622 0.297761 4.4 0.455404 4.4 0.61978V24.1714H1.88571C0.846057 24.1714 0 25.0057 0 26.0308V40.2857C0 41.9944 1.40989 43.3846 3.14286 43.3846H40.8571C42.5901 43.3846 44 41.9944 44 40.2857V26.0308C44 25.0057 43.1539 24.1714 42.1143 24.1714ZM30.1714 24.1714C30.1375 24.1714 30.1086 24.1851 30.0753 24.19C30.0331 24.1968 29.9917 24.2006 29.9521 24.2148C29.9125 24.2297 29.8791 24.2532 29.8439 24.2749C29.8106 24.2954 29.7767 24.3121 29.7478 24.3388C29.7145 24.3698 29.6912 24.4069 29.6648 24.4441C29.6472 24.4689 29.6233 24.4863 29.6089 24.5142L27.8973 27.8901H16.1027L14.3911 24.5142C14.3767 24.4863 14.3528 24.4683 14.3346 24.4435C14.3094 24.4063 14.2855 24.3691 14.2529 24.3394C14.2233 24.3127 14.1887 24.2954 14.1554 24.2749C14.1202 24.2532 14.0875 24.2297 14.0486 24.2154C14.0083 24.2006 13.9669 24.1968 13.9241 24.1906C13.8914 24.1851 13.8625 24.1714 13.8286 24.1714H8.8V3.71868H27.6571V9.2967C27.6571 10.3218 28.5032 11.156 29.5429 11.156H35.2V24.1714H30.1714ZM28.9143 4.59505L34.3112 9.91648H29.5429C29.1965 9.91648 28.9143 9.63882 28.9143 9.2967V4.59505ZM5.65714 1.23956H25.1429V2.47912H8.17143C8.00472 2.47912 7.84484 2.54442 7.72696 2.66065C7.60908 2.77688 7.54286 2.93453 7.54286 3.0989V24.1714H5.65714V1.23956ZM42.7429 40.2857C42.7429 41.3108 41.8968 42.1451 40.8571 42.1451H3.14286C2.1032 42.1451 1.25714 41.3108 1.25714 40.2857V26.0308C1.25714 25.6886 1.53937 25.411 1.88571 25.411H13.4401L14.9782 28.4448C15.0822 28.6513 15.2428 28.8249 15.4418 28.946C15.6408 29.067 15.8702 29.1307 16.104 29.1297H27.8979C28.1315 29.1304 28.3606 29.0667 28.5594 28.9456C28.7581 28.8246 28.9185 28.6511 29.0224 28.4448L30.5599 25.411H42.1143C42.4606 25.411 42.7429 25.6886 42.7429 26.0308V40.2857Z" fill="white"/>
<path d="M11.3142 8.05719H23.8857C24.0524 8.05719 24.2123 7.99189 24.3301 7.87566C24.448 7.75943 24.5142 7.60178 24.5142 7.43741C24.5142 7.27303 24.448 7.11539 24.3301 6.99916C24.2123 6.88292 24.0524 6.81763 23.8857 6.81763H11.3142C11.1475 6.81763 10.9877 6.88292 10.8698 6.99916C10.7519 7.11539 10.6857 7.27303 10.6857 7.43741C10.6857 7.60178 10.7519 7.75943 10.8698 7.87566C10.9877 7.99189 11.1475 8.05719 11.3142 8.05719ZM11.3142 12.3956H25.7714C25.9381 12.3956 26.098 12.3304 26.2158 12.2141C26.3337 12.0979 26.4 11.9402 26.4 11.7759C26.4 11.6115 26.3337 11.4538 26.2158 11.3376C26.098 11.2214 25.9381 11.1561 25.7714 11.1561H11.3142C11.1475 11.1561 10.9877 11.2214 10.8698 11.3376C10.7519 11.4538 10.6857 11.6115 10.6857 11.7759C10.6857 11.9402 10.7519 12.0979 10.8698 12.2141C10.9877 12.3304 11.1475 12.3956 11.3142 12.3956ZM11.3142 16.7341H32.6857C32.8524 16.7341 33.0123 16.6688 33.1301 16.5526C33.248 16.4363 33.3142 16.2787 33.3142 16.1143C33.3142 15.95 33.248 15.7923 33.1301 15.6761C33.0123 15.5598 32.8524 15.4945 32.6857 15.4945H11.3142C11.1475 15.4945 10.9877 15.5598 10.8698 15.6761C10.7519 15.7923 10.6857 15.95 10.6857 16.1143C10.6857 16.2787 10.7519 16.4363 10.8698 16.5526C10.9877 16.6688 11.1475 16.7341 11.3142 16.7341ZM32.6857 19.833H11.3142C11.1475 19.833 10.9877 19.8983 10.8698 20.0145C10.7519 20.1308 10.6857 20.2884 10.6857 20.4528C10.6857 20.6172 10.7519 20.7748 10.8698 20.891C10.9877 21.0073 11.1475 21.0726 11.3142 21.0726H32.6857C32.8524 21.0726 33.0123 21.0073 33.1301 20.891C33.248 20.7748 33.3142 20.6172 33.3142 20.4528C33.3142 20.2884 33.248 20.1308 33.1301 20.0145C33.0123 19.8983 32.8524 19.833 32.6857 19.833Z" fill="white"/>
<path d="M18.5271 34.4916H17.3397C17.3058 34.2968 17.2434 34.1243 17.1524 33.974C17.0613 33.8216 16.9481 33.6925 16.8126 33.5867C16.6772 33.4809 16.5226 33.4015 16.3491 33.3486C16.1776 33.2935 15.9924 33.266 15.7935 33.266C15.44 33.266 15.1267 33.3549 14.8537 33.5327C14.5806 33.7084 14.3668 33.9666 14.2123 34.3074C14.0578 34.6461 13.9805 35.0599 13.9805 35.5488C13.9805 36.0463 14.0578 36.4654 14.2123 36.8061C14.3689 37.1448 14.5827 37.4009 14.8537 37.5745C15.1267 37.7459 15.4389 37.8317 15.7903 37.8317C15.985 37.8317 16.167 37.8063 16.3364 37.7555C16.5078 37.7026 16.6613 37.6253 16.7968 37.5237C16.9343 37.4221 17.0497 37.2972 17.1428 37.149C17.2381 37.0009 17.3037 36.8315 17.3397 36.641L18.5271 36.6474C18.4827 36.9564 18.3864 37.2464 18.2382 37.5173C18.0922 37.7883 17.9006 38.0275 17.6635 38.2349C17.4265 38.4402 17.1492 38.6011 16.8317 38.7175C16.5142 38.8318 16.1618 38.8889 15.7744 38.8889C15.2029 38.8889 14.6928 38.7567 14.2441 38.4921C13.7953 38.2275 13.4418 37.8454 13.1836 37.3459C12.9254 36.8464 12.7963 36.2473 12.7963 35.5488C12.7963 34.8482 12.9264 34.2492 13.1868 33.7518C13.4471 33.2523 13.8017 32.8702 14.2504 32.6056C14.6991 32.341 15.2071 32.2087 15.7744 32.2087C16.1364 32.2087 16.4729 32.2595 16.7841 32.3611C17.0952 32.4627 17.3725 32.612 17.6159 32.8088C17.8593 33.0036 18.0593 33.2427 18.216 33.5264C18.3747 33.8079 18.4784 34.1296 18.5271 34.4916ZM20.3623 38.8H19.105L21.3942 32.2976H22.8483L25.1407 38.8H23.8834L22.1466 33.6311H22.0958L20.3623 38.8ZM20.4036 36.2505H23.8326V37.1967H20.4036V36.2505ZM25.9971 38.8V32.2976H30.1627V33.2851H27.175V35.0504H29.877V36.0378H27.175V38.8H25.9971Z" fill="white"/>
</svg>
