<svg width="391" height="27" viewBox="0 0 391 27" fill="none" xmlns="http://www.w3.org/2000/svg">
<path d="M12.0005 17.0002C12.7961 17.0002 13.5592 16.6842 14.1218 16.1216C14.6844 15.559 15.0005 14.7959 15.0005 14.0002C15.0005 13.2046 14.6844 12.4415 14.1218 11.8789C13.5592 11.3163 12.7961 11.0002 12.0005 11.0002C11.2048 11.0002 10.4418 11.3163 9.87917 11.8789C9.31656 12.4415 9.00049 13.2046 9.00049 14.0002C9.00049 14.7959 9.31656 15.559 9.87917 16.1216C10.4418 16.6842 11.2048 17.0002 12.0005 17.0002Z" fill="white"/>
<path d="M0 8.00024C0 7.60242 0.158035 7.22089 0.43934 6.93958C0.720644 6.65828 1.10218 6.50024 1.5 6.50024H22.5C22.8978 6.50024 23.2794 6.65828 23.5607 6.93958C23.842 7.22089 24 7.60242 24 8.00024V20.0002C24 20.3981 23.842 20.7796 23.5607 21.0609C23.2794 21.3422 22.8978 21.5002 22.5 21.5002H1.5C1.10218 21.5002 0.720644 21.3422 0.43934 21.0609C0.158035 20.7796 0 20.3981 0 20.0002V8.00024ZM4.5 8.00024C4.5 8.79589 4.18393 9.55896 3.62132 10.1216C3.05871 10.6842 2.29565 11.0002 1.5 11.0002V17.0002C2.29565 17.0002 3.05871 17.3163 3.62132 17.8789C4.18393 18.4415 4.5 19.2046 4.5 20.0002H19.5C19.5 19.2046 19.8161 18.4415 20.3787 17.8789C20.9413 17.3163 21.7044 17.0002 22.5 17.0002V11.0002C21.7044 11.0002 20.9413 10.6842 20.3787 10.1216C19.8161 9.55896 19.5 8.79589 19.5 8.00024H4.5Z" fill="white"/>
<path d="M48.7443 11.1818C48.6676 10.5341 48.3565 10.0312 47.8111 9.6733C47.2656 9.31534 46.5966 9.13636 45.804 9.13636C45.2244 9.13636 44.7173 9.23011 44.2827 9.41761C43.8523 9.60511 43.5156 9.86293 43.2727 10.1911C43.0341 10.5192 42.9148 10.892 42.9148 11.3097C42.9148 11.6591 42.9979 11.9595 43.1641 12.2109C43.3345 12.4581 43.5518 12.6648 43.8161 12.831C44.0803 12.9929 44.3572 13.1271 44.647 13.2337C44.9368 13.3359 45.2031 13.419 45.446 13.483L46.7756 13.8409C47.1165 13.9304 47.4957 14.054 47.9134 14.2116C48.3352 14.3693 48.7379 14.5845 49.1214 14.8572C49.5092 15.1257 49.8288 15.4709 50.0803 15.8928C50.3317 16.3146 50.4574 16.8324 50.4574 17.446C50.4574 18.1534 50.272 18.7926 49.9013 19.3636C49.5348 19.9347 48.9979 20.3885 48.2905 20.7251C47.5874 21.0618 46.733 21.2301 45.7273 21.2301C44.7898 21.2301 43.978 21.0788 43.2919 20.7763C42.6101 20.4737 42.0732 20.0518 41.6811 19.5107C41.2933 18.9695 41.0739 18.3409 41.0227 17.625H42.6591C42.7017 18.1193 42.8679 18.5284 43.1577 18.8523C43.4517 19.1719 43.8224 19.4105 44.2699 19.5682C44.7216 19.7216 45.2074 19.7983 45.7273 19.7983C46.3324 19.7983 46.8757 19.7003 47.3572 19.5043C47.8388 19.304 48.2202 19.027 48.5014 18.6733C48.7827 18.3153 48.9233 17.8977 48.9233 17.4205C48.9233 16.9858 48.8018 16.6321 48.5589 16.3594C48.3161 16.0866 47.9964 15.8651 47.6001 15.6946C47.2038 15.5241 46.7756 15.375 46.3153 15.2472L44.7045 14.7869C43.6818 14.4929 42.8722 14.0732 42.2756 13.5277C41.679 12.9822 41.3807 12.2685 41.3807 11.3864C41.3807 10.6534 41.5788 10.0142 41.9751 9.46875C42.3757 8.91903 42.9126 8.4929 43.5859 8.19034C44.2635 7.88352 45.0199 7.73011 45.8551 7.73011C46.6989 7.73011 47.4489 7.88139 48.1051 8.18395C48.7614 8.48224 49.2813 8.89133 49.6648 9.41122C50.0526 9.93111 50.2571 10.5213 50.2784 11.1818H48.7443ZM57.1291 11.1818V12.4602H52.041V11.1818H57.1291ZM53.524 8.82955H55.0325V18.1875C55.0325 18.6136 55.0943 18.9332 55.2179 19.1463C55.3457 19.3551 55.5076 19.4957 55.7037 19.5682C55.9039 19.6364 56.1149 19.6705 56.3365 19.6705C56.5027 19.6705 56.639 19.6619 56.7456 19.6449C56.8521 19.6236 56.9373 19.6065 57.0012 19.5938L57.3081 20.9489C57.2058 20.9872 57.063 21.0256 56.8798 21.0639C56.6966 21.1065 56.4643 21.1278 56.1831 21.1278C55.7569 21.1278 55.3393 21.0362 54.9302 20.853C54.5254 20.6697 54.1887 20.3906 53.9203 20.0156C53.6561 19.6406 53.524 19.1676 53.524 18.5966V8.82955ZM62.2875 21.2301C61.6653 21.2301 61.1007 21.1129 60.5936 20.8786C60.0865 20.6399 59.6838 20.2969 59.3855 19.8494C59.0872 19.3977 58.938 18.8523 58.938 18.2131C58.938 17.6506 59.0488 17.1946 59.2704 16.8452C59.492 16.4915 59.7882 16.2145 60.1589 16.0142C60.5297 15.8139 60.9387 15.6648 61.3862 15.5668C61.8379 15.4645 62.2917 15.3835 62.7477 15.3239C63.3443 15.2472 63.8279 15.1896 64.1987 15.1513C64.5737 15.1087 64.8464 15.0384 65.0169 14.9403C65.1916 14.8423 65.2789 14.6719 65.2789 14.429V14.3778C65.2789 13.7472 65.1064 13.2571 64.7612 12.9077C64.4203 12.5582 63.9025 12.3835 63.2079 12.3835C62.4877 12.3835 61.9231 12.5412 61.514 12.8565C61.1049 13.1719 60.8173 13.5085 60.6511 13.8665L59.2193 13.3551C59.475 12.7585 59.8159 12.294 60.242 11.9616C60.6724 11.625 61.1412 11.3906 61.6483 11.2585C62.1596 11.1222 62.6625 11.054 63.1568 11.054C63.4721 11.054 63.8343 11.0923 64.2434 11.169C64.6568 11.2415 65.0552 11.3928 65.4387 11.6229C65.8265 11.853 66.1483 12.2003 66.4039 12.6648C66.6596 13.1293 66.7875 13.7514 66.7875 14.5312V21H65.2789V19.6705H65.2022C65.1 19.8835 64.9295 20.1115 64.6909 20.3544C64.4522 20.5973 64.1348 20.804 63.7385 20.9744C63.3422 21.1449 62.8585 21.2301 62.2875 21.2301ZM62.5176 19.875C63.1142 19.875 63.617 19.7578 64.0261 19.5234C64.4395 19.2891 64.7505 18.9865 64.9593 18.6158C65.1724 18.245 65.2789 17.8551 65.2789 17.446V16.0653C65.215 16.142 65.0744 16.2124 64.8571 16.2763C64.644 16.3359 64.3968 16.3892 64.1156 16.4361C63.8386 16.4787 63.568 16.517 63.3038 16.5511C63.0439 16.581 62.8329 16.6065 62.671 16.6278C62.2789 16.679 61.9125 16.7621 61.5716 16.8771C61.2349 16.9879 60.9622 17.1562 60.7534 17.3821C60.5488 17.6037 60.4466 17.9062 60.4466 18.2898C60.4466 18.8139 60.6404 19.2102 61.0282 19.4787C61.4203 19.7429 61.9167 19.875 62.5176 19.875ZM69.5408 21V11.1818H70.9982V12.6648H71.1005C71.2795 12.179 71.6033 11.7848 72.0721 11.4822C72.5408 11.1797 73.0692 11.0284 73.6573 11.0284C73.7681 11.0284 73.9066 11.0305 74.0728 11.0348C74.239 11.0391 74.3647 11.0455 74.4499 11.054V12.5881C74.3988 12.5753 74.2816 12.5561 74.0984 12.5305C73.9194 12.5007 73.7298 12.4858 73.5295 12.4858C73.0522 12.4858 72.6261 12.5859 72.2511 12.7862C71.8803 12.9822 71.5863 13.255 71.369 13.6044C71.1559 13.9496 71.0494 14.3437 71.0494 14.7869V21H69.5408ZM81.1232 11.1818V12.4602H76.0352V11.1818H81.1232ZM77.5181 8.82955H79.0266V18.1875C79.0266 18.6136 79.0884 18.9332 79.212 19.1463C79.3398 19.3551 79.5018 19.4957 79.6978 19.5682C79.8981 19.6364 80.109 19.6705 80.3306 19.6705C80.4968 19.6705 80.6332 19.6619 80.7397 19.6449C80.8462 19.6236 80.9315 19.6065 80.9954 19.5938L81.3022 20.9489C81.1999 20.9872 81.0572 21.0256 80.8739 21.0639C80.6907 21.1065 80.4585 21.1278 80.1772 21.1278C79.7511 21.1278 79.3335 21.0362 78.9244 20.853C78.5195 20.6697 78.1829 20.3906 77.9144 20.0156C77.6502 19.6406 77.5181 19.1676 77.5181 18.5966V8.82955ZM90.1712 13.3807L88.8161 13.7642C88.7308 13.5384 88.6051 13.3189 88.4389 13.1058C88.277 12.8885 88.0554 12.7095 87.7741 12.5689C87.4929 12.4283 87.1328 12.358 86.6939 12.358C86.093 12.358 85.5923 12.4964 85.1918 12.7734C84.7955 13.0462 84.5973 13.3935 84.5973 13.8153C84.5973 14.1903 84.7337 14.4865 85.0064 14.7038C85.2791 14.9212 85.7053 15.1023 86.2848 15.2472L87.7422 15.6051C88.62 15.8182 89.2741 16.1442 89.7045 16.5831C90.1349 17.0178 90.3501 17.5781 90.3501 18.2642C90.3501 18.8267 90.1882 19.3295 89.8643 19.7727C89.5447 20.2159 89.0973 20.5653 88.522 20.821C87.9467 21.0767 87.2777 21.2045 86.5149 21.2045C85.5135 21.2045 84.6847 20.9872 84.0284 20.5526C83.3722 20.1179 82.9567 19.483 82.782 18.6477L84.2138 18.2898C84.3501 18.8182 84.608 19.2145 84.9872 19.4787C85.3707 19.7429 85.8714 19.875 86.4893 19.875C87.1925 19.875 87.7507 19.7259 88.1641 19.4276C88.5817 19.125 88.7905 18.7628 88.7905 18.3409C88.7905 18 88.6712 17.7145 88.4325 17.4844C88.1939 17.25 87.8274 17.0753 87.3331 16.9602L85.6967 16.5767C84.7976 16.3636 84.1371 16.0334 83.7152 15.5859C83.2976 15.1342 83.0888 14.5696 83.0888 13.892C83.0888 13.3381 83.2443 12.848 83.5554 12.4219C83.8707 11.9957 84.299 11.6612 84.8402 11.4183C85.3857 11.1754 86.0036 11.054 86.6939 11.054C87.6655 11.054 88.4283 11.267 88.9822 11.6932C89.5405 12.1193 89.9368 12.6818 90.1712 13.3807ZM102.056 11.1818V12.4602H96.763V11.1818H102.056ZM98.3482 21V9.8267C98.3482 9.2642 98.4803 8.79545 98.7445 8.42045C99.0087 8.04545 99.3517 7.7642 99.7736 7.5767C100.195 7.3892 100.641 7.29545 101.11 7.29545C101.48 7.29545 101.783 7.32528 102.017 7.38494C102.252 7.4446 102.426 7.5 102.541 7.55114L102.107 8.85511C102.03 8.82954 101.923 8.79758 101.787 8.75923C101.655 8.72088 101.48 8.7017 101.263 8.7017C100.764 8.7017 100.404 8.82741 100.183 9.07884C99.9654 9.33026 99.8567 9.69886 99.8567 10.1847V21H98.3482ZM104.17 21V11.1818H105.627V12.6648H105.729C105.908 12.179 106.232 11.7848 106.701 11.4822C107.17 11.1797 107.698 11.0284 108.286 11.0284C108.397 11.0284 108.536 11.0305 108.702 11.0348C108.868 11.0391 108.994 11.0455 109.079 11.054V12.5881C109.028 12.5753 108.911 12.5561 108.727 12.5305C108.548 12.5007 108.359 12.4858 108.158 12.4858C107.681 12.4858 107.255 12.5859 106.88 12.7862C106.509 12.9822 106.215 13.255 105.998 13.6044C105.785 13.9496 105.678 14.3437 105.678 14.7869V21H104.17ZM114.557 21.2045C113.67 21.2045 112.893 20.9936 112.224 20.5717C111.559 20.1499 111.039 19.5597 110.664 18.8011C110.293 18.0426 110.108 17.1562 110.108 16.142C110.108 15.1193 110.293 14.2266 110.664 13.4638C111.039 12.701 111.559 12.1087 112.224 11.6868C112.893 11.2649 113.67 11.054 114.557 11.054C115.443 11.054 116.219 11.2649 116.884 11.6868C117.553 12.1087 118.072 12.701 118.443 13.4638C118.818 14.2266 119.006 15.1193 119.006 16.142C119.006 17.1562 118.818 18.0426 118.443 18.8011C118.072 19.5597 117.553 20.1499 116.884 20.5717C116.219 20.9936 115.443 21.2045 114.557 21.2045ZM114.557 19.8494C115.23 19.8494 115.784 19.6768 116.219 19.3317C116.653 18.9865 116.975 18.5327 117.184 17.9702C117.393 17.4077 117.497 16.7983 117.497 16.142C117.497 15.4858 117.393 14.8743 117.184 14.3075C116.975 13.7408 116.653 13.2827 116.219 12.9332C115.784 12.5838 115.23 12.4091 114.557 12.4091C113.884 12.4091 113.33 12.5838 112.895 12.9332C112.46 13.2827 112.138 13.7408 111.93 14.3075C111.721 14.8743 111.616 15.4858 111.616 16.142C111.616 16.7983 111.721 17.4077 111.93 17.9702C112.138 18.5327 112.46 18.9865 112.895 19.3317C113.33 19.6768 113.884 19.8494 114.557 19.8494ZM121.308 21V11.1818H122.766V12.7159H122.894C123.098 12.1918 123.428 11.7848 123.884 11.495C124.34 11.201 124.888 11.054 125.527 11.054C126.175 11.054 126.714 11.201 127.144 11.495C127.579 11.7848 127.918 12.1918 128.161 12.7159H128.263C128.514 12.2088 128.892 11.8061 129.394 11.5078C129.897 11.2053 130.5 11.054 131.203 11.054C132.081 11.054 132.799 11.3288 133.357 11.8786C133.916 12.424 134.195 13.2741 134.195 14.429V21H132.686V14.429C132.686 13.7045 132.488 13.1868 132.092 12.8757C131.695 12.5646 131.229 12.4091 130.692 12.4091C130.002 12.4091 129.467 12.6179 129.088 13.0355C128.708 13.4489 128.519 13.973 128.519 14.608V21H126.985V14.2756C126.985 13.7173 126.803 13.2678 126.441 12.9268C126.079 12.5817 125.612 12.4091 125.041 12.4091C124.649 12.4091 124.283 12.5135 123.942 12.7223C123.605 12.9311 123.333 13.2209 123.124 13.5916C122.919 13.9581 122.817 14.3821 122.817 14.8636V21H121.308ZM151.54 21.179C150.636 21.179 149.831 21.0128 149.123 20.6804C148.42 20.348 147.862 19.8899 147.449 19.3061C147.035 18.7223 146.82 18.0533 146.803 17.299H149.488C149.518 17.8061 149.731 18.2173 150.127 18.5327C150.523 18.848 150.994 19.0057 151.54 19.0057C151.974 19.0057 152.358 18.9098 152.69 18.718C153.027 18.522 153.289 18.2514 153.476 17.9062C153.668 17.5568 153.764 17.1562 153.764 16.7045C153.764 16.2443 153.666 15.8395 153.47 15.4901C153.278 15.1406 153.012 14.8679 152.671 14.6719C152.33 14.4759 151.94 14.3757 151.501 14.3714C151.118 14.3714 150.745 14.4503 150.383 14.608C150.025 14.7656 149.746 14.9808 149.545 15.2536L147.084 14.8125L147.704 7.90909H155.707V10.1719H149.986L149.648 13.451H149.724C149.954 13.1271 150.302 12.8587 150.766 12.6456C151.231 12.4325 151.751 12.326 152.326 12.326C153.114 12.326 153.817 12.5114 154.435 12.8821C155.053 13.2528 155.541 13.7621 155.899 14.4098C156.257 15.0533 156.434 15.7947 156.43 16.6342C156.434 17.5163 156.229 18.3004 155.816 18.9865C155.407 19.6683 154.834 20.2053 154.096 20.5973C153.363 20.9851 152.511 21.179 151.54 21.179ZM163.493 21.2876C162.393 21.2834 161.447 21.0128 160.655 20.4759C159.866 19.9389 159.259 19.1612 158.833 18.1428C158.411 17.1243 158.202 15.8991 158.206 14.4673C158.206 13.0398 158.417 11.8232 158.839 10.8175C159.265 9.81179 159.873 9.04687 160.661 8.52273C161.454 7.99432 162.398 7.73011 163.493 7.73011C164.588 7.73011 165.53 7.99432 166.318 8.52273C167.111 9.05114 167.72 9.81818 168.146 10.8239C168.572 11.8253 168.783 13.0398 168.779 14.4673C168.779 15.9034 168.566 17.1307 168.14 18.1491C167.718 19.1676 167.113 19.9453 166.324 20.4822C165.536 21.0192 164.592 21.2876 163.493 21.2876ZM163.493 18.9929C164.243 18.9929 164.841 18.6158 165.289 17.8615C165.736 17.1072 165.958 15.9759 165.954 14.4673C165.954 13.4744 165.851 12.6477 165.647 11.9872C165.447 11.3267 165.161 10.8303 164.79 10.4979C164.424 10.1655 163.991 9.99929 163.493 9.99929C162.747 9.99929 162.15 10.3722 161.703 11.1179C161.256 11.8636 161.03 12.9801 161.025 14.4673C161.025 15.473 161.126 16.3125 161.326 16.9858C161.53 17.6548 161.818 18.1577 162.189 18.4943C162.559 18.8267 162.994 18.9929 163.493 18.9929Z" fill="white"/>
<path d="M178.094 14.6185H178.036V14.6175V14.5596V13.6905V13.6326H178.094H179.046V12.4834H178.094H178.036V12.4255V11.4975V11.4396H178.094H179.142C179.362 10.0857 179.943 9.01392 180.837 8.27864C181.742 7.53478 182.961 7.13964 184.435 7.13959C184.435 7.13959 184.435 7.13959 184.435 7.13959V7.19748C184.994 7.19181 185.552 7.257 186.094 7.39148L178.094 14.6185ZM178.094 14.6185V14.6754H179.106C179.283 16.1142 179.849 17.2557 180.75 18.0398C181.662 18.833 182.912 19.2554 184.434 19.2554C185.061 19.2554 185.61 19.1869 186.107 19.0688L186.151 19.0582V19.0125V17.7125V17.6386L186.079 17.6563C185.601 17.7738 185.045 17.8246 184.434 17.8246C183.395 17.8246 182.546 17.5285 181.917 16.9816C181.302 16.4465 180.893 15.667 180.727 14.6764M178.094 14.6185L180.727 14.6764M180.727 14.6764H184.676H184.734V14.6185V13.6905V13.6326H184.676H180.649" fill="white" stroke="white" stroke-width="0.115792"/>
<path d="M220.653 9.2839H222.34V16.8796H220.653V9.2839ZM218.965 1.68823H224.028V3.37616H218.965V1.68823Z" fill="white"/>
<path d="M231.624 7.59579L230.426 6.4058L228.527 8.30472C226.972 6.50963 224.786 5.38243 222.422 5.15733C220.058 4.93222 217.699 5.62651 215.833 7.09594C213.968 8.56538 212.741 10.697 212.406 13.0478C212.072 15.3987 212.656 17.7881 214.037 19.7196C215.418 21.651 217.49 22.9761 219.823 23.4194C222.156 23.8626 224.57 23.3901 226.564 22.0999C228.557 20.8098 229.977 18.8012 230.528 16.4914C231.079 14.1817 230.719 11.7485 229.523 9.69725L231.624 7.59579ZM221.497 21.9432C219.994 21.9432 218.526 21.4977 217.277 20.6631C216.028 19.8284 215.054 18.6422 214.479 17.2542C213.904 15.8663 213.754 14.3391 214.047 12.8657C214.34 11.3922 215.063 10.0388 216.126 8.97654C217.188 7.91427 218.541 7.19085 220.015 6.89777C221.488 6.60469 223.015 6.75511 224.403 7.33001C225.791 7.90491 226.977 8.87846 227.812 10.1276C228.647 11.3767 229.092 12.8452 229.092 14.3475C229.092 16.362 228.292 18.294 226.868 19.7184C225.443 21.1429 223.511 21.9432 221.497 21.9432Z" fill="white"/>
<path d="M256.753 10.1818V11.4602H251.46V10.1818H256.753ZM253.045 20V8.8267C253.045 8.2642 253.178 7.79545 253.442 7.42045C253.706 7.04545 254.049 6.7642 254.471 6.5767C254.893 6.3892 255.338 6.29545 255.807 6.29545C256.178 6.29545 256.48 6.32528 256.714 6.38494C256.949 6.4446 257.124 6.5 257.239 6.55114L256.804 7.85511C256.727 7.82954 256.621 7.79758 256.484 7.75923C256.352 7.72088 256.178 7.7017 255.96 7.7017C255.462 7.7017 255.102 7.82741 254.88 8.07884C254.663 8.33026 254.554 8.69886 254.554 9.18466V20H253.045ZM258.867 20V10.1818H260.324V11.6648H260.427C260.606 11.179 260.93 10.7848 261.398 10.4822C261.867 10.1797 262.395 10.0284 262.983 10.0284C263.094 10.0284 263.233 10.0305 263.399 10.0348C263.565 10.0391 263.691 10.0455 263.776 10.054V11.5881C263.725 11.5753 263.608 11.5561 263.425 11.5305C263.246 11.5007 263.056 11.4858 262.856 11.4858C262.378 11.4858 261.952 11.5859 261.577 11.7862C261.206 11.9822 260.912 12.255 260.695 12.6044C260.482 12.9496 260.376 13.3437 260.376 13.7869V20H258.867ZM269.254 20.2045C268.368 20.2045 267.59 19.9936 266.921 19.5717C266.256 19.1499 265.736 18.5597 265.361 17.8011C264.991 17.0426 264.805 16.1562 264.805 15.142C264.805 14.1193 264.991 13.2266 265.361 12.4638C265.736 11.701 266.256 11.1087 266.921 10.6868C267.59 10.2649 268.368 10.054 269.254 10.054C270.14 10.054 270.916 10.2649 271.581 10.6868C272.25 11.1087 272.77 11.701 273.14 12.4638C273.515 13.2266 273.703 14.1193 273.703 15.142C273.703 16.1562 273.515 17.0426 273.14 17.8011C272.77 18.5597 272.25 19.1499 271.581 19.5717C270.916 19.9936 270.14 20.2045 269.254 20.2045ZM269.254 18.8494C269.927 18.8494 270.481 18.6768 270.916 18.3317C271.351 17.9865 271.672 17.5327 271.881 16.9702C272.09 16.4077 272.194 15.7983 272.194 15.142C272.194 14.4858 272.09 13.8743 271.881 13.3075C271.672 12.7408 271.351 12.2827 270.916 11.9332C270.481 11.5838 269.927 11.4091 269.254 11.4091C268.581 11.4091 268.027 11.5838 267.592 11.9332C267.157 12.2827 266.836 12.7408 266.627 13.3075C266.418 13.8743 266.314 14.4858 266.314 15.142C266.314 15.7983 266.418 16.4077 266.627 16.9702C266.836 17.5327 267.157 17.9865 267.592 18.3317C268.027 18.6768 268.581 18.8494 269.254 18.8494ZM276.006 20V10.1818H277.463V11.7159H277.591C277.795 11.1918 278.126 10.7848 278.582 10.495C279.038 10.201 279.585 10.054 280.224 10.054C280.872 10.054 281.411 10.201 281.842 10.495C282.276 10.7848 282.615 11.1918 282.858 11.7159H282.96C283.212 11.2088 283.589 10.8061 284.092 10.5078C284.594 10.2053 285.197 10.054 285.901 10.054C286.778 10.054 287.496 10.3288 288.055 10.8786C288.613 11.424 288.892 12.2741 288.892 13.429V20H287.384V13.429C287.384 12.7045 287.185 12.1868 286.789 11.8757C286.393 11.5646 285.926 11.4091 285.389 11.4091C284.699 11.4091 284.164 11.6179 283.785 12.0355C283.406 12.4489 283.216 12.973 283.216 13.608V20H281.682V13.2756C281.682 12.7173 281.501 12.2678 281.138 11.9268C280.776 11.5817 280.31 11.4091 279.739 11.4091C279.347 11.4091 278.98 11.5135 278.639 11.7223C278.303 11.9311 278.03 12.2209 277.821 12.5916C277.616 12.9581 277.514 13.3821 277.514 13.8636V20H276.006ZM296.393 20V18.0057L301.053 13.6911C301.449 13.3075 301.782 12.9624 302.05 12.6555C302.323 12.3487 302.529 12.0483 302.67 11.7543C302.811 11.456 302.881 11.1342 302.881 10.7891C302.881 10.4055 302.794 10.0753 302.619 9.7983C302.444 9.51705 302.206 9.30185 301.903 9.1527C301.6 8.99929 301.257 8.92259 300.874 8.92259C300.473 8.92259 300.124 9.00355 299.826 9.16548C299.527 9.32741 299.297 9.55966 299.135 9.86222C298.973 10.1648 298.892 10.5249 298.892 10.9425H296.265C296.265 10.0859 296.459 9.34233 296.847 8.71165C297.235 8.08097 297.778 7.59304 298.477 7.24787C299.176 6.9027 299.981 6.73011 300.893 6.73011C301.831 6.73011 302.647 6.89631 303.341 7.22869C304.04 7.55682 304.583 8.01278 304.971 8.59659C305.359 9.1804 305.553 9.84943 305.553 10.6037C305.553 11.098 305.455 11.5859 305.259 12.0675C305.067 12.549 304.724 13.0838 304.23 13.6719C303.735 14.2557 303.039 14.9567 302.14 15.7749L300.228 17.6477V17.7372H305.725V20H296.393ZM316.487 10.1818V11.4602H311.398V10.1818H316.487ZM312.881 7.82955H314.39V17.1875C314.39 17.6136 314.452 17.9332 314.575 18.1463C314.703 18.3551 314.865 18.4957 315.061 18.5682C315.261 18.6364 315.472 18.6705 315.694 18.6705C315.86 18.6705 315.996 18.6619 316.103 18.6449C316.21 18.6236 316.295 18.6065 316.359 18.5938L316.665 19.9489C316.563 19.9872 316.42 20.0256 316.237 20.0639C316.054 20.1065 315.822 20.1278 315.54 20.1278C315.114 20.1278 314.697 20.0362 314.288 19.853C313.883 19.6697 313.546 19.3906 313.278 19.0156C313.013 18.6406 312.881 18.1676 312.881 17.5966V7.82955ZM322.639 20.2045C321.752 20.2045 320.975 19.9936 320.306 19.5717C319.641 19.1499 319.121 18.5597 318.746 17.8011C318.375 17.0426 318.19 16.1562 318.19 15.142C318.19 14.1193 318.375 13.2266 318.746 12.4638C319.121 11.701 319.641 11.1087 320.306 10.6868C320.975 10.2649 321.752 10.054 322.639 10.054C323.525 10.054 324.301 10.2649 324.966 10.6868C325.635 11.1087 326.154 11.701 326.525 12.4638C326.9 13.2266 327.088 14.1193 327.088 15.142C327.088 16.1562 326.9 17.0426 326.525 17.8011C326.154 18.5597 325.635 19.1499 324.966 19.5717C324.301 19.9936 323.525 20.2045 322.639 20.2045ZM322.639 18.8494C323.312 18.8494 323.866 18.6768 324.301 18.3317C324.735 17.9865 325.057 17.5327 325.266 16.9702C325.475 16.4077 325.579 15.7983 325.579 15.142C325.579 14.4858 325.475 13.8743 325.266 13.3075C325.057 12.7408 324.735 12.2827 324.301 11.9332C323.866 11.5838 323.312 11.4091 322.639 11.4091C321.966 11.4091 321.412 11.5838 320.977 11.9332C320.542 12.2827 320.221 12.7408 320.012 13.3075C319.803 13.8743 319.699 14.4858 319.699 15.142C319.699 15.7983 319.803 16.4077 320.012 16.9702C320.221 17.5327 320.542 17.9865 320.977 18.3317C321.412 18.6768 321.966 18.8494 322.639 18.8494ZM333.039 17.6989V15.5192L338.504 6.90909H340.383V9.92614H339.271L335.826 15.3786V15.4808H343.592V17.6989H333.039ZM339.322 20V17.0341L339.373 16.0689V6.90909H341.968V20H339.322ZM353.246 20.1598C352.5 20.1598 351.824 19.968 351.219 19.5845C350.618 19.1967 350.141 18.6278 349.787 17.8778C349.438 17.1236 349.263 16.1989 349.263 15.1037C349.263 13.9787 349.444 13.0433 349.807 12.2976C350.169 11.5476 350.65 10.9872 351.251 10.6165C351.856 10.2415 352.519 10.054 353.239 10.054C353.789 10.054 354.247 10.1477 354.613 10.3352C354.984 10.5185 355.282 10.7486 355.508 11.0256C355.738 11.2983 355.913 11.5668 356.032 11.831H356.116V6.90909H358.832V20H356.148V18.4276H356.032C355.905 18.7003 355.724 18.9709 355.489 19.2393C355.259 19.5036 354.959 19.723 354.588 19.8977C354.221 20.0724 353.774 20.1598 353.246 20.1598ZM354.108 17.9929C354.547 17.9929 354.918 17.8736 355.221 17.6349C355.528 17.392 355.762 17.0533 355.924 16.6186C356.09 16.1839 356.173 15.6747 356.173 15.0909C356.173 14.5071 356.092 14 355.93 13.5696C355.768 13.1392 355.534 12.8068 355.227 12.5724C354.92 12.3381 354.547 12.2209 354.108 12.2209C353.661 12.2209 353.284 12.3423 352.977 12.5852C352.67 12.8281 352.438 13.1648 352.28 13.5952C352.123 14.0256 352.044 14.5241 352.044 15.0909C352.044 15.6619 352.123 16.1669 352.28 16.6058C352.442 17.0405 352.675 17.3814 352.977 17.6286C353.284 17.8714 353.661 17.9929 354.108 17.9929ZM363.871 20.1854C363.244 20.1854 362.686 20.0767 362.196 19.8594C361.706 19.6378 361.318 19.3118 361.033 18.8814C360.751 18.4467 360.611 17.9055 360.611 17.2578C360.611 16.7124 360.711 16.2543 360.911 15.8835C361.112 15.5128 361.384 15.2145 361.729 14.9886C362.075 14.7628 362.467 14.5923 362.906 14.4773C363.349 14.3622 363.813 14.2812 364.299 14.2344C364.87 14.1747 365.33 14.1193 365.68 14.0682C366.029 14.0128 366.283 13.9318 366.44 13.8253C366.598 13.7187 366.677 13.5611 366.677 13.3523V13.3139C366.677 12.9091 366.549 12.5959 366.293 12.3743C366.042 12.1527 365.684 12.0419 365.219 12.0419C364.729 12.0419 364.339 12.1506 364.05 12.3679C363.76 12.581 363.568 12.8494 363.474 13.1733L360.956 12.9688C361.084 12.3722 361.335 11.8565 361.71 11.4219C362.085 10.983 362.569 10.6463 363.161 10.4119C363.758 10.1733 364.448 10.054 365.232 10.054C365.778 10.054 366.3 10.1179 366.798 10.2457C367.301 10.3736 367.746 10.5717 368.134 10.8402C368.526 11.1087 368.835 11.4538 369.061 11.8757C369.287 12.2933 369.4 12.794 369.4 13.3778V20H366.817V18.6385H366.741C366.583 18.9453 366.372 19.2159 366.108 19.4503C365.844 19.6804 365.526 19.8615 365.156 19.9936C364.785 20.1214 364.357 20.1854 363.871 20.1854ZM364.651 18.3061C365.051 18.3061 365.405 18.2273 365.712 18.0696C366.018 17.9077 366.259 17.6903 366.434 17.4176C366.609 17.1449 366.696 16.8359 366.696 16.4908V15.4489C366.611 15.5043 366.494 15.5554 366.344 15.6023C366.2 15.6449 366.036 15.6854 365.852 15.7237C365.669 15.7578 365.486 15.7898 365.303 15.8196C365.119 15.8452 364.953 15.8686 364.804 15.8899C364.484 15.9368 364.205 16.0114 363.967 16.1136C363.728 16.2159 363.543 16.3544 363.411 16.5291C363.278 16.6996 363.212 16.9126 363.212 17.1683C363.212 17.5391 363.347 17.8224 363.615 18.0185C363.888 18.2102 364.233 18.3061 364.651 18.3061ZM372.842 23.6818C372.497 23.6818 372.173 23.6541 371.87 23.5987C371.572 23.5476 371.325 23.4815 371.129 23.4006L371.743 21.3679C372.062 21.4659 372.35 21.5192 372.605 21.5277C372.865 21.5362 373.089 21.4766 373.277 21.3487C373.468 21.2209 373.624 21.0036 373.743 20.6967L373.903 20.2812L370.381 10.1818H373.245L375.277 17.392H375.38L377.431 10.1818H380.314L376.498 21.0611C376.315 21.5895 376.066 22.0497 375.75 22.4418C375.439 22.8381 375.045 23.1428 374.568 23.3558C374.091 23.5732 373.515 23.6818 372.842 23.6818ZM389.877 12.9815L387.384 13.1349C387.341 12.9219 387.25 12.7301 387.109 12.5597C386.968 12.3849 386.783 12.2464 386.553 12.1442C386.327 12.0376 386.056 11.9844 385.741 11.9844C385.319 11.9844 384.963 12.0739 384.674 12.2528C384.384 12.4276 384.239 12.6619 384.239 12.956C384.239 13.1903 384.333 13.3885 384.52 13.5504C384.708 13.7124 385.029 13.8423 385.485 13.9403L387.262 14.2983C388.217 14.4943 388.929 14.8097 389.397 15.2443C389.866 15.679 390.1 16.25 390.1 16.9574C390.1 17.6009 389.911 18.1655 389.532 18.6513C389.157 19.1371 388.641 19.5163 387.985 19.7891C387.333 20.0575 386.581 20.1918 385.728 20.1918C384.429 20.1918 383.393 19.9212 382.622 19.38C381.855 18.8345 381.405 18.093 381.273 17.1555L383.951 17.0149C384.032 17.4112 384.228 17.7138 384.539 17.9226C384.85 18.1271 385.249 18.2294 385.735 18.2294C386.212 18.2294 386.596 18.1378 386.885 17.9545C387.179 17.767 387.328 17.5263 387.333 17.2322C387.328 16.9851 387.224 16.7827 387.02 16.625C386.815 16.4631 386.5 16.3395 386.074 16.2543L384.373 15.9155C383.414 15.7237 382.701 15.3913 382.232 14.9183C381.767 14.4453 381.535 13.8423 381.535 13.1094C381.535 12.4787 381.706 11.9354 382.047 11.4794C382.392 11.0234 382.875 10.6719 383.498 10.4247C384.124 10.1776 384.857 10.054 385.696 10.054C386.936 10.054 387.912 10.3161 388.624 10.8402C389.34 11.3643 389.757 12.0781 389.877 12.9815Z" fill="white"/>
</svg>
